<svg width="53" height="84" viewBox="0 0 53 84" fill="none" xmlns="http://www.w3.org/2000/svg">
<g clip-path="url(#clip0_3242_67331)">
<path d="M23.2954 0.11607C35.5808 -1.03053 48.3347 6.40623 51.8396 18.5083C56.7322 35.3996 44.7537 39.0345 41.9387 53.1909C41.3954 55.9244 42.5323 59.3498 39.5161 60.8628L12.7621 60.6527C10.6104 58.9934 11.4671 55.9631 10.9712 53.6111C8.18137 40.3646 -2.24917 36.3311 0.438592 21.0302C2.33584 10.2311 12.3474 1.1379 23.2954 0.11607Z" fill="#9ADCF5"/>
<path d="M14.2344 77.0469L38.7764 77.3624C35.983 83.9193 29.0085 84.4593 22.6613 83.773C18.9401 83.3707 14.9487 80.9327 14.2351 77.0469H14.2344Z" fill="#00AEEF"/>
<path d="M14.027 63.5939C15.7273 63.2483 37.2697 63.2411 38.8845 63.5939C41.4149 64.1461 41.0512 67.3865 38.8845 68.2183H14.027C11.6417 67.5257 11.5181 64.1045 14.027 63.5939Z" fill="#00AEEF"/>
<path d="M14.0258 70.3205C15.7268 69.9749 37.2685 69.9677 38.8833 70.3205C41.4137 70.8727 41.05 74.1131 38.8833 74.9449H14.0258C11.6585 74.2085 11.5335 70.8275 14.0258 70.3205Z" fill="#00AEEF"/>
<path d="M21.3991 8.65234C15.5148 10.5841 11.1662 14.3215 8.92188 20.1578" stroke="white" stroke-width="3" stroke-linecap="round" stroke-linejoin="round"/>
</g>
<defs>
<clipPath id="clip0_3242_67331">
<rect width="53" height="84" fill="white"/>
</clipPath>
</defs>
</svg>
