<svg width="22" height="23" viewBox="0 0 22 23" fill="none" xmlns="http://www.w3.org/2000/svg">
<path d="M4.75 9.32693V7.1827C4.75 3.62327 5.75 0.75 10.75 0.75C15.75 0.75 16.75 3.62327 16.75 7.1827V9.32693" stroke="#24408F" stroke-width="1.5" stroke-linecap="round" stroke-linejoin="round"/>
<path d="M10.7468 17.0477C11.4096 17.0477 11.9468 16.4717 11.9468 15.7612C11.9468 15.0506 11.4096 14.4746 10.7468 14.4746C10.0841 14.4746 9.54688 15.0506 9.54688 15.7612C9.54688 16.4717 10.0841 17.0477 10.7468 17.0477Z" stroke="#24408F" stroke-width="1.5" stroke-linecap="round" stroke-linejoin="round"/>
<path d="M15.75 22.1955H5.75C1.75 22.1955 0.75 21.1234 0.75 16.8349V14.6907C0.75 10.4022 1.75 9.33008 5.75 9.33008H15.75C19.75 9.33008 20.75 10.4022 20.75 14.6907V16.8349C20.75 21.1234 19.75 22.1955 15.75 22.1955Z" stroke="#24408F" stroke-width="1.5" stroke-linecap="round" stroke-linejoin="round"/>
</svg>
