<svg width="108" height="116" viewBox="0 0 108 116" fill="none" xmlns="http://www.w3.org/2000/svg">
<path d="M14.9883 54.9119V96.0881C14.9883 98.2544 16.7355 100 18.9039 100H89.0727C91.2411 100 92.9883 98.2544 92.9883 96.0881V54.9119C92.9883 52.7455 91.2411 51 89.0727 51H18.9039C16.7355 51 14.9883 52.7455 14.9883 54.9119ZM58.3563 73.9415C53.9375 73.9476 58.3563 85.2564 58.3563 85.2564C58.3563 87.485 56.7495 89.48 54.5343 89.7449C51.8823 90.0722 49.6203 87.9994 49.6203 85.4122V73.9415C48.3099 72.7726 47.4831 71.0738 47.4675 69.188C47.4207 65.6813 50.2911 62.6889 53.8011 62.5798C57.4983 62.4707 60.5247 65.4319 60.5247 69.1101C60.5247 71.027 59.6979 72.757 58.3719 73.9415C58.3719 73.9415 58.3624 73.9415 58.3563 73.9415Z" fill="#9ADCF5"/>
<path d="M80.9883 51H73.9061V43.8323C73.9061 32.4399 64.7447 23.1677 53.4883 23.1677C42.2319 23.1677 33.0704 32.4399 33.0704 43.8323V51H25.9883V43.8323C26.0039 28.4842 38.3391 16 53.4883 16C68.6375 16 80.9883 28.4842 80.9883 43.8323V51Z" fill="#00AEEF"/>
</svg>
