<svg width="86" height="86" viewBox="0 0 86 86" fill="none" xmlns="http://www.w3.org/2000/svg">
<g clip-path="url(#clip0_3242_67327)">
<path d="M58.0088 49.9648C55.6623 52.8004 53.0893 55.4437 50.3164 57.8649L54.4113 62.6979C57.5106 60.1403 60.3064 57.2349 62.7467 54.0424L58.0088 49.9648Z" fill="#00AEEF"/>
<path d="M54.6313 11.4245C49.4383 5.00175 42.0756 1.00172 33.8989 0.16179C17.0093 -1.57394 1.88456 10.8555 0.162414 27.8687C-0.672035 36.1106 1.7281 44.1857 6.92043 50.6085C12.1128 57.0305 19.4755 61.0302 27.6525 61.8701C28.7171 61.9796 29.7784 62.0344 30.8339 62.0344C37.8873 62.0344 44.6716 59.6113 50.214 55.0595C56.5865 49.8266 60.5549 42.4051 61.3883 34.1639C62.2234 25.922 59.8229 17.8462 54.631 11.4242L54.6313 11.4245ZM54.217 33.4265C52.8964 46.475 41.3305 55.9737 28.3841 54.6423C15.4378 53.3113 6.0134 41.6542 7.334 28.6057C8.65497 15.5573 20.2209 6.05855 33.1673 7.38993C46.1136 8.72095 55.538 20.3781 54.217 33.4265Z" fill="#9ADCF5"/>
<path d="M83.1606 71.6136L64.3928 55.4609C61.8764 58.7387 59.0014 61.7253 55.8164 64.3583L71.7333 83.1447C72.0145 83.4715 72.3325 83.7916 72.6283 84.0456C74.1528 85.3586 76.0252 86.0001 77.8888 86.0001C80.1806 86.0001 82.46 85.0282 84.0618 83.1373C86.9664 79.71 86.5619 74.541 83.1606 71.6136ZM77.504 80.6264C75.8497 80.6264 74.5032 79.2696 74.5032 77.6012C74.5032 75.9327 75.8494 74.5771 77.504 74.5771C79.1587 74.5771 80.5045 75.9338 80.5045 77.6012C80.5045 79.2685 79.158 80.6264 77.504 80.6264Z" fill="#9ADCF5"/>
</g>
<defs>
<clipPath id="clip0_3242_67327">
<rect width="86" height="86" fill="white"/>
</clipPath>
</defs>
</svg>
