<svg width="100" height="100" viewBox="0 0 100 100" fill="none" xmlns="http://www.w3.org/2000/svg">
<g clip-path="url(#clip0_3046_26792)">
<path d="M67.5707 41.1219C72.425 41.1219 76.3602 37.1867 76.3602 32.3324C76.3602 27.4781 72.425 23.543 67.5707 23.543C62.7164 23.543 58.7812 27.4781 58.7812 32.3324C58.7812 37.1867 62.7164 41.1219 67.5707 41.1219Z" fill="#00AEEF"/>
<path d="M77.8266 63.5656C77.3576 63.8002 76.9475 64.7135 76.4791 65.065C71.2053 69.3424 64.2322 69.3424 58.9002 65.065C56.2234 62.8941 53.109 61.5994 49.9934 61.6322C46.9705 61.6641 43.9471 62.9586 41.3213 65.065C36.0475 69.3424 29.0744 69.3424 23.7424 65.065C22.5705 64.0691 21.2811 62.8043 19.9922 62.3352L39.9731 42.3539L28.2539 30.6348C25.9689 28.3498 25.9689 24.5996 28.2539 22.3143L45.8328 4.73535C48.118 2.4502 51.8684 2.4502 54.1537 4.73535C56.4387 7.02051 56.4387 10.7709 54.1537 13.0559L40.6764 26.4746L77.8266 63.5656Z" fill="#00AEEF"/>
<path d="M99.7033 70.48C99.0001 71.9449 97.2423 72.5306 95.7775 71.8275C94.6056 71.2999 93.4921 70.5382 92.4374 69.7181C88.2183 66.3193 82.5736 66.3193 78.3548 69.7181C75.1904 72.2378 71.4402 73.5267 67.6904 73.5267C63.9988 73.5267 60.2484 72.2378 57.0845 69.7181C54.9165 68.0187 52.4552 67.1398 49.9943 67.1398C47.6501 67.1398 45.248 68.0185 43.1974 69.7181C36.8103 74.816 28.3138 74.816 21.9271 69.7181C17.708 66.3193 12.0632 66.3193 7.84448 69.7181C6.6726 70.6554 5.44174 71.4171 4.15288 72.0031C2.68803 72.7066 0.929829 72.0617 0.285298 70.5968C-0.417827 69.132 0.226704 67.374 1.69155 66.671C2.57065 66.2609 3.39096 65.7919 4.15288 65.1476C10.5396 60.0498 19.2314 60.0498 25.6187 65.1476C29.8374 68.5464 35.2869 68.5464 39.506 65.1476C42.6701 62.5693 46.3615 61.339 49.9945 61.339C53.8035 61.2804 57.5533 62.5693 60.7763 65.1476C64.9951 68.5464 70.4445 68.5464 74.6636 65.1476C81.0503 60.0498 89.7421 60.0498 96.1292 65.1476C96.8324 65.7337 97.5941 66.2023 98.3554 66.5539C99.8203 67.3158 100.406 69.0734 99.7033 70.48Z" fill="url(#paint0_linear_3046_26792)"/>
<path d="M99.7033 82.1988C99.0001 83.6636 97.2423 84.2494 95.7775 83.5462C94.6056 83.0187 93.4921 82.257 92.4374 81.4369C88.2183 78.038 82.5736 78.038 78.3548 81.4369C75.1904 83.9566 71.4402 85.2455 67.6904 85.2455C63.9988 85.2455 60.2484 83.9566 57.0845 81.4369C54.9165 79.7375 52.4552 78.8585 49.9943 78.8585C47.6501 78.8585 45.248 79.7373 43.1974 81.4369C36.8103 86.5347 28.3138 86.5347 21.9271 81.4369C17.708 78.038 12.0632 78.038 7.84448 81.4369C6.6726 82.3742 5.44174 83.1359 4.15288 83.7218C2.68803 84.4253 0.929829 83.7804 0.285298 82.3156C-0.417827 80.8507 0.226704 79.0927 1.69155 78.3898C2.57065 77.9796 3.39096 77.5107 4.15288 76.8664C10.5396 71.7685 19.2314 71.7685 25.6187 76.8664C29.8374 80.2652 35.2869 80.2652 39.506 76.8664C42.6701 74.288 46.3615 73.0578 49.9945 73.0578C53.8035 72.9992 57.5533 74.288 60.7763 76.8664C64.9951 80.2652 70.4445 80.2652 74.6636 76.8664C81.0503 71.7685 89.7421 71.7685 96.1292 76.8664C96.8324 77.4525 97.5941 77.921 98.3554 78.2726C99.8203 79.0343 100.406 80.7919 99.7033 82.1988Z" fill="url(#paint1_linear_3046_26792)"/>
<path d="M99.7033 93.9195C99.0001 95.3843 97.2423 95.9701 95.7775 95.2669C94.6056 94.7394 93.4921 93.9777 92.4374 93.1576C88.2183 89.7587 82.5736 89.7587 78.3548 93.1576C75.1904 95.6773 71.4402 96.9662 67.6904 96.9662C63.9988 96.9662 60.2484 95.6773 57.0845 93.1576C54.9165 91.4582 52.4552 90.5792 49.9943 90.5792C47.6501 90.5792 45.248 91.458 43.1974 93.1576C36.8103 98.2554 28.3138 98.2554 21.9271 93.1576C17.708 89.7587 12.0632 89.7587 7.84448 93.1576C6.6726 94.0949 5.44174 94.8566 4.15288 95.4425C2.68803 96.146 0.929829 95.5011 0.285298 94.0363C-0.417827 92.5714 0.226704 90.8134 1.69155 90.1105C2.57065 89.7003 3.39096 89.2314 4.15288 88.5871C10.5396 83.4892 19.2314 83.4892 25.6187 88.5871C29.8374 91.9859 35.2869 91.9859 39.506 88.5871C42.6701 86.0087 46.3615 84.7785 49.9945 84.7785C53.8035 84.7199 57.5533 86.0087 60.7763 88.5871C64.9951 91.9859 70.4445 91.9859 74.6636 88.5871C81.0503 83.4892 89.7421 83.4892 96.1292 88.5871C96.8324 89.1732 97.5941 89.6417 98.3554 89.9933C99.8203 90.7552 100.406 92.5128 99.7033 93.9195Z" fill="url(#paint2_linear_3046_26792)"/>
<path d="M8.82259 17.6452C13.6952 17.6452 17.6452 13.6952 17.6452 8.82259C17.6452 3.95001 13.6952 0 8.82259 0C3.95001 0 0 3.95001 0 8.82259C0 13.6952 3.95001 17.6452 8.82259 17.6452Z" fill="#FFD341"/>
</g>
<defs>
<linearGradient id="paint0_linear_3046_26792" x1="0" y1="67.4329" x2="99.9998" y2="67.4329" gradientUnits="userSpaceOnUse">
<stop stop-color="#BBEDFF"/>
<stop offset="1" stop-color="#1AC1FF"/>
</linearGradient>
<linearGradient id="paint1_linear_3046_26792" x1="0" y1="79.1516" x2="99.9998" y2="79.1516" gradientUnits="userSpaceOnUse">
<stop stop-color="#BBEDFF"/>
<stop offset="1" stop-color="#1AC1FF"/>
</linearGradient>
<linearGradient id="paint2_linear_3046_26792" x1="0" y1="90.8723" x2="99.9998" y2="90.8723" gradientUnits="userSpaceOnUse">
<stop stop-color="#BBEDFF"/>
<stop offset="1" stop-color="#1AC1FF"/>
</linearGradient>
<clipPath id="clip0_3046_26792">
<rect width="100" height="100" fill="white"/>
</clipPath>
</defs>
</svg>
