<svg width="72" height="65" viewBox="0 0 72 65" fill="none" xmlns="http://www.w3.org/2000/svg">
<path d="M66.2477 16.2936L72.0005 6.84378V0C67.5012 0 67.5012 2.73759 63.0019 2.73759C58.5025 2.73759 58.5025 0 54.0032 0C49.504 0 49.504 2.73759 45.0049 2.73759C40.5059 2.73759 40.5059 0 36.007 0C31.5082 0 31.5082 2.73759 27.0094 2.73759C22.5105 2.73759 22.5105 0 18.0114 0C13.5124 0 13.5124 2.73759 9.01332 2.73759C4.51454 2.73759 4.51454 0 0.015625 0V6.84378L11.3077 16.2936H66.2477Z" fill="url(#paint0_linear_3046_26835)"/>
<path d="M72.0005 54.3244V6.8418C67.5012 6.8418 67.5012 9.57938 63.0019 9.57938C58.5025 9.57938 58.5025 6.8418 54.0032 6.8418C49.504 6.8418 49.504 9.57938 45.0049 9.57938C40.5059 9.57938 40.5059 6.8418 36.007 6.8418C31.5082 6.8418 31.5082 9.57938 27.0094 9.57938C22.5105 9.57938 22.5105 6.8418 18.0114 6.8418C13.5124 6.8418 13.5124 9.57938 9.01332 9.57938C4.51454 9.57938 4.51454 6.8418 0.015625 6.8418V54.3242L72.0005 54.3244Z" fill="#EDF9FF"/>
<path d="M71.9854 56.5547C67.486 56.5547 67.4856 59.292 62.9863 59.292C58.487 59.292 58.4866 56.5547 53.9873 56.5547C49.4885 56.5548 49.4884 59.292 44.9893 59.292C40.4902 59.292 40.4901 56.5547 35.9912 56.5547C31.4927 56.5547 31.4925 59.2918 26.9941 59.292C22.4953 59.292 22.4949 56.5548 17.9961 56.5547C13.4972 56.5547 13.4967 59.2918 8.99805 59.292C4.49927 59.292 4.49892 56.5547 0 56.5547V49.7109C4.49892 49.7109 4.49927 52.4482 8.99805 52.4482C13.4967 52.4481 13.4972 49.7109 17.9961 49.7109C22.4949 49.7111 22.4953 52.4482 26.9941 52.4482C31.4925 52.4481 31.4927 49.711 35.9912 49.7109C40.4901 49.7109 40.4902 52.4482 44.9893 52.4482C49.4884 52.4482 49.4885 49.711 53.9873 49.7109C58.4866 49.7109 58.487 52.4482 62.9863 52.4482C67.4856 52.4482 67.486 49.7109 71.9854 49.7109V56.5547Z" fill="url(#paint1_linear_3046_26835)"/>
<path d="M56.8717 38.6454C55.9238 37.9183 54.8668 37.6338 53.7361 37.5495C52.3403 37.4456 51.1566 38.0817 50.9608 38.2821C46.8018 28.2924 41.6354 23.6139 37.5794 21.7576C35.3177 20.4171 39.1583 18.6368 36.7707 18.542C34.3831 18.4476 34.0364 20.67 33.1121 20.9065C26.5654 21.1901 20.5069 24.935 18.4011 28.4723C17.0019 30.8227 17.6789 32.5673 16.8061 33.0715C14.2899 34.8368 15.1372 35.7829 15.1372 35.7829C15.7242 36.8516 17.9391 35.4706 19.4409 34.6668C20.9428 33.863 25.6123 32.2586 25.9493 33.2009C27.6822 37.9295 31.032 37.3112 30.4405 36.6323C30.1336 36.28 29.4685 34.8734 29.2136 33.7208C28.7892 31.8013 30.7667 31.8391 31.2602 31.8385C40.5399 31.8308 48.8716 39.1706 49.7663 39.984C49.7661 39.9842 49.7655 39.9851 49.7655 39.9851C49.4528 40.5982 48.6078 43.9996 50.7816 47.218C50.835 47.297 50.9125 47.3391 50.9915 47.3391C51.0372 47.3391 51.0834 47.3249 51.1257 47.2956C51.2406 47.2159 51.2927 47.0464 51.2491 46.8932C51.2139 46.7688 50.4066 43.8192 52.2436 41.232V41.2319C53.5129 39.4551 55.116 39.1898 55.9587 39.1898C56.3909 39.1898 56.6695 39.2577 56.6719 39.2582C56.8009 39.2907 56.9311 39.205 56.9803 39.0543C57.0296 38.9036 56.9838 38.7314 56.8717 38.6454Z" fill="#00AEEF"/>
<defs>
<linearGradient id="paint0_linear_3046_26835" x1="0.015625" y1="8.14679" x2="72.0005" y2="8.14679" gradientUnits="userSpaceOnUse">
<stop stop-color="#BBEDFF"/>
<stop offset="1" stop-color="#1AC1FF"/>
</linearGradient>
<linearGradient id="paint1_linear_3046_26835" x1="0" y1="54.5015" x2="71.9854" y2="54.5015" gradientUnits="userSpaceOnUse">
<stop stop-color="#BBEDFF"/>
<stop offset="1" stop-color="#1AC1FF"/>
</linearGradient>
</defs>
</svg>
