<svg width="100" height="100" viewBox="0 0 100 100" fill="none" xmlns="http://www.w3.org/2000/svg">
<g clip-path="url(#clip0_3046_26770)">
<path d="M38.4872 52.9236C44.3845 53.6519 49.8834 55.5314 54.9815 57.8868C57.4543 59.0423 60.1019 60.5565 62.1761 61.7386C64.2526 62.9628 66.3622 64.0674 68.494 65.1433L55.5704 39.5572L52.8409 34.7579L43.1957 17.8606C41.8343 15.4765 38.8037 14.6463 36.4174 16.0033C34.0243 17.3714 33.2008 20.402 34.5645 22.7861L45.2301 41.4876L42.5006 43.9094L26.1966 53.207L25.8203 53.4173C30.0197 52.534 34.3564 52.4034 38.4872 52.9236Z" fill="#00AEEF"/>
<path d="M78.9631 51.8829C84.1122 48.9453 85.9031 42.3838 82.9721 37.2392C80.0367 32.1034 73.4819 30.3036 68.3351 33.2412C63.1948 36.1788 61.384 42.7425 64.3238 47.876C67.2548 53.0318 73.8273 54.8205 78.9631 51.8829Z" fill="#00AEEF"/>
<path d="M99.2916 59.9012C97.7686 64.9551 95.3645 69.6481 91.9399 72.0721C88.6082 74.4984 84.8073 74.6489 80.6256 73.8077C76.4528 72.9311 72.1249 71.1468 67.8879 69.0106C65.7428 67.9281 63.6331 66.8212 61.5523 65.5904C59.478 64.4083 56.8238 62.8963 54.3511 61.7408C49.2573 59.3876 43.754 57.5037 37.8523 56.7754C31.997 56.0404 25.6968 56.5252 20.0097 58.7832C14.3094 61.0036 9.47911 64.9019 6.13641 69.4887C2.84905 74.1287 0.571138 79.2689 0 84.6482C6.39099 76.1874 14.5419 70.1197 23.0027 68.6984C31.4369 67.1511 40.2165 69.6924 48.7304 73.697C50.9486 74.7042 52.8169 75.7203 55.2609 77.0309C57.7203 78.2683 60.2329 79.4748 62.8185 80.482C68.0119 82.4832 73.5971 84.1258 79.749 84.1679C82.8061 84.1767 86.0492 83.7517 89.1108 82.4832C92.1945 81.2435 94.9527 79.0564 96.7458 76.4376C100.252 71.0538 100.615 65.0768 99.2916 59.9012Z" fill="url(#paint0_linear_3046_26770)"/>
</g>
<defs>
<linearGradient id="paint0_linear_3046_26770" x1="0" y1="70.5526" x2="99.9997" y2="70.5526" gradientUnits="userSpaceOnUse">
<stop stop-color="#BBEDFF"/>
<stop offset="1" stop-color="#1AC1FF"/>
</linearGradient>
<clipPath id="clip0_3046_26770">
<rect width="100" height="100" fill="white"/>
</clipPath>
</defs>
</svg>
