<svg width="72" height="75" viewBox="0 0 72 75" fill="none" xmlns="http://www.w3.org/2000/svg">
<g clip-path="url(#clip0_3046_26852)">
<path d="M71.9453 55.6381C71.9351 61.232 71.9248 66.8242 71.9146 72.4165C68.423 74.6936 65.6712 75.0189 63.7153 74.8261C60.0666 74.4664 59.2945 72.3166 55.8576 72.4165C52.1458 72.5249 51.5103 75.0774 48 74.8261C45.0841 74.6179 44.9543 72.8175 42.0213 72.5886C38.4205 72.3097 37.8192 74.9587 34.1637 74.9983C30.3049 75.0396 29.6917 72.1015 25.6228 72.2443C22.6266 72.351 22.3584 73.9638 19.4733 73.7934C16.1936 73.6006 15.7905 71.475 12.9822 71.5558C10.1859 71.6367 9.51971 73.7762 6.4911 74.3098C3.9237 74.7625 1.5852 73.7229 0 72.7607V27.4929C0.0563701 27.4619 0.11274 27.4292 0.170818 27.3965V55.8928C1.75601 56.855 4.09452 57.8946 6.66192 57.4419C9.69053 56.9084 10.3567 54.7689 13.153 54.688C15.9613 54.6071 16.3644 56.7328 19.6441 56.9256C22.5292 57.096 22.7974 55.4832 25.7936 55.3765C29.8625 55.2336 30.4757 58.1717 34.3345 58.1304C37.99 58.0908 38.5913 55.4419 42.1922 55.7207C45.1251 55.9496 45.2549 57.75 48.1708 57.9583C51.6811 58.2096 52.3166 55.657 56.0285 55.5486C59.4653 55.4488 60.2374 57.5986 63.8861 57.9583C65.8164 58.1476 68.5204 57.8344 71.9453 55.6381Z" fill="#9ADCF5"/>
<path d="M72.0011 26.8895C71.9942 30.5127 71.9874 34.1358 71.9806 37.759C71.9737 41.0189 71.9686 44.2789 71.9618 47.5389C68.5283 49.742 65.8191 50.0587 63.8872 49.8677C60.2385 49.5079 59.4664 47.3582 56.0295 47.458C52.3176 47.5664 51.6822 50.119 48.1719 49.8677C45.256 49.6594 45.1262 47.859 42.1932 47.6301C38.5924 47.3513 37.9911 50.0002 34.3356 50.0398C30.4768 50.0811 29.8635 47.143 25.7946 47.2859C22.7985 47.3926 22.5303 49.0054 19.6452 48.835C16.3655 48.6422 15.9623 46.5165 13.1541 46.5974C10.3578 46.6783 9.69159 48.8177 6.66298 49.3513C4.09558 49.804 1.75707 48.7644 0.171875 47.8022V27.3956C1.37444 26.7105 3.08433 25.6812 5.0402 24.3077C12.4862 19.077 14.8298 14.9288 19.2181 10.7102C22.3219 7.72558 31.9322 -1.51387 42.1078 0.210778C43.0217 0.365687 44.6069 0.721977 46.5491 1.71512C48.9867 2.96299 51.9862 5.21606 54.9192 9.33319C54.786 9.35557 54.4904 9.4072 54.0839 9.5122C53.8277 9.57932 53.5253 9.66711 53.1939 9.78415C51.5814 10.3504 49.2446 11.5708 47.7448 14.1526C45.9376 17.2594 45.7633 21.6123 47.9156 24.3077C48.6553 25.2354 50.1653 26.5883 57.3107 27.2338C60.9064 27.5591 65.9336 27.7071 72.0011 26.8895Z" fill="url(#paint0_linear_3046_26852)"/>
<path d="M71.9618 47.5395C71.9566 50.24 71.9515 56.7256 71.9464 59.4244C68.5215 61.6207 65.8174 61.9339 63.8872 61.7446C60.2385 61.3849 59.4664 59.2351 56.0295 59.3349C52.3176 59.4433 51.6822 61.9959 48.1719 61.7446C45.256 61.5363 45.1262 59.7359 42.1932 59.507C38.5924 59.2282 37.9911 61.8771 34.3356 61.9167C30.4768 61.958 29.8636 59.0199 25.7947 59.1628C22.7985 59.2695 22.5303 60.8823 19.6452 60.7119C16.3655 60.5191 15.9623 58.3934 13.1541 58.4743C10.3578 58.5552 9.69159 60.6947 6.66298 61.2282C4.09558 61.6809 1.75707 60.6413 0.171875 59.6791V47.8028C1.75707 48.765 4.09558 49.8046 6.66298 49.3519C9.69159 48.8183 10.3578 46.6789 13.1541 46.598C15.9623 46.5171 16.3655 48.6428 19.6452 48.8355C22.5303 49.0059 22.7985 47.3932 25.7947 47.2864C29.8636 47.1436 30.4768 50.0817 34.3356 50.0404C37.9911 50.0008 38.5924 47.3518 42.1932 47.6307C45.1262 47.8596 45.256 49.66 48.1719 49.8683C51.6822 50.1195 52.3176 47.567 56.0295 47.4586C59.4664 47.3587 60.2385 49.5085 63.8872 49.8683C65.8191 50.0593 68.5283 49.7426 71.9618 47.5395Z" fill="#00AEEF"/>
<path d="M71.9995 26.8907C71.9927 30.5138 71.9859 34.137 71.979 37.7601C70.0078 39.1457 65.2488 39.1044 42.9604 38.4228C40.6458 38.3522 37.6941 38.2076 35.1027 36.1852C31.4387 33.3263 28.9823 27.3675 31.6864 22.9319C34.3511 18.5617 40.2307 18.6203 40.5689 18.6289C39.7593 14.9403 40.7568 11.2242 43.302 8.9901C43.7154 8.62692 46.0556 6.64925 49.1099 6.92464C51.2639 7.11914 52.8781 8.35669 54.0824 9.51334C52.5758 9.90578 49.5523 11.0418 47.7433 14.1537C45.9361 17.2605 45.7618 21.6135 47.9141 24.3089C48.6538 25.2366 50.1638 26.5895 57.3092 27.2349C60.9049 27.5602 65.9321 27.7083 71.9995 26.8907Z" fill="#00AEEF"/>
</g>
<defs>
<linearGradient id="paint0_linear_3046_26852" x1="0.171875" y1="25.0191" x2="72.0011" y2="25.0191" gradientUnits="userSpaceOnUse">
<stop stop-color="#BBEDFF"/>
<stop offset="1" stop-color="#1AC1FF"/>
</linearGradient>
<clipPath id="clip0_3046_26852">
<rect width="72" height="75" fill="white"/>
</clipPath>
</defs>
</svg>
