<svg width="110" height="110" viewBox="0 0 110 110" fill="none" xmlns="http://www.w3.org/2000/svg">
<g clip-path="url(#clip0_72_202)">
<rect width="110" height="110" fill="white"/>
<path d="M48.161 75.9988H43.0942C41.7116 75.9988 40.4694 75.2861 39.775 74.0925C39.0869 72.8988 39.0807 71.4677 39.7688 70.2678L46.4373 58.654C46.4799 58.581 46.4921 58.5444 46.4921 58.4529C46.4251 50.201 49.5859 42.4238 55.4019 36.559C61.2119 30.7005 68.9583 27.4727 77.2165 27.4727C94.1593 27.4733 107.941 41.2549 107.941 58.1975C107.941 63.6115 106.51 68.9403 103.806 73.5992C101.188 78.118 97.4236 81.9244 92.9353 84.6039C92.8013 84.6832 92.7465 84.7745 92.7465 84.9388V102.85C92.7465 104.963 91.029 106.68 88.9218 106.68H62.6555C60.5483 106.68 58.8308 104.963 58.8308 102.85V96.5709C58.8308 96.3273 58.5872 96.1872 58.3618 96.1752C53.9038 95.9863 50.8406 95.2982 49.3425 92.442C48.1 90.079 48.2158 86.6808 48.4107 81.0536C48.4595 79.6528 48.5142 78.0754 48.5508 76.352C48.5508 76.2484 48.496 76.1693 48.4534 76.1206C48.4169 76.0841 48.3134 75.9988 48.161 75.9988ZM77.2167 41.7544C86.2849 41.7544 93.6598 49.1296 93.6598 58.1977C93.6598 64.044 90.6513 69.3302 85.6148 72.3387C84.8048 72.826 84.5369 73.8795 85.0239 74.6955C85.3466 75.2313 85.9132 75.5298 86.4978 75.5298C86.7962 75.5298 87.1006 75.4507 87.3808 75.2861C93.4587 71.6503 97.0945 65.262 97.0945 58.1975C97.0945 47.2353 88.1787 38.3195 77.2165 38.3195C76.2665 38.3195 75.4991 39.0869 75.4991 40.0369C75.4991 40.987 76.2667 41.7544 77.2167 41.7544Z" fill="url(#paint0_linear_72_202)"/>
<path d="M28.2253 82.6946C24.0109 82.6946 20.5762 79.2599 20.5762 75.0455C20.5762 70.8314 24.0109 67.396 28.2253 67.396C29.1753 67.396 29.9428 68.1634 29.9428 69.1135C29.9428 70.0635 29.1753 70.8309 28.2253 70.8309C25.8988 70.8309 24.0109 72.7188 24.0109 75.0453C24.0109 77.3718 25.899 79.2597 28.2253 79.2597H41.3494C42.2995 79.2597 43.0669 80.0271 43.0669 80.9771C43.0669 81.9272 42.2995 82.6946 41.3494 82.6946H28.2253Z" fill="#00AEEF"/>
<path d="M11.6062 88.232C7.39174 88.232 3.95703 84.7973 3.95703 80.583C3.95703 76.3688 7.39174 72.9333 11.6062 72.9333C12.5562 72.9333 13.3236 73.7008 13.3236 74.6508C13.3236 75.6009 12.5562 76.3684 11.6062 76.3684C9.27957 76.3684 7.39174 78.2562 7.39174 80.5827C7.39174 82.9093 9.27979 84.797 11.6062 84.797H24.7303C25.6803 84.797 26.4478 85.5646 26.4478 86.5146C26.4478 87.4646 25.6803 88.232 24.7303 88.232H11.6062Z" fill="#00AEEF"/>
<path d="M28.2253 90.3472C24.0109 90.3472 20.5762 93.7819 20.5762 97.9962C20.5762 102.21 24.0109 105.646 28.2253 105.646C29.1753 105.646 29.9428 104.878 29.9428 103.928C29.9428 102.978 29.1753 102.211 28.2253 102.211C25.8988 102.211 24.0109 100.323 24.0109 97.9965C24.0109 95.6699 25.899 93.7821 28.2253 93.7821H41.3494C42.2995 93.7821 43.0669 93.0147 43.0669 92.0646C43.0669 91.1146 42.2995 90.3472 41.3494 90.3472H28.2253Z" fill="#00AEEF"/>
</g>
<defs>
<linearGradient id="paint0_linear_72_202" x1="107.941" y1="67.0765" x2="39.2558" y2="67.0765" gradientUnits="userSpaceOnUse">
<stop stop-color="#BBEDFF"/>
<stop offset="1" stop-color="#1AC1FF"/>
</linearGradient>
<clipPath id="clip0_72_202">
<rect width="110" height="110" fill="white"/>
</clipPath>
</defs>
</svg>
