<svg width="120" height="100" viewBox="0 0 120 100" fill="none" xmlns="http://www.w3.org/2000/svg">
<path d="M119.644 81.7878C118.8 83.5456 116.691 84.2485 114.933 83.4047C113.527 82.7717 112.191 81.8576 110.925 80.8735C105.862 76.7949 99.0885 76.7949 94.026 80.8735C90.2286 83.8972 85.7284 85.4438 81.2286 85.4438C76.7987 85.4438 72.2982 83.8972 68.5016 80.8735C65.9 78.8342 62.9464 77.7795 59.9933 77.7795C57.1803 77.7795 54.2977 78.8339 51.837 80.8735C44.1725 86.9909 33.9767 86.9909 26.3126 80.8735C21.2496 76.7949 14.4759 76.7949 9.41339 80.8735C8.00714 81.9982 6.53011 82.9123 4.98346 83.6154C3.22565 84.4597 1.1158 83.6857 0.342358 81.9279C-0.501394 80.1701 0.272045 78.0605 2.02986 77.217C3.08479 76.7248 4.06916 76.1621 4.98346 75.3889C12.6475 69.2714 23.0777 69.2714 30.7425 75.3889C35.805 79.4675 42.3443 79.4675 47.4073 75.3889C51.2042 72.2949 55.6339 70.8185 59.9935 70.8185C64.5643 70.7482 69.0641 72.2949 72.9317 75.3889C77.9942 79.4675 84.5336 79.4675 89.5965 75.3889C97.2606 69.2714 107.691 69.2714 115.355 75.3889C116.199 76.0922 117.113 76.6545 118.027 77.0764C119.785 77.9904 120.488 80.0996 119.644 81.7878Z" fill="url(#paint0_linear_3320_40125)"/>
<path d="M119.644 95.8503C118.8 97.6081 116.691 98.311 114.933 97.4672C113.527 96.8342 112.191 95.9201 110.925 94.936C105.862 90.8574 99.0885 90.8574 94.026 94.936C90.2286 97.9597 85.7284 99.5063 81.2286 99.5063C76.7987 99.5063 72.2982 97.9597 68.5016 94.936C65.9 92.8967 62.9464 91.842 59.9933 91.842C57.1803 91.842 54.2977 92.8964 51.837 94.936C44.1725 101.053 33.9767 101.053 26.3126 94.936C21.2496 90.8574 14.4759 90.8574 9.41339 94.936C8.00714 96.0607 6.53011 96.9748 4.98346 97.6779C3.22565 98.5222 1.1158 97.7482 0.342358 95.9904C-0.501394 94.2326 0.272045 92.123 2.02986 91.2795C3.08479 90.7873 4.06916 90.2246 4.98346 89.4514C12.6475 83.3339 23.0777 83.3339 30.7425 89.4514C35.805 93.53 42.3443 93.53 47.4073 89.4514C51.2042 86.3574 55.6339 84.881 59.9935 84.881C64.5643 84.8107 69.0641 86.3574 72.9317 89.4514C77.9942 93.53 84.5336 93.53 89.5965 89.4514C97.2606 83.3339 107.691 83.3339 115.355 89.4514C116.199 90.1547 117.113 90.717 118.027 91.1389C119.785 92.0532 120.488 94.1623 119.644 95.8503Z" fill="url(#paint1_linear_3320_40125)"/>
<path d="M31.3428 63.3177C25.9715 63.3177 21.6016 58.9478 21.6016 53.5765C21.6016 52.2127 22.0144 49.688 25.5833 43.5354C27.766 39.773 29.5119 37.3332 31.3428 34.6797C33.1506 37.2996 34.9101 39.7563 37.1022 43.5354C40.6711 49.688 41.084 52.2127 41.084 53.5765C41.084 58.9478 36.7141 63.3177 31.3428 63.3177Z" fill="url(#paint2_linear_3320_40125)"/>
<path d="M45.9465 36.5274C41.9181 36.5274 38.6406 33.25 38.6406 29.2215C38.6406 28.2185 38.9272 26.391 41.4047 22.1202C42.9613 19.4368 44.1845 17.7483 45.9465 15.1953C47.7084 17.748 48.9319 19.4368 50.4884 22.1202C52.9659 26.391 53.2524 28.2185 53.2524 29.2215C53.2524 33.25 49.9752 36.5274 45.9465 36.5274Z" fill="url(#paint3_linear_3320_40125)"/>
<path d="M93.5088 0C94.1176 0 94.5806 0.537681 94.4905 1.1398C94.0483 4.09516 92.9095 11.9405 92.9095 14.6121C92.9095 15.8405 92.9097 18.7165 97.8372 20.8301C102.103 22.66 104.013 27.5878 104.013 31.6594C104.013 38.2656 98.7362 42.7041 92.2427 43.8013C88.9104 44.3643 82.42 49.6897 79.2056 55.2001C77.1684 58.8078 76.5564 61.9368 74.8087 67.2681C71.7643 76.5584 63.1481 82.8002 53.3692 82.8002H41.0879C37.0597 82.8002 33.7815 79.5231 33.7812 75.4947C33.7812 71.4662 37.0594 68.188 41.0879 68.188H44.1301C47.7601 68.188 50.7244 65.7578 51.6688 62.5478C61.4928 33.3239 60.8357 35.279 60.8633 35.1973C62.2849 30.9695 63.0055 26.5634 63.0055 22.1028V0.999999C63.0055 0.447715 63.4532 0 64.0055 0H93.5088Z" fill="#9ADCF5"/>
<defs>
<linearGradient id="paint0_linear_3320_40125" x1="0" y1="78.1312" x2="120" y2="78.1312" gradientUnits="userSpaceOnUse">
<stop stop-color="#BBEDFF"/>
<stop offset="1" stop-color="#1AC1FF"/>
</linearGradient>
<linearGradient id="paint1_linear_3320_40125" x1="0" y1="92.1937" x2="120" y2="92.1937" gradientUnits="userSpaceOnUse">
<stop stop-color="#BBEDFF"/>
<stop offset="1" stop-color="#1AC1FF"/>
</linearGradient>
<linearGradient id="paint2_linear_3320_40125" x1="21.6016" y1="48.9987" x2="41.084" y2="48.9987" gradientUnits="userSpaceOnUse">
<stop stop-color="#BBEDFF"/>
<stop offset="1" stop-color="#1AC1FF"/>
</linearGradient>
<linearGradient id="paint3_linear_3320_40125" x1="38.6406" y1="25.8614" x2="53.2524" y2="25.8614" gradientUnits="userSpaceOnUse">
<stop stop-color="#BBEDFF"/>
<stop offset="1" stop-color="#1AC1FF"/>
</linearGradient>
</defs>
</svg>
