<svg width="110" height="110" viewBox="0 0 110 110" fill="none" xmlns="http://www.w3.org/2000/svg">
<g clip-path="url(#clip0_72_183)">
<rect width="110" height="110" fill="white"/>
<mask id="mask0_72_183" style="mask-type:luminance" maskUnits="userSpaceOnUse" x="5" y="19" width="91" height="91">
<path d="M95.7403 19.0762H5V109.815H95.7403V19.0762Z" fill="white"/>
</mask>
<g mask="url(#mask0_72_183)">
<path d="M85.8143 19.0762C85.4383 19.0762 85.0776 19.2255 84.8118 19.4914C84.5459 19.7573 84.3965 20.1179 84.3965 20.494V38.9254C84.3965 39.3014 84.5459 39.662 84.8118 39.9279C85.0776 40.1938 85.4383 40.3432 85.8143 40.3432H91.4856C91.8616 40.3432 92.2222 40.1938 92.4881 39.9279C92.754 39.662 92.9034 39.3014 92.9034 38.9254V26.1652C92.9011 24.2857 92.1535 22.4839 90.8246 21.155C89.4956 19.826 87.6938 19.0784 85.8143 19.0762Z" fill="url(#paint0_linear_72_183)"/>
<path d="M91.4861 74.3691H85.8149C85.4388 74.3691 85.0782 74.5185 84.8123 74.7844C84.5464 75.0503 84.3971 75.4109 84.3971 75.7869V91.3827C84.3937 94.0139 83.347 96.5363 81.4864 98.3968C79.6259 100.257 77.1035 101.304 74.4723 101.307H43.2803V95.0548C43.2804 94.8205 43.2223 94.5897 43.1113 94.3833C43.0003 94.1769 42.8398 94.0012 42.6443 93.872C42.4487 93.7427 42.2242 93.664 41.9908 93.6428C41.7574 93.6216 41.5224 93.6586 41.3067 93.7505C40.5858 94.0571 39.8104 94.2152 39.0269 94.2152C38.2434 94.2152 37.468 94.0571 36.747 93.7505C36.5314 93.6586 36.2964 93.6216 36.063 93.6428C35.8296 93.664 35.605 93.7427 35.4095 93.872C35.214 94.0012 35.0535 94.1769 34.9425 94.3833C34.8315 94.5897 34.7734 94.8205 34.7734 95.0548V102.725C34.7757 104.605 35.5233 106.406 36.8523 107.735C38.1812 109.064 39.9831 109.812 41.8625 109.814H74.4723C79.359 109.808 84.0439 107.865 87.4992 104.409C90.9546 100.954 92.8983 96.2693 92.904 91.3827V75.7869C92.904 75.4109 92.7546 75.0503 92.4887 74.7844C92.2228 74.5185 91.8622 74.3691 91.4861 74.3691Z" fill="url(#paint1_linear_72_183)"/>
<path d="M82.979 48.8496H71.6365C70.8534 48.8496 70.2188 49.4844 70.2188 50.2674V64.4454C70.2188 65.2284 70.8534 65.8632 71.6365 65.8632H82.979C83.762 65.8632 84.3968 65.2284 84.3968 64.4454V50.2674C84.3968 49.4844 83.762 48.8496 82.979 48.8496Z" fill="url(#paint2_linear_72_183)"/>
<path d="M39.0284 97.0546C43.7266 97.0546 47.5353 93.246 47.5353 88.5478C47.5353 83.8496 43.7266 80.041 39.0284 80.041C34.3302 80.041 30.5215 83.8496 30.5215 88.5478C30.5215 93.246 34.3302 97.0546 39.0284 97.0546Z" fill="#00AEEF"/>
<path d="M39.0269 92.8017C41.376 92.8017 43.2803 90.8974 43.2803 88.5483C43.2803 86.1992 41.376 84.2949 39.0269 84.2949C36.6778 84.2949 34.7734 86.1992 34.7734 88.5483C34.7734 90.8974 36.6778 92.8017 39.0269 92.8017Z" fill="white"/>
<path d="M58.8771 36.0879H19.1782C15.4192 36.092 11.8153 37.5871 9.15725 40.2451C6.49922 42.9031 5.00413 46.5069 5 50.2659V64.4439C5.00413 68.2028 6.49922 71.8067 9.15725 74.4647C11.8153 77.1227 15.4192 78.6177 19.1782 78.6219H27.2257C29.6174 78.6244 31.9675 77.9967 34.0394 76.802C36.1113 75.6072 37.8318 73.8877 39.0276 71.8164C40.2235 73.8877 41.944 75.6072 44.0158 76.802C46.0877 77.9967 48.4379 78.6244 50.8295 78.6219H58.8771C62.6361 78.6177 66.24 77.1227 68.898 74.4647C71.556 71.8067 73.0511 68.2028 73.0552 64.4439V50.2659C73.0511 46.5069 71.556 42.9031 68.898 40.2451C66.24 37.5871 62.6361 36.092 58.8771 36.0879Z" fill="#00AEEF"/>
<path d="M58.8777 41.7598H19.1788C16.9233 41.762 14.7608 42.659 13.166 44.2538C11.5711 45.8487 10.6741 48.0111 10.6719 50.2666V64.4446C10.6741 66.7 11.5711 68.8624 13.166 70.4573C14.7608 72.0521 16.9233 72.9491 19.1788 72.9513H27.2263C28.897 72.9539 30.526 72.4293 31.8813 71.4523C33.2365 70.4753 34.2491 69.0957 34.7748 67.5098C35.0722 66.6169 35.643 65.8403 36.4064 65.2899C37.1698 64.7395 38.0871 64.4433 39.0282 64.4433C39.9694 64.4433 40.8866 64.7395 41.65 65.2899C42.4135 65.8403 42.9843 66.6169 43.2817 67.5098C43.8074 69.0957 44.8199 70.4753 46.1752 71.4523C47.5305 72.4293 49.1594 72.9539 50.8301 72.9513H58.8777C61.1332 72.9491 63.2956 72.0521 64.8905 70.4573C66.4853 68.8624 67.3823 66.7 67.3846 64.4446V50.2666C67.3823 48.0111 66.4853 45.8487 64.8905 44.2538C63.2956 42.659 61.1332 41.762 58.8777 41.7598Z" fill="#EDF9FF"/>
<path d="M94.3229 37.5059H82.9803C82.1973 37.5059 81.5625 38.1406 81.5625 38.9237V75.7864C81.5625 76.5695 82.1973 77.2042 82.9803 77.2042H94.3229C95.1059 77.2042 95.7407 76.5695 95.7407 75.7864V38.9237C95.7407 38.1406 95.1059 37.5059 94.3229 37.5059Z" fill="#00AEEF"/>
</g>
<path d="M88.7957 4.65815C90.6599 4.67833 92.1592 6.29973 92.1379 8.27251C92.1324 8.77339 91.9791 9.69913 90.716 11.9454C89.9435 13.319 89.3278 14.2086 88.6818 15.1763C88.0648 14.2073 87.4639 13.2983 86.7181 11.9021C85.5039 9.62903 85.3707 8.70017 85.3761 8.19929C85.3974 6.22652 86.9315 4.63796 88.7957 4.65815Z" fill="url(#paint3_linear_72_183)"/>
<path d="M100.486 0.600837C102.128 1.48346 102.704 3.61532 101.77 5.3531C101.533 5.79432 100.968 6.54332 98.8069 7.94742C97.4853 8.806 96.5273 9.3085 95.5061 9.8661C95.409 8.72144 95.2983 7.63747 95.2852 6.05461C95.264 3.47763 95.5768 2.59296 95.814 2.15173C96.748 0.413947 98.8439 -0.28178 100.486 0.600837Z" fill="url(#paint4_linear_72_183)"/>
<path d="M103.541 13.6694C103.794 14.8861 102.991 16.0865 101.749 16.3454C101.434 16.4111 100.831 16.4392 99.2399 15.9273C98.2671 15.6142 97.6207 15.3362 96.9209 15.0494C97.4411 14.5136 97.9259 13.9967 98.6959 13.318C99.9496 12.2131 100.514 11.9979 100.829 11.9322C102.071 11.6734 103.287 12.4527 103.541 13.6694Z" fill="url(#paint5_linear_72_183)"/>
</g>
<defs>
<linearGradient id="paint0_linear_72_183" x1="84.3965" y1="29.7097" x2="92.9034" y2="29.7097" gradientUnits="userSpaceOnUse">
<stop stop-color="#BBEDFF"/>
<stop offset="1" stop-color="#1AC1FF"/>
</linearGradient>
<linearGradient id="paint1_linear_72_183" x1="34.7734" y1="92.0916" x2="92.904" y2="92.0916" gradientUnits="userSpaceOnUse">
<stop stop-color="#BBEDFF"/>
<stop offset="1" stop-color="#1AC1FF"/>
</linearGradient>
<linearGradient id="paint2_linear_72_183" x1="70.2188" y1="57.3564" x2="84.3968" y2="57.3564" gradientUnits="userSpaceOnUse">
<stop stop-color="#BBEDFF"/>
<stop offset="1" stop-color="#1AC1FF"/>
</linearGradient>
<linearGradient id="paint3_linear_72_183" x1="92.1196" y1="9.95383" x2="85.3579" y2="9.88063" gradientUnits="userSpaceOnUse">
<stop stop-color="#1AC1FF"/>
<stop offset="1" stop-color="#BBEDFF"/>
</linearGradient>
<linearGradient id="paint4_linear_72_183" x1="100.974" y1="6.83416" x2="95.018" y2="3.63273" gradientUnits="userSpaceOnUse">
<stop stop-color="#1AC1FF"/>
<stop offset="1" stop-color="#BBEDFF"/>
</linearGradient>
<linearGradient id="paint5_linear_72_183" x1="100.691" y1="16.566" x2="99.7708" y2="12.1528" gradientUnits="userSpaceOnUse">
<stop stop-color="#1AC1FF"/>
<stop offset="1" stop-color="#BBEDFF"/>
</linearGradient>
<clipPath id="clip0_72_183">
<rect width="110" height="110" fill="white"/>
</clipPath>
</defs>
</svg>
