<svg width="100" height="100" viewBox="0 0 100 100" fill="none" xmlns="http://www.w3.org/2000/svg">
<path d="M33.3328 78.3345C33.3328 78.3345 44.9994 60.0011 44.9994 16.6678V9.16779C45.0027 8.77531 44.9123 8.38771 44.7357 8.03716C44.5592 7.6866 44.3016 7.3832 43.9843 7.15214C43.667 6.92107 43.2992 6.76899 42.9114 6.70852C42.5236 6.64806 42.127 6.68094 41.7544 6.80446C39.8604 7.70432 37.8084 8.22412 35.7144 8.33446C30.3494 8.33446 27.0478 4.73446 25.2144 2.55279C24.9835 2.27627 24.6948 2.05383 24.3685 1.90119C24.0422 1.74855 23.6863 1.66943 23.3261 1.66943C22.9659 1.66943 22.61 1.74855 22.2837 1.90119C21.9574 2.05383 21.6686 2.27627 21.4378 2.55279C19.6144 4.73279 16.3161 8.33446 10.9511 8.33446C8.85722 8.22464 6.80519 7.70541 4.91109 6.80613C4.53866 6.68266 4.14217 6.64975 3.75449 6.71013C3.36681 6.77051 2.99911 6.92244 2.68187 7.15332C2.36464 7.3842 2.10701 7.68737 1.93036 8.03771C1.7537 8.38805 1.66311 8.77545 1.66609 9.16779V16.6678C1.66609 60.0011 13.3328 78.3345 13.3328 78.3345H33.3328Z" fill="#9ADCF5"/>
<path d="M86.6667 78.3345C86.6667 78.3345 98.3334 60.0011 98.3334 16.6678V9.16779C98.3366 8.77531 98.2462 8.38771 98.0697 8.03716C97.8932 7.6866 97.6356 7.3832 97.3183 7.15214C97.001 6.92107 96.6332 6.76899 96.2454 6.70852C95.8576 6.64806 95.461 6.68094 95.0884 6.80446C93.1944 7.70432 91.1424 8.22412 89.0484 8.33446C83.6834 8.33446 80.3817 4.73446 78.5484 2.55279C78.3175 2.27627 78.0287 2.05383 77.7024 1.90119C77.3761 1.74855 77.0203 1.66943 76.6601 1.66943C76.2998 1.66943 75.944 1.74855 75.6177 1.90119C75.2914 2.05383 75.0026 2.27627 74.7717 2.55279C72.9484 4.73279 69.6501 8.33446 64.2851 8.33446C62.1912 8.22464 60.1392 7.70541 58.2451 6.80613C57.8726 6.68266 57.4762 6.64975 57.0885 6.71013C56.7008 6.77051 56.3331 6.92244 56.0159 7.15332C55.6986 7.3842 55.441 7.68737 55.2643 8.03771C55.0877 8.38805 54.9971 8.77545 55.0001 9.16779V16.6678C55.0001 60.0011 66.6667 78.3345 66.6667 78.3345H86.6667Z" fill="#9ADCF5"/>
<path d="M23.334 58.3333C20.6818 58.3333 18.1383 59.3869 16.2629 61.2622C14.3876 63.1376 13.334 65.6811 13.334 68.3333V88.3333C13.334 90.9855 14.3876 93.529 16.2629 95.4044C18.1383 97.2797 20.6818 98.3333 23.334 98.3333C25.9861 98.3333 28.5297 97.2797 30.4051 95.4044C32.2804 93.529 33.334 90.9855 33.334 88.3333V68.3333C33.33 65.6824 32.2752 63.1411 30.4007 61.2666C28.5262 59.3921 25.9849 58.3373 23.334 58.3333Z" fill="#EDF9FF"/>
<path d="M83.7327 61.2667C82.8081 60.3337 81.7072 59.5939 80.494 59.0903C79.2808 58.5867 77.9796 58.3294 76.666 58.3334C74.0139 58.3334 71.4703 59.3869 69.5949 61.2623C67.7196 63.1377 66.666 65.6812 66.666 68.3334V88.3334C66.666 90.9855 67.7196 93.5291 69.5949 95.4044C71.4703 97.2798 74.0139 98.3334 76.666 98.3334C79.3182 98.3334 81.8617 97.2798 83.7371 95.4044C85.6124 93.5291 86.666 90.9855 86.666 88.3334V68.3334C86.67 67.0198 86.4127 65.7186 85.9091 64.5054C85.4055 63.2922 84.6657 62.1913 83.7327 61.2667Z" fill="#EDF9FF"/>
<path d="M33.334 83.3352V88.3352C33.334 90.9874 32.2804 93.5309 30.4051 95.4063C28.5297 97.2816 25.9861 98.3352 23.334 98.3352C20.6818 98.3352 18.1383 97.2816 16.2629 95.4063C14.3876 93.5309 13.334 90.9874 13.334 88.3352V83.3352C13.334 80.683 14.3876 78.1395 16.2629 76.2641C18.1383 74.3888 20.6818 73.3352 23.334 73.3352C25.9861 73.3352 28.5297 74.3888 30.4051 76.2641C32.2804 78.1395 33.334 80.683 33.334 83.3352Z" fill="#00AEEF"/>
<path d="M86.666 83.3352V88.3352C86.666 90.9874 85.6124 93.5309 83.7371 95.4063C81.8617 97.2816 79.3182 98.3352 76.666 98.3352C74.0139 98.3352 71.4703 97.2816 69.5949 95.4063C67.7196 93.5309 66.666 90.9874 66.666 88.3352V83.3352C66.666 80.683 67.7196 78.1395 69.5949 76.2641C71.4703 74.3888 74.0139 73.3352 76.666 73.3352C79.3182 73.3352 81.8617 74.3888 83.7371 76.2641C85.6124 78.1395 86.666 80.683 86.666 83.3352Z" fill="#00AEEF"/>
<path d="M14.3333 51.6685C13.9416 51.6681 13.5624 51.5298 13.2625 51.2777C12.9626 51.0257 12.7611 50.676 12.6933 50.2902C10.8301 39.1813 9.92902 27.9323 9.99998 16.6685C9.99998 16.2265 10.1756 15.8025 10.4881 15.49C10.8007 15.1774 11.2246 15.0018 11.6666 15.0018C12.1087 15.0018 12.5326 15.1774 12.8452 15.49C13.1577 15.8025 13.3333 16.2265 13.3333 16.6685C13.2643 27.7393 14.1515 38.7954 15.985 49.7135C16.0228 49.9292 16.0178 50.1503 15.9702 50.364C15.9226 50.5778 15.8333 50.7801 15.7075 50.9593C15.5816 51.1386 15.4217 51.2912 15.2368 51.4086C15.0519 51.526 14.8457 51.6058 14.63 51.6435C14.532 51.6605 14.4327 51.6688 14.3333 51.6685Z" fill="#00AEEF"/>
<path d="M32.3342 51.6685C32.237 51.6685 32.1399 51.6601 32.0442 51.6435C31.8284 51.6058 31.6222 51.526 31.4373 51.4086C31.2524 51.2912 31.0925 51.1386 30.9667 50.9593C30.8408 50.7801 30.7516 50.5778 30.7039 50.364C30.6563 50.1503 30.6513 49.9292 30.6892 49.7135C32.5204 38.7952 33.4054 27.7391 33.3342 16.6685C33.3342 16.2265 33.5098 15.8025 33.8223 15.49C34.1349 15.1774 34.5588 15.0018 35.0008 15.0018C35.4429 15.0018 35.8668 15.1774 36.1793 15.49C36.4919 15.8025 36.6675 16.2265 36.6675 16.6685C36.7363 27.9325 35.8329 39.1815 33.9675 50.2902C33.8999 50.6749 33.6994 51.0237 33.4008 51.2756C33.1023 51.5275 32.7248 51.6666 32.3342 51.6685Z" fill="#00AEEF"/>
<path d="M23.3327 51.6685C22.8907 51.6685 22.4667 51.4929 22.1542 51.1803C21.8416 50.8678 21.666 50.4439 21.666 50.0018V16.6685C21.666 16.2265 21.8416 15.8025 22.1542 15.49C22.4667 15.1774 22.8907 15.0018 23.3327 15.0018C23.7747 15.0018 24.1986 15.1774 24.5112 15.49C24.8238 15.8025 24.9993 16.2265 24.9993 16.6685V50.0018C24.9993 50.4439 24.8238 50.8678 24.5112 51.1803C24.1986 51.4929 23.7747 51.6685 23.3327 51.6685Z" fill="#00AEEF"/>
<path d="M67.6673 51.6685C67.2755 51.6681 66.8964 51.5298 66.5965 51.2777C66.2966 51.0257 66.0951 50.676 66.0273 50.2902C64.1641 39.1813 63.263 27.9323 63.334 16.6685C63.334 16.2265 63.5096 15.8025 63.8221 15.49C64.1347 15.1774 64.5586 15.0018 65.0006 15.0018C65.4427 15.0018 65.8666 15.1774 66.1791 15.49C66.4917 15.8025 66.6673 16.2265 66.6673 16.6685C66.5983 27.7393 67.4855 38.7954 69.319 49.7135C69.3568 49.9292 69.3518 50.1503 69.3042 50.364C69.2566 50.5778 69.1673 50.7801 69.0415 50.9593C68.9156 51.1386 68.7557 51.2912 68.5708 51.4086C68.3859 51.526 68.1797 51.6058 67.964 51.6435C67.866 51.6605 67.7667 51.6688 67.6673 51.6685Z" fill="#00AEEF"/>
<path d="M85.6662 51.6685C85.569 51.6685 85.472 51.6601 85.3762 51.6435C85.1605 51.6058 84.9542 51.526 84.7694 51.4086C84.5845 51.2912 84.4245 51.1386 84.2987 50.9593C84.1729 50.7801 84.0836 50.5778 84.036 50.364C83.9883 50.1503 83.9833 49.9292 84.0212 49.7135C85.8525 38.7952 86.7374 27.7391 86.6662 16.6685C86.6662 16.2265 86.8418 15.8025 87.1543 15.49C87.4669 15.1774 87.8908 15.0018 88.3329 15.0018C88.7749 15.0018 89.1988 15.1774 89.5114 15.49C89.8239 15.8025 89.9995 16.2265 89.9995 16.6685C90.0683 27.9325 89.1649 39.1815 87.2995 50.2902C87.232 50.6749 87.0314 51.0237 86.7329 51.2756C86.4343 51.5275 86.0568 51.6666 85.6662 51.6685Z" fill="#00AEEF"/>
<path d="M76.6667 51.6685C76.2246 51.6685 75.8007 51.4929 75.4882 51.1803C75.1756 50.8678 75 50.4439 75 50.0018V16.6685C75 16.2265 75.1756 15.8025 75.4882 15.49C75.8007 15.1774 76.2246 15.0018 76.6667 15.0018C77.1087 15.0018 77.5326 15.1774 77.8452 15.49C78.1577 15.8025 78.3333 16.2265 78.3333 16.6685V50.0018C78.3333 50.4439 78.1577 50.8678 77.8452 51.1803C77.5326 51.4929 77.1087 51.6685 76.6667 51.6685Z" fill="#00AEEF"/>
</svg>
