<svg width="72" height="72" viewBox="0 0 72 72" fill="none" xmlns="http://www.w3.org/2000/svg">
<g clip-path="url(#clip0_3046_26817)">
<path d="M28.0703 22.8809L10.9856 22.8809" stroke="#9ADCF5" stroke-width="2"/>
<path d="M23.1875 28.6777L9.76377 28.6777" stroke="#9ADCF5" stroke-width="2"/>
<path d="M8.54688 28.6777L3.66552 28.6777" stroke="#9ADCF5" stroke-width="2"/>
<path d="M25.625 34.1699H8.54025" stroke="#9ADCF5" stroke-width="2"/>
<path d="M52.2146 30.5835C55.1766 30.5835 57.5777 28.1824 57.5777 25.2205C57.5777 22.2585 55.1766 19.8574 52.2146 19.8574C49.2527 19.8574 46.8516 22.2585 46.8516 25.2205C46.8516 28.1824 49.2527 30.5835 52.2146 30.5835Z" fill="#00AEEF"/>
<path d="M58.4685 44.2781C58.1823 44.4213 57.9321 44.9785 57.6463 45.193C54.4284 47.8029 50.1736 47.8029 46.9202 45.193C45.2869 43.8684 43.3865 43.0784 41.4855 43.0984C39.641 43.1179 37.7962 43.9077 36.1941 45.193C32.9761 47.8029 28.7214 47.8029 25.4679 45.193C24.7529 44.5854 23.9661 43.8136 23.1797 43.5273L35.3714 31.3354L28.2207 24.1847C26.8265 22.7905 26.8265 20.5023 28.2207 19.1078L38.9469 8.38169C40.3412 6.98735 42.6296 6.98735 44.024 8.38169C45.4182 9.77602 45.4182 12.0644 44.024 13.4586L35.8005 21.6463L58.4685 44.2781Z" fill="#00AEEF"/>
<path d="M71.8203 48.4968C71.3912 49.3906 70.3187 49.748 69.4249 49.3189C68.7098 48.997 68.0304 48.5323 67.3869 48.0319C64.8125 45.958 61.3683 45.958 58.7941 48.0319C56.8632 49.5693 54.575 50.3557 52.287 50.3557C50.0345 50.3557 47.7461 49.5693 45.8156 48.0319C44.4928 46.9949 42.9909 46.4586 41.4894 46.4586C40.059 46.4586 38.5933 46.9948 37.3421 48.0319C33.4449 51.1424 28.2606 51.1424 24.3636 48.0319C21.7892 45.958 18.345 45.958 15.7708 48.0319C15.0558 48.6038 14.3048 49.0685 13.5183 49.4261C12.6245 49.8553 11.5517 49.4618 11.1585 48.568C10.7294 47.6742 11.1227 46.6015 12.0165 46.1726C12.5529 45.9224 13.0534 45.6362 13.5183 45.2431C17.4153 42.1325 22.7188 42.1325 26.6161 45.2431C29.1903 47.3169 32.5153 47.3169 35.0897 45.2431C37.0203 43.6699 39.2727 42.9192 41.4895 42.9192C43.8136 42.8834 46.1016 43.6699 48.0682 45.2431C50.6424 47.3169 53.9674 47.3169 56.5418 45.2431C60.4388 42.1325 65.7423 42.1325 69.6395 45.2431C70.0685 45.6007 70.5333 45.8866 70.9978 46.1011C71.8917 46.566 72.2493 47.6385 71.8203 48.4968Z" fill="url(#paint0_linear_3046_26817)"/>
<path d="M71.8203 55.6471C71.3912 56.5409 70.3187 56.8983 69.4249 56.4693C68.7098 56.1474 68.0304 55.6827 67.3869 55.1822C64.8125 53.1084 61.3683 53.1084 58.7941 55.1822C56.8632 56.7197 54.575 57.5061 52.287 57.5061C50.0345 57.5061 47.7461 56.7197 45.8156 55.1822C44.4928 54.1453 42.9909 53.609 41.4894 53.609C40.059 53.609 38.5933 54.1452 37.3421 55.1822C33.4449 58.2928 28.2606 58.2928 24.3636 55.1822C21.7892 53.1084 18.345 53.1084 15.7708 55.1822C15.0558 55.7542 14.3048 56.2189 13.5183 56.5765C12.6245 57.0057 11.5517 56.6122 11.1585 55.7184C10.7294 54.8246 11.1227 53.7519 12.0165 53.323C12.5529 53.0728 13.0534 52.7866 13.5183 52.3935C17.4153 49.2829 22.7188 49.2829 26.6161 52.3935C29.1903 54.4673 32.5153 54.4673 35.0897 52.3935C37.0203 50.8202 39.2727 50.0696 41.4895 50.0696C43.8136 50.0338 46.1016 50.8202 48.0682 52.3935C50.6424 54.4673 53.9674 54.4673 56.5418 52.3935C60.4388 49.2829 65.7423 49.2829 69.6395 52.3935C70.0685 52.7511 70.5333 53.037 70.9978 53.2515C71.8917 53.7163 72.2493 54.7887 71.8203 55.6471Z" fill="url(#paint1_linear_3046_26817)"/>
<path d="M71.8203 63.5866C71.3912 64.4804 70.3187 64.8378 69.4249 64.4088C68.7098 64.0869 68.0304 63.6221 67.3869 63.1217C64.8125 61.0478 61.3683 61.0478 58.7941 63.1217C56.8632 64.6592 54.575 65.4456 52.287 65.4456C50.0345 65.4456 47.7461 64.6592 45.8156 63.1217C44.4928 62.0848 42.9909 61.5485 41.4894 61.5485C40.059 61.5485 38.5933 62.0846 37.3421 63.1217C33.4449 66.2323 28.2606 66.2323 24.3636 63.1217C21.7892 61.0478 18.345 61.0478 15.7708 63.1217C15.0558 63.6936 14.3048 64.1584 13.5183 64.5159C12.6245 64.9452 11.5517 64.5517 11.1585 63.6579C10.7294 62.7641 11.1227 61.6914 12.0165 61.2625C12.5529 61.0122 13.0534 60.7261 13.5183 60.3329C17.4153 57.2224 22.7188 57.2224 26.6161 60.3329C29.1903 62.4068 32.5153 62.4068 35.0897 60.3329C37.0203 58.7597 39.2727 58.009 41.4895 58.009C43.8136 57.9733 46.1016 58.7597 48.0682 60.3329C50.6424 62.4068 53.9674 62.4068 56.5418 60.3329C60.4388 57.2224 65.7423 57.2224 69.6395 60.3329C70.0685 60.6906 70.5333 60.9765 70.9978 61.191C71.8917 61.6557 72.2493 62.7282 71.8203 63.5866Z" fill="url(#paint2_linear_3046_26817)"/>
</g>
<defs>
<linearGradient id="paint0_linear_3046_26817" x1="10.9844" y1="46.6375" x2="72.0012" y2="46.6375" gradientUnits="userSpaceOnUse">
<stop stop-color="#BBEDFF"/>
<stop offset="1" stop-color="#1AC1FF"/>
</linearGradient>
<linearGradient id="paint1_linear_3046_26817" x1="10.9844" y1="53.7879" x2="72.0012" y2="53.7879" gradientUnits="userSpaceOnUse">
<stop stop-color="#BBEDFF"/>
<stop offset="1" stop-color="#1AC1FF"/>
</linearGradient>
<linearGradient id="paint2_linear_3046_26817" x1="10.9844" y1="61.7273" x2="72.0012" y2="61.7273" gradientUnits="userSpaceOnUse">
<stop stop-color="#BBEDFF"/>
<stop offset="1" stop-color="#1AC1FF"/>
</linearGradient>
<clipPath id="clip0_3046_26817">
<rect width="72" height="72" fill="white"/>
</clipPath>
</defs>
</svg>
