<svg width="100" height="91" viewBox="0 0 100 91" fill="none" xmlns="http://www.w3.org/2000/svg">
<g clip-path="url(#clip0_3320_40158)">
<path d="M50.8754 0.985046H32.5129C32.5916 1.17368 32.6355 1.38023 32.6355 1.59731V6.38321C32.6355 6.6794 32.5531 6.95592 32.4121 7.19346H50.8754C56.4477 7.19346 60.9809 11.7163 60.9809 17.2758L64.2205 19.3609L67.2035 17.2758C67.2035 8.29289 59.8787 0.985046 50.8754 0.985046Z" fill="url(#paint0_linear_3320_40158)"/>
<path d="M24.5293 46.2733V14.6901C24.323 14.7926 24.0936 14.8516 23.8504 14.8516H19.0535C18.7836 14.8516 18.5297 14.7803 18.3066 14.6556V46.2735L24.5293 46.2733Z" fill="url(#paint1_linear_3320_40158)"/>
<path d="M19.6832 99.7692H23.1529C23.9131 99.7692 24.5293 99.1544 24.5293 98.396V51.0291H18.3066V98.396C18.3066 99.1544 18.9229 99.7692 19.6832 99.7692Z" fill="url(#paint2_linear_3320_40158)"/>
<path d="M46.7629 47.964C45.9295 47.964 45.2539 47.29 45.2539 46.4585V42.423C45.2539 41.5915 45.9295 40.9175 46.7629 40.9175C47.5963 40.9175 48.2719 41.5915 48.2719 42.423V46.4585C48.2719 47.29 47.5963 47.964 46.7629 47.964Z" fill="#9ADCF5"/>
<path d="M53.7453 47.964C52.9119 47.964 52.2363 47.29 52.2363 46.4585V42.423C52.2363 41.5915 52.9119 40.9175 53.7453 40.9175C54.5787 40.9175 55.2543 41.5915 55.2543 42.423V46.4585C55.2545 47.29 54.5787 47.964 53.7453 47.964Z" fill="#9ADCF5"/>
<path d="M60.7277 47.964C59.8943 47.964 59.2188 47.29 59.2188 46.4585V42.423C59.2188 41.5915 59.8943 40.9175 60.7277 40.9175C61.5611 40.9175 62.2367 41.5915 62.2367 42.423V46.4585C62.2367 47.29 61.5611 47.964 60.7277 47.964Z" fill="#9ADCF5"/>
<path d="M67.7121 47.964C66.8787 47.964 66.2031 47.29 66.2031 46.4585V42.423C66.2031 41.5915 66.8787 40.9175 67.7121 40.9175C68.5455 40.9175 69.2211 41.5915 69.2211 42.423V46.4585C69.2213 47.29 68.5457 47.964 67.7121 47.964Z" fill="#9ADCF5"/>
<path d="M74.6945 47.964C73.8611 47.964 73.1855 47.29 73.1855 46.4585V42.423C73.1855 41.5915 73.8611 40.9175 74.6945 40.9175C75.5279 40.9175 76.2035 41.5915 76.2035 42.423V46.4585C76.2035 47.29 75.5279 47.964 74.6945 47.964Z" fill="#9ADCF5"/>
<path d="M81.6789 47.964C80.8455 47.964 80.1699 47.29 80.1699 46.4585V42.423C80.1699 41.5915 80.8455 40.9175 81.6789 40.9175C82.5123 40.9175 83.1879 41.5915 83.1879 42.423V46.4585C83.1881 47.29 82.5123 47.964 81.6789 47.964Z" fill="#9ADCF5"/>
<path d="M46.7629 58.0156C45.9295 58.0156 45.2539 57.3415 45.2539 56.5101V52.4746C45.2539 51.6431 45.9295 50.9691 46.7629 50.9691C47.5963 50.9691 48.2719 51.6431 48.2719 52.4746V56.5101C48.2719 57.3413 47.5963 58.0156 46.7629 58.0156Z" fill="#9ADCF5"/>
<path d="M53.7453 58.0156C52.9119 58.0156 52.2363 57.3415 52.2363 56.5101V52.4746C52.2363 51.6431 52.9119 50.9691 53.7453 50.9691C54.5787 50.9691 55.2543 51.6431 55.2543 52.4746V56.5101C55.2545 57.3413 54.5787 58.0156 53.7453 58.0156Z" fill="#9ADCF5"/>
<path d="M60.7277 58.0156C59.8943 58.0156 59.2188 57.3415 59.2188 56.5101V52.4746C59.2188 51.6431 59.8943 50.9691 60.7277 50.9691C61.5611 50.9691 62.2367 51.6431 62.2367 52.4746V56.5101C62.2367 57.3413 61.5611 58.0156 60.7277 58.0156Z" fill="#9ADCF5"/>
<path d="M67.7121 58.0156C66.8787 58.0156 66.2031 57.3415 66.2031 56.5101V52.4746C66.2031 51.6431 66.8787 50.9691 67.7121 50.9691C68.5455 50.9691 69.2211 51.6431 69.2211 52.4746V56.5101C69.2213 57.3413 68.5457 58.0156 67.7121 58.0156Z" fill="#9ADCF5"/>
<path d="M74.6945 58.0156C73.8611 58.0156 73.1855 57.3415 73.1855 56.5101V52.4746C73.1855 51.6431 73.8611 50.9691 74.6945 50.9691C75.5279 50.9691 76.2035 51.6431 76.2035 52.4746V56.5101C76.2035 57.3413 75.5279 58.0156 74.6945 58.0156Z" fill="#9ADCF5"/>
<path d="M81.6789 58.0156C80.8455 58.0156 80.1699 57.3415 80.1699 56.5101V52.4746C80.1699 51.6431 80.8455 50.9691 81.6789 50.9691C82.5123 50.9691 83.1879 51.6431 83.1879 52.4746V56.5101C83.1881 57.3413 82.5123 58.0156 81.6789 58.0156Z" fill="#9ADCF5"/>
<path d="M46.7629 68.0672C45.9295 68.0672 45.2539 67.3932 45.2539 66.5617V62.5262C45.2539 61.6947 45.9295 61.0207 46.7629 61.0207C47.5963 61.0207 48.2719 61.6947 48.2719 62.5262V66.5617C48.2719 67.3932 47.5963 68.0672 46.7629 68.0672Z" fill="#9ADCF5"/>
<path d="M53.7453 68.0672C52.9119 68.0672 52.2363 67.3932 52.2363 66.5617V62.5262C52.2363 61.6947 52.9119 61.0207 53.7453 61.0207C54.5787 61.0207 55.2543 61.6947 55.2543 62.5262V66.5617C55.2545 67.3932 54.5787 68.0672 53.7453 68.0672Z" fill="#9ADCF5"/>
<path d="M60.7277 68.0672C59.8943 68.0672 59.2188 67.3932 59.2188 66.5617V62.5262C59.2188 61.6947 59.8943 61.0207 60.7277 61.0207C61.5611 61.0207 62.2367 61.6947 62.2367 62.5262V66.5617C62.2367 67.3932 61.5611 68.0672 60.7277 68.0672Z" fill="#9ADCF5"/>
<path d="M67.7121 68.0672C66.8787 68.0672 66.2031 67.3932 66.2031 66.5617V62.5262C66.2031 61.6947 66.8787 61.0207 67.7121 61.0207C68.5455 61.0207 69.2211 61.6947 69.2211 62.5262V66.5617C69.2213 67.3932 68.5457 68.0672 67.7121 68.0672Z" fill="#9ADCF5"/>
<path d="M74.6945 68.0672C73.8611 68.0672 73.1855 67.3932 73.1855 66.5617V62.5262C73.1855 61.6947 73.8611 61.0207 74.6945 61.0207C75.5279 61.0207 76.2035 61.6947 76.2035 62.5262V66.5617C76.2035 67.3932 75.5279 68.0672 74.6945 68.0672Z" fill="#9ADCF5"/>
<path d="M81.6789 68.0672C80.8455 68.0672 80.1699 67.3932 80.1699 66.5617V62.5262C80.1699 61.6947 80.8455 61.0207 81.6789 61.0207C82.5123 61.0207 83.1879 61.6947 83.1879 62.5262V66.5617C83.1881 67.3932 82.5123 68.0672 81.6789 68.0672Z" fill="#9ADCF5"/>
<path d="M46.7629 78.1189C45.9295 78.1189 45.2539 77.4448 45.2539 76.6133V72.5779C45.2539 71.7464 45.9295 71.0723 46.7629 71.0723C47.5963 71.0723 48.2719 71.7464 48.2719 72.5779V76.6133C48.2719 77.4448 47.5963 78.1189 46.7629 78.1189Z" fill="#9ADCF5"/>
<path d="M53.7453 78.1189C52.9119 78.1189 52.2363 77.4448 52.2363 76.6133V72.5779C52.2363 71.7464 52.9119 71.0723 53.7453 71.0723C54.5787 71.0723 55.2543 71.7464 55.2543 72.5779V76.6133C55.2545 77.4448 54.5787 78.1189 53.7453 78.1189Z" fill="#9ADCF5"/>
<path d="M60.7277 78.1189C59.8943 78.1189 59.2188 77.4448 59.2188 76.6133V72.5779C59.2188 71.7464 59.8943 71.0723 60.7277 71.0723C61.5611 71.0723 62.2367 71.7464 62.2367 72.5779V76.6133C62.2367 77.4448 61.5611 78.1189 60.7277 78.1189Z" fill="#9ADCF5"/>
<path d="M67.7121 78.1189C66.8787 78.1189 66.2031 77.4448 66.2031 76.6133V72.5779C66.2031 71.7464 66.8787 71.0723 67.7121 71.0723C68.5455 71.0723 69.2211 71.7464 69.2211 72.5779V76.6133C69.2213 77.4448 68.5457 78.1189 67.7121 78.1189Z" fill="#9ADCF5"/>
<path d="M74.6945 78.1189C73.8611 78.1189 73.1855 77.4448 73.1855 76.6133V72.5779C73.1855 71.7464 73.8611 71.0723 74.6945 71.0723C75.5279 71.0723 76.2035 71.7464 76.2035 72.5779V76.6133C76.2035 77.4448 75.5279 78.1189 74.6945 78.1189Z" fill="#9ADCF5"/>
<path d="M81.6789 78.1189C80.8455 78.1189 80.1699 77.4448 80.1699 76.6133V72.5779C80.1699 71.7464 80.8455 71.0723 81.6789 71.0723C82.5123 71.0723 83.1879 71.7464 83.1879 72.5779V76.6133C83.1881 77.4448 82.5123 78.1189 81.6789 78.1189Z" fill="#9ADCF5"/>
<path d="M46.7629 88.1662C45.9295 88.1662 45.2539 87.4922 45.2539 86.6607V82.6252C45.2539 81.7937 45.9295 81.1197 46.7629 81.1197C47.5963 81.1197 48.2719 81.7937 48.2719 82.6252V86.6607C48.2719 87.4922 47.5963 88.1662 46.7629 88.1662Z" fill="#9ADCF5"/>
<path d="M53.7453 88.1662C52.9119 88.1662 52.2363 87.4922 52.2363 86.6607V82.6252C52.2363 81.7937 52.9119 81.1197 53.7453 81.1197C54.5787 81.1197 55.2543 81.7937 55.2543 82.6252V86.6607C55.2545 87.4922 54.5787 88.1662 53.7453 88.1662Z" fill="#9ADCF5"/>
<path d="M60.7277 88.1662C59.8943 88.1662 59.2188 87.4922 59.2188 86.6607V82.6252C59.2188 81.7937 59.8943 81.1197 60.7277 81.1197C61.5611 81.1197 62.2367 81.7937 62.2367 82.6252V86.6607C62.2367 87.4922 61.5611 88.1662 60.7277 88.1662Z" fill="#9ADCF5"/>
<path d="M67.7121 88.1662C66.8787 88.1662 66.2031 87.4922 66.2031 86.6607V82.6252C66.2031 81.7937 66.8787 81.1197 67.7121 81.1197C68.5455 81.1197 69.2211 81.7937 69.2211 82.6252V86.6607C69.2213 87.4922 68.5457 88.1662 67.7121 88.1662Z" fill="#9ADCF5"/>
<path d="M74.6945 88.1662C73.8611 88.1662 73.1855 87.4922 73.1855 86.6607V82.6252C73.1855 81.7937 73.8611 81.1197 74.6945 81.1197C75.5279 81.1197 76.2035 81.7937 76.2035 82.6252V86.6607C76.2035 87.4922 75.5279 88.1662 74.6945 88.1662Z" fill="#9ADCF5"/>
<path d="M81.6789 88.1662C80.8455 88.1662 80.1699 87.4922 80.1699 86.6607V82.6252C80.1699 81.7937 80.8455 81.1197 81.6789 81.1197C82.5123 81.1197 83.1879 81.7937 83.1879 82.6252V86.6607C83.1881 87.4922 82.5123 88.1662 81.6789 88.1662Z" fill="#9ADCF5"/>
<path d="M15.1367 48.5271C15.1367 50.2415 16.5297 51.6313 18.248 51.6313H24.5865C26.3049 51.6313 27.6979 50.2415 27.6979 48.5271C27.6979 46.8127 26.3049 45.4229 24.5865 45.4229H18.248C16.5297 45.4229 15.1367 46.8129 15.1367 48.5271Z" fill="#00AEEF"/>
<path d="M20.4687 48.5271C20.4687 46.8127 21.8617 45.4229 23.5801 45.4229H18.248C16.5297 45.4229 15.1367 46.8127 15.1367 48.5271C15.1367 50.2415 16.5297 51.6313 18.248 51.6313H23.5801C21.8617 51.6313 20.4687 50.2415 20.4687 48.5271Z" fill="#00AEEF"/>
<path d="M31.6389 0C23.8168 0 17.4531 6.3491 17.4531 14.1533C17.4531 15.0343 18.1691 15.7486 19.0521 15.7486H23.849C24.732 15.7486 25.448 15.0343 25.448 14.1533C25.448 10.7472 28.2252 7.97643 31.6391 7.97643C32.5221 7.97643 33.2381 7.26205 33.2381 6.38106V1.59536C33.2379 0.714377 32.5219 0 31.6389 0Z" fill="#00AEEF"/>
<path d="M21.4164 14.1533C21.4164 7.37721 26.215 1.70079 32.5994 0.322113C32.3318 0.120817 31.9998 0 31.6389 0C23.8168 0 17.4531 6.3493 17.4531 14.1533C17.4531 15.0343 18.1691 15.7486 19.0521 15.7486H23.0154C22.1324 15.7486 21.4164 15.0343 21.4164 14.1533Z" fill="#00AEEF"/>
<path d="M67.2037 17.2723C65.1215 17.2723 63.1346 17.2723 60.9811 17.2723C60.9811 17.2723 57.7207 25.8102 46.6875 30.1906H81.7539C70.7205 25.81 67.2037 17.2723 67.2037 17.2723Z" fill="url(#paint3_linear_3320_40158)"/>
<path d="M84.8652 32.895C84.8652 31.1806 83.4723 29.7908 81.7539 29.7908H46.6875C44.9691 29.7908 43.5762 31.1806 43.5762 32.895C43.5762 34.6095 44.9691 35.9992 46.6875 35.9992H81.7539C83.4723 35.9992 84.8652 34.6095 84.8652 32.895Z" fill="url(#paint4_linear_3320_40158)"/>
</g>
<defs>
<linearGradient id="paint0_linear_3320_40158" x1="32.4121" y1="10.1729" x2="67.2035" y2="10.1729" gradientUnits="userSpaceOnUse">
<stop stop-color="#BBEDFF"/>
<stop offset="1" stop-color="#1AC1FF"/>
</linearGradient>
<linearGradient id="paint1_linear_3320_40158" x1="18.3066" y1="30.4645" x2="24.5293" y2="30.4645" gradientUnits="userSpaceOnUse">
<stop stop-color="#BBEDFF"/>
<stop offset="1" stop-color="#1AC1FF"/>
</linearGradient>
<linearGradient id="paint2_linear_3320_40158" x1="18.3066" y1="75.3991" x2="24.5293" y2="75.3991" gradientUnits="userSpaceOnUse">
<stop stop-color="#BBEDFF"/>
<stop offset="1" stop-color="#1AC1FF"/>
</linearGradient>
<linearGradient id="paint3_linear_3320_40158" x1="46.6875" y1="23.7314" x2="81.7539" y2="23.7314" gradientUnits="userSpaceOnUse">
<stop stop-color="#BBEDFF"/>
<stop offset="1" stop-color="#1AC1FF"/>
</linearGradient>
<linearGradient id="paint4_linear_3320_40158" x1="43.5762" y1="32.895" x2="84.8652" y2="32.895" gradientUnits="userSpaceOnUse">
<stop stop-color="#BBEDFF"/>
<stop offset="1" stop-color="#1AC1FF"/>
</linearGradient>
<clipPath id="clip0_3320_40158">
<rect width="100" height="91" fill="white"/>
</clipPath>
</defs>
</svg>
