<svg width="100" height="100" viewBox="0 0 100 100" fill="none" xmlns="http://www.w3.org/2000/svg">
<g clip-path="url(#clip0_3046_26800)">
<path d="M92.0122 26.0378L100.002 11.2538V0.546875C93.7533 0.546875 93.7533 4.82976 87.5042 4.82976C81.2551 4.82976 81.2551 0.546875 75.0061 0.546875C68.7572 0.546875 68.7572 4.82976 62.5085 4.82976C56.2598 4.82976 56.2598 0.546875 50.0113 0.546875C43.763 0.546875 43.763 4.82976 37.5147 4.82976C31.2663 4.82976 31.2663 0.546875 25.0176 0.546875C18.7689 0.546875 18.7689 4.82976 12.5202 4.82976C6.27192 4.82976 6.27192 0.546875 0.0234375 0.546875V11.2538L15.7068 26.0378H92.0122Z" fill="url(#paint0_linear_3046_26800)"/>
<path d="M100.002 85.5392V11.2539C93.7533 11.2539 93.7533 15.5368 87.5042 15.5368C81.2551 15.5368 81.2551 11.2539 75.0061 11.2539C68.7572 11.2539 68.7572 15.5368 62.5085 15.5368C56.2598 15.5368 56.2598 11.2539 50.0113 11.2539C43.763 11.2539 43.763 15.5368 37.5147 15.5368C31.2663 15.5368 31.2663 11.2539 25.0176 11.2539C18.7689 11.2539 18.7689 15.5368 12.5202 15.5368C6.27192 15.5368 6.27192 11.2539 0.0234375 11.2539V85.539H100.002V85.5392Z" fill="#EDF9FF"/>
<path d="M94.3418 98.0866L99.9789 89.0233V78.3164C93.7298 78.3164 93.7298 82.5993 87.4808 82.5993C81.2317 82.5993 81.2317 78.3164 74.9826 78.3164C68.7339 78.3164 68.7339 82.5993 62.4851 82.5993C56.2364 82.5993 56.2364 78.3164 49.9879 78.3164C43.7396 78.3164 43.7396 82.5993 37.4913 82.5993C31.2428 82.5993 31.2428 78.3164 24.9941 78.3164C18.7455 78.3164 18.7455 82.5993 12.4968 82.5993C6.24849 82.5993 6.24849 78.3164 0 78.3164V89.0233L11.0649 98.0868H94.3418V98.0866Z" fill="url(#paint1_linear_3046_26800)"/>
<path d="M99.9789 99.4539V89.0234C93.7298 89.0234 93.7298 93.3063 87.4808 93.3063C81.2317 93.3063 81.2317 89.0234 74.9826 89.0234C68.7339 89.0234 68.7339 93.3063 62.4851 93.3063C56.2364 93.3063 56.2364 89.0234 49.9879 89.0234C43.7396 89.0234 43.7396 93.3063 37.4913 93.3063C31.2428 93.3063 31.2428 89.0234 24.9941 89.0234C18.7455 89.0234 18.7455 93.3063 12.4968 93.3063C6.24849 93.3063 6.24849 89.0234 0 89.0234V99.4539H99.9789Z" fill="#00AEEF"/>
</g>
<path d="M69.7034 41.1765C67.6494 43.2304 64.3193 43.2304 62.2654 41.1765C60.2115 39.1225 60.2115 35.7924 62.2654 33.7385C64.3193 31.6846 67.6494 31.6846 69.7034 33.7385C71.7573 35.7924 71.7573 39.1225 69.7034 41.1765Z" fill="#00AEEF"/>
<path d="M41.4992 49.6L57.4736 45.6495C58.38 45.4264 59.3288 45.432 60.2311 45.6678L82.9473 51.6106C84.7221 52.0751 85.702 53.9755 85.0525 55.6924C84.4892 57.1792 82.8895 57.9938 81.3575 57.5773L66.531 53.5491C65.65 53.3091 64.7252 53.2908 63.8343 53.4898L44.3555 57.8809C43.4886 58.0757 42.5878 58.0616 41.7279 57.8399L34.2645 55.9141L30.6105 54.9709L25.0222 53.528L17.5658 51.6035C15.6019 51.0966 14.4681 49.0423 15.0865 47.1108C15.6527 45.3417 17.4938 44.3138 19.2968 44.7614L38.8123 49.5986C39.6948 49.8174 40.6182 49.8174 41.5006 49.5986L41.4992 49.6Z" fill="#00AEEF"/>
<defs>
<linearGradient id="paint0_linear_3046_26800" x1="0.0234375" y1="13.2923" x2="100.002" y2="13.2923" gradientUnits="userSpaceOnUse">
<stop stop-color="#BBEDFF"/>
<stop offset="1" stop-color="#1AC1FF"/>
</linearGradient>
<linearGradient id="paint1_linear_3046_26800" x1="0" y1="88.2016" x2="99.9789" y2="88.2016" gradientUnits="userSpaceOnUse">
<stop stop-color="#BBEDFF"/>
<stop offset="1" stop-color="#1AC1FF"/>
</linearGradient>
<clipPath id="clip0_3046_26800">
<rect width="100" height="100" fill="white"/>
</clipPath>
</defs>
</svg>
