<svg width="100" height="100" viewBox="0 0 100 100" fill="none" xmlns="http://www.w3.org/2000/svg">
<path d="M33.3308 78.333C33.3308 78.333 44.9975 59.9997 44.9975 16.6663V9.16633C45.0007 8.77384 44.9103 8.38624 44.7338 8.03569C44.5572 7.68514 44.2996 7.38174 43.9824 7.15067C43.6651 6.9196 43.2973 6.76752 42.9095 6.70706C42.5217 6.64659 42.125 6.67948 41.7525 6.80299C39.8585 7.70285 37.8064 8.22265 35.7125 8.33299C30.3475 8.33299 27.0458 4.73299 25.2125 2.55133C24.9816 2.27481 24.6928 2.05237 24.3665 1.89973C24.0402 1.74708 23.6844 1.66797 23.3241 1.66797C22.9639 1.66797 22.6081 1.74708 22.2818 1.89973C21.9555 2.05237 21.6667 2.27481 21.4358 2.55133C19.6125 4.73133 16.3141 8.33299 10.9491 8.33299C8.85527 8.22318 6.80324 7.70394 4.90913 6.80466C4.53671 6.68119 4.14022 6.64829 3.75254 6.70867C3.36486 6.76905 2.99716 6.92098 2.67992 7.15185C2.36269 7.38273 2.10506 7.68591 1.92841 8.03625C1.75175 8.38658 1.66116 8.77398 1.66413 9.16633V16.6663C1.66413 59.9997 13.3308 78.333 13.3308 78.333H33.3308Z" fill="#9ADCF5"/>
<path d="M86.6667 78.333C86.6667 78.333 98.3334 59.9997 98.3334 16.6663V9.16633C98.3366 8.77384 98.2462 8.38624 98.0697 8.03569C97.8932 7.68514 97.6356 7.38174 97.3183 7.15067C97.001 6.9196 96.6332 6.76752 96.2454 6.70706C95.8576 6.64659 95.461 6.67948 95.0884 6.80299C93.1944 7.70285 91.1424 8.22265 89.0484 8.33299C83.6834 8.33299 80.3817 4.73299 78.5484 2.55133C78.3175 2.27481 78.0287 2.05237 77.7024 1.89973C77.3761 1.74708 77.0203 1.66797 76.6601 1.66797C76.2998 1.66797 75.944 1.74708 75.6177 1.89973C75.2914 2.05237 75.0026 2.27481 74.7717 2.55133C72.9484 4.73133 69.6501 8.33299 64.2851 8.33299C62.1912 8.22318 60.1392 7.70394 58.2451 6.80466C57.8726 6.68119 57.4762 6.64829 57.0885 6.70867C56.7008 6.76905 56.3331 6.92098 56.0159 7.15185C55.6986 7.38273 55.441 7.68591 55.2643 8.03625C55.0877 8.38658 54.9971 8.77398 55.0001 9.16633V16.6663C55.0001 59.9997 66.6667 78.333 66.6667 78.333H86.6667Z" fill="#9ADCF5"/>
<path d="M23.3359 58.334C20.6838 58.334 18.1402 59.3876 16.2649 61.2629C14.3895 63.1383 13.3359 65.6818 13.3359 68.334V88.334C13.3359 90.9861 14.3895 93.5297 16.2649 95.4051C18.1402 97.2804 20.6838 98.334 23.3359 98.334C25.9881 98.334 28.5316 97.2804 30.407 95.4051C32.2824 93.5297 33.3359 90.9861 33.3359 88.334V68.334C33.332 65.683 32.2771 63.1418 30.4026 61.2673C28.5281 59.3928 25.9869 58.338 23.3359 58.334Z" fill="#EDF9FF"/>
<path d="M83.7307 61.2674C82.8061 60.3343 81.7052 59.5945 80.492 59.0909C79.2788 58.5873 77.9776 58.3301 76.6641 58.334C74.0119 58.334 71.4684 59.3876 69.593 61.263C67.7176 63.1383 66.6641 65.6819 66.6641 68.334V88.334C66.6641 90.9862 67.7176 93.5297 69.593 95.4051C71.4684 97.2805 74.0119 98.334 76.6641 98.334C79.3162 98.334 81.8598 97.2805 83.7351 95.4051C85.6105 93.5297 86.6641 90.9862 86.6641 88.334V68.334C86.668 67.0205 86.4107 65.7193 85.9072 64.5061C85.4036 63.2929 84.6637 62.192 83.7307 61.2674Z" fill="#EDF9FF"/>
<path d="M33.3359 83.334V88.334C33.3359 90.9861 32.2824 93.5297 30.407 95.4051C28.5316 97.2804 25.9881 98.334 23.3359 98.334C20.6838 98.334 18.1402 97.2804 16.2649 95.4051C14.3895 93.5297 13.3359 90.9861 13.3359 88.334V83.334C13.3359 80.6818 14.3895 78.1383 16.2649 76.2629C18.1402 74.3876 20.6838 73.334 23.3359 73.334C25.9881 73.334 28.5316 74.3876 30.407 76.2629C32.2824 78.1383 33.3359 80.6818 33.3359 83.334Z" fill="#00AEEF"/>
<path d="M86.6641 83.334V88.334C86.6641 90.9861 85.6105 93.5297 83.7351 95.4051C81.8598 97.2804 79.3162 98.334 76.6641 98.334C74.0119 98.334 71.4684 97.2804 69.593 95.4051C67.7176 93.5297 66.6641 90.9861 66.6641 88.334V83.334C66.6641 80.6818 67.7176 78.1383 69.593 76.2629C71.4684 74.3876 74.0119 73.334 76.6641 73.334C79.3162 73.334 81.8598 74.3876 83.7351 76.2629C85.6105 78.1383 86.6641 80.6818 86.6641 83.334Z" fill="#00AEEF"/>
<path d="M14.3372 51.6667C13.9455 51.6663 13.5663 51.528 13.2664 51.2759C12.9665 51.0238 12.765 50.6742 12.6972 50.2883C10.834 39.1794 9.93293 27.9305 10.0039 16.6667C10.0039 16.2246 10.1795 15.8007 10.492 15.4882C10.8046 15.1756 11.2285 15 11.6706 15C12.1126 15 12.5365 15.1756 12.8491 15.4882C13.1616 15.8007 13.3372 16.2246 13.3372 16.6667C13.2682 27.7375 14.1554 38.7935 15.9889 49.7117C16.0267 49.9274 16.0217 50.1484 15.9741 50.3622C15.9265 50.576 15.8372 50.7782 15.7114 50.9575C15.5855 51.1367 15.4256 51.2894 15.2407 51.4068C15.0558 51.5242 14.8496 51.604 14.6339 51.6417C14.5359 51.6586 14.4366 51.667 14.3372 51.6667Z" fill="#00AEEF"/>
<path d="M32.342 51.6667C32.2448 51.6666 32.1477 51.6583 32.052 51.6417C31.8362 51.604 31.63 51.5242 31.4451 51.4068C31.2603 51.2894 31.1003 51.1367 30.9745 50.9575C30.8486 50.7782 30.7594 50.576 30.7117 50.3622C30.6641 50.1484 30.6591 49.9274 30.697 49.7117C32.5282 38.7933 33.4132 27.7373 33.342 16.6667C33.342 16.2246 33.5176 15.8007 33.8301 15.4882C34.1427 15.1756 34.5666 15 35.0086 15C35.4507 15 35.8746 15.1756 36.1872 15.4882C36.4997 15.8007 36.6753 16.2246 36.6753 16.6667C36.7441 27.9307 35.8407 39.1796 33.9753 50.2883C33.9077 50.6731 33.7072 51.0218 33.4086 51.2738C33.1101 51.5257 32.7326 51.6647 32.342 51.6667Z" fill="#00AEEF"/>
<path d="M23.3385 51.6667C22.8965 51.6667 22.4726 51.4911 22.16 51.1785C21.8475 50.866 21.6719 50.442 21.6719 50V16.6667C21.6719 16.2246 21.8475 15.8007 22.16 15.4882C22.4726 15.1756 22.8965 15 23.3385 15C23.7806 15 24.2045 15.1756 24.5171 15.4882C24.8296 15.8007 25.0052 16.2246 25.0052 16.6667V50C25.0052 50.442 24.8296 50.866 24.5171 51.1785C24.2045 51.4911 23.7806 51.6667 23.3385 51.6667Z" fill="#00AEEF"/>
<path d="M67.6732 51.6667C67.2814 51.6663 66.9023 51.528 66.6024 51.2759C66.3025 51.0238 66.1009 50.6742 66.0332 50.2883C64.17 39.1794 63.2689 27.9305 63.3398 16.6667C63.3398 16.2246 63.5154 15.8007 63.828 15.4882C64.1405 15.1756 64.5645 15 65.0065 15C65.4485 15 65.8724 15.1756 66.185 15.4882C66.4976 15.8007 66.6732 16.2246 66.6732 16.6667C66.6041 27.7375 67.4913 38.7935 69.3248 49.7117C69.3627 49.9274 69.3577 50.1484 69.3101 50.3622C69.2624 50.576 69.1731 50.7782 69.0473 50.9575C68.9215 51.1367 68.7615 51.2894 68.5767 51.4068C68.3918 51.5242 68.1856 51.604 67.9698 51.6417C67.8719 51.6586 67.7726 51.667 67.6732 51.6667Z" fill="#00AEEF"/>
<path d="M85.6701 51.6667C85.5729 51.6666 85.4759 51.6583 85.3801 51.6417C85.1644 51.604 84.9582 51.5242 84.7733 51.4068C84.5884 51.2894 84.4285 51.1367 84.3026 50.9575C84.1768 50.7782 84.0875 50.576 84.0399 50.3622C83.9923 50.1484 83.9872 49.9274 84.0251 49.7117C85.8564 38.7933 86.7413 27.7373 86.6701 16.6667C86.6701 16.2246 86.8457 15.8007 87.1583 15.4882C87.4708 15.1756 87.8947 15 88.3368 15C88.7788 15 89.2027 15.1756 89.5153 15.4882C89.8278 15.8007 90.0034 16.2246 90.0034 16.6667C90.0722 27.9307 89.1688 39.1796 87.3034 50.2883C87.2359 50.6731 87.0353 51.0218 86.7368 51.2738C86.4382 51.5257 86.0607 51.6647 85.6701 51.6667Z" fill="#00AEEF"/>
<path d="M76.6667 51.6667C76.2246 51.6667 75.8007 51.4911 75.4882 51.1785C75.1756 50.866 75 50.442 75 50V16.6667C75 16.2246 75.1756 15.8007 75.4882 15.4882C75.8007 15.1756 76.2246 15 76.6667 15C77.1087 15 77.5326 15.1756 77.8452 15.4882C78.1577 15.8007 78.3333 16.2246 78.3333 16.6667V50C78.3333 50.442 78.1577 50.866 77.8452 51.1785C77.5326 51.4911 77.1087 51.6667 76.6667 51.6667Z" fill="#00AEEF"/>
</svg>
