<svg width="110" height="110" viewBox="0 0 110 110" fill="none" xmlns="http://www.w3.org/2000/svg">
<rect width="110" height="110" fill="white"/>
<g clip-path="url(#clip0_72_184)">
<mask id="mask0_72_184" style="mask-type:luminance" maskUnits="userSpaceOnUse" x="10" y="20" width="90" height="90">
<path d="M100 20H10V110H100V20Z" fill="white"/>
</mask>
<g mask="url(#mask0_72_184)">
<path d="M90.1563 20C89.7833 20 89.4256 20.1482 89.1619 20.4119C88.8982 20.6756 88.75 21.0333 88.75 21.4062V39.6875C88.75 40.0605 88.8982 40.4181 89.1619 40.6819C89.4256 40.9456 89.7833 41.0938 90.1563 41.0938H95.7813C96.1542 41.0938 96.5119 40.9456 96.7756 40.6819C97.0393 40.4181 97.1875 40.0605 97.1875 39.6875V27.0312C97.1853 25.1671 96.4438 23.38 95.1256 22.0619C93.8075 20.7437 92.0204 20.0022 90.1563 20Z" fill="url(#paint0_linear_72_184)"/>
<path d="M95.7813 74.8438H90.1563C89.7833 74.8438 89.4256 74.9919 89.1619 75.2556C88.8982 75.5194 88.75 75.877 88.75 76.25V91.7188C88.7467 94.3284 87.7084 96.8302 85.863 98.6755C84.0177 100.521 81.5159 101.559 78.9063 101.562H47.9688V95.3609C47.9688 95.1285 47.911 94.8996 47.8009 94.6949C47.6908 94.4901 47.5317 94.3158 47.3378 94.1876C47.1438 94.0594 46.9213 93.9814 46.6897 93.9604C46.4582 93.9394 46.225 93.9761 46.0112 94.0672C45.2961 94.3714 44.5271 94.528 43.75 94.528C42.9729 94.528 42.2038 94.3714 41.4888 94.0672C41.2749 93.9761 41.0418 93.9394 40.8103 93.9604C40.5787 93.9814 40.3561 94.0594 40.1621 94.1876C39.9682 94.3158 39.809 94.4901 39.6989 94.6949C39.5888 94.8996 39.5312 95.1285 39.5313 95.3609V102.969C39.5335 104.833 40.275 106.62 41.5931 107.938C42.9113 109.256 44.6984 109.998 46.5625 110H78.9063C83.753 109.994 88.3996 108.067 91.8268 104.639C95.254 101.212 97.1819 96.5655 97.1875 91.7188V76.25C97.1875 75.877 97.0392 75.5194 96.7755 75.2556C96.5118 74.9919 96.1542 74.8438 95.7813 74.8438Z" fill="url(#paint1_linear_72_184)"/>
<path d="M87.3438 49.5312H76.0938C75.3171 49.5312 74.6875 50.1608 74.6875 50.9375V65C74.6875 65.7767 75.3171 66.4063 76.0938 66.4063H87.3438C88.1204 66.4063 88.75 65.7767 88.75 65V50.9375C88.75 50.1608 88.1204 49.5312 87.3438 49.5312Z" fill="url(#paint2_linear_72_184)"/>
<path d="M43.75 97.3438C48.4099 97.3438 52.1875 93.5662 52.1875 88.9063C52.1875 84.2463 48.4099 80.4688 43.75 80.4688C39.0901 80.4688 35.3125 84.2463 35.3125 88.9063C35.3125 93.5662 39.0901 97.3438 43.75 97.3438Z" fill="#00AEEF"/>
<path d="M43.75 93.125C46.08 93.125 47.9688 91.2362 47.9688 88.9063C47.9688 86.5763 46.08 84.6875 43.75 84.6875C41.42 84.6875 39.5312 86.5763 39.5312 88.9063C39.5312 91.2362 41.42 93.125 43.75 93.125Z" fill="white"/>
<path d="M63.4375 36.875H24.0625C20.3342 36.8791 16.7597 38.362 14.1233 40.9983C11.487 43.6347 10.0041 47.2092 10 50.9375V65C10.0041 68.7284 11.487 72.3028 14.1233 74.9392C16.7597 77.5755 20.3342 79.0584 24.0625 79.0625H32.0444C34.4165 79.065 36.7475 78.4424 38.8025 77.2574C40.8575 76.0724 42.5639 74.3669 43.75 72.3125C44.9361 74.3669 46.6425 76.0724 48.6975 77.2574C50.7525 78.4424 53.0835 79.065 55.4556 79.0625H63.4375C67.1659 79.0584 70.7403 77.5755 73.3767 74.9392C76.013 72.3028 77.4959 68.7284 77.5 65V50.9375C77.4959 47.2092 76.013 43.6347 73.3767 40.9983C70.7403 38.362 67.1659 36.8791 63.4375 36.875Z" fill="#00AEEF"/>
<path d="M63.4375 42.5H24.0625C21.8254 42.5022 19.6806 43.3919 18.0988 44.9738C16.5169 46.5556 15.6272 48.7004 15.625 50.9375V65C15.6272 67.2371 16.5169 69.3819 18.0988 70.9637C19.6806 72.5456 21.8254 73.4353 24.0625 73.4375H32.0444C33.7015 73.44 35.3171 72.9197 36.6613 71.9507C38.0056 70.9816 39.0099 69.6132 39.5313 68.0403C39.8262 67.1547 40.3924 66.3843 41.1496 65.8384C41.9068 65.2925 42.8165 64.9988 43.75 64.9988C44.6835 64.9988 45.5932 65.2925 46.3504 65.8384C47.1076 66.3843 47.6738 67.1547 47.9688 68.0403C48.4901 69.6132 49.4944 70.9816 50.8387 71.9507C52.1829 72.9197 53.7985 73.44 55.4556 73.4375H63.4375C65.6746 73.4353 67.8194 72.5456 69.4013 70.9637C70.9831 69.3819 71.8728 67.2371 71.875 65V50.9375C71.8728 48.7004 70.9831 46.5556 69.4013 44.9738C67.8194 43.3919 65.6746 42.5022 63.4375 42.5Z" fill="#EDF9FF"/>
<path d="M98.5938 38.2812H87.3438C86.5671 38.2812 85.9375 38.9108 85.9375 39.6875V76.25C85.9375 77.0267 86.5671 77.6563 87.3438 77.6563H98.5938C99.3704 77.6563 100 77.0267 100 76.25V39.6875C100 38.9108 99.3704 38.2812 98.5938 38.2812Z" fill="#00AEEF"/>
</g>
</g>
<defs>
<linearGradient id="paint0_linear_72_184" x1="88.75" y1="30.5469" x2="97.1875" y2="30.5469" gradientUnits="userSpaceOnUse">
<stop stop-color="#BBEDFF"/>
<stop offset="1" stop-color="#1AC1FF"/>
</linearGradient>
<linearGradient id="paint1_linear_72_184" x1="39.5312" y1="92.4219" x2="97.1875" y2="92.4219" gradientUnits="userSpaceOnUse">
<stop stop-color="#BBEDFF"/>
<stop offset="1" stop-color="#1AC1FF"/>
</linearGradient>
<linearGradient id="paint2_linear_72_184" x1="74.6875" y1="57.9688" x2="88.75" y2="57.9688" gradientUnits="userSpaceOnUse">
<stop stop-color="#BBEDFF"/>
<stop offset="1" stop-color="#1AC1FF"/>
</linearGradient>
<clipPath id="clip0_72_184">
<rect width="90" height="90" fill="white" transform="translate(10 20)"/>
</clipPath>
</defs>
</svg>
