<svg width="183" height="41" viewBox="0 0 183 41" fill="none" xmlns="http://www.w3.org/2000/svg">
<path d="M25.5226 18.8303V2.67071H31.7994V5.45326H27.8494V16.0397H27.9214C28.753 16.0397 29.5845 15.9518 30.4241 15.7759C31.2636 15.6 32.0792 15.3761 32.8708 15.0962V17.7988C32.1432 18.0947 31.2796 18.3425 30.2722 18.5344C29.2727 18.7263 28.2652 18.8223 27.2657 18.8223H25.5146L25.5226 18.8303ZM39.4914 24.9791H37.1966V12.1058H35.7333V24.3794H33.4545V0.887642H35.7333V9.32324H37.1966V0.623779H39.4914V24.9791Z" fill="#25408F"/>
<path d="M41.4824 7.14038V4.64568H52.0529V7.14038H41.4824ZM46.8396 16.4395C46.152 16.4395 45.5443 16.3196 45.0166 16.0717C44.4889 15.8238 44.0491 15.504 43.6973 15.1122C43.3455 14.7204 43.0816 14.2647 42.8977 13.7449C42.7138 13.2252 42.6258 12.6895 42.6258 12.1298C42.6258 11.5701 42.7138 11.0583 42.8977 10.5386C43.0816 10.0189 43.3455 9.56312 43.6973 9.16333C44.0491 8.76353 44.4889 8.4437 45.0166 8.20383C45.5443 7.96395 46.152 7.85201 46.8396 7.85201C47.5273 7.85201 48.135 7.97195 48.6547 8.20383C49.1744 8.4437 49.6142 8.76353 49.974 9.16333C50.3338 9.56312 50.5977 10.0269 50.7816 10.5386C50.9655 11.0583 51.0534 11.5861 51.0534 12.1298C51.0534 12.6735 50.9655 13.2332 50.7816 13.7449C50.5977 14.2647 50.3338 14.7204 49.974 15.1122C49.6142 15.504 49.1744 15.8238 48.6547 16.0717C48.135 16.3196 47.5273 16.4395 46.8396 16.4395ZM43.7213 3.40633V0.807683H49.942V3.40633H43.7213ZM55.5871 24.5073H44.3449V18.3026H46.6957V21.7488H55.5871V24.5073ZM46.8396 14.0488C47.5433 14.0488 48.047 13.8569 48.3588 13.4811C48.6707 13.1053 48.8306 12.6655 48.8306 12.1538C48.8306 11.642 48.6787 11.1703 48.3668 10.7865C48.063 10.4027 47.5513 10.2108 46.8316 10.2108C46.112 10.2108 45.5683 10.4027 45.2724 10.7865C44.9686 11.1703 44.8247 11.626 44.8247 12.1538C44.8247 12.6815 44.9766 13.1053 45.2724 13.4811C45.5763 13.8569 46.096 14.0488 46.8316 14.0488H46.8396ZM57.8419 11.4741H55.2272V19.0941H52.9165V0.623779H55.2272V8.69157H57.8419V11.4741Z" fill="#25408F"/>
<path d="M58.2737 16.3116V13.609H74.4093V16.3116H67.6928V24.8511H65.326V16.3116H58.2737ZM67.9007 1.03955C67.9246 1.65523 67.9007 2.24692 67.8287 2.82262C67.7567 3.39832 67.6288 3.97402 67.4529 4.53373C67.7647 5.14941 68.1485 5.70112 68.6123 6.18886C69.068 6.67661 69.5718 7.11638 70.1075 7.50018C70.6432 7.88398 71.2189 8.2198 71.8266 8.51565C72.4343 8.8035 73.058 9.03538 73.6976 9.21129L72.5142 11.7859C71.2349 11.3862 70.0675 10.7865 69.0121 9.99488C67.9486 9.20329 67.0291 8.25978 66.2375 7.15636C65.5259 8.25978 64.6543 9.22728 63.6229 10.0508C62.5914 10.8744 61.488 11.5141 60.3126 11.9698L59.0892 9.45116C60.1047 9.08335 61.0083 8.6196 61.8078 8.05989C62.6074 7.50018 63.2711 6.86051 63.8228 6.15688C64.3665 5.44525 64.7823 4.66166 65.0701 3.80611C65.358 2.95055 65.4939 2.03103 65.4859 1.04755H67.9086L67.9007 1.03955Z" fill="#25408F"/>
<path d="M84.2599 15.9437C85.8511 16.1036 87.0585 16.5833 87.882 17.3909C88.7056 18.1985 89.1134 19.2299 89.1134 20.4933C89.1134 21.8925 88.6016 23.028 87.5782 23.8835C86.5547 24.7391 85.0755 25.1708 83.1325 25.1708C81.1895 25.1708 79.6783 24.7391 78.6708 23.8835C77.6634 23.028 77.1596 21.8925 77.1596 20.4933C77.1596 19.2539 77.5674 18.2305 78.375 17.4309C79.1826 16.6313 80.3579 16.1515 81.9011 15.9756V13.8487H74.9048V11.1941H91.3762V13.8487H84.2679V15.9516L84.2599 15.9437ZM77.5514 1.30329H85.5073C86.2189 1.30329 86.9865 1.28729 87.8021 1.24731C88.2178 1.24731 88.3458 1.57514 88.1939 2.22281C88.018 2.95842 87.7061 3.66205 87.2503 4.3417C86.8026 5.01335 86.2349 5.66101 85.5552 6.27669C86.2909 6.6445 87.0744 6.95634 87.89 7.2202C88.7056 7.48406 89.5451 7.69995 90.4087 7.87586L89.6011 10.2106C88.5217 9.93078 87.4902 9.59496 86.4987 9.19517C85.5073 8.80337 84.5478 8.30763 83.6202 7.70794C82.6767 8.28364 81.6533 8.79538 80.5339 9.23515C79.4144 9.67492 78.2391 10.0187 76.9997 10.2586L76.1361 7.87586C77.3755 7.65197 78.4869 7.37212 79.4544 7.04429C80.4219 6.71646 81.2695 6.36465 81.9971 5.99684C82.7167 5.62903 83.3164 5.25323 83.7802 4.86943C84.2519 4.48563 84.6037 4.13381 84.8436 3.79798V3.774C84.164 3.80598 83.5003 3.83796 82.8446 3.86995C82.189 3.89393 81.5173 3.90993 80.8457 3.90993H77.5514V1.31128V1.30329ZM83.1325 18.3824C82.4688 18.3824 81.9091 18.4383 81.4614 18.5503C81.0136 18.6622 80.6458 18.8221 80.3739 19.022C80.1021 19.2219 79.9022 19.4538 79.7822 19.7017C79.6623 19.9576 79.6063 20.2134 79.6063 20.4773C79.6063 20.7571 79.6623 21.029 79.7822 21.2769C79.9022 21.5327 80.1021 21.7566 80.3739 21.9565C80.6538 22.1564 81.0136 22.3163 81.4614 22.4443C81.9091 22.5642 82.4688 22.6282 83.1325 22.6282C83.7962 22.6282 84.3559 22.5642 84.8036 22.4443C85.2514 22.3243 85.6192 22.1564 85.8911 21.9565C86.1709 21.7566 86.3628 21.5247 86.4828 21.2769C86.6027 21.029 86.6587 20.7571 86.6587 20.4773C86.6587 20.2134 86.6027 19.9576 86.4828 19.7017C86.3628 19.4458 86.1629 19.2219 85.8911 19.022C85.6192 18.8221 85.2514 18.6622 84.8036 18.5503C84.3559 18.4383 83.7962 18.3824 83.1325 18.3824Z" fill="#25408F"/>
<path d="M94.1909 11.6341C94.1909 11.0344 94.3348 10.5467 94.6147 10.1469C94.8945 9.75507 95.2623 9.55518 95.7181 9.55518C96.1739 9.55518 96.5337 9.75507 96.8215 10.1469C97.1014 10.5387 97.2453 11.0344 97.2453 11.6341C97.2453 12.2338 97.1014 12.7215 96.8215 13.1213C96.5417 13.5131 96.1739 13.713 95.7181 13.713C95.2623 13.713 94.9025 13.5131 94.6147 13.1213C94.3348 12.7295 94.1909 12.2338 94.1909 11.6341Z" fill="#25408F"/>
<path d="M102.147 11.714L102.051 5.48524H104.329L104.401 11.714H106.608C106.824 11.714 107.04 11.706 107.256 11.69L107.328 5.48524H109.607L109.511 11.4501C109.902 11.3782 110.294 11.2982 110.686 11.2103C111.078 11.1223 111.486 11.0104 111.901 10.8664V13.4971C111.022 13.8489 110.078 14.0808 109.063 14.2087C108.047 14.3286 107.024 14.3926 106.001 14.3926H100.228V11.714H102.147ZM100.587 4.69366V1.95908H110.91V4.69366H100.587ZM115.06 24.5073H103.818V16.9433H106.168V21.7488H115.06V24.5073ZM112.389 0.623779H114.724V18.7023H112.389V0.623779Z" fill="#25408F"/>
<path d="M116.979 16.3116V13.609H133.115V16.3116H126.398V24.8511H124.031V16.3116H116.979ZM126.606 1.03955C126.63 1.65523 126.606 2.24692 126.534 2.82262C126.462 3.39832 126.334 3.97402 126.158 4.53373C126.47 5.14941 126.854 5.70112 127.318 6.18886C127.773 6.67661 128.277 7.11638 128.813 7.50018C129.349 7.88398 129.924 8.2198 130.532 8.51565C131.14 8.8035 131.763 9.03538 132.403 9.21129L131.22 11.7859C129.94 11.3862 128.773 10.7865 127.709 9.99488C126.646 9.20329 125.726 8.25978 124.935 7.15636C124.223 8.25978 123.352 9.22728 122.32 10.0508C121.289 10.8744 120.193 11.5141 119.01 11.9698L117.787 9.45116C118.802 9.08335 119.706 8.6196 120.505 8.05989C121.305 7.50018 121.968 6.86051 122.52 6.15688C123.064 5.44525 123.48 4.66166 123.767 3.80611C124.055 2.95055 124.191 2.03103 124.183 1.04755H126.606V1.03955Z" fill="#25408F"/>
<path d="M142.446 3.11848H145.94V0.623779H148.275V14.9683H145.94V11.1863H142.686C142.286 11.8899 141.774 12.4416 141.166 12.8414C140.551 13.2412 139.863 13.4491 139.095 13.4491C138.416 13.4491 137.8 13.2892 137.256 12.9773C136.705 12.6655 136.225 12.2257 135.825 11.674C135.425 11.1223 135.113 10.4746 134.89 9.73903C134.674 9.00341 134.562 8.20382 134.562 7.34827C134.562 6.49272 134.674 5.68514 134.89 4.94153C135.113 4.19791 135.417 3.55025 135.825 2.99854C136.225 2.44683 136.705 2.00706 137.256 1.68722C137.808 1.3594 138.424 1.19948 139.095 1.19948C139.767 1.19948 140.431 1.36739 140.99 1.71121C141.558 2.05503 142.038 2.51879 142.438 3.11848H142.446ZM142.614 14.7604C143.589 14.7604 144.445 14.8963 145.18 15.1682C145.916 15.44 146.524 15.8079 147.011 16.2716C147.499 16.7354 147.867 17.2871 148.107 17.9108C148.355 18.5424 148.475 19.2221 148.475 19.9577C148.475 20.6933 148.355 21.381 148.107 22.0046C147.859 22.6363 147.499 23.18 147.011 23.6438C146.524 24.1075 145.908 24.4753 145.18 24.7472C144.445 25.0191 143.589 25.155 142.614 25.155C141.638 25.155 140.783 25.0191 140.055 24.7472C139.327 24.4753 138.72 24.1075 138.24 23.6438C137.76 23.18 137.392 22.6363 137.144 22.0046C136.905 21.373 136.777 20.6933 136.777 19.9577C136.777 19.2221 136.897 18.5424 137.144 17.9108C137.392 17.2791 137.752 16.7354 138.24 16.2716C138.72 15.8079 139.327 15.44 140.055 15.1682C140.783 14.8963 141.638 14.7604 142.614 14.7604ZM136.841 7.34827C136.841 8.37973 137.04 9.2113 137.448 9.83497C137.856 10.4586 138.408 10.7705 139.095 10.7705C139.783 10.7705 140.311 10.4586 140.719 9.83497C141.126 9.2113 141.326 8.38773 141.326 7.34827C141.326 6.30881 141.126 5.50124 140.719 4.86157C140.311 4.2219 139.767 3.90207 139.095 3.90207C138.424 3.90207 137.872 4.2219 137.456 4.86157C137.04 5.50124 136.833 6.3328 136.833 7.34827H136.841ZM142.614 17.415C141.974 17.415 141.438 17.487 140.998 17.6229C140.559 17.7668 140.199 17.9507 139.927 18.1906C139.655 18.4305 139.447 18.7023 139.327 19.0062C139.199 19.31 139.135 19.6299 139.135 19.9657C139.135 20.3015 139.199 20.6213 139.327 20.9252C139.455 21.229 139.655 21.5009 139.927 21.7408C140.207 21.9806 140.559 22.1645 140.998 22.3085C141.438 22.4524 141.974 22.5164 142.614 22.5164C143.253 22.5164 143.797 22.4444 144.245 22.3085C144.692 22.1725 145.052 21.9806 145.332 21.7408C145.612 21.5009 145.82 21.229 145.94 20.9252C146.068 20.6213 146.132 20.3015 146.132 19.9657C146.132 19.6299 146.068 19.31 145.94 19.0062C145.812 18.7023 145.612 18.4305 145.332 18.1906C145.052 17.9507 144.684 17.7668 144.245 17.6229C143.797 17.487 143.253 17.415 142.614 17.415ZM143.533 8.65959H145.956V5.61318H143.453C143.565 6.17288 143.621 6.74858 143.621 7.34827C143.621 7.57215 143.613 7.79604 143.589 8.01992C143.573 8.23581 143.549 8.4517 143.525 8.65959H143.533Z" fill="#25408F"/>
<path d="M150.601 6.26878V4.00596H161.172V6.26878H150.601ZM155.903 14.6244C155.223 14.6244 154.631 14.5125 154.127 14.2966C153.624 14.0807 153.2 13.7929 152.856 13.433C152.52 13.0732 152.256 12.6654 152.089 12.2017C151.913 11.7379 151.825 11.2502 151.825 10.7464C151.825 10.2427 151.913 9.77894 152.089 9.31519C152.264 8.85143 152.52 8.43565 152.856 8.08383C153.192 7.72402 153.616 7.44416 154.127 7.22828C154.639 7.02038 155.231 6.91644 155.903 6.91644C156.574 6.91644 157.15 7.02038 157.662 7.22828C158.165 7.43617 158.597 7.72402 158.941 8.08383C159.285 8.44364 159.549 8.85143 159.725 9.31519C159.9 9.77894 159.988 10.2587 159.988 10.7464C159.988 11.2342 159.9 11.7379 159.725 12.2017C159.549 12.6654 159.293 13.0812 158.941 13.433C158.597 13.7929 158.173 14.0807 157.662 14.2966C157.158 14.5125 156.566 14.6244 155.903 14.6244ZM152.84 2.85456V0.519775H159.061V2.85456H152.84ZM165.026 24.6112H153.896V15.8078H156.23V17.6468H162.739V15.6239H165.034V24.6112H165.026ZM155.903 12.3456C156.582 12.3456 157.062 12.1777 157.35 11.8499C157.638 11.514 157.782 11.1462 157.782 10.7464C157.782 10.3067 157.638 9.93087 157.358 9.61903C157.078 9.30719 156.59 9.14727 155.903 9.14727C155.215 9.14727 154.711 9.30719 154.423 9.61903C154.143 9.93087 154 10.3147 154 10.7464C154 11.1782 154.143 11.538 154.423 11.8659C154.703 12.1937 155.199 12.3536 155.903 12.3536V12.3456ZM162.731 22.0925V20.1255H156.206V22.0925H162.731ZM160.548 9.58705V7.11633H162.715V0.623721H165.05V14.6004H162.715V13.7849H160.548V11.3141H162.731V9.57905H160.548V9.58705Z" fill="#25408F"/>
<path d="M174.653 16.5435V18.4625C175.468 18.4065 176.276 18.3425 177.076 18.2546C177.875 18.1666 178.643 18.0547 179.37 17.9108V20.5094C178.707 20.6533 178.003 20.7653 177.267 20.8612C176.524 20.9572 175.772 21.0371 175.013 21.1011C174.245 21.1651 173.485 21.213 172.726 21.245C171.966 21.277 171.247 21.301 170.575 21.301H167.584V18.6224H171.398C171.702 18.6224 172.014 18.6144 172.342 18.5984V16.5755C171.287 16.3676 170.487 15.8798 169.935 15.1282C169.384 14.3766 169.104 13.4651 169.104 12.3936C169.104 11.794 169.2 11.2422 169.384 10.7225C169.575 10.2028 169.847 9.76301 170.223 9.37921C170.591 9.00341 171.047 8.70756 171.574 8.49967C172.11 8.29178 172.726 8.18783 173.429 8.18783C174.133 8.18783 174.733 8.29178 175.26 8.49967C175.796 8.70756 176.244 9.00341 176.612 9.37921C176.98 9.75502 177.259 10.2028 177.451 10.7225C177.643 11.2422 177.731 11.794 177.731 12.3936C177.731 13.4411 177.467 14.3366 176.94 15.0722C176.412 15.8079 175.644 16.2956 174.645 16.5435H174.653ZM168 7.56416V5.03748H178.795V7.56416H168ZM170.119 3.87808V1.30342H176.516V3.87808H170.119ZM175.428 12.3936C175.428 11.8819 175.284 11.4501 174.989 11.0903C174.693 10.7305 174.173 10.5546 173.437 10.5546C172.702 10.5546 172.158 10.7305 171.87 11.0903C171.582 11.4501 171.43 11.8819 171.43 12.3936C171.43 12.9533 171.574 13.4011 171.87 13.7449C172.166 14.0888 172.686 14.2567 173.437 14.2567C174.189 14.2567 174.693 14.0888 174.989 13.7449C175.284 13.4011 175.428 12.9533 175.428 12.3936ZM182.233 24.9791H179.922V0.623779H182.233V24.9791Z" fill="#25408F"/>
<path d="M1.00747 9.28316L0 8.37163C0.471754 7.97184 0.89553 7.54007 1.28733 7.05232C1.67113 6.57257 1.99896 6.02086 2.25482 5.40518C2.51869 4.7895 2.71058 4.09386 2.83052 3.32626C2.95046 2.55067 2.98244 1.67912 2.93447 0.695637H4.37372C4.38971 1.26334 4.37372 1.79906 4.33374 2.3028C4.29376 2.80654 4.22979 3.29428 4.14983 3.75804C4.44568 4.66956 4.82148 5.46915 5.29323 6.14879C5.76499 6.82844 6.34869 7.44412 7.05232 7.97984L6.11681 9.04328C5.02938 8.17973 4.18182 7.0923 3.57414 5.78098C3.28629 6.50061 2.93447 7.14028 2.50269 7.71597C2.07092 8.29167 1.57518 8.8114 1.01547 9.27516L1.00747 9.28316ZM10.2187 5.52512H8.57153V11.7379H7.18025V0H8.57153V4.17382H10.2187V5.51712V5.52512Z" fill="#25408F"/>
<path d="M10.8823 0.599809H15.8956V1.91912H12.2815V5.26138H13.305C13.9607 5.26138 14.5923 5.2134 15.2 5.11745C15.8077 5.0215 16.3754 4.92555 16.9031 4.8296V6.08495C16.6553 6.14891 16.3754 6.21288 16.0636 6.27685C15.7517 6.33282 15.4239 6.38879 15.0881 6.42877C14.7442 6.46875 14.4004 6.50073 14.0406 6.53271C13.6808 6.5567 13.329 6.57269 12.9852 6.57269H10.8743V0.599809H10.8823ZM18.7981 11.5141H12.1456V8.03593H13.5449V10.1868H18.7981V11.5141ZM20.1414 4.40582H18.5822V8.70758H17.199V0.0161133H18.5822V3.06252H20.1414V4.40582Z" fill="#25408F"/>
<path d="M5.87684 17.7348H7.65192V15.1921H9.04319V21.4289H7.65192V18.9982H5.87684V21.1011H0.983398V15.528H2.35068V17.1751H4.52555V15.528H5.86885V17.7268L5.87684 17.7348ZM4.53355 18.4304H2.35868V19.8617H4.53355V18.4304ZM9.04319 26.7541H2.42265V22.0046H3.78194V23.092H7.65992V21.9406H9.04319V26.7541ZM7.66791 25.4508V24.3474H3.78993V25.4508H7.66791Z" fill="#25408F"/>
<path d="M10.7463 18.7023C10.7463 18.2625 10.8103 17.8548 10.9462 17.4869C11.0822 17.1191 11.2661 16.7913 11.5139 16.5194C11.7538 16.2476 12.0497 16.0317 12.3855 15.8718C12.7213 15.7119 13.0891 15.6399 13.4969 15.6399C13.9047 15.6399 14.2725 15.7199 14.6163 15.8718C14.9601 16.0317 15.256 16.2396 15.5039 16.5194C15.7517 16.7913 15.9436 17.1191 16.0796 17.4869C16.2155 17.8548 16.2874 18.2625 16.2874 18.7023C16.2874 19.1421 16.2155 19.5179 16.0796 19.8857C15.9436 20.2535 15.7517 20.5733 15.5039 20.8452C15.256 21.117 14.9601 21.3249 14.6163 21.4849C14.2725 21.6448 13.8967 21.7167 13.4969 21.7167C13.0971 21.7167 12.7213 21.6368 12.3775 21.4849C12.0337 21.3249 11.7458 21.117 11.5059 20.8452C11.2661 20.5733 11.0822 20.2535 10.9462 19.8857C10.8103 19.5179 10.7463 19.1261 10.7463 18.7023ZM12.1856 18.7023C12.1856 19.214 12.3055 19.6218 12.5374 19.9257C12.7693 20.2295 13.0971 20.3734 13.5209 20.3734C13.9447 20.3734 14.2485 20.2215 14.4964 19.9257C14.7443 19.6298 14.8642 19.222 14.8642 18.7023C14.8642 18.1506 14.7443 17.7268 14.4964 17.415C14.2485 17.1111 13.9207 16.9512 13.5209 16.9512C13.1211 16.9512 12.7853 17.1031 12.5454 17.415C12.3055 17.7268 12.1856 18.1506 12.1856 18.7023ZM19.2539 26.6981H12.4575V23.076H13.8407V25.3708H19.2619V26.6981H19.2539ZM19.038 23.5318H17.6547V15.1921H19.038V23.5318Z" fill="#25408F"/>
<path d="M0.943604 40.499V30.8721H2.76665V35.1498L6.45273 30.8721H8.90745L5.50922 34.6221L9.09135 40.499H6.73258L4.25388 35.9814L2.77465 37.5886V40.499H0.951601H0.943604Z" fill="#25408F"/>
<path d="M9.61914 36.9168C9.61914 36.3012 9.76306 35.7095 10.0429 35.1338C10.3228 34.5581 10.7306 34.1263 11.2503 33.8225C11.77 33.5186 12.3457 33.3667 12.9934 33.3667C13.9849 33.3667 14.7924 33.7105 15.4241 34.3982C16.0558 35.0858 16.3756 35.9493 16.3756 36.9968C16.3756 38.0443 16.0558 38.9238 15.4161 39.6194C14.7765 40.3151 13.9769 40.6589 13.0014 40.6589C12.4017 40.6589 11.826 40.515 11.2823 40.2271C10.7386 39.9393 10.3228 39.5155 10.0429 38.9558C9.76306 38.3961 9.61914 37.7164 9.61914 36.9168ZM11.3942 37.0128C11.3942 37.7084 11.5461 38.2362 11.858 38.604C12.1698 38.9718 12.5456 39.1557 13.0014 39.1557C13.4571 39.1557 13.8329 38.9718 14.1368 38.604C14.4406 38.2362 14.5925 37.7004 14.5925 37.0048C14.5925 36.3092 14.4406 35.7974 14.1368 35.4296C13.8329 35.0618 13.4491 34.8779 13.0014 34.8779C12.5536 34.8779 12.1698 35.0618 11.858 35.4296C11.5461 35.7974 11.3942 36.3252 11.3942 37.0208V37.0128Z" fill="#25408F"/>
<path d="M19.3819 40.499H17.6548V33.5266H19.2619V34.5181C19.5338 34.0463 19.7817 33.7425 20.0056 33.5906C20.2214 33.4387 20.4773 33.3667 20.7572 33.3667C21.149 33.3667 21.5328 33.4786 21.9006 33.7105L21.3648 35.3177C21.077 35.1178 20.8051 35.0138 20.5493 35.0138C20.2934 35.0138 20.1015 35.0858 19.9336 35.2297C19.7657 35.3737 19.6298 35.6295 19.5338 35.9973C19.4379 36.3731 19.3899 37.1487 19.3899 38.3321V40.483L19.3819 40.499Z" fill="#25408F"/>
<path d="M26.4183 38.2841L28.1454 38.596C27.9215 39.2676 27.5697 39.7873 27.0979 40.1392C26.6182 40.491 26.0185 40.6669 25.2989 40.6669C24.1634 40.6669 23.3159 40.2671 22.7722 39.4755C22.3404 38.8438 22.1245 38.0363 22.1245 37.0688C22.1245 35.9094 22.4044 35.0058 22.9721 34.3502C23.5398 33.6945 24.2514 33.3667 25.1229 33.3667C26.0984 33.3667 26.866 33.7105 27.4257 34.3982C27.9855 35.0858 28.2573 36.1333 28.2333 37.5485H23.8996C23.9156 38.0922 24.0515 38.524 24.3154 38.8278C24.5792 39.1317 24.9151 39.2836 25.3148 39.2836C25.5867 39.2836 25.8106 39.2037 26.0025 39.0437C26.1864 38.8838 26.3303 38.6359 26.4183 38.2841ZM26.5222 36.4131C26.5062 35.8774 26.3783 35.4696 26.1304 35.1977C25.8826 34.9179 25.5867 34.782 25.2349 34.782C24.8591 34.782 24.5472 34.9259 24.2994 35.2217C24.0515 35.5176 23.9316 35.9174 23.9396 36.4211H26.5302L26.5222 36.4131Z" fill="#25408F"/>
<path d="M30.944 35.6535L29.3768 35.3497C29.5527 34.678 29.8565 34.1743 30.2883 33.8544C30.7201 33.5266 31.3597 33.3667 32.2073 33.3667C32.9829 33.3667 33.5506 33.4626 33.9344 33.6625C34.3102 33.8544 34.5821 34.1023 34.734 34.4062C34.8859 34.71 34.9659 35.2537 34.9659 36.0613L34.9499 38.2122C34.9499 38.8278 34.9739 39.2756 35.0298 39.5715C35.0858 39.8593 35.1897 40.1711 35.3417 40.507H33.6306C33.5826 40.387 33.5266 40.2031 33.4626 39.9633C33.4307 39.8513 33.4147 39.7794 33.3987 39.7474C33.1028 40.0512 32.783 40.2831 32.4472 40.435C32.1114 40.5869 31.7515 40.6669 31.3677 40.6669C30.6961 40.6669 30.1604 40.475 29.7766 40.0832C29.3848 39.6914 29.1929 39.2037 29.1929 38.604C29.1929 38.2122 29.2808 37.8604 29.4567 37.5485C29.6326 37.2367 29.8805 37.0048 30.2003 36.8369C30.5202 36.669 30.9759 36.533 31.5756 36.4051C32.3832 36.2452 32.9429 36.0933 33.2548 35.9494V35.7654C33.2548 35.4136 33.1748 35.1578 33.0069 35.0058C32.839 34.8539 32.5351 34.782 32.0794 34.782C31.7675 34.782 31.5277 34.8459 31.3597 34.9739C31.1838 35.1018 31.0479 35.3257 30.944 35.6535ZM33.2548 37.1487C33.0309 37.2287 32.6791 37.3246 32.1993 37.4286C31.7196 37.5405 31.4077 37.6445 31.2558 37.7484C31.0319 37.9163 30.92 38.1322 30.92 38.3961C30.92 38.6599 31.0079 38.8758 31.1918 39.0677C31.3757 39.2596 31.5996 39.3476 31.8795 39.3476C32.1913 39.3476 32.4872 39.2356 32.775 39.0197C32.9829 38.8518 33.1188 38.6519 33.1908 38.4121C33.2388 38.2521 33.2548 37.9563 33.2548 37.5165V37.1487Z" fill="#25408F"/>
<path d="M40.1711 30.872H41.9942V36.0853C41.9942 36.9169 42.0182 37.4526 42.0582 37.6925C42.1381 38.0842 42.322 38.4041 42.6179 38.644C42.9137 38.8838 43.3135 39.0038 43.8252 39.0038C44.337 39.0038 44.7288 38.8918 44.9926 38.6679C45.2565 38.4441 45.4164 38.1642 45.4644 37.8364C45.5204 37.5085 45.5443 36.9648 45.5443 36.1972V30.872H47.3674V35.9254C47.3674 37.0848 47.3194 37.9003 47.2235 38.3721C47.1275 38.8518 46.9436 39.2516 46.6797 39.5795C46.4159 39.9073 46.0641 40.1712 45.6163 40.3631C45.1765 40.555 44.5928 40.6589 43.8812 40.6589C43.0177 40.6589 42.362 40.555 41.9222 40.3391C41.4745 40.1232 41.1226 39.8513 40.8668 39.5155C40.6109 39.1797 40.435 38.8199 40.355 38.4441C40.2351 37.8923 40.1791 37.0768 40.1791 35.9973V30.864L40.1711 30.872Z" fill="#25408F"/>
<path d="M55.2352 40.499H53.5081V36.9408C53.5081 36.1892 53.4681 35.7015 53.3962 35.4776C53.3242 35.2537 53.2043 35.0858 53.0364 34.9659C52.8685 34.8459 52.6686 34.782 52.4367 34.782C52.1408 34.782 51.869 34.8699 51.6291 35.0458C51.3892 35.2217 51.2293 35.4536 51.1413 35.7415C51.0534 36.0293 51.0054 36.565 51.0054 37.3406V40.499H49.2783V33.5266H50.8855V34.5501C51.4532 33.7585 52.1728 33.3667 53.0444 33.3667C53.4282 33.3667 53.772 33.4387 54.0918 33.5826C54.4116 33.7265 54.6435 33.9184 54.8114 34.1423C54.9714 34.3742 55.0833 34.63 55.1473 34.9179C55.2112 35.2057 55.2432 35.6215 55.2432 36.1572V40.491L55.2352 40.499Z" fill="#25408F"/>
<path d="M62.9832 40.499H61.376V39.4756C61.1121 39.8754 60.7923 40.1712 60.4325 40.3631C60.0727 40.555 59.7049 40.659 59.337 40.659C58.5854 40.659 57.9378 40.3391 57.4021 39.6915C56.8663 39.0438 56.5945 38.1483 56.5945 36.9889C56.5945 35.8295 56.8583 34.91 57.3781 34.2943C57.8978 33.6786 58.5615 33.3748 59.353 33.3748C60.0807 33.3748 60.7203 33.7026 61.248 34.3423V30.8721H62.9752V40.499H62.9832ZM58.3696 36.8609C58.3696 37.6046 58.4655 38.1403 58.6574 38.4761C58.9373 38.9559 59.3291 39.1957 59.8248 39.1957C60.2246 39.1957 60.5604 39.0118 60.8403 38.652C61.1201 38.2922 61.2561 37.7485 61.2561 37.0369C61.2561 36.2373 61.1201 35.6616 60.8483 35.3098C60.5764 34.9579 60.2326 34.782 59.8088 34.782C59.385 34.782 59.0572 34.9579 58.7773 35.3018C58.4975 35.6536 58.3616 36.1733 58.3616 36.8609H58.3696Z" fill="#25408F"/>
<path d="M68.4844 38.2841L70.2115 38.596C69.9876 39.2676 69.6358 39.7873 69.1641 40.1392C68.6843 40.491 68.0846 40.6669 67.365 40.6669C66.2296 40.6669 65.3821 40.2671 64.8383 39.4755C64.4066 38.8438 64.1907 38.0363 64.1907 37.0688C64.1907 35.9094 64.4705 35.0058 65.0382 34.3502C65.6059 33.6945 66.3176 33.3667 67.1891 33.3667C68.1646 33.3667 68.9322 33.7105 69.4919 34.3982C70.0516 35.0858 70.3235 36.1333 70.2995 37.5485H65.9657C65.9817 38.0922 66.1177 38.524 66.3815 38.8278C66.6454 39.1317 66.9812 39.2836 67.381 39.2836C67.6529 39.2836 67.8768 39.2037 68.0687 39.0437C68.2526 38.8838 68.3965 38.6359 68.4844 38.2841ZM68.5804 36.4131C68.5724 35.8774 68.4365 35.4696 68.1966 35.1977C67.9487 34.9179 67.6529 34.782 67.3011 34.782C66.9252 34.782 66.6134 34.9259 66.3655 35.2217C66.1177 35.5176 65.9977 35.9174 66.0057 36.4211H68.5964L68.5804 36.4131Z" fill="#25408F"/>
<path d="M73.3699 40.499H71.6428V33.5266H73.25V34.5181C73.5218 34.0463 73.7697 33.7425 73.9936 33.5906C74.2095 33.4387 74.4654 33.3667 74.7452 33.3667C75.137 33.3667 75.5208 33.4786 75.8806 33.7105L75.3449 35.3177C75.057 35.1178 74.7852 35.0138 74.5293 35.0138C74.2735 35.0138 74.0816 35.0858 73.9136 35.2297C73.7457 35.3737 73.6098 35.6295 73.5139 35.9973C73.4179 36.3731 73.3699 37.1487 73.3699 38.3321V40.483V40.499Z" fill="#25408F"/>
<path d="M77.8395 40.499L75.7686 33.5266H77.4477L78.671 38.1002L79.7985 33.5266H81.4696L82.557 38.1002L83.8044 33.5266H85.5075L83.4046 40.499H81.7414L80.614 36.0133L79.5026 40.499H77.8235H77.8395Z" fill="#25408F"/>
<path d="M87.7223 35.6535L86.1551 35.3497C86.331 34.678 86.6348 34.1743 87.0666 33.8544C87.4984 33.5266 88.1381 33.3667 88.9856 33.3667C89.7612 33.3667 90.3369 33.4626 90.7127 33.6625C91.0885 33.8544 91.3524 34.1023 91.5123 34.4062C91.6642 34.71 91.7442 35.2537 91.7442 36.0613L91.7282 38.2122C91.7282 38.8278 91.7522 39.2756 91.8081 39.5715C91.8641 39.8593 91.9681 40.1711 92.12 40.507H90.4089C90.3609 40.387 90.3049 40.2031 90.241 39.9633C90.209 39.8513 90.193 39.7794 90.177 39.7474C89.8811 40.0512 89.5693 40.2831 89.2255 40.435C88.8897 40.5869 88.5299 40.6669 88.1461 40.6669C87.4744 40.6669 86.9387 40.475 86.5549 40.0832C86.1711 39.6914 85.9712 39.2037 85.9712 38.604C85.9712 38.2122 86.0591 37.8604 86.235 37.5485C86.411 37.2367 86.6588 37.0048 86.9787 36.8369C87.2985 36.669 87.7543 36.533 88.3539 36.4051C89.1615 36.2452 89.7212 36.0933 90.0331 35.9494V35.7654C90.0331 35.4136 89.9531 35.1578 89.7852 35.0058C89.6253 34.8539 89.3134 34.782 88.8577 34.782C88.5458 34.782 88.306 34.8459 88.1381 34.9739C87.9621 35.1018 87.8262 35.3257 87.7223 35.6535ZM90.0411 37.1487C89.8172 37.2287 89.4654 37.3246 88.9856 37.4286C88.5059 37.5405 88.194 37.6445 88.0421 37.7484C87.8182 37.9163 87.7063 38.1322 87.7063 38.3961C87.7063 38.6599 87.7942 38.8758 87.9781 39.0677C88.162 39.2596 88.3859 39.3476 88.6658 39.3476C88.9776 39.3476 89.2735 39.2356 89.5613 39.0197C89.7692 38.8518 89.9051 38.6519 89.9771 38.4121C90.0251 38.2521 90.0411 37.9563 90.0411 37.5165V37.1487Z" fill="#25408F"/>
<path d="M96.4457 33.5266V34.9979H95.2623V37.8124C95.2623 38.3801 95.2703 38.7159 95.2943 38.8039C95.3183 38.8998 95.3663 38.9718 95.4462 39.0357C95.5262 39.0997 95.6222 39.1237 95.7421 39.1237C95.902 39.1237 96.1339 39.0677 96.4377 38.9478L96.5896 40.379C96.1899 40.5629 95.7341 40.6509 95.2224 40.6509C94.9105 40.6509 94.6307 40.5949 94.3828 40.483C94.1349 40.3711 93.951 40.2271 93.8311 40.0512C93.7111 39.8753 93.6312 39.6354 93.5912 39.3316C93.5512 39.1157 93.5352 38.6839 93.5352 38.0283V34.9899H92.7437V33.5186H93.5352V32.1353L95.2703 31.0559V33.5186H96.4537L96.4457 33.5266Z" fill="#25408F"/>
<path d="M101.435 38.2841L103.162 38.596C102.938 39.2676 102.587 39.7873 102.115 40.1392C101.635 40.491 101.035 40.6669 100.316 40.6669C99.1803 40.6669 98.3407 40.2671 97.789 39.4755C97.3572 38.8438 97.1414 38.0363 97.1414 37.0688C97.1414 35.9094 97.4212 35.0058 97.9889 34.3502C98.5566 33.6945 99.2762 33.3667 100.14 33.3667C101.115 33.3667 101.883 33.7105 102.443 34.3982C103.002 35.0858 103.274 36.1333 103.25 37.5485H98.9164C98.9324 38.0922 99.0683 38.524 99.3322 38.8278C99.5961 39.1317 99.9319 39.2836 100.332 39.2836C100.604 39.2836 100.827 39.2037 101.019 39.0437C101.203 38.8838 101.347 38.6359 101.435 38.2841ZM101.539 36.4131C101.531 35.8774 101.395 35.4696 101.155 35.1977C100.907 34.9179 100.612 34.782 100.26 34.782C99.8839 34.782 99.5721 34.9259 99.3242 35.2217C99.0763 35.5176 98.9564 35.9174 98.9644 36.4211H101.555L101.539 36.4131Z" fill="#25408F"/>
<path d="M106.321 40.499H104.594V33.5266H106.201V34.5181C106.473 34.0463 106.72 33.7425 106.944 33.5906C107.16 33.4387 107.416 33.3667 107.696 33.3667C108.088 33.3667 108.471 33.4786 108.831 33.7105L108.296 35.3177C108.008 35.1178 107.736 35.0138 107.48 35.0138C107.224 35.0138 107.032 35.0858 106.864 35.2297C106.696 35.3737 106.56 35.6295 106.465 35.9973C106.369 36.3731 106.321 37.1487 106.321 38.3321V40.483V40.499Z" fill="#25408F"/>
<path d="M120.769 40.499H118.786L117.995 38.3082H114.381L113.637 40.499H111.702L115.22 30.8721H117.147L120.761 40.499H120.769ZM117.411 36.693L116.164 33.1189L114.94 36.693H117.403H117.411Z" fill="#25408F"/>
<path d="M121.113 38.5081L122.848 38.2282C122.92 38.588 123.072 38.8599 123.296 39.0438C123.52 39.2277 123.84 39.3237 124.247 39.3237C124.695 39.3237 125.031 39.2357 125.255 39.0598C125.407 38.9399 125.487 38.7719 125.487 38.5641C125.487 38.4281 125.447 38.3082 125.367 38.2202C125.279 38.1323 125.087 38.0523 124.791 37.9804C123.392 37.6525 122.512 37.3487 122.136 37.0848C121.617 36.709 121.361 36.1893 121.361 35.5176C121.361 34.918 121.585 34.4062 122.032 33.9904C122.48 33.5826 123.176 33.3748 124.111 33.3748C125.047 33.3748 125.671 33.5267 126.11 33.8385C126.542 34.1504 126.846 34.6061 127.006 35.2138L125.375 35.5336C125.303 35.2618 125.175 35.0539 124.975 34.91C124.783 34.766 124.503 34.6941 124.143 34.6941C123.688 34.6941 123.36 34.758 123.168 34.894C123.04 34.9899 122.968 35.1178 122.968 35.2698C122.968 35.4057 123.024 35.5096 123.136 35.6056C123.296 35.7255 123.832 35.9014 124.751 36.1253C125.671 36.3492 126.318 36.6211 126.678 36.9489C127.038 37.2767 127.222 37.7325 127.222 38.3242C127.222 38.9638 126.974 39.5156 126.47 39.9713C125.966 40.4271 125.231 40.659 124.247 40.659C123.36 40.659 122.648 40.4671 122.128 40.0833C121.609 39.6995 121.265 39.1717 121.105 38.5161L121.113 38.5081Z" fill="#25408F"/>
<path d="M128.125 38.5081L129.86 38.2282C129.932 38.588 130.084 38.8599 130.308 39.0438C130.532 39.2277 130.852 39.3237 131.26 39.3237C131.707 39.3237 132.043 39.2357 132.267 39.0598C132.419 38.9399 132.499 38.7719 132.499 38.5641C132.499 38.4281 132.459 38.3082 132.379 38.2202C132.291 38.1323 132.099 38.0523 131.803 37.9804C130.404 37.6525 129.524 37.3487 129.149 37.0848C128.629 36.709 128.373 36.1893 128.373 35.5176C128.373 34.918 128.597 34.4062 129.045 33.9904C129.492 33.5826 130.188 33.3748 131.124 33.3748C132.059 33.3748 132.683 33.5267 133.123 33.8385C133.554 34.1504 133.858 34.6061 134.018 35.2138L132.387 35.5336C132.315 35.2618 132.187 35.0539 131.987 34.91C131.795 34.766 131.515 34.6941 131.156 34.6941C130.7 34.6941 130.372 34.758 130.18 34.894C130.052 34.9899 129.98 35.1178 129.98 35.2698C129.98 35.4057 130.036 35.5096 130.148 35.6056C130.308 35.7255 130.844 35.9014 131.763 36.1253C132.683 36.3492 133.33 36.6211 133.69 36.9489C134.05 37.2767 134.234 37.7325 134.234 38.3242C134.234 38.9638 133.986 39.5156 133.482 39.9713C132.979 40.4271 132.243 40.659 131.26 40.659C130.372 40.659 129.66 40.4671 129.141 40.0833C128.621 39.6995 128.285 39.1717 128.117 38.5161L128.125 38.5081Z" fill="#25408F"/>
<path d="M135.354 36.9168C135.354 36.3012 135.497 35.7095 135.777 35.1338C136.065 34.5581 136.465 34.1263 136.985 33.8225C137.504 33.5186 138.08 33.3667 138.728 33.3667C139.719 33.3667 140.527 33.7105 141.158 34.3982C141.79 35.0858 142.11 35.9493 142.11 36.9968C142.11 38.0443 141.79 38.9238 141.15 39.6194C140.511 40.3151 139.711 40.6589 138.736 40.6589C138.136 40.6589 137.56 40.515 137.017 40.2271C136.473 39.9393 136.057 39.5155 135.777 38.9558C135.497 38.3961 135.354 37.7164 135.354 36.9168ZM137.129 37.0128C137.129 37.7084 137.281 38.2362 137.592 38.604C137.896 38.9718 138.28 39.1557 138.736 39.1557C139.192 39.1557 139.567 38.9718 139.871 38.604C140.175 38.2362 140.327 37.7004 140.327 37.0048C140.327 36.3092 140.175 35.7974 139.871 35.4296C139.567 35.0618 139.184 34.8779 138.736 34.8779C138.288 34.8779 137.904 35.0618 137.592 35.4296C137.289 35.7974 137.129 36.3252 137.129 37.0208V37.0128Z" fill="#25408F"/>
<path d="M149.162 35.5897L147.459 35.9175C147.403 35.5497 147.275 35.2778 147.067 35.0939C146.867 34.91 146.604 34.8221 146.276 34.8221C145.844 34.8221 145.5 34.982 145.244 35.3018C144.988 35.6216 144.86 36.1494 144.86 36.893C144.86 37.7246 144.988 38.3082 145.252 38.6441C145.516 38.9879 145.86 39.1558 146.3 39.1558C146.628 39.1558 146.899 39.0599 147.107 38.86C147.315 38.6601 147.467 38.3162 147.547 37.8285L149.25 38.1403C149.074 38.9719 148.738 39.6036 148.235 40.0273C147.731 40.4511 147.059 40.667 146.22 40.667C145.26 40.667 144.501 40.3472 143.933 39.6995C143.365 39.0519 143.077 38.1643 143.077 37.0289C143.077 35.8935 143.365 34.982 143.933 34.3423C144.501 33.7026 145.276 33.3828 146.252 33.3828C147.051 33.3828 147.683 33.5667 148.155 33.9345C148.626 34.3023 148.962 34.854 149.17 35.6057L149.162 35.5897Z" fill="#25408F"/>
<path d="M150.474 32.5832V30.8801H152.201V32.5832H150.474ZM150.474 40.4991V33.5267H152.201V40.4991H150.474Z" fill="#25408F"/>
<path d="M155.279 35.6535L153.712 35.3497C153.888 34.678 154.192 34.1743 154.624 33.8544C155.055 33.5266 155.695 33.3667 156.543 33.3667C157.31 33.3667 157.886 33.4626 158.27 33.6625C158.645 33.8544 158.917 34.1023 159.069 34.4062C159.221 34.71 159.301 35.2537 159.301 36.0613L159.285 38.2122C159.285 38.8278 159.317 39.2756 159.365 39.5715C159.421 39.8593 159.525 40.1711 159.677 40.507H157.966C157.918 40.387 157.862 40.2031 157.798 39.9633C157.766 39.8513 157.75 39.7794 157.734 39.7474C157.438 40.0512 157.118 40.2831 156.782 40.435C156.447 40.5869 156.087 40.6669 155.703 40.6669C155.031 40.6669 154.496 40.475 154.112 40.0832C153.72 39.6914 153.528 39.2037 153.528 38.604C153.528 38.2122 153.616 37.8604 153.792 37.5485C153.968 37.2367 154.216 37.0048 154.536 36.8369C154.855 36.669 155.311 36.533 155.911 36.4051C156.718 36.2452 157.278 36.0933 157.59 35.9494V35.7654C157.59 35.4136 157.51 35.1578 157.342 35.0058C157.174 34.8539 156.87 34.782 156.415 34.782C156.103 34.782 155.863 34.8459 155.695 34.9739C155.527 35.1018 155.383 35.3257 155.279 35.6535ZM157.59 37.1487C157.366 37.2287 157.014 37.3246 156.535 37.4286C156.055 37.5405 155.743 37.6445 155.591 37.7484C155.367 37.9163 155.255 38.1322 155.255 38.3961C155.255 38.6599 155.343 38.8758 155.527 39.0677C155.711 39.2596 155.935 39.3476 156.215 39.3476C156.527 39.3476 156.822 39.2356 157.11 39.0197C157.318 38.8518 157.454 38.6519 157.526 38.4121C157.574 38.2521 157.59 37.9563 157.59 37.5165V37.1487Z" fill="#25408F"/>
<path d="M164.002 33.5266V34.9979H162.819V37.8124C162.819 38.3801 162.827 38.7159 162.851 38.8039C162.875 38.8998 162.923 38.9718 163.003 39.0357C163.083 39.0997 163.179 39.1237 163.299 39.1237C163.459 39.1237 163.691 39.0677 163.994 38.9478L164.138 40.379C163.739 40.5629 163.283 40.6509 162.771 40.6509C162.459 40.6509 162.179 40.5949 161.924 40.483C161.676 40.3711 161.492 40.2271 161.372 40.0512C161.252 39.8753 161.172 39.6354 161.132 39.3316C161.092 39.1157 161.076 38.6839 161.076 38.0283V34.9899H160.284V33.5186H161.076V32.1353L162.811 31.0559V33.5186H163.994L164.002 33.5266Z" fill="#25408F"/>
<path d="M165.202 32.5832V30.8801H166.929V32.5832H165.202ZM165.202 40.4991V33.5267H166.929V40.4991H165.202Z" fill="#25408F"/>
<path d="M168.304 36.9168C168.304 36.3012 168.448 35.7095 168.728 35.1338C169.008 34.5581 169.416 34.1263 169.935 33.8225C170.455 33.5186 171.031 33.3667 171.678 33.3667C172.67 33.3667 173.477 33.7105 174.109 34.3982C174.741 35.0858 175.061 35.9493 175.061 36.9968C175.061 38.0443 174.741 38.9238 174.101 39.6194C173.462 40.3151 172.662 40.6589 171.686 40.6589C171.087 40.6589 170.519 40.515 169.967 40.2271C169.424 39.9393 169.008 39.5155 168.728 38.9558C168.448 38.3961 168.304 37.7164 168.304 36.9168ZM170.079 37.0128C170.079 37.7084 170.231 38.2362 170.543 38.604C170.847 38.9718 171.231 39.1557 171.678 39.1557C172.126 39.1557 172.51 38.9718 172.814 38.604C173.118 38.2362 173.27 37.7004 173.27 37.0048C173.27 36.3092 173.118 35.7974 172.814 35.4296C172.51 35.0618 172.126 34.8779 171.678 34.8779C171.231 34.8779 170.847 35.0618 170.543 35.4296C170.231 35.7974 170.079 36.3252 170.079 37.0208V37.0128Z" fill="#25408F"/>
<path d="M182.361 40.499H180.634V36.9408C180.634 36.1892 180.594 35.7015 180.522 35.4776C180.45 35.2537 180.33 35.0858 180.162 34.9659C179.994 34.8459 179.794 34.782 179.562 34.782C179.267 34.782 178.995 34.8699 178.755 35.0458C178.515 35.2217 178.355 35.4536 178.267 35.7415C178.179 36.0293 178.131 36.565 178.131 37.3406V40.499H176.404V33.5266H178.011V34.5501C178.579 33.7585 179.299 33.3667 180.17 33.3667C180.554 33.3667 180.898 33.4387 181.218 33.5826C181.537 33.7265 181.769 33.9184 181.937 34.1423C182.097 34.3742 182.209 34.63 182.273 34.9179C182.337 35.2057 182.369 35.6215 182.369 36.1572V40.491L182.361 40.499Z" fill="#25408F"/>
</svg>
