<svg width="702" height="676" viewBox="0 0 702 676" fill="none" xmlns="http://www.w3.org/2000/svg">
<g opacity="0.08" clip-path="url(#clip0_3023_35466)">
<path d="M66.2326 225.443C55.7177 221.655 44.2273 221.871 35.6637 225.984C28.2925 229.447 23.0893 235.508 20.1624 243.95C12.5744 265.271 27.3169 281.614 44.2273 287.783C53.6581 291.246 63.7393 291.246 71.9778 288.216C69.8098 290.488 66.341 292.87 60.7041 296.225C60.7041 296.225 38.3737 309.32 35.6637 311.052C33.8209 308.779 25.2573 298.497 25.2573 298.497C20.2708 292.328 16.9104 287.674 16.9104 281.181C16.9104 280.531 16.9104 279.882 16.9104 279.124L17.1272 277.068L10.5148 275.986L10.1896 278.15L5.63682 306.29L12.3576 307.48L12.6828 305.316C13.1164 302.718 13.6584 301.42 14.2004 301.528C15.2844 301.744 16.802 302.935 19.1868 305.749C19.1868 305.749 27.6421 315.814 32.7369 321.875C26.4497 320.901 16.4768 319.169 16.4768 319.169C12.466 318.52 11.382 318.087 11.382 315.381C11.382 314.407 11.382 313.217 11.7072 311.593L11.924 309.537L5.20322 308.455L-0.216797 341.789L6.50402 342.871L6.93762 340.815C8.13002 335.079 8.34682 334.646 13.7668 335.62L58.9697 342.98C64.4981 343.845 64.4981 344.387 63.8477 350.123L63.6309 352.179L70.3518 353.261L75.6634 319.927L68.9426 318.845L68.509 320.901C67.3166 326.962 67.0997 327.395 61.5713 326.529C61.5713 326.529 51.7069 324.905 45.5281 323.931C51.5985 320.252 63.0889 313.325 63.0889 313.325C65.3653 312.026 68.6174 310.078 69.7014 309.97C69.7014 310.403 69.7014 315.814 69.7014 315.814L71.5442 316.463L76.2054 317.221L81.7338 282.48C85.311 279.124 88.2378 274.903 90.0806 269.6C97.6686 248.171 82.9262 231.936 66.0158 225.767L66.2326 225.443ZM81.9506 266.245C80.7582 269.6 78.807 271.981 75.7718 273.388C70.135 276.094 61.4629 275.336 49.9725 271.115C32.1949 264.73 24.9321 256.504 28.2925 246.872C29.4849 243.517 31.4361 241.136 34.4713 239.729C40.1081 237.023 48.7801 237.781 60.2705 242.002C78.0482 248.496 85.311 256.613 81.9506 266.245Z" fill="#2C68AE"/>
<path d="M206.72 110.501C204.444 112.341 203.577 112.341 197.723 108.661L144.282 74.8937L143.089 75.7595L139.512 78.4652L158.699 141.563C158.699 141.563 158.807 142.32 158.916 142.753L152.086 132.688L147.75 137.45L148.292 138.749C153.062 149.788 150.786 155.092 143.74 162.884C137.127 170.135 136.477 169.486 134.742 167.863C134.742 167.863 122.818 156.931 119.133 153.468C120.976 151.412 124.77 147.299 124.77 147.299C129.756 141.779 132.466 141.238 137.886 144.81L139.404 145.784L143.631 141.13L122.927 122.082L118.699 126.735L119.783 128.142C121.409 130.199 122.385 131.714 122.385 133.337C122.385 135.177 121.084 137.342 117.832 140.914C117.832 140.914 114.038 145.026 112.304 147.083C109.702 144.702 98.2115 134.095 98.2115 134.095C98.2115 134.095 97.5611 133.337 97.4527 133.229C97.5611 133.013 98.1031 132.255 98.1031 132.255L104.39 125.329C112.087 116.778 114.472 117.428 120.217 120.242L121.626 120.999L125.854 116.237L111.436 103.574L110.027 105.198L74.1467 144.918L79.1331 149.464L80.5423 148.057C84.0111 144.593 84.4447 144.16 88.6723 148.057L122.493 179.335C125.637 182.257 126.179 183.231 124.986 185.179L124.336 184.746L123.252 186.803C122.276 188.859 121.301 189.4 117.832 189.725C117.832 189.725 97.7779 191.24 90.6235 191.781C90.9487 190.05 91.3823 188.426 91.3823 186.803C91.3823 179.443 88.0219 173.707 81.1927 169.594C69.8106 162.668 59.4042 167.538 49.323 184.313L34.5806 208.881L40.3258 212.453L41.4098 210.721C44.7702 205.743 45.0954 205.418 49.865 208.34L89.1059 232.259C93.8755 235.181 93.7671 235.614 90.8403 240.917L89.8647 242.757L95.7183 246.329L113.062 217.323L107.209 213.752L106.125 215.483C102.764 220.678 102.331 221.003 97.6695 218.081C97.6695 218.081 86.1791 211.046 83.2523 209.314C83.4691 208.99 83.4691 208.99 83.5775 208.665C85.6371 208.557 119.783 206.068 119.783 206.068L127.805 192.647L164.878 151.628L178.428 141.022L174.525 135.827L172.574 136.801L169.105 138.532L168.021 137.667L164.119 127.71C166.07 126.194 177.344 117.428 179.295 116.021C179.512 116.129 179.837 116.345 179.837 116.345L187.859 122.298C187.859 122.298 188.4 122.947 188.4 123.38C188.4 124.03 187.858 125.004 185.69 126.627L183.956 127.926L188.075 133.337L212.465 114.506L208.238 108.986L206.503 110.393L206.72 110.501ZM63.957 182.69C66.8838 181.932 69.919 182.582 73.0626 184.422C75.9895 186.262 79.2415 189.076 79.2415 194.379C79.2415 197.084 78.1575 200.548 75.9895 204.769C72.6291 202.712 55.7186 192.431 55.7186 192.431L54.9598 191.781L56.1522 189.076C58.1034 185.829 60.9218 183.556 64.0654 182.798L63.957 182.69ZM161.3 118.294C160.108 114.83 157.398 106.497 155.338 100.219C160.758 103.899 168.021 108.769 171.056 110.718C168.346 112.774 164.01 116.129 161.409 118.185L161.3 118.294Z" fill="#2C68AE"/>
<path d="M258.102 31.9268C256.043 26.7318 256.151 24.8919 261.354 22.0779L263.089 21.1039L260.596 14.9348L258.644 15.8006L236.964 24.7837L239.458 30.9527L241.3 30.4116C246.178 29.1128 247.913 29.9787 250.081 35.3901L261.463 63.4215C263.956 69.5906 264.498 75.0021 262.764 79.0065C261.571 81.9287 259.186 84.0933 255.718 85.6085C251.382 87.3402 247.913 87.6649 244.986 86.4744C241.842 85.1756 239.241 81.9287 237.073 76.6255L223.956 44.1567C221.788 38.8535 222.33 38.637 227.1 36.3642L228.943 35.4984L226.449 29.2211L196.531 41.5592L199.133 47.8365L201.084 47.1871C206.07 45.3472 206.612 45.239 208.78 50.5422L221.463 81.9287C228.292 98.7043 239.674 103.466 256.476 96.5397C263.956 93.401 268.942 89.0719 271.327 83.4439C273.929 77.1666 273.278 69.5906 269.593 60.1746L258.211 32.2515L258.102 31.9268Z" fill="#2C68AE"/>
<path d="M375.933 1.8399L343.196 0V2.16459L342.871 6.81844L344.93 7.0349C350.025 7.57605 350.567 7.68428 350.242 13.3122L347.64 59.5261C347.315 65.2622 346.665 65.2622 341.57 65.154H339.51V66.561L330.73 16.5591C329.754 10.7147 330.621 9.19949 335.608 7.68428L337.451 7.14313L336.367 0.541146L334.199 0.974063L310.784 5.08678L311.977 11.6888H313.819C319.131 11.2558 320.432 12.4464 321.407 18.2907C321.407 18.2907 324.768 37.4473 326.177 45.5645C318.806 38.8543 286.177 9.41595 286.177 9.41595L266.665 12.8793L267.749 19.2648H269.375C272.736 19.6977 274.904 20.8882 277.18 23.9187C277.18 25.2174 284.66 67.968 284.66 67.968C284.877 69.2667 285.093 70.4573 285.093 71.4313C285.093 74.57 283.684 75.7605 279.782 76.951L277.939 77.4921L279.131 84.0941L304.605 79.5485L303.413 72.9465H301.57C296.259 73.3794 294.958 72.1889 293.874 66.3445C293.874 66.3445 290.08 44.8069 288.237 33.8758C295.825 40.6942 334.632 75.7605 334.632 75.7605L340.811 74.6782L340.378 72.1889L371.814 73.9206C382.87 74.57 392.843 71.4313 399.781 65.154C406.393 59.2014 410.187 50.5431 410.838 40.0448C412.03 18.1825 398.372 3.24688 375.933 1.94813V1.8399ZM364.117 61.0413L366.827 13.6369L367.694 10.6065C368.345 10.0653 369.754 9.84886 372.139 9.95709C378.751 10.39 384.063 12.7711 387.857 17.1002C392.41 22.2952 394.578 29.8713 394.036 39.0708C393.494 48.2703 390.567 55.5216 385.364 60.1755C381.136 64.0717 375.499 65.8034 368.887 65.4787C366.61 65.3705 365.201 64.9376 364.551 64.2882L364.009 61.1495L364.117 61.0413Z" fill="#2C68AE"/>
<path d="M509.914 112.992C507.854 112.126 507.312 111.044 506.77 107.58C506.77 107.58 504.277 87.558 503.41 80.3067C513.057 81.6054 520.428 78.1421 524.981 69.592C527.474 64.8299 528.125 60.176 526.932 55.8469C525.09 49.5696 519.128 43.7252 508.938 38.0973L483.897 24.4604L482.922 26.4085L480.754 30.5212L482.488 31.6035C487.583 34.7422 487.908 35.0669 485.307 39.9372L463.518 80.6314C461.567 84.3112 460.808 85.177 458.423 84.3112L466.011 70.5661L459.833 68.7262L458.965 69.8084C451.377 79.0079 445.632 79.2244 435.551 76.3022C433.6 75.7611 427.746 74.0294 426.879 72.5142L427.096 70.3496C427.096 70.3496 431.54 54.7646 432.949 49.8943C435.551 50.6519 440.863 52.1671 440.863 52.1671C446.933 54.007 449.101 55.8469 449.101 60.3925C449.101 61.1501 449.101 62.0159 448.884 62.99L448.667 64.8299L454.738 66.6698L462.543 39.5043L456.472 37.7726L455.713 39.396C453.329 44.4828 452.245 45.7816 443.464 43.2923C443.464 43.2923 438.369 41.7771 435.551 40.9112C436.527 37.5561 440.863 22.404 440.863 22.404C440.863 22.404 441.188 21.5382 441.296 21.3217C441.513 21.3217 442.489 21.5382 442.489 21.5382L451.377 24.1357C462.217 27.2743 462.868 29.6554 462.868 35.9327V37.8808L468.938 39.6125L473.816 20.997L420.7 5.52026L420.158 7.57662L418.857 12.014L420.809 12.6634C425.47 14.2868 426.012 14.5033 424.386 20.023L411.703 64.5052C410.077 70.0249 409.535 69.9167 404.765 68.7262L402.814 68.2932L400.971 74.8952L455.171 90.6967L479.778 104.009L483.03 98.0563L481.296 96.974C476.093 93.8353 475.659 93.4024 478.369 88.5321C478.369 88.5321 484.765 76.6269 486.391 73.5965C486.716 73.8129 486.716 73.8129 487.041 73.9212C487.258 75.9775 491.377 110.286 491.377 110.286L509.372 120.135L512.732 113.858L510.564 112.884L509.914 112.992ZM501.025 45.0239L501.567 44.1581L504.385 45.2404C507.746 47.0803 510.022 49.786 510.998 52.8165C511.865 55.7386 511.431 58.8773 509.697 62.1242C507.204 66.778 502.326 71.8648 489.751 66.1287C491.594 62.6653 501.025 45.0239 501.025 45.0239Z" fill="#2C68AE"/>
<path d="M604.006 119.053L605.307 119.594L609.426 114.94L592.082 99.5717L587.638 104.767L589.155 106.174C591.323 108.23 591.974 109.421 591.974 110.178C591.974 110.719 591.648 111.044 591.432 111.369L586.012 115.265C586.012 115.265 568.776 125.655 560.212 130.85C563.356 123.057 571.161 103.035 571.161 103.035L574.846 96.0001C575.388 95.3508 576.039 94.5932 579.724 97.84L581.35 99.247L585.903 94.052L562.164 72.9473L557.719 78.0341L559.128 79.4411C560.863 81.281 561.513 82.4715 561.513 83.8785C561.513 84.7443 561.188 85.7184 560.754 86.8007C560.754 86.8007 556.852 96.6495 556.093 98.5976C555.118 99.1388 543.085 105.849 536.581 109.529C539.941 101.628 548.072 82.4715 548.072 82.4715C548.505 81.3892 551.432 75.4366 551.432 75.4366C551.757 75.0037 552.841 73.8131 555.66 76.4106L557.286 77.8176L561.838 72.6226L540.484 53.6825L539.074 55.3059L536.147 58.5528L537.232 59.9598C538.532 61.5832 539.183 62.4491 535.605 70.891L511.866 126.413L516.852 130.85C516.852 130.85 542.977 116.131 550.782 111.802C547.421 120.135 536.364 148.167 536.364 148.167L541.351 152.604L593.6 121.001C599.02 117.646 600.32 117.646 604.006 119.053Z" fill="#2C68AE"/>
<path d="M604.223 228.582C603.03 226.2 602.38 224.793 602.38 223.603C602.38 222.196 603.572 221.33 606.391 219.815C606.391 219.815 641.296 200.55 649.751 195.896C650.835 197.844 652.353 200.658 652.353 200.658C653.328 202.39 653.87 203.905 653.87 205.42C653.87 208.018 652.136 210.615 647.8 214.512L646.499 215.702L649.751 221.655L667.745 209.641L640.103 158.665L638.26 159.423L620.374 167.432L623.626 173.385L625.252 172.952C634.141 170.354 636.743 171.869 639.236 176.523C639.236 176.523 640.754 179.337 641.838 181.285C638.369 183.233 598.478 205.204 598.478 205.204C593.6 207.91 593.274 207.585 590.131 202.282L589.806 201.849L590.998 200.875L589.697 199.143C587.854 196.87 587.854 196.004 591.54 190.052L624.927 135.937L621.35 131.175L619.941 131.608L558.911 150.656C555.551 151.739 553.925 151.198 551.323 149.033L550.023 147.951L544.928 151.955L559.453 170.895L564.548 166.891L563.573 164.943L561.838 161.479L562.705 160.397C562.705 160.397 572.245 156.501 572.57 156.393C574.088 158.341 582.76 169.705 584.169 171.653C584.06 171.869 583.844 172.194 583.844 172.194L577.99 180.419L576.689 180.961L572.353 177.064L570.619 177.822L566.933 180.744L584.277 203.364L583.302 203.905L599.453 233.777L605.415 230.53L604.548 228.69L604.223 228.582ZM599.562 147.301C595.984 152.821 591.106 160.181 589.155 163.211C587.096 160.505 583.735 156.068 581.676 153.47C585.144 152.28 593.383 149.466 599.562 147.41V147.301Z" fill="#2C68AE"/>
<path d="M695.821 302.608L690.726 274.252L688.558 274.685L684.005 275.551L684.222 277.607C685.089 283.56 684.981 283.993 679.453 285.075L634.358 293.301C630.022 294.058 628.938 293.842 628.071 290.92L643.464 289.188L641.296 283.127H639.886C627.962 282.153 624.494 277.499 620.916 267.542C619.399 263.213 618.857 260.832 618.857 259.425C618.857 257.802 619.616 257.585 620.808 257.152C620.808 257.152 637.393 251.308 640.754 250.117C641.621 252.715 643.464 258.018 643.464 258.018C644.331 260.399 644.764 262.347 644.764 263.971C644.764 267.001 643.138 268.841 639.344 270.897L637.718 271.763L639.886 277.716L666.228 268.3L664.168 262.239L662.434 262.564C656.905 263.538 655.171 263.429 652.136 254.771C652.136 254.771 650.401 249.793 649.426 246.87C652.678 245.68 667.42 240.485 667.42 240.485C667.42 240.485 668.287 240.268 668.613 240.16C668.721 240.377 669.154 241.242 669.154 241.242L672.298 250.117C673.707 254.23 674.358 256.936 674.358 259.1C674.358 262.672 672.515 264.295 669.154 266.676L667.854 267.65L669.913 273.603L687.799 266.785L669.371 214.077L667.312 214.835L662.976 216.35L663.518 218.298C664.927 223.06 665.144 223.709 659.724 225.549L616.472 241.026C611.16 242.974 610.835 242.325 608.992 237.779L608.234 235.831L601.838 238.104L620.591 291.785H620.808L626.011 320.575L632.624 319.384L632.298 317.328C632.082 315.704 631.865 314.405 631.865 313.431C631.865 310.834 632.949 310.401 636.96 309.752C636.96 309.752 650.184 307.371 653.545 306.721C653.545 307.046 653.545 307.154 653.653 307.479C652.136 308.994 628.179 333.562 628.179 333.562L631.756 353.801L638.694 352.61L638.152 350.338C638.044 349.796 637.935 349.255 637.935 348.822C637.935 347.524 638.586 346.441 640.428 344.493C640.428 344.493 654.846 329.558 659.724 324.579C664.71 332.913 671.756 336.917 681.187 335.185C686.499 334.211 690.401 331.83 693.003 328.151C696.688 322.739 697.555 314.405 695.496 302.825L695.821 302.608ZM677.935 318.41C672.732 319.384 665.794 318.626 662.434 305.206C666.336 304.448 685.74 300.985 685.74 300.985H686.715L687.583 303.799C688.667 309.643 686.715 316.895 677.827 318.518L677.935 318.41Z" fill="#2C68AE"/>
<path d="M244.877 482.379L222.872 422.636H216.91L193.929 484.543C192.736 487.898 191.327 488.764 187.967 489.63L186.341 490.063V496.557H210.08V489.63H207.912C203.793 489.63 203.793 488.656 203.793 487.466L206.72 477.184H225.799L226.015 477.833L228.834 487.466C228.834 488.548 228.834 489.63 224.498 489.63H222.33V496.557H253.007V489.63H250.839C247.912 489.738 247.262 489.197 244.769 482.595L244.877 482.379ZM216.368 449.694C218.427 455.971 221.354 464.305 222.438 467.768H210.189C211.381 464.305 214.2 455.971 216.368 449.694Z" fill="#2C68AE"/>
<path d="M280.975 450.451C274.796 446.771 269.376 443.633 269.376 438.871C269.376 436.706 270.026 431.511 276.53 431.511C283.36 431.511 289.105 437.355 291.598 446.88L292.032 448.503H298.102V422.636H291.923L291.598 424.368C291.381 425.234 290.948 426.208 290.406 426.208L286.286 425.125L273.929 422.636C263.197 422.636 254.2 431.619 254.2 442.117C254.2 453.482 263.848 459.651 272.303 465.062C279.24 469.5 285.853 473.72 285.853 479.89C285.853 482.054 285.202 488.981 277.506 488.981C269.81 488.981 262.655 480.431 260.27 472.205L259.837 470.69H253.766V497.206H260.921L261.246 495.366C261.463 493.743 262.005 493.743 262.222 493.743L266.124 494.933C268.942 496.232 272.953 497.964 279.999 497.964C292.032 497.964 301.029 488.873 301.029 476.967C301.029 462.248 289.972 455.646 280.975 450.451Z" fill="#2C68AE"/>
<path d="M331.055 450.451C324.876 446.771 319.456 443.633 319.456 438.871C319.456 436.706 320.214 431.511 326.719 431.511C333.223 431.511 339.293 437.355 341.678 446.88L342.111 448.503H348.29V422.636H342.111L341.786 424.368C341.569 425.342 341.136 426.316 340.594 426.316L336.475 425.234L324.117 422.744C313.494 422.744 304.388 431.728 304.388 442.226C304.388 453.59 314.036 459.759 322.491 465.17C329.429 469.608 336.041 473.829 336.041 479.998C336.041 482.162 335.391 489.089 327.586 489.089C319.781 489.089 312.735 480.539 310.35 472.313L309.916 470.798H303.846V497.314H311L311.326 495.475C311.542 493.851 312.084 493.851 312.301 493.851L316.204 495.042C319.022 496.34 323.033 498.072 330.079 498.072C342.111 498.072 351.109 488.981 351.109 477.076C351.109 462.356 339.943 455.754 331.055 450.559V450.451Z" fill="#2C68AE"/>
<path d="M474.143 475.019C471.867 478.591 465.688 488.115 454.74 488.115C437.179 488.115 434.577 470.365 434.577 459.759C434.577 449.152 439.564 431.619 453.114 431.619C461.677 431.619 467.965 437.247 471.759 448.286L472.301 449.693H478.805L477.287 422.744H471L468.723 426.749H468.507L465.905 425.883C462.111 424.584 456.366 422.744 451.705 422.744C429.591 422.744 418.859 441.576 417.559 456.62C416.258 439.628 405.96 422.744 385.147 422.744C362.708 422.744 352.41 442.226 352.41 460.408C352.41 478.591 362.708 498.072 385.147 498.072C406.176 498.072 416.366 480.972 417.667 463.872C419.185 484.76 431.867 498.072 451.163 498.072C464.604 498.072 473.601 492.336 480.431 479.348L481.298 477.833L475.661 472.963L474.36 475.019H474.143ZM384.93 489.089C372.247 489.089 369.646 473.396 369.646 460.3C369.646 447.204 372.356 431.511 384.93 431.511C397.504 431.511 400.214 447.204 400.214 460.3C400.214 473.396 397.613 489.089 384.93 489.089Z" fill="#2C68AE"/>
<path d="M493.33 478.698C488.56 478.698 484.658 482.919 484.658 488.114C484.658 493.309 488.56 497.53 493.33 497.53C498.1 497.53 502.002 493.309 502.002 488.114C502.002 482.919 498.1 478.698 493.33 478.698Z" fill="#2C68AE"/>
<path d="M541.675 593.42L540.482 588.117H529.209L529.426 594.286C530.943 594.07 532.136 593.745 532.678 593.096C532.678 593.096 536.58 593.096 541.566 593.312L541.675 593.42Z" fill="#2C68AE"/>
<path d="M664.602 445.58C664.602 445.58 693.003 441.792 702.108 412.029C702.108 412.029 679.669 432.593 648.559 429.346C648.559 429.346 628.721 423.935 637.285 447.745C637.285 447.745 636.201 466.144 629.805 472.097L617.448 471.014C617.448 471.014 601.404 462.897 600.32 486.708C600.32 486.708 590.131 516.471 584.277 519.717C584.277 519.717 568.776 533.246 569.318 545.692C569.318 545.692 575.714 539.199 592.841 537.575C592.841 537.575 600.32 503.483 613.762 502.401C613.762 502.401 595.551 531.082 599.345 541.363C599.345 541.363 550.673 552.727 542.543 565.715C542.543 565.715 555.985 530.54 530.185 533.246L464.928 554.351C464.928 554.351 444.007 558.68 449.319 570.044L439.671 573.291C439.671 573.291 432.734 552.727 412.896 561.927C412.896 561.927 410.837 562.793 408.018 564.308C407.693 564.741 406.934 567.555 412.029 584.763C412.029 584.763 445.742 580.109 428.614 610.414C428.614 610.414 418.425 600.673 410.945 612.578L398.588 597.426C398.588 597.426 399.672 587.685 409.861 585.521C409.861 585.521 405.417 575.239 405.634 565.607C395.119 571.559 378.533 584.33 394.793 598.617L403.899 610.522C403.899 610.522 410.295 615.717 398.588 618.639C398.588 618.639 361.84 629.245 353.385 634.657C344.929 629.245 308.182 618.639 308.182 618.639C296.366 615.717 302.762 610.522 302.762 610.522L311.867 598.617C328.127 584.222 311.542 571.559 300.919 565.607C301.136 575.239 296.691 585.521 296.691 585.521C306.881 587.685 307.857 597.426 307.857 597.426L295.607 612.578C288.128 600.673 277.938 610.414 277.938 610.414C260.811 580.109 294.523 584.763 294.523 584.763C299.618 567.663 298.859 564.741 298.534 564.308C295.716 562.793 293.656 561.927 293.656 561.927C273.819 552.727 266.881 573.291 266.881 573.291L257.234 570.044C262.545 558.68 241.732 554.351 241.732 554.351L176.367 533.246C150.676 530.54 164.009 565.715 164.009 565.715C155.988 552.727 107.316 541.363 107.316 541.363C111.002 531.082 92.8988 502.401 92.8988 502.401C106.232 503.483 113.712 537.575 113.712 537.575C130.839 539.199 137.235 545.692 137.235 545.692C137.777 533.246 122.275 519.717 122.275 519.717C116.422 516.471 106.232 486.708 106.232 486.708C105.148 462.897 89.1048 471.014 89.1048 471.014L76.7472 472.097C70.3516 466.144 69.2676 447.745 69.2676 447.745C77.8312 423.935 57.9939 429.346 57.9939 429.346C26.8831 432.593 4.44421 412.029 4.44421 412.029C13.5498 441.792 41.9507 445.58 41.9507 445.58C63.9559 456.944 60.1619 471.555 60.1619 471.555C55.3923 477.508 29.0511 468.85 29.0511 468.85C37.0727 482.919 49.4303 480.755 49.4303 480.755C68.7256 483.461 71.3272 498.072 71.3272 498.072C75.1212 506.73 74.5792 528.376 74.5792 528.376C75.1212 564.633 97.56 567.879 97.56 567.879C113.603 574.373 143.63 597.101 143.63 597.101C146.882 595.153 154.47 594.179 161.299 593.746L163.576 584.763L181.245 585.846L180.161 594.612C189.483 594.396 204.768 590.066 204.768 590.066C227.315 589.525 227.749 598.725 227.749 598.725C231.543 612.253 219.185 616.583 219.185 616.583C204.768 627.406 179.619 620.912 179.619 620.912C170.513 617.665 177.451 616.583 177.451 616.583C179.077 617.124 187.641 621.994 209.537 617.124C231.543 612.253 224.28 598.508 224.28 598.508C222.437 592.556 203.684 594.396 203.684 594.396C197.83 597.101 173.115 598.184 173.115 598.184C115.338 594.937 156.53 630.111 156.53 630.111L182.979 644.722C191.543 649.809 193.386 651.216 193.386 651.216C197.18 655.004 209.429 668.533 209.429 668.533C229.808 685.849 217.451 660.957 217.451 660.957C213.765 655.004 203.033 644.722 203.033 644.722C184.28 631.735 206.285 637.687 206.285 637.687C233.602 648.51 260.377 635.523 260.377 635.523C269.483 629.029 279.672 632.276 279.672 632.276C310.675 646.887 319.347 646.346 319.347 646.346L330.404 648.186L328.995 649.051C330.621 649.051 304.388 658.251 301.136 667.992C301.136 667.992 293.656 679.572 309.157 672.537C309.157 672.537 313.71 671.238 318.805 667.45C318.805 667.45 311.867 686.932 325.201 667.992C325.201 667.992 335.932 654.463 351.975 652.298L353.276 652.082L354.685 652.298C370.729 654.463 381.46 667.992 381.46 667.992C394.902 686.932 387.856 667.45 387.856 667.45C392.951 671.238 397.504 672.537 397.504 672.537C413.005 679.572 405.525 667.992 405.525 667.992C402.273 658.251 376.149 649.051 377.666 649.051L376.257 648.186L387.314 646.346C387.314 646.346 395.878 646.887 426.988 632.276C426.988 632.276 437.178 629.029 446.284 635.523C446.284 635.523 473.059 648.51 500.375 637.687C500.375 637.687 522.272 631.735 503.627 644.722C503.627 644.722 492.896 655.004 489.21 660.957C489.21 660.957 476.852 685.849 497.232 668.533C497.232 668.533 509.481 655.004 513.275 651.216C513.275 651.216 515.118 649.917 523.681 644.722L550.239 630.111C550.239 630.111 591.432 595.045 533.654 598.184C533.654 598.184 509.047 597.101 503.085 594.396C503.085 594.396 484.332 592.556 482.489 598.508C482.489 598.508 475.227 612.253 497.232 617.124C519.129 621.994 527.692 617.124 529.318 616.583C529.318 616.583 536.256 617.665 527.15 620.912C527.15 620.912 502.001 627.406 487.476 616.583C487.476 616.583 475.118 612.253 478.912 598.725C478.912 598.725 479.454 589.525 501.893 590.066C501.893 590.066 517.177 594.396 526.5 594.612L525.416 585.846L543.085 584.763L545.361 593.746C552.082 594.179 559.779 595.153 563.031 597.101C563.031 597.101 592.949 574.373 609.101 567.879C609.101 567.879 631.54 564.633 632.082 528.376C632.082 528.376 631.54 506.73 635.225 498.072C635.225 498.072 637.935 483.461 657.122 480.755C657.122 480.755 669.48 482.919 677.501 468.85C677.501 468.85 651.268 477.508 646.391 471.555C646.391 471.555 642.705 456.944 664.602 445.58ZM211.597 574.265L189.158 569.395L177.451 567.338L186.015 569.395L181.679 583.464L165.093 580.218L168.129 565.715L167.153 565.498C167.153 565.498 152.844 528.7 181.245 537.251L218.535 548.723C218.535 548.723 211.597 546.017 211.597 574.157V574.265ZM223.846 578.053L216.367 576.43C214.741 555.325 221.678 549.913 221.678 549.913L228.616 552.078C218.968 554.784 223.846 578.053 223.846 578.053ZM286.61 624.7C286.61 624.7 280.756 622.752 279.347 619.83C279.347 619.83 255.716 627.189 253.873 597.426L253.223 593.097C253.223 593.097 235.012 580.109 228.616 579.027C228.616 579.027 224.822 551.429 235.554 554.134C235.554 554.134 261.786 560.087 253.765 570.369L263.412 575.239C263.412 575.239 259.076 587.144 261.244 593.097H255.716C256.908 605.327 259.076 621.02 277.504 617.34C277.504 617.34 279.781 606.517 290.296 609.223C290.296 609.223 303.737 620.262 286.61 624.592V624.7ZM477.611 579.135C471.216 580.218 453.004 593.205 453.004 593.205L452.354 597.534C450.62 627.297 426.88 619.938 426.88 619.938C425.579 622.86 419.617 624.808 419.617 624.808C402.49 620.479 415.932 609.44 415.932 609.44C426.338 606.734 428.723 617.557 428.723 617.557C447.151 621.236 449.427 605.543 450.511 593.313H444.983C447.151 587.361 442.815 575.455 442.815 575.455L452.462 570.585C444.441 560.303 470.674 554.351 470.674 554.351C481.405 551.645 477.611 579.244 477.611 579.244V579.135ZM489.969 576.43L482.489 578.053C482.489 578.053 487.259 554.784 477.72 552.078L484.657 549.913C484.657 549.913 491.595 555.325 489.969 576.43ZM524.765 583.573L520.538 569.503L529.101 567.447L517.394 569.503L494.847 574.373C494.847 546.234 487.909 548.939 487.909 548.939L525.199 537.467C553.6 528.809 539.291 565.715 539.291 565.715L538.315 565.931L541.459 580.434L524.874 583.681L524.765 583.573Z" fill="#2C68AE"/>
<path d="M524.982 572.208L526.824 579.243L536.472 577.62L534.629 569.719L524.982 572.208Z" fill="#2C68AE"/>
<path d="M538.098 565.174L528.992 567.339L538.206 565.824L538.098 565.174Z" fill="#2C68AE"/>
<path d="M541.784 593.854L529.535 594.719V594.395C528.559 594.503 527.584 594.611 526.391 594.503V594.828L545.362 594.178V593.637C543.952 593.637 542.868 593.529 541.676 593.421V593.854H541.784Z" fill="#2C68AE"/>
<path d="M403.357 596.884L405.742 594.286L409.644 594.611L410.186 593.42L405.2 593.095L402.164 596.451L403.357 596.884Z" fill="#2C68AE"/>
<path d="M421.027 590.282C422.002 590.065 423.303 590.498 424.712 591.797L425.58 590.823C423.845 589.308 422.219 588.658 420.81 588.983C418.75 589.524 417.883 591.797 417.883 591.797L419.076 592.23C419.076 592.23 419.726 590.498 421.135 590.173L421.027 590.282Z" fill="#2C68AE"/>
<path d="M419.293 611.713C416.475 611.713 414.198 613.986 414.198 616.908C414.198 619.831 416.475 621.995 419.293 621.995C422.111 621.995 424.388 619.722 424.388 616.908C424.388 614.094 422.111 611.713 419.293 611.713ZM419.293 619.398C417.884 619.398 416.8 618.315 416.8 616.908C416.8 615.501 417.884 614.419 419.293 614.419C420.702 614.419 421.786 615.501 421.786 616.908C421.786 618.315 420.702 619.398 419.293 619.398Z" fill="#2C68AE"/>
<path d="M176.8 594.286L177.125 588.117H165.852L164.659 593.42C169.646 593.204 173.548 593.204 173.548 593.204C174.198 593.853 175.391 594.178 176.8 594.394V594.286Z" fill="#2C68AE"/>
<path d="M181.353 572.209L171.706 569.719L169.863 577.62L179.511 579.243L181.353 572.209Z" fill="#2C68AE"/>
<path d="M168.127 565.824L177.341 567.339L168.236 565.174L168.127 565.824Z" fill="#2C68AE"/>
<path d="M176.801 594.611L164.551 593.745V593.312C163.467 593.312 162.383 593.42 161.083 593.529V594.07L179.836 594.719V594.395C178.643 594.395 177.668 594.395 176.692 594.286V594.611H176.801Z" fill="#2C68AE"/>
<path d="M302.977 596.884L304.17 596.451L301.134 593.095L296.256 593.42L296.798 594.611L300.592 594.286L302.977 596.884Z" fill="#2C68AE"/>
<path d="M280.866 590.823L281.733 591.797C283.142 590.498 284.334 590.065 285.31 590.282C286.719 590.606 287.37 592.338 287.37 592.338L288.562 591.905C288.562 591.905 287.695 589.524 285.635 589.091C284.226 588.766 282.6 589.308 280.866 590.931V590.823Z" fill="#2C68AE"/>
<path d="M287.042 611.713C284.224 611.713 281.948 613.986 281.948 616.908C281.948 619.831 284.224 621.995 287.042 621.995C289.861 621.995 292.137 619.722 292.137 616.908C292.137 614.094 289.861 611.713 287.042 611.713ZM287.042 619.398C285.633 619.398 284.549 618.315 284.549 616.908C284.549 615.501 285.633 614.419 287.042 614.419C288.452 614.419 289.536 615.501 289.536 616.908C289.536 618.315 288.452 619.398 287.042 619.398Z" fill="#2C68AE"/>
<path d="M511.051 160.778H193.655V396.285H511.051L440.157 278.748L511.051 160.778ZM301.73 386.003H205.146V171.168H301.73V386.111V386.003Z" fill="#2C68AE"/>
</g>
<defs>
<clipPath id="clip0_3023_35466">
<rect width="702" height="676" fill="white"/>
</clipPath>
</defs>
</svg>
