<svg width="44" height="42" viewBox="0 0 44 42" fill="none" xmlns="http://www.w3.org/2000/svg">
<path d="M4.13384 13.8647C3.47819 13.6329 2.76656 13.6408 2.23084 13.8967C1.77507 14.1126 1.44725 14.4804 1.26334 15.0001C0.791587 16.3115 1.71111 17.3189 2.75856 17.6947C3.34226 17.9026 3.97393 17.9026 4.48566 17.7267C4.34973 17.8626 4.13384 18.0146 3.79002 18.2225C3.79002 18.2225 2.40674 19.03 2.23084 19.134C2.1109 18.9981 1.58317 18.3664 1.58317 18.3664C1.27134 17.9906 1.06345 17.7027 1.06345 17.3029C1.06345 17.263 1.06345 17.223 1.06345 17.175L1.07944 17.0471L0.663654 16.9831L0.639666 17.111L0.359812 18.8381L0.775595 18.9101L0.799583 18.7822C0.82357 18.6222 0.855554 18.5423 0.895533 18.5503C0.967495 18.5583 1.05545 18.6382 1.20737 18.8141C1.20737 18.8141 1.73509 19.4298 2.04693 19.8056C1.65514 19.7417 1.03946 19.6457 1.03946 19.6457C0.783591 19.6057 0.719625 19.5738 0.719625 19.4138C0.719625 19.3579 0.719625 19.2779 0.735616 19.182L0.751608 19.054L0.335825 18.9901L0 21.037L0.415783 21.101L0.439771 20.973C0.511733 20.6212 0.527725 20.5972 0.863549 20.6532L3.67009 21.109C4.01391 21.1649 4.01391 21.1889 3.97393 21.5487L3.95794 21.6767L4.37372 21.7406L4.70155 19.6937L4.28576 19.6297L4.26178 19.7497C4.18981 20.1255 4.17382 20.1495 3.83 20.0935C3.83 20.0935 3.22232 19.9975 2.83052 19.9336C3.20633 19.7097 3.92595 19.2779 3.92595 19.2779C4.06188 19.1979 4.26977 19.078 4.33374 19.07C4.33374 19.094 4.33374 19.4298 4.33374 19.4298L4.44568 19.4698L4.73353 19.5178L5.07735 17.3829C5.30123 17.175 5.48514 16.9111 5.59708 16.5913C6.06883 15.28 5.14931 14.2725 4.10186 13.8967L4.13384 13.8647ZM5.11733 16.3834C5.04537 16.5913 4.91743 16.7352 4.73353 16.8232C4.38171 16.9911 3.84599 16.9431 3.13437 16.6793C2.03094 16.2875 1.57518 15.7837 1.79107 15.184C1.86303 14.9762 1.99096 14.8322 2.17487 14.7443C2.51869 14.5764 3.0624 14.6243 3.77403 14.8802C4.87746 15.28 5.33322 15.7757 5.11733 16.3754V16.3834Z" fill="#25408F"/>
<path d="M12.8571 6.79651C12.7212 6.90845 12.6652 6.90845 12.2974 6.67657L8.97913 4.59766L8.90717 4.65363L8.69128 4.82154L9.88266 8.69952C9.88266 8.69952 9.89066 8.74749 9.89865 8.77148L9.47487 8.1558L9.20302 8.45165L9.235 8.5316C9.53085 9.21125 9.38692 9.53908 8.95515 10.0188C8.54736 10.4666 8.50738 10.4266 8.39544 10.3307C8.39544 10.3307 7.65982 9.65902 7.42794 9.45112C7.53988 9.33119 7.77176 9.07532 7.77176 9.07532C8.0836 8.7315 8.25151 8.69952 8.58734 8.9234L8.68329 8.98737L8.94715 8.69952L7.65982 7.52413L7.39596 7.81198L7.46792 7.89993C7.56387 8.02787 7.62784 8.11582 7.62784 8.21977C7.62784 8.33171 7.54788 8.46764 7.33999 8.69152C7.33999 8.69152 7.10811 8.94739 6.99617 9.06732C6.83625 8.9234 6.11663 8.26774 6.11663 8.26774C6.11663 8.26774 6.07665 8.22776 6.06865 8.21177C6.07665 8.19578 6.10863 8.1558 6.10863 8.1558L6.49243 7.73202C6.97218 7.2043 7.11611 7.24428 7.47592 7.42018L7.56387 7.46816L7.82773 7.18031L6.9322 6.40471L6.84425 6.50066L4.61341 8.93939L4.92525 9.21924L5.0132 9.13129C5.22909 8.9154 5.25308 8.89142 5.51694 9.13129L7.61984 11.0503C7.81174 11.2262 7.85172 11.2902 7.77176 11.4101L7.73178 11.3861L7.66782 11.514C7.60385 11.634 7.53988 11.674 7.324 11.69C7.324 11.69 6.07665 11.7859 5.63688 11.8179C5.65287 11.7139 5.68485 11.61 5.68485 11.514C5.68485 11.0663 5.47696 10.7065 5.05318 10.4506C4.34955 10.0268 3.70189 10.3227 3.07022 11.3621L2.15869 12.8733L2.5185 13.0892L2.59047 12.9853C2.79836 12.6814 2.82235 12.6575 3.11819 12.8334L5.55692 14.3046C5.85276 14.4805 5.84477 14.5125 5.66886 14.8323L5.60489 14.9443L5.96471 15.1601L7.04414 13.3771L6.68433 13.1612L6.61237 13.2651C6.40448 13.585 6.38049 13.601 6.08464 13.4251C6.08464 13.4251 5.36502 12.9933 5.18911 12.8813C5.19711 12.8653 5.2051 12.8573 5.2131 12.8494C5.34103 12.8414 7.45993 12.6894 7.45993 12.6894L7.95567 11.8659L10.2585 9.33918L11.106 8.69152L10.8582 8.37169L10.7382 8.43565L10.5223 8.5396L10.4504 8.48363L10.2105 7.87595C10.3304 7.78 11.0261 7.24428 11.146 7.15632C11.162 7.16432 11.178 7.18031 11.178 7.18031L11.6817 7.54812C11.6817 7.54812 11.7137 7.5881 11.7137 7.62008C11.7137 7.66006 11.6737 7.71603 11.5458 7.81997L11.4418 7.89993L11.6977 8.23576L13.2089 7.07636L12.9451 6.73254L12.8411 6.8205L12.8571 6.79651ZM3.99773 11.2422C4.18164 11.1942 4.36554 11.2342 4.56544 11.3461C4.74934 11.4581 4.94924 11.634 4.94924 11.9538C4.94924 12.1217 4.88527 12.3376 4.74934 12.5935C4.54145 12.4656 3.486 11.8339 3.486 11.8339L3.43802 11.7939L3.50999 11.626C3.62992 11.4261 3.80583 11.2902 3.99773 11.2422ZM10.0426 7.27626C9.97062 7.06037 9.8027 6.54864 9.67477 6.16484C10.0106 6.38872 10.4664 6.69256 10.6503 6.8125C10.4823 6.94043 10.2105 7.14833 10.0506 7.27626H10.0426Z" fill="#25408F"/>
<path d="M16.0477 1.96689C15.9197 1.65505 15.9277 1.53511 16.2476 1.3592L16.3515 1.30323L16.1916 0.919434L16.0716 0.967409L14.7283 1.51912L14.8803 1.89492L14.9922 1.86294C15.296 1.78298 15.4 1.83895 15.5359 2.16678L16.2396 3.89388C16.3995 4.27768 16.4235 4.60551 16.3195 4.85338C16.2475 5.02929 16.0956 5.16522 15.8797 5.25317C15.6159 5.36511 15.392 5.38111 15.2161 5.30115C15.0162 5.22119 14.8643 5.02129 14.7283 4.70146L13.9128 2.7025C13.7768 2.37467 13.8088 2.35868 14.1127 2.22275L14.2246 2.16678L14.0647 1.78298L12.2017 2.54259L12.3616 2.93438L12.4815 2.8944C12.7934 2.78246 12.8253 2.77447 12.9613 3.0943L13.7529 5.02129C14.1766 6.05276 14.8883 6.34061 15.9277 5.91683C16.3915 5.72493 16.7033 5.45307 16.8472 5.10925C17.0072 4.72545 16.9752 4.25369 16.7353 3.67799L16.0317 1.95889L16.0477 1.96689Z" fill="#25408F"/>
<path d="M23.3718 0.111942L21.3408 0V0.135929L21.3168 0.423779L21.4448 0.439771C21.7566 0.471754 21.7966 0.47975 21.7726 0.831566L21.6127 3.67009C21.5967 4.0219 21.5487 4.0219 21.2369 4.0219H21.109V4.10186L20.5652 1.02347C20.5013 0.663654 20.5572 0.567704 20.8691 0.47975L20.981 0.447766L20.9091 0.0399791L20.7811 0.0639666L19.3259 0.319833L19.3978 0.719625H19.5178C19.8456 0.695637 19.9256 0.7676 19.9895 1.12741C19.9895 1.12741 20.1974 2.3028 20.2854 2.80654C19.8216 2.39875 17.7987 0.583696 17.7987 0.583696L16.5913 0.799583L16.6553 1.19138H16.7592C16.9671 1.21537 17.103 1.28733 17.239 1.47123C17.239 1.55119 17.7027 4.18182 17.7027 4.18182C17.7187 4.26178 17.7267 4.33374 17.7267 4.38971C17.7267 4.58161 17.6388 4.65357 17.3989 4.72553L17.2869 4.75752L17.3589 5.15731L18.9421 4.87746L18.8701 4.46967H18.7502C18.4224 4.49366 18.3344 4.42169 18.2784 4.06188C18.2784 4.06188 18.0465 2.73457 17.9266 2.06292C18.3984 2.4867 20.8131 4.63758 20.8131 4.63758L21.1969 4.57361L21.1649 4.42169L23.1159 4.53364C23.8035 4.57361 24.4192 4.38171 24.851 3.99791C25.2668 3.63011 25.4987 3.09439 25.5386 2.44672C25.6186 1.10342 24.763 0.183904 23.3718 0.103946V0.111942ZM22.6362 3.75804L22.8041 0.847558L22.86 0.663654C22.86 0.663654 22.988 0.615679 23.1319 0.623675C23.5477 0.647662 23.8755 0.791587 24.1154 1.06345C24.4032 1.38328 24.5312 1.84704 24.4992 2.41474C24.4672 2.98244 24.2833 3.43021 23.9635 3.71006C23.6996 3.94994 23.3558 4.05389 22.94 4.0299C22.7961 4.0299 22.7081 3.99791 22.6761 3.95794L22.6442 3.76604L22.6362 3.75804Z" fill="#25408F"/>
<path d="M31.6874 6.9483C31.5594 6.89233 31.5275 6.82837 31.4955 6.62048C31.4955 6.62048 31.3436 5.38912 31.2876 4.94135C31.8873 5.02131 32.343 4.80542 32.6229 4.28569C32.7828 3.98985 32.8228 3.70999 32.7428 3.44613C32.6229 3.05434 32.2631 2.70252 31.6234 2.3507L30.0642 1.51114L30.0003 1.63108L29.8643 1.87895L29.9763 1.94292C30.2961 2.13482 30.3121 2.15081 30.1522 2.45465L28.8009 4.95734C28.681 5.18123 28.633 5.2372 28.4811 5.18123L28.9528 4.33367L28.569 4.22173L28.513 4.28569C28.0413 4.8534 27.6815 4.86939 27.0578 4.68548C26.9379 4.6535 26.5701 4.54156 26.5221 4.45361L26.5381 4.32567C26.5381 4.32567 26.8179 3.36617 26.9059 3.07033C27.0658 3.1183 27.4016 3.21425 27.4016 3.21425C27.7774 3.32619 27.9134 3.43814 27.9134 3.71799C27.9134 3.76596 27.9134 3.82194 27.9054 3.87791L27.8894 3.98985L28.2652 4.10179L28.7449 2.43066L28.3691 2.31872L28.3211 2.42267C28.1692 2.7345 28.1053 2.82246 27.5615 2.66254C27.5615 2.66254 27.2497 2.57459 27.0658 2.51862C27.1218 2.31072 27.3936 1.38321 27.3936 1.38321C27.3936 1.38321 27.4176 1.32724 27.4176 1.31125C27.4336 1.31125 27.4896 1.32724 27.4896 1.32724L28.0413 1.48715C28.7129 1.67905 28.7529 1.83097 28.7529 2.21477V2.33471L29.1287 2.43866L29.4326 1.29525L26.1303 0.34375L26.0903 0.471683L26.0103 0.743541L26.1303 0.783521C26.4181 0.879471 26.4581 0.895462 26.3542 1.23129L25.5626 3.96586C25.4666 4.30169 25.4266 4.29369 25.1308 4.22972L25.0109 4.19774L24.8989 4.59753L28.2652 5.56503L29.7924 6.3806L29.9923 6.01279L29.8803 5.94883C29.5525 5.75693 29.5365 5.73294 29.6964 5.4291C29.6964 5.4291 30.0962 4.69348 30.1922 4.50958C30.2162 4.51757 30.2162 4.52557 30.2321 4.53356C30.2481 4.6615 30.504 6.7724 30.504 6.7724L31.6234 7.38008L31.8313 6.99628L31.6954 6.94031L31.6874 6.9483ZM31.1357 2.77448L31.1677 2.72651L31.3436 2.79047C31.5515 2.90242 31.6954 3.07033 31.7514 3.26223C31.8073 3.43814 31.7753 3.63004 31.6714 3.82993C31.5195 4.11778 31.2156 4.42962 30.432 4.06981C30.544 3.85392 31.1277 2.77448 31.1277 2.77448H31.1357Z" fill="#25408F"/>
<path d="M37.5324 7.32415L37.6204 7.35613L37.8763 7.06828L36.7968 6.12477L36.517 6.43661L36.6129 6.52456C36.7489 6.6525 36.7888 6.72446 36.7888 6.77244C36.7888 6.80442 36.7728 6.82841 36.7489 6.8444L36.413 7.07628C36.413 7.07628 35.3416 7.71594 34.8059 8.03578C34.9978 7.55603 35.4855 6.32467 35.4855 6.32467L35.7174 5.89289C35.7174 5.89289 35.7894 5.80494 36.0212 6.00484L36.1252 6.09279L36.405 5.77296L34.9338 4.47763L34.6619 4.78947L34.7499 4.87742C34.8538 4.98937 34.9018 5.06932 34.9018 5.15728C34.9018 5.21325 34.8858 5.26922 34.8538 5.34118C34.8538 5.34118 34.614 5.94887 34.566 6.0688C34.502 6.10079 33.7584 6.51657 33.3506 6.74045C33.5585 6.25271 34.0623 5.07732 34.0623 5.07732C34.0942 5.01335 34.2702 4.64555 34.2702 4.64555C34.2941 4.62156 34.3581 4.5496 34.534 4.70152L34.63 4.78947L34.9098 4.46964L33.5825 3.30225L33.4946 3.3982L33.3186 3.59809L33.3906 3.68605C33.4706 3.782 33.5105 3.83797 33.2867 4.3577L31.8154 7.77191L32.1273 8.04377C32.1273 8.04377 33.7504 7.14024 34.2302 6.86839C34.0223 7.38811 33.3346 9.10722 33.3346 9.10722L33.6465 9.37908L36.8928 7.43609C37.2286 7.23619 37.3086 7.2282 37.5404 7.31615L37.5324 7.32415Z" fill="#25408F"/>
<path d="M37.5484 14.0646C37.4764 13.9206 37.4364 13.8327 37.4364 13.7607C37.4364 13.6728 37.5084 13.6248 37.6843 13.5288C37.6843 13.5288 39.8512 12.3455 40.3789 12.0576C40.4429 12.1775 40.5388 12.3535 40.5388 12.3535C40.5948 12.4574 40.6348 12.5533 40.6348 12.6413C40.6348 12.8012 40.5308 12.9611 40.259 13.201L40.179 13.273L40.3789 13.6408L41.4983 12.9052L39.7872 9.7708L39.6753 9.81877L38.5639 10.3145L38.7637 10.6823L38.8677 10.6503C39.4194 10.4904 39.5793 10.5784 39.7312 10.8662C39.7312 10.8662 39.8272 11.0421 39.8912 11.1621C39.6753 11.282 37.1966 12.6333 37.1966 12.6333C36.8927 12.8012 36.8767 12.7772 36.6768 12.4494L36.6608 12.4174L36.7328 12.3614L36.6449 12.2575C36.5329 12.1136 36.5329 12.0656 36.7568 11.6978L38.8277 8.37153L38.6038 8.07568L38.5159 8.09967L34.7259 9.27506C34.518 9.33902 34.422 9.30704 34.2541 9.17111L34.1741 9.10715L33.8623 9.34702L34.7578 10.5144L35.0777 10.2665L35.0137 10.1466L34.9098 9.93072L34.9657 9.85875C34.9657 9.85875 35.5574 9.61888 35.5734 9.61088C35.6694 9.73082 36.2051 10.4265 36.293 10.5464C36.285 10.5624 36.2691 10.5784 36.2691 10.5784L35.9012 11.0821L35.8213 11.1141L35.5494 10.8742L35.4455 10.9222L35.2136 11.0981L36.285 12.4894L36.2211 12.5214L37.2285 14.3604L37.5964 14.1605L37.5404 14.0486L37.5484 14.0646ZM37.2525 9.05917C37.0287 9.39499 36.7328 9.85076 36.6049 10.0347C36.4769 9.86675 36.269 9.59489 36.1411 9.43497C36.349 9.36301 36.8687 9.1871 37.2525 9.05917Z" fill="#25408F"/>
<path d="M43.2336 18.6144L42.9217 16.8713L42.7938 16.8953L42.5139 16.9433L42.5299 17.0712C42.5779 17.439 42.5779 17.471 42.2341 17.527L39.4355 18.0307C39.1717 18.0787 39.0997 18.0627 39.0437 17.8868L40.0032 17.7748L39.8753 17.399H39.7874C39.0517 17.3351 38.8279 17.0552 38.612 16.4395C38.516 16.1757 38.476 16.0238 38.476 15.9438C38.476 15.8479 38.524 15.8239 38.596 15.7999C38.596 15.7999 39.6274 15.4321 39.8273 15.3601C39.8833 15.52 39.9953 15.8479 39.9953 15.8479C40.0432 15.9998 40.0752 16.1197 40.0752 16.2157C40.0752 16.3996 39.9713 16.5115 39.7394 16.6394L39.6354 16.6954L39.7714 17.0632L41.4105 16.4875L41.2826 16.1197L41.1706 16.1437C40.8268 16.2077 40.7229 16.1997 40.531 15.6639C40.531 15.6639 40.427 15.3601 40.3631 15.1762C40.563 15.1042 41.4825 14.7764 41.4825 14.7764C41.4825 14.7764 41.5384 14.7604 41.5544 14.7604C41.5544 14.7764 41.5864 14.8244 41.5864 14.8244L41.7783 15.3681C41.8663 15.616 41.9063 15.7919 41.9063 15.9198C41.9063 16.1357 41.7943 16.2396 41.5864 16.3836L41.5065 16.4395L41.6344 16.8074L42.7458 16.3836L41.6024 13.1453L41.4745 13.1932L41.2026 13.2892L41.2346 13.4091C41.3226 13.705 41.3306 13.737 41.0027 13.8569L38.3161 14.8084C37.9803 14.9283 37.9723 14.8884 37.8524 14.6085L37.8044 14.4886L37.4126 14.6245L38.58 17.9268H38.596L38.9158 19.6938L39.3316 19.6219L39.3156 19.494C39.2996 19.39 39.2916 19.318 39.2916 19.2541C39.2916 19.0942 39.3636 19.0702 39.6035 19.0222C39.6035 19.0222 40.427 18.8703 40.6349 18.8383C40.6349 18.8623 40.6349 18.8623 40.6349 18.8783C40.547 18.9742 39.0517 20.4854 39.0517 20.4854L39.2756 21.7328L39.7074 21.6608L39.6674 21.5249C39.6674 21.5249 39.6514 21.4609 39.6514 21.4289C39.6514 21.349 39.6914 21.277 39.8034 21.1651C39.8034 21.1651 40.6989 20.2456 40.9947 19.9337C41.3066 20.4455 41.7383 20.6933 42.33 20.5814C42.6579 20.5254 42.9057 20.3735 43.0657 20.1496C43.2975 19.8138 43.3455 19.3021 43.2176 18.5904L43.2336 18.6144ZM42.1221 19.5899C41.8023 19.6459 41.3705 19.5979 41.1626 18.7743C41.4025 18.7343 42.6099 18.5105 42.6099 18.5105H42.6739L42.7298 18.6784C42.7938 19.0382 42.6739 19.486 42.1221 19.5819V19.5899Z" fill="#25408F"/>
<path d="M15.2322 29.6805L13.8649 26.0024H13.4971L12.0738 29.8085C11.9938 30.0163 11.9139 30.0723 11.706 30.1203L11.6021 30.1443V30.5441H13.0733V30.1203H12.9374C12.6815 30.1203 12.6815 30.0643 12.6815 29.9924L12.8654 29.3607H14.0488L14.0648 29.4007L14.2407 29.9924C14.2407 30.0563 14.2407 30.1203 13.9688 30.1203H13.8329V30.5441H15.7439V30.1203H15.608C15.4241 30.1203 15.3841 30.0963 15.2322 29.6885V29.6805ZM13.4571 27.6656C13.585 28.0494 13.7609 28.5611 13.8329 28.777H13.0733C13.1452 28.5611 13.3212 28.0494 13.4571 27.6656Z" fill="#25408F"/>
<path d="M17.471 27.7055C17.0872 27.4816 16.7514 27.2897 16.7514 26.9939C16.7514 26.8579 16.7913 26.5461 17.1991 26.5461C17.6229 26.5461 17.9827 26.9059 18.1346 27.4896L18.1586 27.5856H18.5344V25.9944H18.1506L18.1267 26.0983C18.1187 26.1543 18.0867 26.2183 18.0547 26.2183L17.7988 26.1463L17.0312 25.9944C16.3676 25.9944 15.8079 26.5461 15.8079 27.1938C15.8079 27.8974 16.4075 28.2732 16.9353 28.609C17.367 28.8809 17.7748 29.1447 17.7748 29.5205C17.7748 29.6565 17.7349 30.0803 17.2551 30.0803C16.7754 30.0803 16.3276 29.5525 16.1837 29.0488L16.1517 28.9528H15.7759V30.584H16.2236L16.2396 30.4721C16.2556 30.3761 16.2876 30.3761 16.2956 30.3761L16.5355 30.4481C16.7114 30.528 16.9593 30.632 17.399 30.632C18.1426 30.632 18.7024 30.0803 18.7024 29.3366C18.7024 28.4251 18.0147 28.0253 17.455 27.7055H17.471Z" fill="#25408F"/>
<path d="M20.5812 27.7055C20.1974 27.4816 19.8615 27.2897 19.8615 26.9939C19.8615 26.8579 19.9015 26.5461 20.3093 26.5461C20.7171 26.5461 21.0929 26.9059 21.2448 27.4896L21.2688 27.5856H21.6526V25.9944H21.2688L21.2448 26.0983C21.2288 26.1543 21.2048 26.2183 21.1729 26.2183L20.917 26.1463L20.1494 25.9944C19.4857 25.9944 18.926 26.5461 18.926 27.1938C18.926 27.8974 19.5257 28.2732 20.0534 28.609C20.4852 28.8809 20.893 29.1447 20.893 29.5205C20.893 29.6565 20.853 30.0803 20.3733 30.0803C19.8935 30.0803 19.4538 29.5525 19.3018 29.0488L19.2698 28.9528H18.894V30.584H19.3418L19.3578 30.4721C19.3738 30.3761 19.4058 30.3761 19.4218 30.3761L19.6616 30.4481C19.8375 30.528 20.0854 30.632 20.5252 30.632C21.2688 30.632 21.8285 30.0803 21.8285 29.3366C21.8285 28.4251 21.1409 28.0253 20.5812 27.7055Z" fill="#25408F"/>
<path d="M29.4729 29.2167C29.329 29.4406 28.9452 30.0243 28.2656 30.0243C27.1781 30.0243 27.0102 28.9289 27.0102 28.2812C27.0102 27.6335 27.322 26.5461 28.1616 26.5461C28.6973 26.5461 29.0891 26.8899 29.321 27.5696L29.353 27.6575H29.7528L29.6568 25.9944H29.265L29.1211 26.2343H29.1051L28.9452 26.1863C28.7053 26.1063 28.3535 25.9944 28.0657 25.9944C26.6904 25.9944 26.0267 27.1538 25.9468 28.0733C25.8588 27.0258 25.2271 25.9944 23.9318 25.9944C22.5325 25.9944 21.9009 27.1938 21.9009 28.3132C21.9009 29.4326 22.5405 30.632 23.9318 30.632C25.2431 30.632 25.8748 29.5765 25.9468 28.5291C26.0427 29.8084 26.8343 30.632 28.0257 30.632C28.8572 30.632 29.425 30.2801 29.8487 29.4806L29.8967 29.3846L29.5449 29.0888L29.4649 29.2167H29.4729ZM23.9318 30.0883C23.1482 30.0883 22.9803 29.1287 22.9803 28.3212C22.9803 27.5136 23.1482 26.5541 23.9318 26.5541C24.7154 26.5541 24.8833 27.5136 24.8833 28.3212C24.8833 29.1287 24.7154 30.0883 23.9318 30.0883Z" fill="#25408F"/>
<path d="M30.6643 29.4485C30.3685 29.4485 30.1206 29.7123 30.1206 30.0322C30.1206 30.352 30.3605 30.6159 30.6643 30.6159C30.9682 30.6159 31.208 30.352 31.208 30.0322C31.208 29.7123 30.9682 29.4485 30.6643 29.4485Z" fill="#25408F"/>
<path d="M33.6626 36.5009L33.5907 36.1731H32.895L32.911 36.5569C33.007 36.5489 33.0789 36.5249 33.1189 36.4849C33.1189 36.4849 33.3588 36.4849 33.6706 36.5009H33.6626Z" fill="#25408F"/>
<path d="M41.2907 27.4096C41.2907 27.4096 43.0498 27.1777 43.6175 25.3467C43.6175 25.3467 42.2182 26.61 40.2912 26.4101C40.2912 26.4101 39.0599 26.0743 39.5956 27.5375C39.5956 27.5375 39.5316 28.6649 39.1318 29.0328L38.3642 28.9688C38.3642 28.9688 37.3647 28.473 37.3008 29.9363C37.3008 29.9363 36.6691 31.7673 36.3013 31.9672C36.3013 31.9672 35.3338 32.7988 35.3738 33.5664C35.3738 33.5664 35.7736 33.1666 36.837 33.0706C36.837 33.0706 37.3008 30.9757 38.1323 30.9038C38.1323 30.9038 37.0049 32.6629 37.2368 33.3025C37.2368 33.3025 34.2144 33.9982 33.7107 34.7977C33.7107 34.7977 34.5422 32.6389 32.9431 32.7988L28.8892 34.0941C28.8892 34.0941 27.5938 34.358 27.9217 35.0616L27.322 35.2615C27.322 35.2615 26.8902 33.9982 25.6589 34.5659C25.6589 34.5659 25.5309 34.6218 25.355 34.7098C25.339 34.7418 25.291 34.9097 25.6029 35.9651C25.6029 35.9651 27.6978 35.6853 26.6343 37.5403C26.6343 37.5403 26.0027 36.9406 25.5389 37.6762L24.7713 36.7407C24.7713 36.7407 24.8353 36.141 25.467 36.0131C25.467 36.0131 25.1871 35.3814 25.2031 34.7818C24.5474 35.1496 23.524 35.9332 24.5234 36.8127L25.0911 37.5483C25.0911 37.5483 25.4909 37.8681 24.7553 38.0441C24.7553 38.0441 22.4765 38.6997 21.9488 39.0355C21.4211 38.6997 19.1423 38.0441 19.1423 38.0441C18.4066 37.8602 18.8064 37.5483 18.8064 37.5483L19.3741 36.8127C20.3816 35.9252 19.3501 35.1496 18.6945 34.7818C18.7105 35.3734 18.4306 36.0131 18.4306 36.0131C19.0623 36.149 19.1263 36.7407 19.1263 36.7407L18.3667 37.6762C17.9029 36.9486 17.2712 37.5403 17.2712 37.5403C16.2078 35.6773 18.3027 35.9651 18.3027 35.9651C18.6145 34.9097 18.5745 34.7338 18.5506 34.7098C18.3747 34.6218 18.2467 34.5659 18.2467 34.5659C17.0154 33.9982 16.5836 35.2615 16.5836 35.2615L15.9839 35.0616C16.3197 34.366 15.0164 34.0941 15.0164 34.0941L10.9625 32.7988C9.36335 32.6309 10.1949 34.7977 10.1949 34.7977C9.69918 33.9982 6.66876 33.3025 6.66876 33.3025C6.90064 32.6709 5.77322 30.9038 5.77322 30.9038C6.60479 30.9677 7.06855 33.0706 7.06855 33.0706C8.13199 33.1666 8.53179 33.5664 8.53179 33.5664C8.56377 32.7988 7.60427 31.9672 7.60427 31.9672C7.23646 31.7673 6.60479 29.9363 6.60479 29.9363C6.54082 28.473 5.54135 28.9688 5.54135 28.9688L4.77375 29.0328C4.37395 28.6649 4.30999 27.5375 4.30999 27.5375C4.84571 26.0743 3.61435 26.4101 3.61435 26.4101C1.68736 26.61 0.288086 25.3467 0.288086 25.3467C0.85579 27.1777 2.61487 27.4096 2.61487 27.4096C3.97416 28.1052 3.74228 29.0088 3.74228 29.0088C3.44644 29.3766 1.81529 28.8409 1.81529 28.8409C2.31103 29.7044 3.07863 29.5765 3.07863 29.5765C4.278 29.7444 4.44592 30.6399 4.44592 30.6399C4.6778 31.1676 4.64581 32.5029 4.64581 32.5029C4.6778 34.7338 6.07707 34.9337 6.07707 34.9337C7.07654 35.3335 8.93957 36.7327 8.93957 36.7327C9.13947 36.6128 9.61122 36.5568 10.035 36.5248L10.1709 35.9731L11.2664 36.0371L11.1944 36.5808C11.7701 36.5648 12.7216 36.301 12.7216 36.301C14.1209 36.269 14.1529 36.8287 14.1529 36.8287C14.3847 37.6603 13.6171 37.9241 13.6171 37.9241C12.7216 38.5878 11.1544 38.188 11.1544 38.188C10.5867 37.9881 11.0185 37.9241 11.0185 37.9241C11.1224 37.9561 11.6502 38.2519 13.0174 37.9561C14.3847 37.6523 13.929 36.8127 13.929 36.8127C13.817 36.4449 12.6496 36.5648 12.6496 36.5648C12.2818 36.7327 10.7546 36.7967 10.7546 36.7967C7.1645 36.5968 9.72316 38.7557 9.72316 38.7557L11.3703 39.6512C11.906 39.971 12.018 40.051 12.018 40.051C12.2498 40.2829 13.0174 41.1145 13.0174 41.1145C14.2808 42.1779 13.5132 40.6507 13.5132 40.6507C13.2813 40.2829 12.6177 39.6512 12.6177 39.6512C11.4503 38.8516 12.8175 39.2194 12.8175 39.2194C14.5127 39.8831 16.1758 39.0835 16.1758 39.0835C16.7435 38.6837 17.3752 38.8836 17.3752 38.8836C19.3022 39.7792 19.8379 39.7472 19.8379 39.7472L20.5255 39.8591L20.4376 39.9151C20.5415 39.9151 18.9104 40.4828 18.7105 41.0825C18.7105 41.0825 18.2467 41.7941 19.2062 41.3623C19.2062 41.3623 19.4861 41.2824 19.8059 41.0425C19.8059 41.0425 19.3741 42.2419 20.2057 41.0745C20.2057 41.0745 20.8694 40.2429 21.8688 40.107L21.9488 40.091L22.0367 40.107C23.0362 40.2429 23.6999 41.0745 23.6999 41.0745C24.5314 42.2419 24.0997 41.0425 24.0997 41.0425C24.4195 41.2744 24.6994 41.3623 24.6994 41.3623C25.6668 41.7941 25.1951 41.0825 25.1951 41.0825C24.9952 40.4828 23.364 39.9151 23.468 39.9151L23.38 39.8591L24.0677 39.7472C24.0677 39.7472 24.5954 39.7792 26.5304 38.8836C26.5304 38.8836 27.1621 38.6837 27.7298 39.0835C27.7298 39.0835 29.3929 39.8831 31.088 39.2194C31.088 39.2194 32.4553 38.8516 31.2879 39.6512C31.2879 39.6512 30.6243 40.2829 30.3924 40.6507C30.3924 40.6507 29.6248 42.1779 30.8881 41.1145C30.8881 41.1145 31.6557 40.2829 31.8876 40.051C31.8876 40.051 31.9995 39.971 32.5353 39.6512L34.1824 38.7557C34.1824 38.7557 36.7411 36.5968 33.1509 36.7967C33.1509 36.7967 31.6237 36.7327 31.2559 36.5648C31.2559 36.5648 30.0885 36.4529 29.9766 36.8127C29.9766 36.8127 29.5288 37.6603 30.8881 37.9561C32.2474 38.2519 32.7831 37.9561 32.8871 37.9241C32.8871 37.9241 33.3189 37.9881 32.7512 38.188C32.7512 38.188 31.184 38.5878 30.2884 37.9241C30.2884 37.9241 29.5208 37.6523 29.7527 36.8287C29.7527 36.8287 29.7847 36.261 31.184 36.301C31.184 36.301 32.1355 36.5648 32.7112 36.5808L32.6392 36.0371L33.7346 35.9731L33.8706 36.5248C34.2864 36.5568 34.7661 36.6128 34.966 36.7327C34.966 36.7327 36.829 35.3335 37.8285 34.9337C37.8285 34.9337 39.2278 34.7338 39.2598 32.5029C39.2598 32.5029 39.2278 31.1756 39.4597 30.6399C39.4597 30.6399 39.6276 29.7444 40.8269 29.5765C40.8269 29.5765 41.5945 29.7124 42.0903 28.8409C42.0903 28.8409 40.4591 29.3766 40.1633 29.0088C40.1633 29.0088 39.9314 28.1132 41.2907 27.4096ZM13.1614 35.3255L11.7621 35.0296L11.0345 34.9017L11.5702 35.0296L11.3063 35.8932L10.2749 35.6933L10.4668 34.7977H10.4028C10.4028 34.7977 9.51527 32.5189 11.2824 33.0547L13.6011 33.7583C13.6011 33.7583 13.1694 33.5904 13.1694 35.3175L13.1614 35.3255ZM13.929 35.5574L13.4652 35.4614C13.3693 34.1661 13.801 33.8303 13.801 33.8303L14.2328 33.9662C13.6331 34.1341 13.937 35.5653 13.937 35.5653L13.929 35.5574ZM17.8229 38.4279C17.8229 38.4279 17.4551 38.3079 17.3752 38.132C17.3752 38.132 15.9039 38.5878 15.8 36.7567L15.76 36.4929C15.76 36.4929 14.6326 35.6933 14.2328 35.6293C14.2328 35.6293 14.0009 33.9342 14.6646 34.1021C14.6646 34.1021 16.2957 34.4699 15.792 35.1016L16.3917 35.4054C16.3917 35.4054 16.1278 36.141 16.2558 36.5009H15.9119C15.9839 37.2525 16.1198 38.22 17.2632 37.9961C17.2632 37.9961 17.4072 37.3324 18.0548 37.5003C18.0548 37.5003 18.8864 38.18 17.8229 38.4518V38.4279ZM29.6887 35.6213C29.289 35.6853 28.1615 36.4849 28.1615 36.4849L28.1216 36.7487C28.0096 38.5798 26.5384 38.124 26.5384 38.124C26.4584 38.3079 26.0906 38.4199 26.0906 38.4199C25.0272 38.156 25.8587 37.4684 25.8587 37.4684C26.5064 37.3004 26.6503 37.9641 26.6503 37.9641C27.7937 38.188 27.9377 37.2205 28.0016 36.4689H27.6578C27.7937 36.1011 27.5219 35.3734 27.5219 35.3734L28.1216 35.0696C27.6258 34.4379 29.249 34.0701 29.249 34.0701C29.9126 33.9022 29.6808 35.5973 29.6808 35.5973L29.6887 35.6213ZM30.4484 35.4614L29.9846 35.5574C29.9846 35.5574 30.2804 34.1261 29.6887 33.9582L30.1205 33.8223C30.1205 33.8223 30.5523 34.1581 30.4484 35.4534V35.4614ZM32.6072 35.8932L32.3434 35.0296L32.8791 34.9017L32.1515 35.0296L30.7522 35.3255C30.7522 33.5984 30.3204 33.7663 30.3204 33.7663L32.6392 33.0627C34.3983 32.5349 33.5108 34.7977 33.5108 34.7977H33.4468L33.6387 35.7013L32.6072 35.9012V35.8932Z" fill="#25408F"/>
<path d="M32.623 35.1976L32.743 35.6293L33.3427 35.5334L33.2227 35.0457L32.623 35.1976Z" fill="#25408F"/>
<path d="M33.4386 34.7659L32.8789 34.9018L33.4466 34.8058L33.4386 34.7659Z" fill="#25408F"/>
<path d="M33.6704 36.525L32.9108 36.5729V36.5569C32.8469 36.5569 32.7829 36.5649 32.7109 36.5649V36.5889L33.8863 36.5489V36.517C33.7984 36.517 33.7264 36.509 33.6624 36.501V36.525H33.6704Z" fill="#25408F"/>
<path d="M25.0751 36.7167L25.219 36.5568L25.4589 36.5808L25.4909 36.5088L25.187 36.4849L24.9951 36.6928L25.0751 36.7167Z" fill="#25408F"/>
<path d="M26.1706 36.309C26.2346 36.293 26.3065 36.325 26.3945 36.4049L26.4505 36.349C26.3465 36.253 26.2426 36.213 26.1546 36.237C26.0267 36.269 25.9787 36.4049 25.9707 36.4129L26.0427 36.4369C26.0427 36.4369 26.0826 36.333 26.1706 36.309Z" fill="#25408F"/>
<path d="M26.0667 37.6282C25.8908 37.6282 25.7549 37.7721 25.7549 37.94C25.7549 38.1079 25.8988 38.2518 26.0667 38.2518C26.2346 38.2518 26.3786 38.1079 26.3786 37.94C26.3786 37.7721 26.2346 37.6282 26.0667 37.6282ZM26.0667 38.0999C25.9788 38.0999 25.9148 38.028 25.9148 37.948C25.9148 37.868 25.9868 37.7961 26.0667 37.7961C26.1467 37.7961 26.2186 37.868 26.2186 37.948C26.2186 38.028 26.1467 38.0999 26.0667 38.0999Z" fill="#25408F"/>
<path d="M11.0026 36.5569L11.0186 36.1731H10.3229L10.251 36.5009C10.5628 36.4849 10.8027 36.4849 10.8027 36.4849C10.8427 36.5249 10.9146 36.5489 11.0026 36.5569Z" fill="#25408F"/>
<path d="M11.2904 35.1976L10.6907 35.0457L10.5708 35.5334L11.1705 35.6293L11.2904 35.1976Z" fill="#25408F"/>
<path d="M10.4668 34.8058L11.0345 34.9018L10.4748 34.7659L10.4668 34.8058Z" fill="#25408F"/>
<path d="M11.0023 36.5808L10.2427 36.5328V36.5088C10.1788 36.5088 10.1068 36.5088 10.0269 36.5248V36.5568L11.1942 36.5967V36.5728C11.1223 36.5728 11.0583 36.5728 11.0023 36.5648V36.5808Z" fill="#25408F"/>
<path d="M18.8386 36.7167L18.9186 36.6928L18.7267 36.4849L18.4229 36.5088L18.4548 36.5808L18.6947 36.5568L18.8386 36.7167Z" fill="#25408F"/>
<path d="M17.4629 36.3409L17.5189 36.3969C17.6068 36.3169 17.6788 36.2929 17.7427 36.3009C17.8307 36.3249 17.8707 36.4289 17.8707 36.4289L17.9426 36.4049C17.9426 36.4049 17.8867 36.261 17.7587 36.229C17.6708 36.205 17.5668 36.245 17.4629 36.3409Z" fill="#25408F"/>
<path d="M17.847 37.6282C17.6711 37.6282 17.5352 37.7721 17.5352 37.94C17.5352 38.1079 17.6791 38.2518 17.847 38.2518C18.0149 38.2518 18.1588 38.1079 18.1588 37.94C18.1588 37.7721 18.0149 37.6282 17.847 37.6282ZM17.847 38.0999C17.759 38.0999 17.6871 38.028 17.6871 37.948C17.6871 37.868 17.759 37.7961 17.847 37.7961C17.9349 37.7961 17.9989 37.868 17.9989 37.948C17.9989 38.028 17.927 38.0999 17.847 38.0999Z" fill="#25408F"/>
<path d="M31.6796 9.71484H11.9619V24.2033H31.6796L27.2739 16.9751L31.6796 9.71484Z" fill="#25408F"/>
<path d="M18.6785 10.3545H12.6816V23.5716H18.6785V10.3545Z" fill="white"/>
</svg>
