<svg width="284" height="64" viewBox="0 0 284 64" fill="none" xmlns="http://www.w3.org/2000/svg">
<path d="M39.7266 29.28V4.15283H49.4964V8.47953H43.3483V24.9409H43.4603C44.7546 24.9409 46.049 24.8041 47.3558 24.5306C48.6626 24.2571 49.932 23.909 51.1641 23.4738V27.6762C50.0316 28.1362 48.6875 28.5216 47.1193 28.82C45.5636 29.1184 43.9954 29.2676 42.4397 29.2676H39.7141L39.7266 29.28ZM61.4692 38.841H57.8973V18.8238H55.6197V37.9086H52.0727V1.38026H55.6197V14.4971H57.8973V0.969971H61.4692V38.841Z" fill="white"/>
<path d="M64.5681 11.1029V7.2238H81.0213V11.1029H64.5681ZM72.9067 25.5625C71.8364 25.5625 70.8905 25.3761 70.0691 24.9906C69.2477 24.6052 68.5632 24.1079 68.0156 23.4987C67.468 22.8894 67.0573 22.1808 66.771 21.3726C66.4848 20.5645 66.3478 19.7314 66.3478 18.8611C66.3478 17.9908 66.4848 17.1951 66.771 16.387C67.0573 15.5788 67.468 14.8701 68.0156 14.2485C68.5632 13.6268 69.2477 13.1295 70.0691 12.7565C70.8905 12.3835 71.8364 12.2095 72.9067 12.2095C73.9771 12.2095 74.9229 12.3959 75.7319 12.7565C76.5409 13.1295 77.2254 13.6268 77.7854 14.2485C78.3455 14.8701 78.7562 15.5912 79.0424 16.387C79.3287 17.1951 79.4656 18.0157 79.4656 18.8611C79.4656 19.7066 79.3287 20.5769 79.0424 21.3726C78.7562 22.1808 78.3455 22.8894 77.7854 23.4987C77.2254 24.1079 76.5409 24.6052 75.7319 24.9906C74.9229 25.3761 73.9771 25.5625 72.9067 25.5625ZM68.0529 5.29667V1.25593H77.7356V5.29667H68.0529ZM86.5223 38.1075H69.0237V28.4594H72.6827V33.8181H86.5223V38.1075ZM72.9067 21.8451C74.0019 21.8451 74.786 21.5467 75.2714 20.9623C75.7568 20.378 76.0057 19.6942 76.0057 18.8984C76.0057 18.1027 75.7692 17.3692 75.2838 16.7724C74.8109 16.1756 74.0144 15.8772 72.8943 15.8772C71.7742 15.8772 70.9279 16.1756 70.4674 16.7724C69.9944 17.3692 69.7704 18.0779 69.7704 18.8984C69.7704 19.719 70.0069 20.378 70.4674 20.9623C70.9403 21.5467 71.7493 21.8451 72.8943 21.8451H72.9067ZM90.032 17.8416H85.9622V29.6903H82.3654V0.969971H85.9622V13.5149H90.032V17.8416Z" fill="white"/>
<path d="M90.7041 25.3636V21.1612H115.819V25.3636H105.365V38.6421H101.681V25.3636H90.7041ZM105.689 1.61646C105.726 2.5738 105.689 3.49385 105.577 4.38903C105.465 5.28421 105.266 6.17939 104.992 7.0497C105.477 8.00704 106.075 8.86492 106.796 9.62334C107.506 10.3818 108.29 11.0656 109.124 11.6624C109.958 12.2591 110.854 12.7813 111.8 13.2414C112.745 13.6889 113.716 14.0495 114.712 14.323L112.87 18.3265C110.879 17.7048 109.061 16.7723 107.419 15.5415C105.763 14.3106 104.332 12.8435 103.1 11.1277C101.992 12.8435 100.636 14.3479 99.0302 15.6285C97.4248 16.9091 95.7073 17.9038 93.8777 18.6124L91.9735 14.696C93.5541 14.1241 94.9605 13.403 96.2051 12.5327C97.4497 11.6624 98.4826 10.6677 99.3414 9.57361C100.188 8.46707 100.835 7.24863 101.283 5.91829C101.731 4.58795 101.943 3.15815 101.93 1.62889H105.701L105.689 1.61646Z" fill="white"/>
<path d="M131.153 24.7916C133.629 25.0403 135.509 25.7863 136.79 27.042C138.072 28.2978 138.707 29.9016 138.707 31.8661C138.707 34.0418 137.911 35.8073 136.317 37.1377C134.724 38.468 132.422 39.1394 129.398 39.1394C126.373 39.1394 124.021 38.468 122.453 37.1377C120.885 35.8073 120.101 34.0418 120.101 31.8661C120.101 29.9389 120.735 28.3475 121.993 27.1042C123.25 25.8609 125.079 25.1149 127.481 24.8414V21.5342H116.591V17.4064H142.229V21.5342H131.165V24.8041L131.153 24.7916ZM120.711 2.02673H133.094C134.202 2.02673 135.396 2.00186 136.666 1.9397C137.313 1.9397 137.512 2.44945 137.276 3.45653C137.002 4.60037 136.517 5.69448 135.807 6.75129C135.11 7.79566 134.227 8.80274 133.169 9.76009C134.314 10.332 135.533 10.8169 136.803 11.2272C138.072 11.6375 139.379 11.9732 140.723 12.2467L139.466 15.8771C137.786 15.442 136.181 14.9198 134.637 14.2982C133.094 13.6889 131.601 12.9181 130.157 11.9856C128.688 12.8808 127.095 13.6765 125.353 14.3603C123.61 15.0441 121.781 15.5788 119.852 15.9517L118.508 12.2467C120.437 11.8986 122.167 11.4634 123.673 10.9537C125.179 10.4439 126.498 9.89685 127.63 9.32493C128.751 8.75301 129.684 8.16866 130.406 7.57187C131.14 6.97508 131.688 6.42803 132.061 5.90584V5.86854C131.003 5.91827 129.97 5.96801 128.95 6.01774C127.929 6.05504 126.884 6.0799 125.838 6.0799H120.711V2.03916V2.02673ZM129.398 28.5837C128.365 28.5837 127.493 28.6708 126.797 28.8448C126.1 29.0189 125.527 29.2675 125.104 29.5784C124.681 29.8892 124.37 30.2498 124.183 30.6352C123.996 31.033 123.909 31.4309 123.909 31.8412C123.909 32.2763 123.996 32.6991 124.183 33.0845C124.37 33.4824 124.681 33.8305 125.104 34.1413C125.54 34.4521 126.1 34.7008 126.797 34.8997C127.493 35.0862 128.365 35.1857 129.398 35.1857C130.431 35.1857 131.302 35.0862 131.999 34.8997C132.696 34.7132 133.268 34.4521 133.691 34.1413C134.127 33.8305 134.426 33.4699 134.612 33.0845C134.799 32.6991 134.886 32.2763 134.886 31.8412C134.886 31.4309 134.799 31.033 134.612 30.6352C134.426 30.2373 134.115 29.8892 133.691 29.5784C133.268 29.2675 132.696 29.0189 131.999 28.8448C131.302 28.6708 130.431 28.5837 129.398 28.5837Z" fill="white"/>
<path d="M146.61 18.0903C146.61 17.1578 146.834 16.3994 147.27 15.7777C147.705 15.1685 148.278 14.8577 148.987 14.8577C149.697 14.8577 150.257 15.1685 150.705 15.7777C151.14 16.3869 151.364 17.1578 151.364 18.0903C151.364 19.0227 151.14 19.7812 150.705 20.4028C150.269 21.012 149.697 21.3229 148.987 21.3229C148.278 21.3229 147.718 21.012 147.27 20.4028C146.834 19.7936 146.61 19.0227 146.61 18.0903Z" fill="white"/>
<path d="M158.994 18.2146L158.844 8.52927H162.391L162.503 18.2146H165.938C166.274 18.2146 166.61 18.2022 166.946 18.1773L167.058 8.52927H170.605L170.456 17.8043C171.066 17.6924 171.676 17.5681 172.286 17.4313C172.895 17.2946 173.53 17.1205 174.177 16.8967V20.9872C172.808 21.5342 171.34 21.8948 169.759 22.0937C168.178 22.2802 166.585 22.3797 164.992 22.3797H156.007V18.2146H158.994ZM156.567 7.2984V3.04629H172.634V7.2984H156.567ZM179.093 38.1075H161.595V26.3458H165.254V33.8181H179.093V38.1075ZM174.936 0.969971H178.571V29.0811H174.936V0.969971Z" fill="white"/>
<path d="M182.08 25.3636V21.1612H207.196V25.3636H196.741V38.6421H193.057V25.3636H182.08ZM197.065 1.61646C197.102 2.5738 197.065 3.49385 196.953 4.38903C196.841 5.28421 196.642 6.17939 196.368 7.0497C196.853 8.00704 197.451 8.86492 198.173 9.62334C198.882 10.3818 199.666 11.0656 200.5 11.6624C201.334 12.2591 202.23 12.7813 203.176 13.2414C204.122 13.6889 205.092 14.0495 206.088 14.323L204.246 18.3265C202.255 17.7048 200.438 16.7723 198.782 15.5415C197.127 14.3106 195.696 12.8435 194.464 11.1277C193.356 12.8435 192 14.3479 190.394 15.6285C188.789 16.9091 187.083 17.9038 185.242 18.6124L183.337 14.696C184.918 14.1241 186.324 13.403 187.569 12.5327C188.813 11.6624 189.846 10.6677 190.705 9.57361C191.551 8.46707 192.199 7.24863 192.647 5.91829C193.095 4.58795 193.306 3.15815 193.294 1.62889H197.065V1.61646Z" fill="white"/>
<path d="M221.72 4.84908H227.158V0.969971H230.793V23.2749H227.158V17.394H222.093C221.471 18.4881 220.674 19.346 219.728 19.9677C218.77 20.5893 217.7 20.9126 216.505 20.9126C215.447 20.9126 214.489 20.6639 213.642 20.179C212.784 19.6941 212.037 19.0103 211.415 18.1525C210.792 17.2946 210.307 16.2875 209.959 15.1437C209.622 13.9998 209.448 12.7565 209.448 11.4262C209.448 10.0958 209.622 8.84009 209.959 7.68382C210.307 6.52754 210.78 5.52047 211.415 4.66259C212.037 3.80471 212.784 3.12089 213.642 2.62357C214.501 2.11381 215.46 1.86515 216.505 1.86515C217.55 1.86515 218.583 2.12624 219.455 2.66087C220.338 3.19549 221.085 3.9166 221.707 4.84908H221.72ZM221.981 22.9516C223.499 22.9516 224.831 23.163 225.976 23.5857C227.121 24.0084 228.067 24.5803 228.826 25.3015C229.585 26.0226 230.158 26.8805 230.531 27.8502C230.917 28.8324 231.104 29.8892 231.104 31.0331C231.104 32.1769 230.917 33.2462 230.531 34.216C230.145 35.1982 229.585 36.0436 228.826 36.7647C228.067 37.4858 227.109 38.0578 225.976 38.4805C224.831 38.9032 223.499 39.1146 221.981 39.1146C220.463 39.1146 219.131 38.9032 217.998 38.4805C216.866 38.0578 215.92 37.4858 215.173 36.7647C214.427 36.0436 213.854 35.1982 213.468 34.216C213.095 33.2337 212.896 32.1769 212.896 31.0331C212.896 29.8892 213.082 28.8324 213.468 27.8502C213.854 26.868 214.414 26.0226 215.173 25.3015C215.92 24.5803 216.866 24.0084 217.998 23.5857C219.131 23.163 220.463 22.9516 221.981 22.9516ZM212.995 11.4262C212.995 13.03 213.306 14.3231 213.941 15.2928C214.576 16.2626 215.435 16.7475 216.505 16.7475C217.575 16.7475 218.397 16.2626 219.031 15.2928C219.666 14.3231 219.977 13.0425 219.977 11.4262C219.977 9.80987 219.666 8.55413 219.031 7.55949C218.397 6.56485 217.55 6.06752 216.505 6.06752C215.46 6.06752 214.601 6.56485 213.954 7.55949C213.306 8.55413 212.983 9.84717 212.983 11.4262H212.995ZM221.981 27.0794C220.985 27.0794 220.152 27.1913 219.467 27.4026C218.783 27.6264 218.222 27.9124 217.799 28.2854C217.376 28.6584 217.053 29.0811 216.866 29.5536C216.667 30.026 216.567 30.5233 216.567 31.0455C216.567 31.5677 216.667 32.065 216.866 32.5375C217.065 33.0099 217.376 33.4327 217.799 33.8057C218.235 34.1787 218.783 34.4646 219.467 34.6884C220.152 34.9122 220.985 35.0117 221.981 35.0117C222.977 35.0117 223.823 34.8998 224.52 34.6884C225.217 34.477 225.777 34.1787 226.213 33.8057C226.648 33.4327 226.972 33.0099 227.158 32.5375C227.358 32.065 227.457 31.5677 227.457 31.0455C227.457 30.5233 227.358 30.026 227.158 29.5536C226.959 29.0811 226.648 28.6584 226.213 28.2854C225.777 27.9124 225.204 27.6264 224.52 27.4026C223.823 27.1913 222.977 27.0794 221.981 27.0794ZM223.412 13.4652H227.183V8.7282H223.288C223.462 9.59851 223.549 10.4937 223.549 11.4262C223.549 11.7743 223.537 12.1224 223.499 12.4705C223.475 12.8062 223.437 13.1419 223.4 13.4652H223.412Z" fill="white"/>
<path d="M234.414 9.74771V6.22916H250.867V9.74771H234.414ZM242.666 22.7403C241.608 22.7403 240.687 22.5662 239.903 22.2305C239.119 21.8948 238.459 21.4472 237.924 20.8877C237.401 20.3282 236.991 19.6942 236.729 18.973C236.455 18.2519 236.319 17.4935 236.319 16.7102C236.319 15.9269 236.455 15.2058 236.729 14.4847C237.003 13.7636 237.401 13.1171 237.924 12.57C238.447 12.0105 239.106 11.5754 239.903 11.2397C240.699 10.9164 241.62 10.7548 242.666 10.7548C243.711 10.7548 244.607 10.9164 245.404 11.2397C246.188 11.5629 246.86 12.0105 247.395 12.57C247.93 13.1295 248.341 13.7636 248.615 14.4847C248.889 15.2058 249.026 15.9518 249.026 16.7102C249.026 17.4686 248.889 18.2519 248.615 18.973C248.341 19.6942 247.943 20.3407 247.395 20.8877C246.86 21.4472 246.2 21.8948 245.404 22.2305C244.62 22.5662 243.699 22.7403 242.666 22.7403ZM237.899 4.4388V0.80835H247.582V4.4388H237.899ZM256.866 38.2691H239.542V24.5803H243.176V27.4399H253.307V24.2944H256.879V38.2691H256.866ZM242.666 19.1968C243.724 19.1968 244.47 18.9357 244.918 18.426C245.367 17.9038 245.591 17.3319 245.591 16.7102C245.591 16.0264 245.367 15.4421 244.931 14.9572C244.495 14.4723 243.736 14.2236 242.666 14.2236C241.595 14.2236 240.811 14.4723 240.363 14.9572C239.928 15.4421 239.704 16.0388 239.704 16.7102C239.704 17.3816 239.928 17.9411 240.363 18.4509C240.799 18.9606 241.571 19.2093 242.666 19.2093V19.1968ZM253.294 34.3527V31.2942H243.139V34.3527H253.294ZM249.897 14.9074V11.0656H253.27V0.969979H256.904V22.703H253.27V21.4348H249.897V17.593H253.294V14.895H249.897V14.9074Z" fill="white"/>
<path d="M271.639 25.4756V28.4596C272.909 28.3725 274.166 28.2731 275.41 28.1363C276.655 27.9996 277.85 27.8255 278.982 27.6017V31.6424C277.949 31.8662 276.854 32.0403 275.709 32.1895C274.551 32.3387 273.382 32.463 272.199 32.5625C271.004 32.6619 269.822 32.7365 268.64 32.7863C267.457 32.836 266.337 32.8733 265.292 32.8733H260.637V28.7082H266.574C267.047 28.7082 267.532 28.6958 268.042 28.6709V25.5254C266.4 25.2021 265.155 24.4437 264.296 23.275C263.437 22.1063 263.002 20.6889 263.002 19.0229C263.002 18.0904 263.151 17.2325 263.437 16.4244C263.736 15.6162 264.159 14.9324 264.744 14.3356C265.317 13.7513 266.026 13.2913 266.848 12.968C267.681 12.6447 268.64 12.4831 269.735 12.4831C270.83 12.4831 271.764 12.6447 272.585 12.968C273.419 13.2913 274.116 13.7513 274.688 14.3356C275.261 14.92 275.696 15.6162 275.995 16.4244C276.294 17.2325 276.431 18.0904 276.431 19.0229C276.431 20.6516 276.02 22.0441 275.199 23.188C274.377 24.3318 273.182 25.0902 271.627 25.4756H271.639ZM261.284 11.5133V7.58448H278.086V11.5133H261.284ZM264.582 5.78169V1.77824H274.539V5.78169H264.582ZM272.846 19.0229C272.846 18.2272 272.622 17.5558 272.162 16.9963C271.701 16.4368 270.892 16.1633 269.747 16.1633C268.602 16.1633 267.756 16.4368 267.308 16.9963C266.86 17.5558 266.624 18.2272 266.624 19.0229C266.624 19.8932 266.848 20.5895 267.308 21.1241C267.769 21.6587 268.578 21.9198 269.747 21.9198C270.917 21.9198 271.701 21.6587 272.162 21.1241C272.622 20.5895 272.846 19.8932 272.846 19.0229ZM283.438 38.5925H279.841V0.721436H283.438V38.5925Z" fill="white"/>
<path d="M1.56815 14.4348L0 13.0174C0.734295 12.3958 1.39391 11.7244 2.00375 10.966C2.60114 10.22 3.11142 9.36209 3.50968 8.40474C3.92039 7.4474 4.21908 6.36572 4.40577 5.17215C4.59245 3.96614 4.64224 2.61094 4.56756 1.08168H6.80779C6.83268 1.96442 6.80779 2.79744 6.74556 3.58072C6.68333 4.364 6.58376 5.12242 6.4593 5.84353C6.91979 7.2609 7.50474 8.50421 8.23903 9.56102C8.97333 10.6178 9.88187 11.5752 10.9771 12.4082L9.52095 14.0618C7.82834 12.719 6.50909 11.0281 5.56322 8.9891C5.11518 10.1081 4.56756 11.1027 3.89549 11.9979C3.22343 12.8931 2.4518 13.7012 1.5806 14.4223L1.56815 14.4348ZM15.9056 8.59124H13.3418V18.2517H11.1762V0H13.3418V6.49005H15.9056V8.57881V8.59124Z" fill="white"/>
<path d="M16.9385 0.932515H24.7419V2.98397H19.1165V8.18099H20.7095C21.7301 8.18099 22.7133 8.10639 23.6591 7.95719C24.605 7.80799 25.4887 7.6588 26.3101 7.5096V9.46159C25.9243 9.56105 25.4887 9.66052 25.0033 9.75998C24.5179 9.84702 24.0076 9.93405 23.4849 9.99621C22.9497 10.0584 22.4146 10.1081 21.8545 10.1578C21.2945 10.1951 20.7468 10.22 20.2117 10.22H16.926V0.932515H16.9385ZM29.2597 17.9036H18.9049V12.4953H21.0829V15.8397H29.2597V17.9036ZM31.3506 6.85065H28.9237V13.5396H26.7706V0.0249023H28.9237V4.7619H31.3506V6.85065Z" fill="white"/>
<path d="M9.14752 27.5765H11.9105V23.6228H14.076V33.3206H11.9105V29.5409H9.14752V32.8108H1.53076V24.145H3.65897V26.7062H7.04419V24.145H9.13507V27.5641L9.14752 27.5765ZM7.05664 28.6582H3.67142V30.8837H7.05664V28.6582ZM14.076 41.601H3.77098V34.2158H5.88675V35.9067H11.9229V34.1163H14.076V41.601ZM11.9353 39.5744V37.8586H5.89919V39.5744H11.9353Z" fill="white"/>
<path d="M16.7271 29.0809C16.7271 28.3971 16.8266 27.763 17.0382 27.1911C17.2498 26.6192 17.536 26.1094 17.9218 25.6867C18.2952 25.264 18.7557 24.9283 19.2784 24.6796C19.8011 24.431 20.3736 24.3191 21.0084 24.3191C21.6431 24.3191 22.2156 24.4434 22.7508 24.6796C23.2859 24.9283 23.7464 25.2515 24.1322 25.6867C24.5181 26.1094 24.8168 26.6192 25.0283 27.1911C25.2399 27.763 25.3519 28.3971 25.3519 29.0809C25.3519 29.7647 25.2399 30.3491 25.0283 30.921C24.8168 31.4929 24.5181 31.9902 24.1322 32.413C23.7464 32.8357 23.2859 33.159 22.7508 33.4076C22.2156 33.6563 21.6307 33.7682 21.0084 33.7682C20.3861 33.7682 19.8011 33.6438 19.266 33.4076C18.7308 33.159 18.2828 32.8357 17.9094 32.413C17.536 31.9902 17.2498 31.4929 17.0382 30.921C16.8266 30.3491 16.7271 29.7399 16.7271 29.0809ZM18.9673 29.0809C18.9673 29.8766 19.154 30.5107 19.5149 30.9832C19.8758 31.4556 20.3861 31.6794 21.0457 31.6794C21.7053 31.6794 22.1783 31.4432 22.5641 30.9832C22.9499 30.5231 23.1366 29.8891 23.1366 29.0809C23.1366 28.223 22.9499 27.5641 22.5641 27.0792C22.1783 26.6067 21.668 26.3581 21.0457 26.3581C20.4234 26.3581 19.9007 26.5943 19.5273 27.0792C19.154 27.5641 18.9673 28.223 18.9673 29.0809ZM29.9693 41.514H19.3904V35.8818H21.5435V39.4501H29.9817V41.514H29.9693ZM29.6332 36.5905H27.4801V23.6228H29.6332V36.5905Z" fill="white"/>
<path d="M1.46851 62.9735V48.0042H4.30612V54.6558L10.0436 48.0042H13.8644L8.57499 53.8353L14.1507 62.9735H10.4792L6.62102 55.9489L4.31857 58.4479V62.9735H1.48095H1.46851Z" fill="white"/>
<path d="M14.9722 57.4036C14.9722 56.4462 15.1962 55.5262 15.6318 54.631C16.0674 53.7358 16.7021 53.0644 17.5111 52.592C18.3201 52.1195 19.2161 51.8833 20.2242 51.8833C21.7675 51.8833 23.0245 52.4179 24.0077 53.4872C24.9909 54.5564 25.4888 55.8992 25.4888 57.5279C25.4888 59.1566 24.9909 60.5243 23.9953 61.6059C22.9996 62.6876 21.7551 63.2222 20.2367 63.2222C19.3033 63.2222 18.4072 62.9984 17.5609 62.5509C16.7146 62.1033 16.0674 61.4443 15.6318 60.574C15.1962 59.7037 14.9722 58.6469 14.9722 57.4036ZM17.7351 57.5528C17.7351 58.6344 17.9716 59.455 18.457 60.0269C18.9423 60.5989 19.5273 60.8848 20.2367 60.8848C20.9461 60.8848 21.531 60.5989 22.004 60.0269C22.4769 59.455 22.7134 58.622 22.7134 57.5403C22.7134 56.4587 22.4769 55.6629 22.004 55.091C21.531 54.5191 20.9336 54.2331 20.2367 54.2331C19.5397 54.2331 18.9423 54.5191 18.457 55.091C17.9716 55.6629 17.7351 56.4835 17.7351 57.5652V57.5528Z" fill="white"/>
<path d="M30.1682 62.9736H27.48V52.132H29.9816V53.6737C30.4047 52.9401 30.7905 52.4677 31.139 52.2314C31.475 51.9952 31.8733 51.8833 32.3089 51.8833C32.9187 51.8833 33.5161 52.0574 34.0886 52.4179L33.2548 54.917C32.8067 54.6061 32.3836 54.4445 31.9853 54.4445C31.587 54.4445 31.2884 54.5564 31.027 54.7802C30.7656 55.004 30.5541 55.4019 30.4047 55.9738C30.2554 56.5581 30.1807 57.7641 30.1807 59.6042V62.9487L30.1682 62.9736Z" fill="white"/>
<path d="M41.1203 59.5296L43.8086 60.0145C43.4601 61.0589 42.9125 61.867 42.1782 62.4141C41.4315 62.9611 40.4981 63.2347 39.3779 63.2347C37.6107 63.2347 36.2914 62.613 35.4451 61.3822C34.773 60.3999 34.437 59.1442 34.437 57.6398C34.437 55.837 34.8726 54.4321 35.7563 53.4126C36.6399 52.3931 37.7476 51.8833 39.1041 51.8833C40.6225 51.8833 41.8173 52.4179 42.6885 53.4872C43.5597 54.5564 43.9828 56.1851 43.9455 58.3858H37.2C37.2248 59.2312 37.4364 59.9026 37.8471 60.3751C38.2578 60.8475 38.7806 61.0838 39.4028 61.0838C39.826 61.0838 40.1745 60.9594 40.4732 60.7108C40.7594 60.4621 40.9834 60.0767 41.1203 59.5296ZM41.2821 56.6203C41.2572 55.7873 41.0581 55.1532 40.6723 54.7305C40.2865 54.2953 39.826 54.0839 39.2784 54.0839C38.6934 54.0839 38.2081 54.3077 37.8222 54.7678C37.4364 55.2278 37.2497 55.8494 37.2622 56.6327H41.2946L41.2821 56.6203Z" fill="white"/>
<path d="M48.1648 55.4392L45.7255 54.9667C45.9993 53.9223 46.4722 53.139 47.1443 52.6417C47.8163 52.132 48.812 51.8833 50.1312 51.8833C51.3385 51.8833 52.2221 52.0325 52.8195 52.3433C53.4044 52.6417 53.8276 53.0271 54.0641 53.4996C54.3005 53.9721 54.425 54.8175 54.425 56.0732L54.4001 59.4177C54.4001 60.3751 54.4374 61.0713 54.5246 61.5313C54.6117 61.9789 54.7735 62.4638 55.0099 62.986H52.3466C52.2719 62.7995 52.1848 62.5136 52.0852 62.1406C52.0354 61.9665 52.0105 61.8546 51.9856 61.8049C51.5251 62.2773 51.0273 62.6379 50.5046 62.8741C49.9819 63.1103 49.4218 63.2347 48.8244 63.2347C47.779 63.2347 46.9451 62.9363 46.3477 62.3271C45.7379 61.7178 45.4392 60.9594 45.4392 60.0269C45.4392 59.4177 45.5761 58.8707 45.8499 58.3858C46.1237 57.9009 46.5095 57.5403 47.0074 57.2792C47.5052 57.0182 48.2146 56.8068 49.148 56.6079C50.405 56.3592 51.2762 56.123 51.7616 55.8992V55.6132C51.7616 55.0662 51.6372 54.6683 51.3758 54.4321C51.1144 54.1958 50.6415 54.0839 49.9321 54.0839C49.4467 54.0839 49.0734 54.1834 48.812 54.3823C48.5382 54.5813 48.3266 54.9294 48.1648 55.4392ZM51.7616 57.7641C51.4131 57.8885 50.8655 58.0377 50.1188 58.1993C49.372 58.3734 48.8867 58.535 48.6502 58.6966C48.3017 58.9577 48.1275 59.2934 48.1275 59.7037C48.1275 60.114 48.2644 60.4497 48.5506 60.7481C48.8369 61.0465 49.1854 61.1832 49.621 61.1832C50.1063 61.1832 50.5668 61.0092 51.0149 60.6735C51.3385 60.4124 51.55 60.1015 51.662 59.7286C51.7367 59.4799 51.7616 59.0199 51.7616 58.3361V57.7641Z" fill="white"/>
<path d="M62.5271 48.0041H65.3647V56.1105C65.3647 57.4035 65.4021 58.2365 65.4643 58.6095C65.5887 59.2187 65.875 59.7161 66.3355 60.0891C66.796 60.4621 67.4183 60.6485 68.2148 60.6485C69.0113 60.6485 69.6211 60.4745 70.0318 60.1264C70.4426 59.7782 70.6915 59.3431 70.7661 58.8333C70.8533 58.3236 70.8906 57.4781 70.8906 56.2845V48.0041H73.7282V55.8618C73.7282 57.6646 73.6535 58.9328 73.5042 59.6663C73.3548 60.4123 73.0686 61.034 72.6579 61.5437C72.2472 62.0535 71.6996 62.4638 71.0026 62.7622C70.3181 63.0606 69.4096 63.2222 68.3019 63.2222C66.9578 63.2222 65.9372 63.0606 65.2527 62.7249C64.5557 62.3892 64.0081 61.9665 63.6099 61.4443C63.2116 60.9221 62.9378 60.3626 62.8134 59.7782C62.6267 58.9204 62.5395 57.6522 62.5395 55.9737V47.9917L62.5271 48.0041Z" fill="white"/>
<path d="M85.9747 62.9736H83.2864V57.4409C83.2864 56.2722 83.2242 55.5138 83.1122 55.1656C83.0002 54.8175 82.8135 54.5564 82.5521 54.3699C82.2908 54.1834 81.9796 54.0839 81.6187 54.0839C81.1582 54.0839 80.735 54.2207 80.3617 54.4942C79.9883 54.7678 79.7394 55.1283 79.6025 55.5759C79.4656 56.0235 79.3909 56.8565 79.3909 58.0625V62.9736H76.7026V52.132H79.2042V53.7234C80.0879 52.4925 81.208 51.8833 82.5646 51.8833C83.1619 51.8833 83.6971 51.9952 84.1949 52.219C84.6928 52.4428 85.0537 52.7412 85.3151 53.0893C85.564 53.4499 85.7382 53.8477 85.8378 54.2953C85.9373 54.7429 85.9871 55.3894 85.9871 56.2224V62.9612L85.9747 62.9736Z" fill="white"/>
<path d="M98.0344 62.9735H95.5328V61.3821C95.1221 62.0038 94.6243 62.4638 94.0643 62.7622C93.5042 63.0606 92.9317 63.2222 92.3592 63.2222C91.1893 63.2222 90.1812 62.7249 89.3473 61.7178C88.5135 60.7107 88.0903 59.3182 88.0903 57.5154C88.0903 55.7126 88.501 54.2828 89.31 53.3255C90.119 52.3682 91.152 51.8957 92.3841 51.8957C93.5166 51.8957 94.5123 52.4055 95.3337 53.4001V48.0042H98.022V62.9735H98.0344ZM90.8533 57.3165C90.8533 58.4728 91.0026 59.3058 91.3013 59.828C91.7369 60.574 92.3467 60.947 93.1184 60.947C93.7407 60.947 94.2634 60.661 94.699 60.1015C95.1346 59.542 95.3462 58.6966 95.3462 57.59C95.3462 56.3467 95.1346 55.4516 94.7114 54.9045C94.2883 54.3574 93.7531 54.0839 93.0935 54.0839C92.4339 54.0839 91.9236 54.3574 91.488 54.8921C91.0524 55.4391 90.8408 56.2473 90.8408 57.3165H90.8533Z" fill="white"/>
<path d="M106.597 59.5296L109.285 60.0145C108.937 61.0589 108.389 61.867 107.655 62.4141C106.908 62.9611 105.975 63.2347 104.855 63.2347C103.087 63.2347 101.768 62.613 100.922 61.3822C100.25 60.3999 99.9138 59.1442 99.9138 57.6398C99.9138 55.837 100.349 54.4321 101.233 53.4126C102.117 52.3931 103.224 51.8833 104.581 51.8833C106.099 51.8833 107.294 52.4179 108.165 53.4872C109.037 54.5564 109.46 56.1851 109.422 58.3858H102.677C102.702 59.2312 102.913 59.9026 103.324 60.3751C103.735 60.8475 104.257 61.0838 104.88 61.0838C105.303 61.0838 105.651 60.9594 105.95 60.7108C106.236 60.4621 106.46 60.0767 106.597 59.5296ZM106.747 56.6203C106.734 55.7873 106.522 55.1532 106.149 54.7305C105.763 54.2953 105.303 54.0839 104.755 54.0839C104.17 54.0839 103.685 54.3077 103.299 54.7678C102.913 55.2278 102.727 55.8494 102.739 56.6327H106.771L106.747 56.6203Z" fill="white"/>
<path d="M114.201 62.9736H111.513V52.132H114.015V53.6737C114.438 52.9401 114.824 52.4677 115.172 52.2314C115.508 51.9952 115.907 51.8833 116.342 51.8833C116.952 51.8833 117.549 52.0574 118.109 52.4179L117.276 54.917C116.827 54.6061 116.404 54.4445 116.006 54.4445C115.608 54.4445 115.309 54.5564 115.048 54.7802C114.786 55.004 114.575 55.4019 114.425 55.9738C114.276 56.5581 114.201 57.7641 114.201 59.6042V62.9487V62.9736Z" fill="white"/>
<path d="M121.159 62.9735L117.935 52.1318H120.549L122.453 59.2435L124.208 52.1318H126.809L128.502 59.2435L130.443 52.1318H133.094L129.821 62.9735H127.232L125.477 55.9985L123.747 62.9735H121.134H121.159Z" fill="white"/>
<path d="M136.542 55.4392L134.102 54.9667C134.376 53.9223 134.849 53.139 135.521 52.6417C136.193 52.132 137.189 51.8833 138.508 51.8833C139.715 51.8833 140.611 52.0325 141.196 52.3433C141.781 52.6417 142.192 53.0271 142.441 53.4996C142.677 53.9721 142.802 54.8175 142.802 56.0732L142.777 59.4177C142.777 60.3751 142.814 61.0713 142.901 61.5313C142.988 61.9789 143.15 62.4638 143.387 62.986H140.723C140.649 62.7995 140.561 62.5136 140.462 62.1406C140.412 61.9665 140.387 61.8546 140.362 61.8049C139.902 62.2773 139.416 62.6379 138.881 62.8741C138.359 63.1103 137.799 63.2347 137.201 63.2347C136.156 63.2347 135.322 62.9363 134.724 62.3271C134.127 61.7178 133.816 60.9594 133.816 60.0269C133.816 59.4177 133.953 58.8707 134.227 58.3858C134.5 57.9009 134.886 57.5403 135.384 57.2792C135.882 57.0182 136.591 56.8068 137.525 56.6079C138.782 56.3592 139.653 56.123 140.138 55.8992V55.6132C140.138 55.0662 140.014 54.6683 139.752 54.4321C139.504 54.1958 139.018 54.0839 138.309 54.0839C137.823 54.0839 137.45 54.1834 137.189 54.3823C136.915 54.5813 136.703 54.9294 136.542 55.4392ZM140.151 57.7641C139.802 57.8885 139.255 58.0377 138.508 58.1993C137.761 58.3734 137.276 58.535 137.039 58.6966C136.691 58.9577 136.517 59.2934 136.517 59.7037C136.517 60.114 136.654 60.4497 136.94 60.7481C137.226 61.0465 137.575 61.1832 138.01 61.1832C138.495 61.1832 138.956 61.0092 139.404 60.6735C139.728 60.4124 139.939 60.1015 140.051 59.7286C140.126 59.4799 140.151 59.0199 140.151 58.3361V57.7641Z" fill="white"/>
<path d="M150.12 52.1319V54.4195H148.278V58.796C148.278 59.6787 148.29 60.2009 148.328 60.3377C148.365 60.4869 148.44 60.5988 148.564 60.6982C148.689 60.7977 148.838 60.835 149.025 60.835C149.273 60.835 149.634 60.748 150.107 60.5615L150.344 62.787C149.722 63.0729 149.012 63.2097 148.216 63.2097C147.73 63.2097 147.295 63.1227 146.909 62.9486C146.523 62.7745 146.237 62.5508 146.05 62.2772C145.863 62.0037 145.739 61.6307 145.677 61.1583C145.614 60.8226 145.59 60.1512 145.59 59.1317V54.4071H144.357V52.1194H145.59V49.9685L148.29 48.29V52.1194H150.132L150.12 52.1319Z" fill="white"/>
<path d="M157.886 59.5296L160.574 60.0145C160.226 61.0589 159.678 61.867 158.944 62.4141C158.197 62.9611 157.264 63.2347 156.144 63.2347C154.376 63.2347 153.069 62.613 152.211 61.3822C151.539 60.3999 151.203 59.1442 151.203 57.6398C151.203 55.837 151.638 54.4321 152.522 53.4126C153.406 52.3931 154.526 51.8833 155.87 51.8833C157.388 51.8833 158.583 52.4179 159.454 53.4872C160.325 54.5564 160.748 56.1851 160.711 58.3858H153.966C153.99 59.2312 154.202 59.9026 154.613 60.3751C155.023 60.8475 155.546 61.0838 156.168 61.0838C156.592 61.0838 156.94 60.9594 157.239 60.7108C157.525 60.4621 157.749 60.0767 157.886 59.5296ZM158.048 56.6203C158.035 55.7873 157.824 55.1532 157.45 54.7305C157.065 54.2953 156.604 54.0839 156.056 54.0839C155.471 54.0839 154.986 54.3077 154.6 54.7678C154.214 55.2278 154.028 55.8494 154.04 56.6327H158.073L158.048 56.6203Z" fill="white"/>
<path d="M165.49 62.9736H162.802V52.132H165.303V53.6737C165.726 52.9401 166.112 52.4677 166.461 52.2314C166.797 51.9952 167.195 51.8833 167.631 51.8833C168.241 51.8833 168.838 52.0574 169.398 52.4179L168.564 54.917C168.116 54.6061 167.693 54.4445 167.295 54.4445C166.896 54.4445 166.598 54.5564 166.336 54.7802C166.075 55.004 165.863 55.4019 165.714 55.9738C165.565 56.5581 165.49 57.7641 165.49 59.6042V62.9487V62.9736Z" fill="white"/>
<path d="M187.98 62.9735H184.893L183.661 59.5669H178.036L176.878 62.9735H173.866L179.342 48.0042H182.342L187.967 62.9735H187.98ZM182.752 57.0554L180.811 51.4978L178.907 57.0554H182.74H182.752Z" fill="white"/>
<path d="M188.515 59.8778L191.215 59.4426C191.327 60.0021 191.564 60.4248 191.912 60.7108C192.261 60.9967 192.759 61.1459 193.393 61.1459C194.09 61.1459 194.613 61.0092 194.962 60.7357C195.198 60.5492 195.322 60.2881 195.322 59.9648C195.322 59.7534 195.26 59.5669 195.136 59.4302C194.999 59.2934 194.7 59.1691 194.24 59.0572C192.062 58.5474 190.693 58.075 190.108 57.6647C189.299 57.0803 188.9 56.2722 188.9 55.2278C188.9 54.2953 189.249 53.4996 189.946 52.8531C190.643 52.219 191.726 51.8958 193.182 51.8958C194.638 51.8958 195.609 52.132 196.293 52.6169C196.965 53.1018 197.438 53.8104 197.687 54.7554L195.148 55.2527C195.036 54.83 194.837 54.5067 194.526 54.2829C194.227 54.0591 193.792 53.9472 193.232 53.9472C192.522 53.9472 192.012 54.0467 191.713 54.258C191.514 54.4072 191.402 54.6062 191.402 54.8424C191.402 55.0537 191.489 55.2154 191.663 55.3646C191.912 55.5511 192.746 55.8246 194.177 56.1727C195.609 56.5208 196.617 56.9436 197.177 57.4533C197.737 57.9631 198.023 58.6718 198.023 59.5918C198.023 60.5865 197.637 61.4443 196.853 62.153C196.069 62.8617 194.924 63.2223 193.393 63.2223C192.012 63.2223 190.904 62.9239 190.095 62.3271C189.286 61.7303 188.751 60.9097 188.502 59.8902L188.515 59.8778Z" fill="white"/>
<path d="M199.429 59.8778L202.13 59.4426C202.242 60.0021 202.479 60.4248 202.827 60.7108C203.176 60.9967 203.673 61.1459 204.308 61.1459C205.005 61.1459 205.528 61.0092 205.876 60.7357C206.113 60.5492 206.237 60.2881 206.237 59.9648C206.237 59.7534 206.175 59.5669 206.051 59.4302C205.914 59.2934 205.615 59.1691 205.154 59.0572C202.976 58.5474 201.607 58.075 201.022 57.6647C200.214 57.0803 199.815 56.2722 199.815 55.2278C199.815 54.2953 200.164 53.4996 200.861 52.8531C201.558 52.219 202.64 51.8958 204.097 51.8958C205.553 51.8958 206.523 52.132 207.208 52.6169C207.88 53.1018 208.353 53.8104 208.602 54.7554L206.063 55.2527C205.951 54.83 205.752 54.5067 205.441 54.2829C205.142 54.0591 204.706 53.9472 204.146 53.9472C203.437 53.9472 202.927 54.0467 202.628 54.258C202.429 54.4072 202.317 54.6062 202.317 54.8424C202.317 55.0537 202.404 55.2154 202.578 55.3646C202.827 55.5511 203.661 55.8246 205.092 56.1727C206.523 56.5208 207.532 56.9436 208.092 57.4533C208.652 57.9631 208.938 58.6718 208.938 59.5918C208.938 60.5865 208.552 61.4443 207.768 62.153C206.984 62.8617 205.839 63.2223 204.308 63.2223C202.927 63.2223 201.819 62.9239 201.01 62.3271C200.201 61.7303 199.678 60.9097 199.417 59.8902L199.429 59.8778Z" fill="white"/>
<path d="M210.68 57.4036C210.68 56.4462 210.904 55.5262 211.34 54.631C211.788 53.7358 212.41 53.0644 213.219 52.592C214.028 52.1195 214.924 51.8833 215.932 51.8833C217.476 51.8833 218.733 52.4179 219.716 53.4872C220.699 54.5564 221.197 55.8992 221.197 57.5279C221.197 59.1566 220.699 60.5243 219.704 61.6059C218.708 62.6876 217.463 63.2222 215.945 63.2222C215.012 63.2222 214.115 62.9984 213.269 62.5509C212.423 62.1033 211.776 61.4443 211.34 60.574C210.904 59.7037 210.68 58.6469 210.68 57.4036ZM213.443 57.5528C213.443 58.6344 213.68 59.455 214.165 60.0269C214.638 60.5989 215.236 60.8848 215.945 60.8848C216.654 60.8848 217.239 60.5989 217.712 60.0269C218.185 59.455 218.422 58.622 218.422 57.5403C218.422 56.4587 218.185 55.6629 217.712 55.091C217.239 54.5191 216.642 54.2331 215.945 54.2331C215.248 54.2331 214.651 54.5191 214.165 55.091C213.692 55.6629 213.443 56.4835 213.443 57.5652V57.5528Z" fill="white"/>
<path d="M232.174 55.3397L229.523 55.8495C229.436 55.2776 229.237 54.8548 228.913 54.5689C228.602 54.2829 228.191 54.1462 227.681 54.1462C227.009 54.1462 226.474 54.3948 226.076 54.8921C225.677 55.3895 225.478 56.21 225.478 57.3663C225.478 58.6594 225.677 59.567 226.088 60.0892C226.499 60.6238 227.034 60.8849 227.718 60.8849C228.229 60.8849 228.652 60.7357 228.975 60.4248C229.299 60.114 229.536 59.5794 229.66 58.821L232.311 59.3059C232.037 60.5989 231.514 61.5811 230.73 62.2401C229.946 62.899 228.901 63.2347 227.594 63.2347C226.101 63.2347 224.918 62.7374 224.035 61.7303C223.151 60.7232 222.703 59.3432 222.703 57.5777C222.703 55.8122 223.151 54.3948 224.035 53.4002C224.918 52.4055 226.125 51.9082 227.644 51.9082C228.888 51.9082 229.872 52.1942 230.606 52.7661C231.34 53.338 231.863 54.1959 232.186 55.3646L232.174 55.3397Z" fill="white"/>
<path d="M234.215 50.6648V48.0166H236.903V50.6648H234.215ZM234.215 62.9736V52.1319H236.903V62.9736H234.215Z" fill="white"/>
<path d="M241.695 55.4392L239.256 54.9667C239.53 53.9223 240.002 53.139 240.675 52.6417C241.347 52.132 242.342 51.8833 243.662 51.8833C244.856 51.8833 245.752 52.0325 246.35 52.3433C246.935 52.6417 247.358 53.0271 247.594 53.4996C247.831 53.9721 247.955 54.8175 247.955 56.0732L247.93 59.4177C247.93 60.3751 247.98 61.0713 248.055 61.5313C248.142 61.9789 248.304 62.4638 248.54 62.986H245.877C245.802 62.7995 245.715 62.5136 245.615 62.1406C245.566 61.9665 245.541 61.8546 245.516 61.8049C245.055 62.2773 244.558 62.6379 244.035 62.8741C243.512 63.1103 242.952 63.2347 242.355 63.2347C241.309 63.2347 240.475 62.9363 239.878 62.3271C239.268 61.7178 238.969 60.9594 238.969 60.0269C238.969 59.4177 239.106 58.8707 239.38 58.3858C239.654 57.9009 240.04 57.5403 240.538 57.2792C241.035 57.0182 241.745 56.8068 242.678 56.6079C243.935 56.3592 244.807 56.123 245.292 55.8992V55.6132C245.292 55.0662 245.167 54.6683 244.906 54.4321C244.645 54.1958 244.172 54.0839 243.462 54.0839C242.977 54.0839 242.604 54.1834 242.342 54.3823C242.081 54.5813 241.857 54.9294 241.695 55.4392ZM245.292 57.7641C244.943 57.8885 244.396 58.0377 243.649 58.1993C242.902 58.3734 242.417 58.535 242.18 58.6966C241.832 58.9577 241.658 59.2934 241.658 59.7037C241.658 60.114 241.795 60.4497 242.081 60.7481C242.367 61.0465 242.716 61.1832 243.151 61.1832C243.637 61.1832 244.097 61.0092 244.545 60.6735C244.869 60.4124 245.08 60.1015 245.192 59.7286C245.267 59.4799 245.292 59.0199 245.292 58.3361V57.7641Z" fill="white"/>
<path d="M255.273 52.1319V54.4195H253.431V58.796C253.431 59.6787 253.444 60.2009 253.481 60.3377C253.518 60.4869 253.593 60.5988 253.718 60.6982C253.842 60.7977 253.991 60.835 254.178 60.835C254.427 60.835 254.788 60.748 255.261 60.5615L255.485 62.787C254.863 63.0729 254.153 63.2097 253.357 63.2097C252.871 63.2097 252.436 63.1227 252.037 62.9486C251.652 62.7745 251.365 62.5508 251.179 62.2772C250.992 62.0037 250.868 61.6307 250.805 61.1583C250.743 60.8226 250.718 60.1512 250.718 59.1317V54.4071H249.486V52.1194H250.718V49.9685L253.419 48.29V52.1194H255.261L255.273 52.1319Z" fill="white"/>
<path d="M257.14 50.6648V48.0166H259.828V50.6648H257.14ZM257.14 62.9736V52.1319H259.828V62.9736H257.14Z" fill="white"/>
<path d="M261.969 57.4036C261.969 56.4462 262.193 55.5262 262.629 54.631C263.064 53.7358 263.699 53.0644 264.508 52.592C265.317 52.1195 266.213 51.8833 267.221 51.8833C268.764 51.8833 270.021 52.4179 271.005 53.4872C271.988 54.5564 272.486 55.8992 272.486 57.5279C272.486 59.1566 271.988 60.5243 270.992 61.6059C269.996 62.6876 268.752 63.2222 267.233 63.2222C266.3 63.2222 265.416 62.9984 264.558 62.5509C263.711 62.1033 263.064 61.4443 262.629 60.574C262.193 59.7037 261.969 58.6469 261.969 57.4036ZM264.732 57.5528C264.732 58.6344 264.968 59.455 265.454 60.0269C265.927 60.5989 266.524 60.8848 267.221 60.8848C267.918 60.8848 268.515 60.5989 268.988 60.0269C269.461 59.455 269.698 58.622 269.698 57.5403C269.698 56.4587 269.461 55.6629 268.988 55.091C268.515 54.5191 267.918 54.2331 267.221 54.2331C266.524 54.2331 265.927 54.5191 265.454 55.091C264.968 55.6629 264.732 56.4835 264.732 57.5652V57.5528Z" fill="white"/>
<path d="M283.849 62.9736H281.16V57.4409C281.16 56.2722 281.098 55.5138 280.986 55.1656C280.874 54.8175 280.687 54.5564 280.426 54.3699C280.165 54.1834 279.854 54.0839 279.493 54.0839C279.032 54.0839 278.609 54.2207 278.236 54.4942C277.862 54.7678 277.613 55.1283 277.476 55.5759C277.34 56.0235 277.265 56.8565 277.265 58.0625V62.9736H274.577V52.132H277.078V53.7234C277.962 52.4925 279.082 51.8833 280.439 51.8833C281.036 51.8833 281.571 51.9952 282.069 52.219C282.567 52.4428 282.928 52.7412 283.189 53.0893C283.438 53.4499 283.612 53.8477 283.712 54.2953C283.811 54.7429 283.861 55.3894 283.861 56.2224V62.9612L283.849 62.9736Z" fill="white"/>
</svg>
