<svg width="68" height="65" viewBox="0 0 68 65" fill="none" xmlns="http://www.w3.org/2000/svg">
<path d="M6.39731 21.5588C5.37676 21.1983 4.2691 21.2107 3.43524 21.6086C2.72583 21.9443 2.21556 22.5162 1.92931 23.3243C1.19501 25.3634 2.62627 26.9299 4.25665 27.5143C5.16518 27.8375 6.14839 27.8375 6.94492 27.564C6.73334 27.7754 6.39731 28.0116 5.86214 28.3349C5.86214 28.3349 3.70904 29.5906 3.43524 29.7522C3.24855 29.5409 2.42714 28.5587 2.42714 28.5587C1.94175 27.9743 1.61817 27.5267 1.61817 26.9051C1.61817 26.8429 1.61817 26.7807 1.61817 26.7061L1.64306 26.5072L0.995882 26.4077L0.958545 26.6067L0.522946 29.2922L1.17012 29.4041L1.20746 29.2052C1.2448 28.9565 1.29458 28.8322 1.35681 28.8446C1.46882 28.857 1.60572 28.9814 1.84219 29.2549C1.84219 29.2549 2.6636 30.2123 3.14898 30.7966C2.53915 30.6971 1.58083 30.5479 1.58083 30.5479C1.18257 30.4858 1.083 30.436 1.083 30.1874C1.083 30.1004 1.083 29.976 1.10789 29.8268L1.13278 29.6279L0.485609 29.5284L-0.0371094 32.7113L0.610066 32.8108L0.647403 32.6118C0.759414 32.0648 0.784305 32.0275 1.30702 32.1145L5.67546 32.8232C6.21062 32.9102 6.21062 32.9475 6.14839 33.507L6.1235 33.7059L6.77068 33.8054L7.28095 30.6225L6.63378 30.5231L6.59644 30.7096C6.48443 31.2939 6.45954 31.3312 5.92437 31.2442C5.92437 31.2442 4.9785 31.095 4.36866 30.9955C4.95361 30.6474 6.07372 29.976 6.07372 29.976C6.2853 29.8517 6.60888 29.6652 6.70845 29.6528C6.70845 29.6901 6.70845 30.2122 6.70845 30.2122L6.88269 30.2744L7.33073 30.349L7.8659 27.0294C8.21438 26.7061 8.50063 26.2958 8.67487 25.7985C9.40916 23.7595 7.97791 22.1929 6.34752 21.6086L6.39731 21.5588ZM7.92813 25.4753C7.81611 25.7985 7.61698 26.0223 7.33073 26.1591C6.78312 26.4202 5.94926 26.3456 4.8416 25.9353C3.12409 25.3261 2.41469 24.5428 2.75072 23.6103C2.86273 23.287 3.06186 23.0632 3.34812 22.9265C3.88328 22.6654 4.72959 22.74 5.83725 23.1378C7.55476 23.7595 8.26416 24.5303 7.92813 25.4628V25.4753Z" fill="white"/>
<path d="M19.9756 10.568C19.764 10.7421 19.6769 10.7421 19.1044 10.3815L13.9394 7.14893L13.8274 7.23596L13.4914 7.49705L15.3458 13.5271C15.3458 13.5271 15.3582 13.6017 15.3707 13.639L14.711 12.6816L14.2879 13.1417L14.3377 13.266C14.7982 14.3228 14.5741 14.8326 13.9021 15.5785C13.2673 16.2748 13.2051 16.2126 13.0309 16.0634C13.0309 16.0634 11.8859 15.019 11.5249 14.6958C11.6992 14.5093 12.0601 14.1114 12.0601 14.1114C12.5455 13.5768 12.8069 13.5271 13.3296 13.8752L13.4789 13.9747L13.8896 13.5271L11.8859 11.6994L11.4752 12.147L11.5872 12.2838C11.7365 12.4827 11.8361 12.6195 11.8361 12.7811C11.8361 12.9552 11.7116 13.1665 11.388 13.5146C11.388 13.5146 11.0271 13.9125 10.8529 14.099C10.604 13.8752 9.48385 12.8557 9.48385 12.8557C9.48385 12.8557 9.42163 12.7935 9.40918 12.7687C9.42163 12.7438 9.47141 12.6816 9.47141 12.6816L10.0688 12.0227C10.8155 11.2021 11.0396 11.2643 11.5996 11.5378L11.7365 11.6124L12.1472 11.1648L10.7533 9.9588L10.6164 10.108L7.14407 13.9001L7.62945 14.3352L7.76635 14.1985C8.10238 13.8628 8.13972 13.8255 8.55043 14.1985L11.8236 17.1824C12.1223 17.4559 12.1846 17.5554 12.0601 17.7419L11.9979 17.7046L11.8983 17.9035C11.7988 18.09 11.6992 18.1522 11.3632 18.177C11.3632 18.177 9.42163 18.3262 8.73711 18.376C8.762 18.2143 8.81179 18.0527 8.81179 17.9035C8.81179 17.2073 8.4882 16.6478 7.82858 16.2499C6.73336 15.591 5.72526 16.051 4.74205 17.6673L3.32324 20.0171L3.8833 20.3528L3.99531 20.1912C4.3189 19.7187 4.35623 19.6814 4.81672 19.955L8.61266 22.2427C9.07315 22.5162 9.0607 22.5659 8.7869 23.0632L8.68733 23.2373L9.24739 23.573L10.9276 20.8004L10.3675 20.4647L10.2555 20.6264C9.9319 21.1237 9.89456 21.1485 9.43407 20.875C9.43407 20.875 8.31396 20.2036 8.04016 20.0296C8.0526 20.0047 8.06505 19.9923 8.07749 19.9798C8.27662 19.9674 11.5747 19.7312 11.5747 19.7312L12.3464 18.4506L15.9307 14.5217L17.25 13.5146L16.8641 13.0173L16.6775 13.1168L16.3414 13.2784L16.2294 13.1914L15.856 12.2465C16.0427 12.0973 17.1255 11.2643 17.3122 11.1275C17.3371 11.1399 17.362 11.1648 17.362 11.1648L18.146 11.7367C18.146 11.7367 18.1958 11.7989 18.1958 11.8486C18.1958 11.9108 18.1336 11.9978 17.9345 12.1594L17.7727 12.2838L18.1709 12.806L20.5232 11.0032L20.1125 10.4686L19.9507 10.6053L19.9756 10.568ZM6.18575 17.4808C6.472 17.4062 6.75825 17.4684 7.06939 17.6424C7.35564 17.8165 7.66678 18.09 7.66678 18.5873C7.66678 18.8484 7.56722 19.1841 7.35564 19.582C7.03205 19.383 5.38923 18.4008 5.38923 18.4008L5.31455 18.3387L5.42656 18.0776C5.61325 17.7668 5.88705 17.5554 6.18575 17.4808ZM15.5947 11.314C15.4827 10.9783 15.2213 10.1826 15.0222 9.5858C15.5449 9.93393 16.2543 10.4064 16.5406 10.5929C16.2792 10.7918 15.856 11.1151 15.6071 11.314H15.5947Z" fill="white"/>
<path d="M24.9415 3.05842C24.7423 2.57353 24.7548 2.38703 25.2526 2.11351L25.4144 2.02647L25.1655 1.42969L24.9788 1.50429L22.8879 2.36217L23.1244 2.94652L23.2986 2.89679C23.7716 2.77246 23.9334 2.85949 24.1449 3.36924L25.2401 6.05478C25.4891 6.65157 25.5264 7.16132 25.3646 7.54675C25.2526 7.82028 25.0161 8.03164 24.6801 8.1684C24.2694 8.34246 23.9209 8.36733 23.6471 8.243C23.336 8.11867 23.0995 7.80784 22.8879 7.31052L21.6185 4.20226C21.4069 3.6925 21.4567 3.66764 21.9296 3.45627L22.1038 3.36924L21.8549 2.77246L18.9551 3.9536L19.204 4.56282L19.3907 4.50065C19.8761 4.32659 19.9258 4.31416 20.1374 4.81148L21.3695 7.80784C22.0292 9.41171 23.1368 9.8593 24.7548 9.20035C25.4766 8.90195 25.962 8.47923 26.186 7.94461C26.4349 7.34782 26.3851 6.61427 26.0118 5.71909L24.9166 3.04598L24.9415 3.05842Z" fill="white"/>
<path d="M36.342 0.174063L33.1808 0V0.211362L33.1435 0.658952L33.3426 0.683818C33.828 0.73355 33.8902 0.745983 33.8529 1.29304L33.604 5.70677C33.5791 6.25383 33.5044 6.25383 33.019 6.25383H32.8199V6.37816L31.9736 1.59143C31.874 1.03194 31.9611 0.882747 32.4465 0.745983L32.6208 0.696251L32.5088 0.0621653L32.3096 0.0994644L30.0445 0.497322L30.1565 1.11897H30.3432C30.8535 1.08168 30.9779 1.19357 31.0775 1.75306C31.0775 1.75306 31.4011 3.58072 31.538 4.364C30.8161 3.72992 27.6674 0.907613 27.6674 0.907613L25.7881 1.24331L25.8877 1.85252H26.0494C26.373 1.88982 26.5846 2.00172 26.7962 2.28768C26.7962 2.41201 27.518 6.50249 27.518 6.50249C27.5429 6.62682 27.5554 6.73871 27.5554 6.82575C27.5554 7.12414 27.4185 7.23604 27.0451 7.34793L26.8709 7.39767L26.9829 8.01932L29.4471 7.58416L29.3351 6.95008H29.1484C28.6381 6.98738 28.5012 6.87548 28.4141 6.31599C28.4141 6.31599 28.0532 4.2521 27.8665 3.20773C28.6008 3.86668 32.3594 7.21117 32.3594 7.21117L32.9568 7.11171L32.907 6.87548L35.9438 7.04954C37.0141 7.11171 37.9724 6.81331 38.6445 6.21653C39.2916 5.64461 39.6526 4.81159 39.7148 3.80451C39.8393 1.71576 38.5076 0.28596 36.342 0.16163V0.174063ZM35.197 5.84353L35.4584 1.3179L35.5455 1.03194C35.5455 1.03194 35.7446 0.957345 35.9687 0.969778C36.6158 1.00708 37.1261 1.23087 37.4995 1.6536C37.9475 2.15092 38.1466 2.87204 38.0969 3.75478C38.0471 4.63753 37.7608 5.33378 37.263 5.76894C36.8523 6.14193 36.3171 6.30356 35.67 6.26626C35.4459 6.26626 35.309 6.21653 35.2592 6.15436L35.2095 5.85597L35.197 5.84353Z" fill="white"/>
<path d="M49.2851 10.8044C49.086 10.7173 49.0362 10.6179 48.9864 10.2946C48.9864 10.2946 48.75 8.37992 48.6628 7.68367C49.5963 7.808 50.3057 7.47231 50.7413 6.66416C50.9902 6.20414 51.0524 5.76898 50.928 5.35869C50.7413 4.74947 50.1812 4.20242 49.1856 3.65536L46.7587 2.34989L46.6591 2.53639L46.4475 2.92181L46.6218 3.02128C47.1196 3.31967 47.1445 3.34454 46.8956 3.81699L44.7922 7.70854C44.6056 8.05666 44.5309 8.1437 44.2944 8.05667L45.0287 6.73876L44.4313 6.5647L44.3442 6.66416C43.6099 7.54691 43.0498 7.57178 42.0791 7.28582C41.8924 7.23608 41.3199 7.06202 41.2452 6.92526L41.2701 6.72633C41.2701 6.72633 41.7057 5.23436 41.8426 4.77434C42.0915 4.84894 42.6142 4.99813 42.6142 4.99813C43.1992 5.1722 43.4108 5.34626 43.4108 5.78142C43.4108 5.85602 43.4108 5.94305 43.3983 6.03008L43.3734 6.20414L43.9584 6.3782L44.7051 3.77969L44.1202 3.60563L44.0455 3.76726C43.809 4.25215 43.7095 4.38891 42.8632 4.14025C42.8632 4.14025 42.3778 4.00349 42.0915 3.91646C42.1786 3.5932 42.6018 2.15096 42.6018 2.15096C42.6018 2.15096 42.6391 2.06393 42.6391 2.03907C42.664 2.03907 42.7511 2.06393 42.7511 2.06393L43.6099 2.31259C44.6553 2.61099 44.7176 2.84722 44.7176 3.444V3.6305L45.3025 3.79213L45.7754 2.0142L40.6354 0.534668L40.5732 0.733597L40.4487 1.15632L40.6354 1.21849C41.0834 1.36768 41.1457 1.39255 40.9839 1.91474L39.7517 6.16684C39.6024 6.68903 39.5402 6.6766 39.0797 6.57713L38.893 6.5274L38.7188 7.14905L43.9584 8.65345L46.3355 9.92162L46.6466 9.3497L46.4724 9.25024C45.9621 8.95185 45.9372 8.91455 46.1862 8.44209C46.1862 8.44209 46.8084 7.29825 46.9578 7.01229C46.9951 7.02472 46.9951 7.03716 47.02 7.04959C47.0449 7.24852 47.4432 10.5308 47.4432 10.5308L49.1856 11.4758L49.5092 10.879L49.2976 10.7919L49.2851 10.8044ZM48.4264 4.31432L48.4762 4.23972L48.75 4.33918C49.0736 4.51324 49.2976 4.77434 49.3847 5.07273C49.4718 5.34626 49.422 5.64465 49.2602 5.95548C49.0238 6.40307 48.5508 6.88796 47.3312 6.32847C47.5054 5.99278 48.4139 4.31432 48.4139 4.31432H48.4264Z" fill="white"/>
<path d="M58.383 11.3886L58.5199 11.4383L58.9182 10.9907L57.238 9.52363L56.8024 10.0085L56.9518 10.1453C57.1634 10.3442 57.2256 10.4561 57.2256 10.5307C57.2256 10.5804 57.2007 10.6177 57.1634 10.6426L56.6406 11.0032C56.6406 11.0032 54.9729 11.9978 54.1391 12.4951C54.4378 11.7491 55.1969 9.83446 55.1969 9.83446L55.5579 9.16307C55.5579 9.16307 55.6699 9.02631 56.0308 9.33714L56.1926 9.4739L56.6282 8.97658L54.3382 6.96242L53.915 7.44731L54.0519 7.58408C54.2137 7.75814 54.2884 7.88247 54.2884 8.01923C54.2884 8.10627 54.2635 8.1933 54.2137 8.30519C54.2137 8.30519 53.8404 9.25011 53.7657 9.4366C53.6661 9.48633 52.5087 10.1329 51.8739 10.481C52.1975 9.72256 52.9816 7.8949 52.9816 7.8949C53.0314 7.79544 53.3052 7.22352 53.3052 7.22352C53.3425 7.18622 53.4421 7.07432 53.7159 7.31055L53.8653 7.44731L54.3009 6.94999L52.2349 5.13477L52.098 5.28396L51.8242 5.59479L51.9362 5.73155C52.0606 5.88075 52.1229 5.96778 51.7744 6.77593L49.4844 12.0848L49.9698 12.5076C49.9698 12.5076 52.4962 11.1026 53.243 10.6799C52.9194 11.4881 51.8491 14.1612 51.8491 14.1612L52.3344 14.5839L57.3874 11.5627C57.9101 11.2518 58.0346 11.2394 58.3955 11.3762L58.383 11.3886Z" fill="white"/>
<path d="M58.4074 21.8697C58.2954 21.6459 58.2331 21.5092 58.2331 21.3973C58.2331 21.2605 58.3452 21.1859 58.619 21.0367C58.619 21.0367 61.9917 19.1966 62.8132 18.749C62.9127 18.9355 63.0621 19.2091 63.0621 19.2091C63.1492 19.3707 63.2114 19.5199 63.2114 19.6566C63.2114 19.9053 63.0496 20.154 62.6265 20.527L62.502 20.6389L62.8132 21.2108L64.5555 20.0669L61.8922 15.1932L61.7179 15.2678L59.988 16.0386L60.2991 16.6105L60.4609 16.5608C61.3197 16.3122 61.5686 16.4489 61.8051 16.8965C61.8051 16.8965 61.9544 17.17 62.054 17.3565C61.7179 17.543 57.8598 19.6442 57.8598 19.6442C57.3868 19.9053 57.3619 19.868 57.0508 19.3583L57.0259 19.3085L57.1379 19.2215L57.001 19.0599C56.8268 18.8361 56.8268 18.7615 57.1753 18.1895L60.3987 13.0174L60.0502 12.5574L59.9133 12.5947L54.0141 14.4223C53.6905 14.5218 53.5411 14.4721 53.2798 14.2607L53.1553 14.1612L52.6699 14.5342L54.0638 16.3495L54.5617 15.964L54.4621 15.7775L54.3003 15.4418L54.3874 15.3299C54.3874 15.3299 55.3084 14.957 55.3333 14.9445C55.4826 15.131 56.3165 16.2127 56.4534 16.3992C56.441 16.4241 56.4161 16.4489 56.4161 16.4489L55.8436 17.2322L55.7191 17.2819L55.296 16.9089L55.1342 16.9835L54.7732 17.2571L56.441 19.4204L56.3414 19.4701L57.9096 22.3298L58.4821 22.0189L58.3949 21.8449L58.4074 21.8697ZM57.9469 14.0866C57.5984 14.6088 57.1379 15.3175 56.9388 15.6035C56.7397 15.3424 56.4161 14.9197 56.2169 14.671C56.5405 14.5591 57.3495 14.2856 57.9469 14.0866Z" fill="white"/>
<path d="M67.2567 28.9441L66.7714 26.2337L66.5722 26.271L66.1366 26.3456L66.1615 26.5446C66.2362 27.1165 66.2362 27.1662 65.701 27.2533L61.345 28.0365C60.9343 28.1111 60.8223 28.0863 60.7352 27.8127L62.2287 27.6387L62.0296 27.0543H61.8927C60.7477 26.9549 60.3992 26.5197 60.0631 25.5624C59.9138 25.1521 59.8516 24.9158 59.8516 24.7915C59.8516 24.6423 59.9262 24.605 60.0383 24.5677C60.0383 24.5677 61.6437 23.9958 61.9549 23.8839C62.042 24.1326 62.2162 24.6423 62.2162 24.6423C62.2909 24.8785 62.3407 25.065 62.3407 25.2142C62.3407 25.5002 62.1789 25.6743 61.818 25.8732L61.6562 25.9602L61.8678 26.5321L64.4191 25.637L64.22 25.065L64.0458 25.1023C63.5106 25.2018 63.3488 25.1894 63.0501 24.3564C63.0501 24.3564 62.8883 23.8839 62.7887 23.5979C63.0999 23.486 64.5311 22.9763 64.5311 22.9763C64.5311 22.9763 64.6183 22.9514 64.6432 22.9514C64.6432 22.9763 64.6929 23.0509 64.6929 23.0509L64.9916 23.8963C65.1285 24.2818 65.1908 24.5553 65.1908 24.7542C65.1908 25.0899 65.0165 25.2515 64.6929 25.4753L64.5685 25.5624L64.7676 26.1343L66.4976 25.4753L64.7178 20.4399L64.5187 20.5145L64.0955 20.6637L64.1453 20.8502C64.2822 21.3103 64.2947 21.36 63.7844 21.5465L59.6027 23.026C59.0799 23.2125 59.0675 23.1503 58.8808 22.7152L58.8061 22.5287L58.1963 22.7401L60.0134 27.8749H60.0383L60.5361 30.6226L61.1833 30.5107L61.1584 30.3118C61.1335 30.1502 61.121 30.0383 61.121 29.9388C61.121 29.6901 61.233 29.6528 61.6064 29.5782C61.6064 29.5782 62.8883 29.342 63.2119 29.2923C63.2119 29.3296 63.2119 29.3296 63.2119 29.3544C63.075 29.5036 60.7477 31.8535 60.7477 31.8535L61.0961 33.793L61.7682 33.6811L61.706 33.4698C61.706 33.4698 61.6811 33.3703 61.6811 33.3206C61.6811 33.1963 61.7433 33.0844 61.9175 32.9103C61.9175 32.9103 63.3115 31.4805 63.772 30.9956C64.2573 31.7913 64.9294 32.1767 65.8504 32.0027C66.3607 31.9156 66.7465 31.6794 66.9954 31.3313C67.3563 30.8091 67.431 30.0134 67.2319 28.9068L67.2567 28.9441ZM65.5268 30.461C65.029 30.548 64.3569 30.4734 64.0333 29.1928C64.4067 29.1306 66.286 28.7825 66.286 28.7825H66.3855L66.4727 29.0436C66.5722 29.6031 66.3856 30.2994 65.5268 30.4485V30.461Z" fill="white"/>
<path d="M23.6718 46.1516L21.5436 40.4324H20.9711L18.7558 46.3505C18.6313 46.6738 18.5069 46.7608 18.1833 46.8354L18.0215 46.8727V47.4943H20.3115V46.8354H20.0999C19.7017 46.8354 19.7017 46.7484 19.7017 46.6365L19.9879 45.6543H21.8299L21.8548 45.7164L22.1286 46.6365C22.1286 46.7359 22.1286 46.8354 21.7054 46.8354H21.4938V47.4943H24.4683V46.8354H24.2568C23.9705 46.8354 23.9083 46.7981 23.6718 46.164V46.1516ZM20.9089 43.0184C21.108 43.6152 21.3818 44.411 21.4938 44.7466H20.3115C20.4235 44.411 20.6973 43.6152 20.9089 43.0184Z" fill="white"/>
<path d="M27.157 43.0806C26.5596 42.7325 26.0369 42.4341 26.0369 41.9741C26.0369 41.7627 26.0992 41.2778 26.7339 41.2778C27.3935 41.2778 27.9536 41.8373 28.19 42.7449L28.2274 42.8941H28.8123V40.4199H28.2149L28.1776 40.5816C28.1651 40.6686 28.1154 40.7681 28.0656 40.7681L27.6673 40.6562L26.4725 40.4199C25.4395 40.4199 24.5683 41.2778 24.5683 42.2849C24.5683 43.379 25.5018 43.9633 26.3232 44.4855C26.9952 44.9083 27.63 45.3185 27.63 45.9029C27.63 46.1143 27.5677 46.7732 26.821 46.7732C26.0743 46.7732 25.3773 45.9526 25.1533 45.1694L25.1035 45.0202H24.5186V47.5565H25.2155L25.2404 47.3824C25.2653 47.2332 25.3151 47.2332 25.3275 47.2332L25.7009 47.3451C25.9747 47.4695 26.3605 47.6311 27.045 47.6311C28.2025 47.6311 29.0737 46.7732 29.0737 45.6169C29.0737 44.1996 28.0033 43.5779 27.1321 43.0806H27.157Z" fill="white"/>
<path d="M31.9981 43.0806C31.4007 42.7325 30.878 42.4341 30.878 41.9741C30.878 41.7627 30.9402 41.2778 31.575 41.2778C32.2097 41.2778 32.7946 41.8373 33.0311 42.7449L33.0684 42.8941H33.6658V40.4199H33.0684L33.0311 40.5816C33.0062 40.6686 32.9689 40.7681 32.9191 40.7681L32.5208 40.6562L31.326 40.4199C30.2931 40.4199 29.4219 41.2778 29.4219 42.2849C29.4219 43.379 30.3553 43.9633 31.1767 44.4855C31.8488 44.9083 32.4835 45.3185 32.4835 45.9029C32.4835 46.1143 32.4213 46.7732 31.6745 46.7732C30.9278 46.7732 30.2433 45.9526 30.0068 45.1694L29.957 45.0202H29.3721V47.5565H30.069L30.0939 47.3824C30.1188 47.2332 30.1686 47.2332 30.1935 47.2332L30.5669 47.3451C30.8407 47.4695 31.2265 47.6311 31.911 47.6311C33.0684 47.6311 33.9396 46.7732 33.9396 45.6169C33.9396 44.1996 32.8693 43.5779 31.9981 43.0806Z" fill="white"/>
<path d="M45.8378 45.4304C45.6138 45.7786 45.0164 46.6862 43.9585 46.6862C42.2659 46.6862 42.0045 44.9829 42.0045 43.9758C42.0045 42.9687 42.4899 41.2778 43.7967 41.2778C44.6306 41.2778 45.2404 41.8124 45.6013 42.8692L45.6511 43.006H46.2734L46.1241 40.4199H45.5142L45.2902 40.7929H45.2653L45.0164 40.7183C44.643 40.594 44.0954 40.4199 43.6474 40.4199C41.5067 40.4199 40.4737 42.2227 40.3493 43.6525C40.2124 42.0238 39.2292 40.4199 37.213 40.4199C35.035 40.4199 34.0518 42.2849 34.0518 44.0255C34.0518 45.7661 35.0474 47.6311 37.213 47.6311C39.2541 47.6311 40.2373 45.9899 40.3493 44.3612C40.4986 46.3505 41.7307 47.6311 43.5851 47.6311C44.8795 47.6311 45.7631 47.084 46.4228 45.8407L46.4974 45.6915L45.9498 45.2315L45.8254 45.4304H45.8378ZM37.213 46.7856C35.9933 46.7856 35.7319 45.2937 35.7319 44.0379C35.7319 42.7822 35.9933 41.2902 37.213 41.2902C38.4326 41.2902 38.694 42.7822 38.694 44.0379C38.694 45.2937 38.4326 46.7856 37.213 46.7856Z" fill="white"/>
<path d="M47.692 45.791C47.2315 45.791 46.8457 46.2013 46.8457 46.6986C46.8457 47.196 47.2191 47.6062 47.692 47.6062C48.1649 47.6062 48.5383 47.196 48.5383 46.6986C48.5383 46.2013 48.1649 45.791 47.692 45.791Z" fill="white"/>
<path d="M52.3598 56.7571L52.2478 56.2473H51.165L51.1899 56.8441C51.3393 56.8317 51.4513 56.7944 51.5135 56.7322C51.5135 56.7322 51.8869 56.7322 52.3723 56.7571H52.3598Z" fill="white"/>
<path d="M64.2326 42.6206C64.2326 42.6206 66.9706 42.26 67.8543 39.4128C67.8543 39.4128 65.6763 41.3773 62.6769 41.0664C62.6769 41.0664 60.7602 40.5442 61.5941 42.8195C61.5941 42.8195 61.4945 44.5726 60.8722 45.1445L59.6775 45.045C59.6775 45.045 58.1218 44.2742 58.0222 46.5494C58.0222 46.5494 57.039 49.3966 56.4665 49.7074C56.4665 49.7074 54.9605 51.0004 55.0228 52.194C55.0228 52.194 55.6451 51.5724 57.3003 51.4232C57.3003 51.4232 58.0222 48.1657 59.3165 48.0538C59.3165 48.0538 57.5617 50.7891 57.9226 51.7837C57.9226 51.7837 53.2182 52.8654 52.4341 54.1087C52.4341 54.1087 53.7284 50.7518 51.2393 51.0004L44.9293 53.0146C44.9293 53.0146 42.9131 53.4249 43.4234 54.519L42.49 54.8298C42.49 54.8298 41.8179 52.8654 39.9013 53.7482C39.9013 53.7482 39.7021 53.8352 39.4283 53.9719C39.4035 54.0217 39.3288 54.2828 39.8142 55.9239C39.8142 55.9239 43.0749 55.4888 41.4196 58.3732C41.4196 58.3732 40.4364 57.4408 39.7146 58.5846L38.5198 57.1299C38.5198 57.1299 38.6194 56.1975 39.6026 55.9985C39.6026 55.9985 39.167 55.0163 39.1919 54.0838C38.1713 54.6558 36.5783 55.8742 38.134 57.2418L39.0176 58.3857C39.0176 58.3857 39.6399 58.883 38.4949 59.1565C38.4949 59.1565 34.9479 60.176 34.1265 60.6982C33.3051 60.176 29.758 59.1565 29.758 59.1565C28.613 58.8706 29.2353 58.3857 29.2353 58.3857L30.119 57.2418C31.6871 55.8618 30.0816 54.6558 29.0611 54.0838C29.086 55.0039 28.6504 55.9985 28.6504 55.9985C29.6336 56.2099 29.7332 57.1299 29.7332 57.1299L28.5508 58.5846C27.829 57.4532 26.8458 58.3732 26.8458 58.3732C25.1905 55.4763 28.4513 55.9239 28.4513 55.9239C28.9366 54.2828 28.8744 54.0092 28.8371 53.9719C28.5633 53.8352 28.3641 53.7482 28.3641 53.7482C26.4475 52.8654 25.7754 54.8298 25.7754 54.8298L24.842 54.519C25.3647 53.4373 23.3361 53.0146 23.3361 53.0146L17.0261 51.0004C14.537 50.7394 15.8313 54.1087 15.8313 54.1087C15.0597 52.8654 10.3428 51.7837 10.3428 51.7837C10.7037 50.8015 8.94887 48.0538 8.94887 48.0538C10.2432 48.1533 10.9651 51.4232 10.9651 51.4232C12.6203 51.5724 13.2426 52.194 13.2426 52.194C13.2924 51.0004 11.7989 49.7074 11.7989 49.7074C11.2264 49.3966 10.2432 46.5494 10.2432 46.5494C10.1437 44.2742 8.58795 45.045 8.58795 45.045L7.39316 45.1445C6.77088 44.5726 6.67131 42.8195 6.67131 42.8195C7.50517 40.5442 5.58854 41.0664 5.58854 41.0664C2.58913 41.3773 0.411133 39.4128 0.411133 39.4128C1.29478 42.26 4.03283 42.6206 4.03283 42.6206C6.14859 43.7022 5.78767 45.1072 5.78767 45.1072C5.32718 45.6791 2.78826 44.8461 2.78826 44.8461C3.55989 46.1889 4.75468 45.9899 4.75468 45.9899C6.62153 46.251 6.88289 47.6435 6.88289 47.6435C7.24381 48.4641 7.19403 50.5404 7.19403 50.5404C7.24381 54.0092 9.42181 54.3201 9.42181 54.3201C10.9775 54.9417 13.8774 57.1175 13.8774 57.1175C14.1885 56.931 14.9228 56.844 15.5824 56.7943L15.794 55.9364L17.4991 56.0358L17.387 56.8813C18.2831 56.8564 19.7642 56.4461 19.7642 56.4461C21.9422 56.3964 21.9919 57.2667 21.9919 57.2667C22.3529 58.5597 21.1581 58.97 21.1581 58.97C19.7642 60.002 17.3248 59.3803 17.3248 59.3803C16.4412 59.0695 17.1132 58.97 17.1132 58.97C17.275 59.0198 18.0964 59.4798 20.2247 59.0198C22.3529 58.5473 21.6435 57.2418 21.6435 57.2418C21.4692 56.6699 19.6522 56.8564 19.6522 56.8564C19.0797 57.1175 16.7025 57.217 16.7025 57.217C11.1144 56.9061 15.097 60.2631 15.097 60.2631L17.6608 61.6556C18.4947 62.1529 18.6689 62.2772 18.6689 62.2772C19.0299 62.6378 20.2247 63.9308 20.2247 63.9308C22.1911 65.5844 20.9963 63.2097 20.9963 63.2097C20.6354 62.6378 19.6024 61.6556 19.6024 61.6556C17.7853 60.4123 19.9135 60.9842 19.9135 60.9842C22.552 62.0161 25.1407 60.7728 25.1407 60.7728C26.0243 60.1512 27.0076 60.462 27.0076 60.462C30.007 61.8545 30.8408 61.8048 30.8408 61.8048L31.9112 61.9788L31.7743 62.0659C31.936 62.0659 29.3971 62.9486 29.086 63.8811C29.086 63.8811 28.3641 64.9876 29.8576 64.3162C29.8576 64.3162 30.2932 64.1919 30.791 63.8189C30.791 63.8189 30.119 65.6839 31.4133 63.8687C31.4133 63.8687 32.4463 62.5756 34.002 62.3643L34.1265 62.3394L34.2634 62.3643C35.8191 62.5756 36.8521 63.8687 36.8521 63.8687C38.1464 65.6839 37.4744 63.8189 37.4744 63.8189C37.9722 64.1795 38.4078 64.3162 38.4078 64.3162C39.9137 64.9876 39.1794 63.8811 39.1794 63.8811C38.8683 62.9486 36.3294 62.0659 36.4912 62.0659L36.3543 61.9788L37.4246 61.8048C37.4246 61.8048 38.246 61.8545 41.2579 60.462C41.2579 60.462 42.2411 60.1512 43.1247 60.7728C43.1247 60.7728 45.7134 62.0161 48.3519 60.9842C48.3519 60.9842 50.4801 60.4123 48.663 61.6556C48.663 61.6556 47.63 62.6378 47.2691 63.2097C47.2691 63.2097 46.0743 65.5844 48.0407 63.9308C48.0407 63.9308 49.2355 62.6378 49.5965 62.2772C49.5965 62.2772 49.7707 62.1529 50.6046 61.6556L53.1684 60.2631C53.1684 60.2631 57.151 56.9061 51.5629 57.217C51.5629 57.217 49.1858 57.1175 48.6133 56.8564C48.6133 56.8564 46.7962 56.6824 46.6219 57.2418C46.6219 57.2418 45.925 58.5597 48.0407 59.0198C50.1565 59.4798 50.9904 59.0198 51.1522 58.97C51.1522 58.97 51.8242 59.0695 50.9406 59.3803C50.9406 59.3803 48.5012 60.002 47.1073 58.97C47.1073 58.97 45.9125 58.5473 46.2735 57.2667C46.2735 57.2667 46.3232 56.384 48.5012 56.4461C48.5012 56.4461 49.9823 56.8564 50.8784 56.8813L50.7664 56.0358L52.4714 55.9364L52.683 56.7943C53.3302 56.844 54.0769 56.931 54.3881 57.1175C54.3881 57.1175 57.2879 54.9417 58.8436 54.3201C58.8436 54.3201 61.0216 54.0092 61.0714 50.5404C61.0714 50.5404 61.0216 48.4765 61.3825 47.6435C61.3825 47.6435 61.6439 46.251 63.5107 45.9899C63.5107 45.9899 64.7055 46.2013 65.4771 44.8461C65.4771 44.8461 62.9382 45.6791 62.4777 45.1072C62.4777 45.1072 62.1168 43.7147 64.2326 42.6206ZM20.4487 54.9293L18.2707 54.4693L17.1381 54.2703L17.972 54.4693L17.5613 55.812L15.9558 55.5012L16.2545 54.1087H16.1549C16.1549 54.1087 14.7734 50.5653 17.5239 51.3983L21.1332 52.4924C21.1332 52.4924 20.4611 52.2313 20.4611 54.9169L20.4487 54.9293ZM21.6435 55.2899L20.9216 55.1407C20.7723 53.1265 21.4443 52.6043 21.4443 52.6043L22.1164 52.8157C21.183 53.0768 21.6559 55.3023 21.6559 55.3023L21.6435 55.2899ZM27.7045 59.7533C27.7045 59.7533 27.132 59.5668 27.0076 59.2933C27.0076 59.2933 24.7175 60.002 24.5558 57.1548L24.4935 56.7445C24.4935 56.7445 22.7387 55.5012 22.1164 55.4017C22.1164 55.4017 21.7555 52.7659 22.7885 53.027C22.7885 53.027 25.3274 53.599 24.5433 54.5812L25.4767 55.0536C25.4767 55.0536 25.066 56.1975 25.2652 56.757H24.73C24.842 57.9257 25.0536 59.4301 26.8333 59.0819C26.8333 59.0819 27.0573 58.05 28.0654 58.3111C28.0654 58.3111 29.3598 59.3679 27.7045 59.7906V59.7533ZM46.1739 55.3893C45.5516 55.4888 43.7968 56.7321 43.7968 56.7321L43.7345 57.1424C43.5603 59.9895 41.2703 59.2809 41.2703 59.2809C41.1458 59.5668 40.5733 59.7409 40.5733 59.7409C38.9181 59.3306 40.2124 58.2614 40.2124 58.2614C41.2205 58.0003 41.4445 59.0322 41.4445 59.0322C43.2243 59.3803 43.4483 57.8759 43.5479 56.7072H43.0127C43.2243 56.1353 42.8011 55.0039 42.8011 55.0039L43.7345 54.5314C42.9629 53.5492 45.4894 52.9773 45.4894 52.9773C46.5224 52.7162 46.1615 55.352 46.1615 55.352L46.1739 55.3893ZM47.3562 55.1407L46.6344 55.2899C46.6344 55.2899 47.0949 53.0643 46.1739 52.8032L46.846 52.5919C46.846 52.5919 47.518 53.1141 47.3562 55.1282V55.1407ZM50.7166 55.812L50.3059 54.4693L51.1397 54.2703L50.0072 54.4693L47.8292 54.9293C47.8292 52.2438 47.1571 52.5048 47.1571 52.5048L50.7664 51.4107C53.5044 50.5902 52.1229 54.1087 52.1229 54.1087H52.0234L52.3221 55.5136L50.7166 55.8245V55.812Z" fill="white"/>
<path d="M50.7412 54.7304L50.9279 55.4018L51.8613 55.2526L51.6746 54.4941L50.7412 54.7304Z" fill="white"/>
<path d="M52.0108 54.0591L51.1396 54.2704L52.0233 54.1212L52.0108 54.0591Z" fill="white"/>
<path d="M52.3714 56.7941L51.1891 56.8687V56.8439C51.0895 56.8439 50.9899 56.8563 50.8779 56.8563V56.8936L52.7074 56.8314V56.7817C52.5705 56.7817 52.4585 56.7693 52.359 56.7568V56.7941H52.3714Z" fill="white"/>
<path d="M38.9926 57.0927L39.2166 56.8441L39.59 56.8814L39.6398 56.7695L39.1669 56.7322L38.8682 57.0554L38.9926 57.0927Z" fill="white"/>
<path d="M40.6979 56.4587C40.7974 56.4338 40.9094 56.4835 41.0463 56.6078L41.1335 56.5208C40.9717 56.3716 40.8099 56.3095 40.673 56.3468C40.4738 56.3965 40.3992 56.6079 40.3867 56.6203L40.4987 56.6576C40.4987 56.6576 40.561 56.496 40.6979 56.4587Z" fill="white"/>
<path d="M40.5362 58.51C40.2624 58.51 40.0508 58.7338 40.0508 58.9949C40.0508 59.256 40.2748 59.4798 40.5362 59.4798C40.7975 59.4798 41.0215 59.256 41.0215 58.9949C41.0215 58.7338 40.7975 58.51 40.5362 58.51ZM40.5362 59.2436C40.3993 59.2436 40.2997 59.1317 40.2997 59.0073C40.2997 58.883 40.4117 58.7711 40.5362 58.7711C40.6606 58.7711 40.7726 58.883 40.7726 59.0073C40.7726 59.1317 40.6606 59.2436 40.5362 59.2436Z" fill="white"/>
<path d="M17.0879 56.8441L17.1128 56.2473H16.03L15.918 56.7571C16.4034 56.7322 16.7767 56.7322 16.7767 56.7322C16.8389 56.7944 16.951 56.8317 17.0879 56.8441Z" fill="white"/>
<path d="M17.5361 54.7304L16.6027 54.4941L16.416 55.2526L17.3494 55.4018L17.5361 54.7304Z" fill="white"/>
<path d="M16.2549 54.1212L17.1385 54.2704L16.2673 54.0591L16.2549 54.1212Z" fill="white"/>
<path d="M17.0887 56.8812L15.9063 56.8066V56.7693C15.8068 56.7693 15.6948 56.7693 15.5703 56.7942V56.8439L17.3874 56.9061V56.8688C17.2754 56.8688 17.1758 56.8688 17.0887 56.8563V56.8812Z" fill="white"/>
<path d="M29.2849 57.0927L29.4093 57.0554L29.1106 56.7322L28.6377 56.7695L28.6875 56.8814L29.0608 56.8441L29.2849 57.0927Z" fill="white"/>
<path d="M27.1445 56.5084L27.2317 56.5954C27.3686 56.4711 27.4806 56.4338 27.5801 56.4462C27.717 56.4835 27.7793 56.6451 27.7793 56.6451L27.8913 56.6078C27.8913 56.6078 27.8042 56.384 27.605 56.3343C27.4681 56.297 27.3063 56.3592 27.1445 56.5084Z" fill="white"/>
<path d="M27.7422 58.51C27.4684 58.51 27.2568 58.7338 27.2568 58.9949C27.2568 59.256 27.4809 59.4798 27.7422 59.4798C28.0036 59.4798 28.2276 59.256 28.2276 58.9949C28.2276 58.7338 28.0036 58.51 27.7422 58.51ZM27.7422 59.2436C27.6053 59.2436 27.4933 59.1317 27.4933 59.0073C27.4933 58.883 27.6053 58.7711 27.7422 58.7711C27.8791 58.7711 27.9787 58.883 27.9787 59.0073C27.9787 59.1317 27.8667 59.2436 27.7422 59.2436Z" fill="white"/>
<path d="M49.2731 15.1062H18.582V37.6349H49.2606L42.4031 26.383L49.2606 15.1062H49.2731ZM29.0364 36.6527H19.7021V16.1008H29.0364V36.6527Z" fill="white"/>
</svg>
