<svg width="260" height="48" viewBox="0 0 260 48" fill="none" xmlns="http://www.w3.org/2000/svg">
<g clip-path="url(#clip0_3023_45211)">
<path d="M4.6457 15.9205C3.90452 15.6543 3.10007 15.6635 2.49447 15.9573C1.97926 16.2051 1.60867 16.6275 1.40078 17.2243C0.867494 18.73 1.90695 19.8869 3.09103 20.3184C3.75086 20.5571 4.46492 20.5571 5.0434 20.3551C4.88974 20.5112 4.6457 20.6856 4.25703 20.9244C4.25703 20.9244 2.69332 21.8517 2.49447 21.971C2.35889 21.8149 1.76233 21.0896 1.76233 21.0896C1.40982 20.6581 1.17481 20.3276 1.17481 19.8685C1.17481 19.8226 1.17481 19.7767 1.17481 19.7216L1.19289 19.5747L0.722874 19.5012L0.695757 19.6481L0.379401 21.6313L0.849416 21.7139L0.876532 21.567C0.903649 21.3834 0.939804 21.2916 0.984998 21.3008C1.06635 21.31 1.16577 21.4018 1.33751 21.6038C1.33751 21.6038 1.93407 22.3107 2.28658 22.7423C1.84368 22.6688 1.1477 22.5586 1.1477 22.5586C0.858455 22.5127 0.786145 22.476 0.786145 22.2924C0.786145 22.2281 0.786145 22.1363 0.804222 22.0261L0.8223 21.8792L0.352284 21.8058L-0.0273438 24.1562L0.442672 24.2296L0.469788 24.0827C0.551137 23.6788 0.569215 23.6512 0.948843 23.7155L4.12145 24.2388C4.51012 24.3031 4.51012 24.3306 4.46492 24.7438L4.44684 24.8907L4.91686 24.9641L5.28745 22.6137L4.81743 22.5403L4.79032 22.678C4.70897 23.1095 4.69089 23.1371 4.30222 23.0728C4.30222 23.0728 3.61528 22.9626 3.17238 22.8892C3.5972 22.6321 4.41069 22.1363 4.41069 22.1363C4.56435 22.0445 4.79936 21.9068 4.87167 21.8976C4.87167 21.9251 4.87167 22.3107 4.87167 22.3107L4.99821 22.3566L5.3236 22.4117L5.71227 19.9603C5.96536 19.7216 6.17325 19.4186 6.29979 19.0514C6.83308 17.5456 5.79362 16.3888 4.60954 15.9573L4.6457 15.9205ZM5.75746 18.8126C5.67612 19.0514 5.5315 19.2166 5.3236 19.3176C4.9259 19.5104 4.3203 19.4553 3.51585 19.1524C2.2685 18.7025 1.75329 18.124 1.99734 17.4354C2.07869 17.1967 2.22331 17.0315 2.4312 16.9305C2.81987 16.7377 3.4345 16.7928 4.23895 17.0866C5.4863 17.5456 6.00151 18.1149 5.75746 18.8035V18.8126Z" fill="#24408F"/>
<path d="M14.5079 7.80416C14.3543 7.9327 14.291 7.9327 13.8752 7.66644L10.1241 5.2793L10.0428 5.34357L9.79873 5.53637L11.1455 9.98932C11.1455 9.98932 11.1545 10.0444 11.1636 10.072L10.6845 9.36499L10.3772 9.7047L10.4134 9.79651C10.7478 10.5769 10.5851 10.9534 10.097 11.5042C9.63603 12.0184 9.59084 11.9725 9.4643 11.8623C9.4643 11.8623 8.63273 11.0911 8.37061 10.8524C8.49715 10.7146 8.75927 10.4208 8.75927 10.4208C9.11178 10.026 9.3016 9.98932 9.68123 10.2464L9.78969 10.3198L10.088 9.98932L8.63273 8.63966L8.33445 8.97019L8.4158 9.07119C8.52427 9.21809 8.59658 9.31908 8.59658 9.43844C8.59658 9.56698 8.50619 9.72306 8.27118 9.98014C8.27118 9.98014 8.00906 10.2739 7.88251 10.4117C7.70174 10.2464 6.88825 9.49353 6.88825 9.49353C6.88825 9.49353 6.84306 9.44762 6.83402 9.42926C6.84306 9.4109 6.87921 9.36499 6.87921 9.36499L7.31307 8.87838C7.8554 8.27241 8.0181 8.31832 8.42484 8.52031L8.52427 8.57539L8.82255 8.24487L7.8102 7.35428L7.71078 7.46445L5.18896 10.2648L5.54147 10.5861L5.6409 10.4851C5.88495 10.2372 5.91206 10.2097 6.21034 10.4851L8.58754 12.6886C8.80447 12.8906 8.84966 12.9641 8.75927 13.1018L8.71408 13.0742L8.64177 13.2211C8.56946 13.3589 8.49715 13.4048 8.2531 13.4231C8.2531 13.4231 6.84306 13.5333 6.34592 13.57C6.364 13.4507 6.40016 13.3313 6.40016 13.2211C6.40016 12.707 6.16515 12.2938 5.68609 12C4.89068 11.5134 4.15854 11.8531 3.44448 13.0467L2.41406 14.782L2.82081 15.0299L2.90216 14.9105C3.13716 14.5616 3.16428 14.5341 3.49871 14.7361L6.25554 16.4254C6.58997 16.6274 6.58093 16.6641 6.38208 17.0314L6.30977 17.1599L6.71651 17.4078L7.93675 15.3604L7.53 15.1125L7.44865 15.2319C7.21364 15.5991 7.18653 15.6175 6.85209 15.4155C6.85209 15.4155 6.03861 14.9197 5.83975 14.7912C5.84879 14.7728 5.85783 14.7636 5.86687 14.7544C6.01149 14.7452 8.40676 14.5708 8.40676 14.5708L8.96717 13.6251L11.5703 10.7238L12.5284 9.98014L12.2482 9.61289L12.1127 9.68634L11.8686 9.80569L11.7873 9.74142L11.5161 9.04364C11.6517 8.93347 12.4381 8.31832 12.5736 8.21732C12.5917 8.2265 12.6098 8.24487 12.6098 8.24487L13.1792 8.66721C13.1792 8.66721 13.2154 8.71311 13.2154 8.74984C13.2154 8.79575 13.1702 8.86002 13.0256 8.97937L12.9081 9.07119L13.1973 9.4568L14.9056 8.12551L14.6074 7.73071L14.4899 7.83171L14.5079 7.80416ZM4.49298 12.909C4.70087 12.8539 4.90876 12.8998 5.13473 13.0283C5.34262 13.1569 5.56859 13.3589 5.56859 13.7261C5.56859 13.9189 5.49628 14.1668 5.34262 14.4606C5.10761 14.3137 3.9145 13.5884 3.9145 13.5884L3.86026 13.5425L3.94161 13.3497C4.07719 13.1202 4.27605 12.9641 4.49298 12.909ZM11.3263 8.35504C11.2449 8.10715 11.0551 7.51954 10.9105 7.07884C11.2901 7.33592 11.8053 7.68481 12.0132 7.82253C11.8234 7.96943 11.5161 8.20814 11.3353 8.35504H11.3263Z" fill="#24408F"/>
<path d="M18.1133 2.2594C17.9687 1.90132 17.9777 1.7636 18.3392 1.56161L18.4567 1.49734L18.276 1.05664L18.1404 1.11173L16.6219 1.74524L16.7936 2.17676L16.9202 2.14004C17.2636 2.04822 17.3811 2.11249 17.5348 2.48893L18.3302 4.4721C18.511 4.9128 18.5381 5.28923 18.4206 5.57386C18.3392 5.77585 18.1675 5.93193 17.9235 6.03292C17.6252 6.16146 17.3721 6.17982 17.1732 6.08801C16.9473 5.9962 16.7755 5.76666 16.6219 5.39941L15.6999 3.10408C15.5463 2.72764 15.5824 2.70928 15.9259 2.5532L16.0524 2.48893L15.8717 2.04822L13.7656 2.92045L13.9464 3.37034L14.082 3.32443C14.4345 3.19589 14.4706 3.18671 14.6243 3.55396L15.5191 5.76666C15.9982 6.95106 16.8026 7.28158 17.9777 6.79497C18.5019 6.57462 18.8544 6.26246 19.0171 5.86766C19.1979 5.42695 19.1618 4.88526 18.8906 4.2242L18.0952 2.25021L18.1133 2.2594Z" fill="#24408F"/>
<path d="M26.3934 0.128539L24.0975 0V0.156083L24.0704 0.486611L24.215 0.504973C24.5676 0.541699 24.6128 0.55088 24.5856 0.954858L24.4049 4.21423C24.3868 4.61821 24.3326 4.61821 23.98 4.61821H23.8354V4.71002L23.2208 1.17521C23.1485 0.762051 23.2117 0.651875 23.5643 0.55088L23.6908 0.514155L23.6094 0.0459067L23.4648 0.0734507L21.8198 0.367253L21.9011 0.82632H22.0367C22.4073 0.798776 22.4977 0.881408 22.57 1.29457C22.57 1.29457 22.805 2.64422 22.9044 3.22265C22.3802 2.7544 20.0934 0.670237 20.0934 0.670237L18.7285 0.918133L18.8008 1.36802H18.9183C19.1533 1.39556 19.307 1.47819 19.4607 1.68937C19.4607 1.78118 19.9849 4.80184 19.9849 4.80184C20.003 4.89365 20.012 4.97628 20.012 5.04055C20.012 5.2609 19.9126 5.34353 19.6414 5.42617L19.5149 5.46289L19.5962 5.92196L21.3859 5.60061L21.3046 5.13236H21.169C20.7984 5.15991 20.699 5.07728 20.6357 4.66412C20.6357 4.66412 20.3736 3.14002 20.238 2.36878C20.7713 2.85539 23.501 5.32517 23.501 5.32517L23.9348 5.25172L23.8987 5.07728L26.1041 5.20582C26.8815 5.25172 27.5775 5.03137 28.0656 4.59067C28.5356 4.16832 28.7977 3.55318 28.8429 2.80949C28.9333 1.26702 27.9661 0.211171 26.3934 0.119357V0.128539ZM25.5618 4.31523L25.7516 0.973221L25.8149 0.762051C25.8149 0.762051 25.9595 0.706963 26.1222 0.716144C26.5922 0.743688 26.9628 0.908952 27.234 1.22112C27.5594 1.58837 27.704 2.12089 27.6679 2.77276C27.6317 3.42464 27.4238 3.93879 27.0623 4.26014C26.764 4.53558 26.3753 4.65494 25.9053 4.62739C25.7426 4.62739 25.6432 4.59067 25.607 4.54476L25.5709 4.32441L25.5618 4.31523Z" fill="#24408F"/>
<path d="M35.793 7.97831C35.6484 7.91404 35.6123 7.84059 35.5761 7.60188C35.5761 7.60188 35.4044 6.18795 35.3411 5.6738C36.019 5.76561 36.5342 5.51771 36.8506 4.92093C37.0314 4.58122 37.0766 4.25987 36.9862 3.95689C36.8506 3.507 36.4438 3.10302 35.7207 2.69905L33.9582 1.73501L33.8859 1.87273L33.7322 2.15735L33.8588 2.2308C34.2203 2.45115 34.2384 2.46951 34.0576 2.8184L32.5301 5.69216C32.3945 5.94924 32.3402 6.01351 32.1685 5.94924L32.7018 4.97602L32.2679 4.84748L32.2047 4.92093C31.6714 5.5728 31.2646 5.59117 30.5596 5.37999C30.424 5.34327 30.0082 5.21473 29.954 5.11374L29.9721 4.96683C29.9721 4.96683 30.2884 3.86507 30.3879 3.52537C30.5686 3.58045 30.9483 3.69063 30.9483 3.69063C31.3731 3.81917 31.5268 3.94771 31.5268 4.26905C31.5268 4.32414 31.5268 4.38841 31.5177 4.45268L31.4996 4.58122L31.9245 4.70976L32.4668 2.79086L32.042 2.66232L31.9877 2.78168C31.816 3.13975 31.7437 3.24074 31.129 3.05712C31.129 3.05712 30.7765 2.95612 30.5686 2.89185C30.6319 2.65314 30.9392 1.5881 30.9392 1.5881C30.9392 1.5881 30.9663 1.52384 30.9663 1.50547C30.9844 1.50547 31.0477 1.52384 31.0477 1.52384L31.6714 1.70746C32.4306 1.92781 32.4758 2.10226 32.4758 2.54296V2.68068L32.9006 2.80004L33.2441 1.48711L29.5111 0.394531L29.4659 0.541433L29.3755 0.853598L29.5111 0.899504C29.8365 1.00968 29.8817 1.02804 29.7642 1.41366L28.8694 4.55367C28.7609 4.93929 28.7157 4.93011 28.3813 4.85666L28.2457 4.81993L28.1191 5.279L31.9245 6.38994L33.6509 7.32644L33.8768 6.9041L33.7503 6.83064C33.3797 6.61029 33.3616 6.58275 33.5424 6.23386C33.5424 6.23386 33.9943 5.38918 34.1028 5.178C34.1299 5.18719 34.1299 5.19637 34.148 5.20555C34.1661 5.35245 34.4553 7.77632 34.4553 7.77632L35.7207 8.4741L35.9557 8.0334L35.8021 7.96913L35.793 7.97831ZM35.1694 3.18566L35.2055 3.13057L35.4044 3.20402C35.6394 3.33256 35.8021 3.52537 35.8654 3.74572C35.9286 3.94771 35.8925 4.16806 35.775 4.39759C35.6032 4.72812 35.2598 5.08619 34.374 4.67303C34.5005 4.42514 35.1603 3.18566 35.1603 3.18566H35.1694Z" fill="#24408F"/>
<path d="M42.4002 8.40922L42.4996 8.44595L42.7889 8.11542L41.5687 7.03203L41.2523 7.3901L41.3608 7.49109C41.5144 7.63799 41.5596 7.72063 41.5596 7.77571C41.5596 7.81244 41.5415 7.83998 41.5144 7.85835L41.1348 8.1246C41.1348 8.1246 39.9236 8.85911 39.318 9.22636C39.5349 8.67548 40.0863 7.26156 40.0863 7.26156L40.3484 6.76577C40.3484 6.76577 40.4298 6.66477 40.6919 6.89431L40.8094 6.9953L41.1258 6.62805L39.4626 5.14067L39.1553 5.49874L39.2547 5.59974C39.3722 5.72828 39.4265 5.82009 39.4265 5.92108C39.4265 5.98535 39.4084 6.04962 39.3722 6.13225C39.3722 6.13225 39.1011 6.83004 39.0468 6.96776C38.9745 7.00448 38.1339 7.48191 37.6729 7.73899C37.908 7.17893 38.4774 5.82927 38.4774 5.82927C38.5135 5.75582 38.7124 5.33348 38.7124 5.33348C38.7395 5.30594 38.8118 5.2233 39.0107 5.39775L39.1191 5.49874L39.4355 5.13149L37.9351 3.79102L37.8356 3.90119L37.6368 4.13072L37.7181 4.23172C37.8085 4.3419 37.8537 4.40616 37.6006 5.00295L35.9375 8.92338L36.29 9.23555C36.29 9.23555 38.1249 8.19805 38.6672 7.88589C38.4322 8.48268 37.6549 10.4567 37.6549 10.4567L38.0074 10.7688L41.6771 8.53776C42.0567 8.30823 42.1471 8.29905 42.4093 8.40004L42.4002 8.40922Z" fill="#24408F"/>
<path d="M42.4188 16.1503C42.3375 15.985 42.2923 15.884 42.2923 15.8014C42.2923 15.7004 42.3736 15.6453 42.5725 15.5351C42.5725 15.5351 45.022 14.1763 45.6185 13.8457C45.6909 13.9835 45.7993 14.1854 45.7993 14.1854C45.8626 14.3048 45.9078 14.415 45.9078 14.516C45.9078 14.6996 45.7903 14.8832 45.483 15.1587L45.3926 15.2413L45.6185 15.6636L46.884 14.819L44.9497 11.2199L44.8231 11.275L43.5667 11.8442L43.7927 12.2666L43.9102 12.2298C44.5339 12.0462 44.7147 12.1472 44.8864 12.4777C44.8864 12.4777 44.9949 12.6797 45.0672 12.8174C44.8231 12.9552 42.0211 14.5068 42.0211 14.5068C41.6776 14.6996 41.6596 14.6721 41.4336 14.2956L41.4155 14.2589L41.4969 14.1946L41.3974 14.0753C41.2709 13.91 41.2709 13.8549 41.524 13.4326L43.865 9.61315L43.6119 9.27344L43.5125 9.30098L39.2281 10.6506C38.9931 10.7241 38.8847 10.6874 38.6949 10.5313L38.6045 10.4578L38.252 10.7333L39.2643 12.0737L39.6258 11.7891L39.5535 11.6514L39.436 11.4035L39.4993 11.3209C39.4993 11.3209 40.1682 11.0454 40.1862 11.0363C40.2947 11.174 40.9003 11.9727 40.9997 12.1105C40.9907 12.1288 40.9726 12.1472 40.9726 12.1472L40.5568 12.7256L40.4665 12.7623L40.1591 12.4869L40.0416 12.542L39.7795 12.744L40.9907 14.3415L40.9184 14.3783L42.0573 16.49L42.4731 16.2604L42.4098 16.1319L42.4188 16.1503ZM42.0844 10.4027C41.8313 10.7884 41.4969 11.3117 41.3522 11.5229C41.2076 11.3301 40.9726 11.0179 40.828 10.8343C41.063 10.7516 41.6505 10.5496 42.0844 10.4027Z" fill="#24408F"/>
<path d="M48.8439 21.3738L48.4914 19.3723L48.3468 19.3998L48.0304 19.4549L48.0485 19.6018C48.1027 20.0241 48.1027 20.0609 47.714 20.1251L44.5505 20.7035C44.2522 20.7586 44.1709 20.7403 44.1076 20.5383L45.1922 20.4097L45.0476 19.9782H44.9482C44.1166 19.9048 43.8635 19.5834 43.6195 18.8765C43.511 18.5735 43.4658 18.399 43.4658 18.3072C43.4658 18.197 43.5201 18.1695 43.6014 18.142C43.6014 18.142 44.7674 17.7196 44.9934 17.637C45.0567 17.8206 45.1832 18.197 45.1832 18.197C45.2374 18.3715 45.2736 18.5092 45.2736 18.6194C45.2736 18.8306 45.1561 18.9591 44.894 19.106L44.7765 19.1703L44.9301 19.5926L46.7831 18.9315L46.6384 18.5092L46.5119 18.5367C46.1232 18.6102 46.0057 18.601 45.7888 17.9859C45.7888 17.9859 45.6713 17.637 45.599 17.4258C45.8249 17.3432 46.8644 16.9667 46.8644 16.9667C46.8644 16.9667 46.9277 16.9484 46.9458 16.9484C46.9458 16.9667 46.9819 17.0218 46.9819 17.0218L47.1988 17.6462C47.2983 17.9308 47.3435 18.1328 47.3435 18.2797C47.3435 18.5276 47.2169 18.6469 46.9819 18.8122L46.8915 18.8765L47.0361 19.2988L48.2925 18.8122L47 15.0938L46.8554 15.1488L46.548 15.259L46.5842 15.3967C46.6836 15.7364 46.6927 15.7732 46.3221 15.9109L43.2851 17.0035C42.9054 17.1412 42.8964 17.0953 42.7608 16.7739L42.7066 16.6362L42.2637 16.7923L43.5833 20.5842H43.6014L43.963 22.6133L44.433 22.5306L44.4149 22.3837C44.3968 22.2644 44.3878 22.1817 44.3878 22.1083C44.3878 21.9247 44.4691 21.8971 44.7403 21.842C44.7403 21.842 45.6713 21.6676 45.9063 21.6309C45.9063 21.6584 45.9063 21.6584 45.9063 21.6768C45.8069 21.7869 44.1166 23.5222 44.1166 23.5222L44.3697 24.9545L44.8578 24.8719L44.8126 24.7158C44.8126 24.7158 44.7945 24.6423 44.7945 24.6056C44.7945 24.5138 44.8397 24.4312 44.9663 24.3026C44.9663 24.3026 45.9786 23.2468 46.313 22.8887C46.6656 23.4763 47.1536 23.7609 47.8225 23.6324C48.1931 23.5681 48.4733 23.3937 48.6541 23.1366C48.9162 22.751 48.9704 22.1634 48.8258 21.3462L48.8439 21.3738ZM47.5875 22.4939C47.226 22.5582 46.7379 22.5031 46.5029 21.5574C46.774 21.5115 48.1389 21.2544 48.1389 21.2544H48.2112L48.2745 21.4472C48.3468 21.8604 48.2112 22.3745 47.5875 22.4847V22.4939Z" fill="#24408F"/>
<path d="M17.1915 34.0808L15.6459 29.8574H15.2301L13.6212 34.2277C13.5308 34.4664 13.4404 34.5307 13.2054 34.5858L13.0879 34.6134V35.0724H14.751V34.5858H14.5974C14.3081 34.5858 14.3081 34.5215 14.3081 34.4389L14.516 33.7136H15.8538L15.8718 33.7595L16.0707 34.4389C16.0707 34.5124 16.0707 34.5858 15.7634 34.5858H15.6097V35.0724H17.77V34.5858H17.6163C17.4084 34.5858 17.3632 34.5583 17.1915 34.09V34.0808ZM15.1849 31.7671C15.3295 32.2078 15.5284 32.7954 15.6097 33.0433H14.751C14.8324 32.7954 15.0312 32.2078 15.1849 31.7671Z" fill="#24408F"/>
<path d="M19.7229 31.8125C19.289 31.5554 18.9094 31.335 18.9094 30.9953C18.9094 30.8392 18.9546 30.4812 19.4155 30.4812C19.8946 30.4812 20.3013 30.8943 20.4731 31.5646L20.5002 31.6747H20.925V29.8477H20.4912L20.464 29.967C20.455 30.0313 20.4188 30.1047 20.3827 30.1047L20.0934 30.0221L19.2257 29.8477C18.4755 29.8477 17.8428 30.4812 17.8428 31.2249C17.8428 32.0328 18.5207 32.4643 19.1173 32.85C19.6054 33.1621 20.0663 33.4651 20.0663 33.8966C20.0663 34.0527 20.0211 34.5393 19.4788 34.5393C18.9365 34.5393 18.4303 33.9334 18.2676 33.3549L18.2315 33.2447H17.8066V35.1177H18.3128L18.3309 34.9892C18.349 34.879 18.3851 34.879 18.3942 34.879L18.6653 34.9617C18.8642 35.0535 19.1444 35.1728 19.6415 35.1728C20.4821 35.1728 21.1148 34.5393 21.1148 33.6855C21.1148 32.6388 20.3375 32.1797 19.7048 31.8125H19.7229Z" fill="#24408F"/>
<path d="M23.2392 31.8125C22.8053 31.5554 22.4257 31.335 22.4257 30.9953C22.4257 30.8392 22.4709 30.4812 22.9319 30.4812C23.3929 30.4812 23.8177 30.8943 23.9894 31.5646L24.0165 31.6747H24.4504V29.8477H24.0165L23.9894 29.967C23.9714 30.0313 23.9442 30.1047 23.9081 30.1047L23.6188 30.0221L22.7511 29.8477C22.0009 29.8477 21.3682 30.4812 21.3682 31.2249C21.3682 32.0328 22.0461 32.4643 22.6427 32.85C23.1307 33.1621 23.5917 33.4651 23.5917 33.8966C23.5917 34.0527 23.5465 34.5393 23.0042 34.5393C22.4619 34.5393 21.9647 33.9334 21.793 33.3549L21.7569 33.2447H21.332V35.1177H21.8382L21.8563 34.9892C21.8744 34.879 21.9105 34.879 21.9286 34.879L22.1998 34.9617C22.3986 35.0535 22.6788 35.1728 23.1759 35.1728C24.0165 35.1728 24.6493 34.5393 24.6493 33.6855C24.6493 32.6388 23.8719 32.1797 23.2392 31.8125Z" fill="#24408F"/>
<path d="M33.2882 33.5477C33.1255 33.8048 32.6917 34.475 31.9234 34.475C30.6941 34.475 30.5043 33.2172 30.5043 32.4735C30.5043 31.7298 30.8568 30.4812 31.8059 30.4812C32.4115 30.4812 32.8544 30.876 33.1165 31.6564L33.1526 31.7574H33.6046L33.4961 29.8477H33.0532L32.8905 30.1231H32.8724L32.6917 30.068C32.4205 29.9762 32.0228 29.8477 31.6974 29.8477C30.1427 29.8477 29.3925 31.179 29.3021 32.2348C29.2027 31.0321 28.4886 29.8477 27.0244 29.8477C25.4426 29.8477 24.7285 31.2249 24.7285 32.5102C24.7285 33.7956 25.4516 35.1728 27.0244 35.1728C28.5067 35.1728 29.2208 33.9609 29.3021 32.7581C29.4106 34.2272 30.3054 35.1728 31.6522 35.1728C32.5922 35.1728 33.234 34.7689 33.713 33.8507L33.7673 33.7405L33.3696 33.4008L33.2792 33.5477H33.2882ZM27.0244 34.5485C26.1386 34.5485 25.9487 33.4467 25.9487 32.5194C25.9487 31.5921 26.1386 30.4904 27.0244 30.4904C27.9102 30.4904 28.1 31.5921 28.1 32.5194C28.1 33.4467 27.9102 34.5485 27.0244 34.5485Z" fill="#24408F"/>
<path d="M34.6361 33.8145C34.3017 33.8145 34.0215 34.1174 34.0215 34.4847C34.0215 34.8519 34.2926 35.1549 34.6361 35.1549C34.9796 35.1549 35.2508 34.8519 35.2508 34.4847C35.2508 34.1174 34.9796 33.8145 34.6361 33.8145Z" fill="#24408F"/>
<path d="M38.0259 41.9135L37.9446 41.5371H37.1582L37.1763 41.9778C37.2847 41.9686 37.3661 41.9411 37.4113 41.8952C37.4113 41.8952 37.6825 41.8952 38.035 41.9135H38.0259Z" fill="#24408F"/>
<path d="M46.6496 31.4743C46.6496 31.4743 48.6381 31.208 49.2799 29.1055C49.2799 29.1055 47.6981 30.5561 45.5198 30.3266C45.5198 30.3266 44.1278 29.941 44.7334 31.6212C44.7334 31.6212 44.6611 32.9157 44.2091 33.3381L43.3414 33.2646C43.3414 33.2646 42.2116 32.6954 42.1393 34.3756C42.1393 34.3756 41.4252 36.4781 41.0094 36.7076C41.0094 36.7076 39.9157 37.6625 39.9609 38.5439C39.9609 38.5439 40.4129 38.0848 41.615 37.9746C41.615 37.9746 42.1393 35.5691 43.0793 35.4865C43.0793 35.4865 41.8048 37.5064 42.0669 38.2409C42.0669 38.2409 38.6503 39.0397 38.0809 39.9578C38.0809 39.9578 39.0209 37.4788 37.2131 37.6625L32.6305 39.1498C32.6305 39.1498 31.1662 39.4528 31.5368 40.2608L30.8589 40.4903C30.8589 40.4903 30.3708 39.0397 28.9788 39.6915C28.9788 39.6915 28.8342 39.7558 28.6353 39.8568C28.6173 39.8935 28.563 40.0863 28.9156 41.2983C28.9156 41.2983 31.2837 40.9769 30.0815 43.107C30.0815 43.107 29.3675 42.4184 28.8432 43.2631L27.9755 42.1889C27.9755 42.1889 28.0478 41.5003 28.7619 41.3534C28.7619 41.3534 28.4455 40.628 28.4636 39.9394C27.7224 40.3618 26.5655 41.2616 27.6953 42.2715L28.3371 43.1162C28.3371 43.1162 28.789 43.4834 27.9574 43.6854C27.9574 43.6854 25.3814 44.4383 24.7848 44.8239C24.1883 44.4383 21.6122 43.6854 21.6122 43.6854C20.7807 43.4743 21.2326 43.1162 21.2326 43.1162L21.8744 42.2715C23.0132 41.2524 21.8472 40.3618 21.1061 39.9394C21.1241 40.6189 20.8078 41.3534 20.8078 41.3534C21.5218 41.5094 21.5942 42.1889 21.5942 42.1889L20.7355 43.2631C20.2112 42.4276 19.4972 43.107 19.4972 43.107C18.295 40.9677 20.6632 41.2983 20.6632 41.2983C21.0157 40.0863 20.9705 39.8844 20.9434 39.8568C20.7445 39.7558 20.5999 39.6915 20.5999 39.6915C19.2079 39.0397 18.7198 40.4903 18.7198 40.4903L18.0419 40.2608C18.4215 39.462 16.9482 39.1498 16.9482 39.1498L12.3656 37.6625C10.5578 37.4697 11.4979 39.9578 11.4979 39.9578C10.9375 39.0397 7.51176 38.2409 7.51176 38.2409C7.77389 37.5156 6.49942 35.4865 6.49942 35.4865C7.43945 35.5599 7.9637 37.9746 7.9637 37.9746C9.16585 38.0848 9.61779 38.5439 9.61779 38.5439C9.65395 37.6625 8.5693 36.7076 8.5693 36.7076C8.15351 36.4781 7.43945 34.3756 7.43945 34.3756C7.36714 32.6954 6.2373 33.2646 6.2373 33.2646L5.36957 33.3381C4.91764 32.9157 4.84533 31.6212 4.84533 31.6212C5.45092 29.941 4.05895 30.3266 4.05895 30.3266C1.88061 30.5561 0.298828 29.1055 0.298828 29.1055C0.94058 31.208 2.92911 31.4743 2.92911 31.4743C4.4657 32.273 4.20357 33.3105 4.20357 33.3105C3.86914 33.7329 2.02523 33.1177 2.02523 33.1177C2.58563 34.1093 3.45336 33.9624 3.45336 33.9624C4.80917 34.1552 4.99898 35.1835 4.99898 35.1835C5.26111 35.7895 5.22495 37.3228 5.22495 37.3228C5.26111 39.8844 6.84289 40.1139 6.84289 40.1139C7.97274 40.5729 10.0788 42.1797 10.0788 42.1797C10.3047 42.042 10.838 41.9777 11.3171 41.941L11.4707 41.3075L12.709 41.3809L12.6277 42.0052C13.2785 41.9869 14.3541 41.6839 14.3541 41.6839C15.9359 41.6472 15.972 42.2899 15.972 42.2899C16.2342 43.2447 15.3664 43.5477 15.3664 43.5477C14.3541 44.3098 12.5825 43.8507 12.5825 43.8507C11.9408 43.6212 12.4288 43.5477 12.4288 43.5477C12.5464 43.5844 13.1429 43.9241 14.6885 43.5844C16.2342 43.2355 15.719 42.2715 15.719 42.2715C15.5924 41.8492 14.2728 41.9869 14.2728 41.9869C13.857 42.1797 12.1306 42.2531 12.1306 42.2531C8.07216 42.0236 10.9646 44.5026 10.9646 44.5026L12.8266 45.5309C13.4321 45.8981 13.5587 45.9899 13.5587 45.9899C13.8208 46.2562 14.6885 47.2111 14.6885 47.2111C16.1167 48.4322 15.2489 46.6785 15.2489 46.6785C14.9868 46.2562 14.2366 45.5309 14.2366 45.5309C12.9169 44.6127 14.4626 45.0351 14.4626 45.0351C16.3788 45.7971 18.2589 44.879 18.2589 44.879C18.9006 44.4199 19.6147 44.6495 19.6147 44.6495C21.793 45.6778 22.3986 45.641 22.3986 45.641L23.1759 45.7696L23.0765 45.8339C23.194 45.8339 21.3501 46.4857 21.1241 47.1743C21.1241 47.1743 20.5999 47.9915 21.6845 47.4957C21.6845 47.4957 22.0009 47.4039 22.3624 47.1284C22.3624 47.1284 21.8744 48.5056 22.8144 47.1651C22.8144 47.1651 23.5646 46.2103 24.6944 46.0542L24.7848 46.0358L24.8843 46.0542C26.0141 46.2103 26.7643 47.1651 26.7643 47.1651C27.7044 48.5056 27.2163 47.1284 27.2163 47.1284C27.5778 47.3947 27.8942 47.4957 27.8942 47.4957C28.9879 47.9915 28.4546 47.1743 28.4546 47.1743C28.2286 46.4857 26.3847 45.8339 26.5022 45.8339L26.4028 45.7696L27.1801 45.641C27.1801 45.641 27.7767 45.6778 29.964 44.6495C29.964 44.6495 30.6781 44.4199 31.3199 44.879C31.3199 44.879 33.1999 45.7971 35.1161 45.0351C35.1161 45.0351 36.6618 44.6127 35.3421 45.5309C35.3421 45.5309 34.5919 46.2562 34.3298 46.6785C34.3298 46.6785 33.462 48.4322 34.8902 47.2111C34.8902 47.2111 35.7579 46.2562 36.02 45.9899C36.02 45.9899 36.1466 45.8981 36.7522 45.5309L38.6141 44.5026C38.6141 44.5026 41.5065 42.0236 37.4481 42.2531C37.4481 42.2531 35.7217 42.1797 35.306 41.9869C35.306 41.9869 33.9863 41.8583 33.8597 42.2715C33.8597 42.2715 33.3536 43.2447 34.8902 43.5844C36.4268 43.9241 37.0324 43.5844 37.1499 43.5477C37.1499 43.5477 37.638 43.6212 36.9962 43.8507C36.9962 43.8507 35.2246 44.3098 34.2123 43.5477C34.2123 43.5477 33.3445 43.2355 33.6067 42.2899C33.6067 42.2899 33.6428 41.638 35.2246 41.6839C35.2246 41.6839 36.3002 41.9869 36.951 42.0052L36.8697 41.3809L38.108 41.3075L38.2616 41.941C38.7316 41.9777 39.274 42.042 39.4999 42.1797C39.4999 42.1797 41.606 40.5729 42.7358 40.1139C42.7358 40.1139 44.3176 39.8844 44.3538 37.3228C44.3538 37.3228 44.3176 35.7987 44.5797 35.1835C44.5797 35.1835 44.7695 34.1552 46.1254 33.9624C46.1254 33.9624 46.9931 34.1185 47.5535 33.1177C47.5535 33.1177 45.7096 33.7329 45.3751 33.3105C45.3751 33.3105 45.113 32.2822 46.6496 31.4743ZM14.8512 40.5638L13.2695 40.2241L12.4469 40.0772L13.0525 40.2241L12.7542 41.2156L11.5882 40.9861L11.8052 39.9578H11.7329C11.7329 39.9578 10.7296 37.3411 12.7271 37.9563L15.3484 38.7642C15.3484 38.7642 14.8603 38.5714 14.8603 40.5546L14.8512 40.5638ZM15.719 40.83L15.1947 40.7199C15.0862 39.2325 15.5743 38.8469 15.5743 38.8469L16.0624 39.0029C15.3845 39.1958 15.728 40.8392 15.728 40.8392L15.719 40.83ZM20.1208 44.1261C20.1208 44.1261 19.7051 43.9884 19.6147 43.7864C19.6147 43.7864 17.9515 44.3098 17.834 42.2072L17.7888 41.9042C17.7888 41.9042 16.5144 40.9861 16.0624 40.9127C16.0624 40.9127 15.8003 38.9662 16.5505 39.159C16.5505 39.159 18.3944 39.5814 17.825 40.3067L18.5029 40.6556C18.5029 40.6556 18.2046 41.5003 18.3492 41.9134H17.9606C18.0419 42.7765 18.1956 43.8874 19.4881 43.6303C19.4881 43.6303 19.6508 42.8683 20.383 43.0611C20.383 43.0611 21.323 43.8415 20.1208 44.1537V44.1261ZM33.5344 40.9035C33.0824 40.9769 31.808 41.8951 31.808 41.8951L31.7628 42.198C31.6362 44.3006 29.9731 43.7772 29.9731 43.7772C29.8827 43.9884 29.4669 44.1169 29.4669 44.1169C28.2648 43.814 29.2048 43.0244 29.2048 43.0244C29.9369 42.8316 30.0996 43.5936 30.0996 43.5936C31.3922 43.8507 31.5549 42.7397 31.6272 41.8767H31.2385C31.3922 41.4544 31.0849 40.6189 31.0849 40.6189L31.7628 40.27C31.2024 39.5446 33.0372 39.1223 33.0372 39.1223C33.7874 38.9295 33.5253 40.8759 33.5253 40.8759L33.5344 40.9035ZM34.393 40.7199L33.8688 40.83C33.8688 40.83 34.2032 39.1866 33.5344 38.9938L34.0224 38.8377C34.0224 38.8377 34.5105 39.2233 34.393 40.7107V40.7199ZM36.8335 41.2156L36.5352 40.2241L37.1408 40.0772L36.3183 40.2241L34.7365 40.5638C34.7365 38.5806 34.2484 38.7734 34.2484 38.7734L36.8697 37.9655C38.8582 37.3595 37.8549 39.9578 37.8549 39.9578H37.7826L37.9995 40.9953L36.8335 41.2248V41.2156Z" fill="#24408F"/>
<path d="M36.8516 40.4169L36.9871 40.9127L37.665 40.8025L37.5295 40.2424L36.8516 40.4169Z" fill="#24408F"/>
<path d="M37.7733 39.9219L37.1406 40.078L37.7824 39.9678L37.7733 39.9219Z" fill="#24408F"/>
<path d="M38.0358 41.9416L37.1771 41.9967V41.9783C37.1048 41.9783 37.0325 41.9875 36.9512 41.9875V42.0151L38.2799 41.9691V41.9324C38.1804 41.9324 38.0991 41.9232 38.0268 41.9141V41.9416H38.0358Z" fill="#24408F"/>
<path d="M28.3189 42.1608L28.4816 41.9772L28.7528 42.0047L28.7889 41.9221L28.4454 41.8945L28.2285 42.1332L28.3189 42.1608Z" fill="#24408F"/>
<path d="M29.556 41.694C29.6284 41.6756 29.7097 41.7123 29.8091 41.8041L29.8724 41.7399C29.7549 41.6297 29.6374 41.5838 29.538 41.6113C29.3933 41.648 29.3391 41.8041 29.3301 41.8133L29.4114 41.8409C29.4114 41.8409 29.4566 41.7215 29.556 41.694Z" fill="#24408F"/>
<path d="M29.4404 43.207C29.2415 43.207 29.0879 43.3723 29.0879 43.5651C29.0879 43.7579 29.2506 43.9232 29.4404 43.9232C29.6302 43.9232 29.7929 43.7579 29.7929 43.5651C29.7929 43.3723 29.6302 43.207 29.4404 43.207ZM29.4404 43.7487C29.341 43.7487 29.2687 43.6661 29.2687 43.5743C29.2687 43.4825 29.35 43.3998 29.4404 43.3998C29.5308 43.3998 29.6121 43.4825 29.6121 43.5743C29.6121 43.6661 29.5308 43.7487 29.4404 43.7487Z" fill="#24408F"/>
<path d="M12.4102 41.9778L12.4283 41.5371H11.6419L11.5605 41.9135C11.9131 41.8952 12.1842 41.8952 12.1842 41.8952C12.2294 41.9411 12.3108 41.9686 12.4102 41.9778Z" fill="#24408F"/>
<path d="M12.7354 40.4166L12.0575 40.2422L11.9219 40.8022L12.5998 40.9124L12.7354 40.4166Z" fill="#24408F"/>
<path d="M11.8047 39.9678L12.4464 40.078L11.8137 39.9219L11.8047 39.9678Z" fill="#24408F"/>
<path d="M12.4094 42.0045L11.5507 41.9494V41.9219C11.4784 41.9219 11.397 41.9219 11.3066 41.9402V41.977L12.6263 42.0229V41.9953C12.545 41.9953 12.4726 41.9953 12.4094 41.9861V42.0045Z" fill="#24408F"/>
<path d="M21.2688 42.1608L21.3592 42.1332L21.1423 41.8945L20.7988 41.9221L20.835 42.0047L21.1061 41.9772L21.2688 42.1608Z" fill="#24408F"/>
<path d="M19.7129 41.7301L19.7762 41.7944C19.8756 41.7026 19.9569 41.675 20.0292 41.6842C20.1287 41.7117 20.1739 41.8311 20.1739 41.8311L20.2552 41.8035C20.2552 41.8035 20.1919 41.6383 20.0473 41.6016C19.9479 41.574 19.8304 41.6199 19.7129 41.7301Z" fill="#24408F"/>
<path d="M20.1474 43.207C19.9486 43.207 19.7949 43.3723 19.7949 43.5651C19.7949 43.7579 19.9576 43.9232 20.1474 43.9232C20.3372 43.9232 20.4999 43.7579 20.4999 43.5651C20.4999 43.3723 20.3372 43.207 20.1474 43.207ZM20.1474 43.7487C20.048 43.7487 19.9667 43.6661 19.9667 43.5743C19.9667 43.4825 20.048 43.3998 20.1474 43.3998C20.2469 43.3998 20.3192 43.4825 20.3192 43.5743C20.3192 43.6661 20.2378 43.7487 20.1474 43.7487Z" fill="#24408F"/>
<path d="M35.7837 11.1562H13.4941V27.7928H35.7837L30.8034 19.4929L35.7837 11.1562Z" fill="#24408F"/>
<path d="M21.0877 11.8906H14.3086V27.0674H21.0877V11.8906Z" fill="white"/>
<path d="M82.7063 22.9276V4.37215H89.8017V7.56725H85.3366V19.7233H85.4179C86.358 19.7233 87.298 19.6223 88.2471 19.4204C89.1961 19.2184 90.1181 18.9613 91.0129 18.6399V21.7432C90.1904 22.0829 89.2142 22.3676 88.0753 22.5879C86.9455 22.8083 85.8066 22.9184 84.6768 22.9184H82.6973L82.7063 22.9276ZM98.497 29.9881H95.9029V15.2061H94.2488V29.2995H91.6728V2.32471H94.2488V12.011H95.9029V2.02173H98.497V29.9881Z" fill="#24408F"/>
<path d="M100.748 9.50427V6.63969H112.697V9.50427H100.748ZM106.804 20.1822C106.027 20.1822 105.34 20.0444 104.743 19.7598C104.147 19.4752 103.649 19.1079 103.252 18.6581C102.854 18.2082 102.556 17.6848 102.348 17.088C102.14 16.4913 102.041 15.8761 102.041 15.2334C102.041 14.5907 102.14 14.0031 102.348 13.4063C102.556 12.8095 102.854 12.2862 103.252 11.8271C103.649 11.3681 104.147 11.0008 104.743 10.7254C105.34 10.4499 106.027 10.3214 106.804 10.3214C107.581 10.3214 108.268 10.4591 108.856 10.7254C109.443 11.0008 109.94 11.3681 110.347 11.8271C110.754 12.2862 111.052 12.8187 111.26 13.4063C111.468 14.0031 111.567 14.6091 111.567 15.2334C111.567 15.8577 111.468 16.5004 111.26 17.088C111.052 17.6848 110.754 18.2082 110.347 18.6581C109.94 19.1079 109.443 19.4752 108.856 19.7598C108.268 20.0444 107.581 20.1822 106.804 20.1822ZM103.279 5.21659V2.23266H110.311V5.21659H103.279ZM116.692 29.4461H103.984V22.3214H106.641V26.2786H116.692V29.4461ZM106.804 17.4369C107.599 17.4369 108.169 17.2166 108.521 16.7851C108.874 16.3535 109.055 15.8486 109.055 15.261C109.055 14.6734 108.883 14.1317 108.53 13.691C108.187 13.2503 107.608 13.0299 106.795 13.0299C105.981 13.0299 105.367 13.2503 105.032 13.691C104.689 14.1317 104.526 14.655 104.526 15.261C104.526 15.8669 104.698 16.3535 105.032 16.7851C105.376 17.2166 105.963 17.4369 106.795 17.4369H106.804ZM119.241 14.4806H116.286V23.2304H113.673V2.02148H116.286V11.2854H119.241V14.4806Z" fill="#24408F"/>
<path d="M119.729 20.0363V16.9331H137.969V20.0363H130.376V29.842H127.701V20.0363H119.729ZM130.611 2.5C130.638 3.20696 130.611 3.88638 130.53 4.54744C130.448 5.20849 130.304 5.86955 130.105 6.51224C130.458 7.2192 130.891 7.85272 131.416 8.41278C131.931 8.97284 132.5 9.47781 133.106 9.91852C133.711 10.3592 134.362 10.7448 135.049 11.0845C135.736 11.4151 136.441 11.6813 137.164 11.8833L135.827 14.8397C134.38 14.3806 133.061 13.692 131.868 12.7831C130.665 11.8741 129.626 10.7907 128.731 9.52372C127.927 10.7907 126.941 11.9017 125.775 12.8474C124.609 13.793 123.362 14.5275 122.033 15.0509L120.65 12.1588C121.798 11.7364 122.82 11.2039 123.724 10.5612C124.628 9.91852 125.378 9.18401 126.001 8.37605C126.616 7.55891 127.086 6.65914 127.411 5.67674C127.737 4.69434 127.891 3.63849 127.881 2.50918H130.62L130.611 2.5Z" fill="#24408F"/>
<path d="M149.105 19.6136C150.903 19.7972 152.268 20.3481 153.199 21.2754C154.13 22.2027 154.591 23.3871 154.591 24.8377C154.591 26.4445 154.013 27.7482 152.856 28.7306C151.699 29.713 150.027 30.2088 147.83 30.2088C145.634 30.2088 143.925 29.713 142.787 28.7306C141.648 27.7482 141.078 26.4445 141.078 24.8377C141.078 23.4146 141.539 22.2394 142.452 21.3213C143.365 20.4032 144.694 19.8523 146.438 19.6503V17.2081H138.529V14.1599H157.149V17.2081H149.114V19.6228L149.105 19.6136ZM141.521 2.80255H150.515C151.319 2.80255 152.187 2.78419 153.109 2.73828C153.579 2.73828 153.723 3.11472 153.552 3.8584C153.353 4.70309 153 5.51104 152.485 6.29146C151.979 7.06269 151.337 7.80638 150.569 8.51334C151.401 8.93568 152.286 9.29375 153.208 9.59674C154.13 9.89972 155.079 10.1476 156.055 10.3496L155.143 13.0306C153.922 12.7092 152.756 12.3236 151.636 11.8645C150.515 11.4146 149.43 10.8454 148.382 10.1568C147.315 10.8179 146.158 11.4055 144.893 11.9104C143.627 12.4154 142.298 12.8102 140.897 13.0856L139.921 10.3496C141.322 10.0925 142.579 9.77118 143.672 9.39475C144.766 9.01831 145.724 8.61433 146.547 8.19199C147.36 7.76965 148.038 7.33813 148.562 6.89742C149.096 6.45672 149.493 6.05274 149.764 5.66713V5.63958C148.996 5.67631 148.246 5.71303 147.505 5.74976C146.764 5.7773 146.004 5.79566 145.245 5.79566H141.521V2.81173V2.80255ZM147.83 22.4139C147.08 22.4139 146.447 22.4781 145.941 22.6067C145.435 22.7352 145.019 22.9188 144.712 23.1484C144.405 23.3779 144.179 23.6442 144.043 23.9288C143.907 24.2226 143.844 24.5164 143.844 24.8194C143.844 25.1407 143.907 25.4529 144.043 25.7375C144.179 26.0313 144.405 26.2884 144.712 26.5179C145.028 26.7475 145.435 26.9311 145.941 27.078C146.447 27.2157 147.08 27.2892 147.83 27.2892C148.58 27.2892 149.213 27.2157 149.719 27.078C150.225 26.9403 150.641 26.7475 150.949 26.5179C151.265 26.2884 151.482 26.0221 151.617 25.7375C151.753 25.4529 151.816 25.1407 151.816 24.8194C151.816 24.5164 151.753 24.2226 151.617 23.9288C151.482 23.635 151.256 23.3779 150.949 23.1484C150.641 22.9188 150.225 22.7352 149.719 22.6067C149.213 22.4781 148.58 22.4139 147.83 22.4139Z" fill="#24408F"/>
<path d="M160.332 14.6645C160.332 13.9759 160.495 13.4158 160.811 12.9568C161.127 12.5069 161.543 12.2773 162.058 12.2773C162.574 12.2773 162.98 12.5069 163.306 12.9568C163.622 13.4066 163.785 13.9759 163.785 14.6645C163.785 15.3531 163.622 15.9132 163.306 16.3722C162.989 16.8221 162.574 17.0516 162.058 17.0516C161.543 17.0516 161.136 16.8221 160.811 16.3722C160.495 15.9223 160.332 15.3531 160.332 14.6645Z" fill="#24408F"/>
<path d="M169.326 14.756L169.217 7.60373H171.793L171.874 14.756H174.369C174.613 14.756 174.857 14.7468 175.101 14.7284L175.183 7.60373H177.759L177.65 14.453C178.093 14.3704 178.536 14.2786 178.979 14.1776C179.422 14.0766 179.883 13.948 180.353 13.7828V16.8034C179.359 17.2074 178.292 17.4737 177.144 17.6206C175.996 17.7583 174.839 17.8317 173.682 17.8317H167.156V14.756H169.326ZM167.563 6.69478V3.55477H179.232V6.69478H167.563ZM183.923 29.4461H171.215V20.7606H173.872V26.2786H183.923V29.4461ZM180.904 2.02148H183.544V22.7805H180.904V2.02148Z" fill="#24408F"/>
<path d="M186.092 20.0363V16.9331H204.332V20.0363H196.739V29.842H194.064V20.0363H186.092ZM196.974 2.5C197.002 3.20696 196.974 3.88638 196.893 4.54744C196.812 5.20849 196.667 5.86955 196.468 6.51224C196.821 7.2192 197.255 7.85272 197.779 8.41278C198.294 8.97284 198.864 9.47781 199.469 9.91852C200.075 10.3592 200.726 10.7448 201.412 11.0845C202.099 11.4151 202.804 11.6813 203.528 11.8833L202.19 14.8397C200.744 14.3806 199.424 13.692 198.222 12.7831C197.02 11.8741 195.98 10.7907 195.085 9.52372C194.281 10.7907 193.296 11.9017 192.13 12.8474C190.964 13.793 189.725 14.5275 188.388 15.0509L187.005 12.1588C188.153 11.7364 189.174 11.2039 190.078 10.5612C190.982 9.91852 191.732 9.18401 192.356 8.37605C192.97 7.55891 193.44 6.65914 193.766 5.67674C194.091 4.69434 194.245 3.63849 194.236 2.50918H196.974V2.5Z" fill="#24408F"/>
<path d="M214.881 4.88606H218.831V2.02148H221.47V18.4928H218.831V14.15H215.152C214.7 14.958 214.122 15.5915 213.435 16.0506C212.739 16.5096 211.961 16.7483 211.094 16.7483C210.325 16.7483 209.629 16.5647 209.015 16.2066C208.391 15.8486 207.849 15.3436 207.397 14.7101C206.945 14.0766 206.592 13.3329 206.339 12.4882C206.095 11.6435 205.969 10.7254 205.969 9.74298C205.969 8.76058 206.095 7.83327 206.339 6.9794C206.592 6.12554 206.936 5.38185 207.397 4.74834C207.849 4.11483 208.391 3.60985 209.015 3.2426C209.638 2.86617 210.334 2.68254 211.094 2.68254C211.853 2.68254 212.603 2.87535 213.236 3.27015C213.878 3.66494 214.42 4.19746 214.872 4.88606H214.881ZM215.071 18.2541C216.174 18.2541 217.141 18.4102 217.972 18.7223C218.804 19.0345 219.491 19.4568 220.042 19.9893C220.593 20.5219 221.009 21.1554 221.28 21.8715C221.561 22.5968 221.696 23.3773 221.696 24.2219C221.696 25.0666 221.561 25.8562 221.28 26.5724C221 27.2977 220.593 27.922 220.042 28.4545C219.491 28.9871 218.795 29.4094 217.972 29.7216C217.141 30.0337 216.174 30.1898 215.071 30.1898C213.968 30.1898 213.001 30.0337 212.178 29.7216C211.356 29.4094 210.669 28.9871 210.127 28.4545C209.584 27.922 209.168 27.2977 208.888 26.5724C208.617 25.847 208.472 25.0666 208.472 24.2219C208.472 23.3773 208.608 22.5968 208.888 21.8715C209.168 21.1462 209.575 20.5219 210.127 19.9893C210.669 19.4568 211.356 19.0345 212.178 18.7223C213.001 18.4102 213.968 18.2541 215.071 18.2541ZM208.545 9.74298C208.545 10.9274 208.771 11.8822 209.232 12.5984C209.693 13.3145 210.316 13.6726 211.094 13.6726C211.871 13.6726 212.468 13.3145 212.929 12.5984C213.39 11.8822 213.616 10.9366 213.616 9.74298C213.616 8.54941 213.39 7.6221 212.929 6.88759C212.468 6.15308 211.853 5.78583 211.094 5.78583C210.334 5.78583 209.711 6.15308 209.241 6.88759C208.771 7.6221 208.536 8.57695 208.536 9.74298H208.545ZM215.071 21.3023C214.348 21.3023 213.742 21.3849 213.245 21.541C212.748 21.7063 212.341 21.9174 212.034 22.1929C211.726 22.4683 211.491 22.7805 211.356 23.1294C211.211 23.4783 211.139 23.8455 211.139 24.2311C211.139 24.6167 211.211 24.984 211.356 25.3329C211.5 25.6818 211.726 25.9939 212.034 26.2694C212.35 26.5448 212.748 26.756 213.245 26.9213C213.742 27.0865 214.348 27.16 215.071 27.16C215.794 27.16 216.409 27.0773 216.915 26.9213C217.421 26.7652 217.828 26.5448 218.144 26.2694C218.46 25.9939 218.695 25.6818 218.831 25.3329C218.976 24.984 219.048 24.6167 219.048 24.2311C219.048 23.8455 218.976 23.4783 218.831 23.1294C218.686 22.7805 218.46 22.4683 218.144 22.1929C217.828 21.9174 217.412 21.7063 216.915 21.541C216.409 21.3849 215.794 21.3023 215.071 21.3023ZM216.11 11.2487H218.849V7.75064H216.02C216.146 8.39333 216.21 9.05438 216.21 9.74298C216.21 10.0001 216.201 10.2571 216.174 10.5142C216.155 10.7621 216.128 11.01 216.101 11.2487H216.11Z" fill="#24408F"/>
<path d="M224.1 8.50372V5.9054H236.049V8.50372H224.1ZM230.092 18.0982C229.324 18.0982 228.655 17.9697 228.086 17.7218C227.516 17.4739 227.037 17.1434 226.649 16.7302C226.269 16.317 225.971 15.8488 225.781 15.3163C225.582 14.7838 225.483 14.2237 225.483 13.6453C225.483 13.0668 225.582 12.5343 225.781 12.0018C225.98 11.4693 226.269 10.9919 226.649 10.5879C227.028 10.1747 227.507 9.85338 228.086 9.60548C228.664 9.36677 229.333 9.24741 230.092 9.24741C230.852 9.24741 231.502 9.36677 232.081 9.60548C232.65 9.8442 233.138 10.1747 233.527 10.5879C233.916 11.001 234.214 11.4693 234.413 12.0018C234.612 12.5343 234.711 13.0852 234.711 13.6453C234.711 14.2053 234.612 14.7838 234.413 15.3163C234.214 15.8488 233.925 16.3262 233.527 16.7302C233.138 17.1434 232.659 17.4739 232.081 17.7218C231.511 17.9697 230.843 18.0982 230.092 18.0982ZM226.63 4.58329V1.90234H233.663V4.58329H226.63ZM240.406 29.5657H227.824V19.4571H230.463V21.5688H237.82V19.2459H240.415V29.5657H240.406ZM230.092 15.4815C230.861 15.4815 231.403 15.2887 231.728 14.9123C232.054 14.5267 232.216 14.1043 232.216 13.6453C232.216 13.1403 232.054 12.7088 231.737 12.3507C231.421 11.9926 230.87 11.809 230.092 11.809C229.315 11.809 228.746 11.9926 228.42 12.3507C228.104 12.7088 227.941 13.1495 227.941 13.6453C227.941 14.1411 228.104 14.5542 228.42 14.9307C228.737 15.3071 229.297 15.4907 230.092 15.4907V15.4815ZM237.811 26.6736V24.415H230.436V26.6736H237.811ZM235.344 12.314V9.47694H237.793V2.0217H240.433V18.0707H237.793V17.1342H235.344V14.2971H237.811V12.3048H235.344V12.314Z" fill="#24408F"/>
<path d="M251.289 20.3015V22.505C252.211 22.4408 253.124 22.3673 254.028 22.2663C254.932 22.1653 255.799 22.0368 256.622 21.8715V24.8555C255.872 25.0207 255.076 25.1493 254.245 25.2594C253.404 25.3696 252.555 25.4614 251.696 25.5349C250.828 25.6083 249.969 25.6634 249.111 25.7001C248.252 25.7369 247.439 25.7644 246.679 25.7644H243.299V22.6887H247.61C247.954 22.6887 248.306 22.6795 248.677 22.6611V20.3382C247.484 20.0995 246.58 19.5395 245.956 18.6764C245.333 17.8134 245.016 16.7667 245.016 15.5364C245.016 14.8478 245.125 14.2143 245.333 13.6175C245.549 13.0207 245.857 12.5157 246.282 12.075C246.697 11.6435 247.213 11.3038 247.809 11.0651C248.415 10.8264 249.111 10.707 249.906 10.707C250.702 10.707 251.379 10.8264 251.976 11.0651C252.582 11.3038 253.088 11.6435 253.504 12.075C253.919 12.5066 254.236 13.0207 254.453 13.6175C254.67 14.2143 254.769 14.8478 254.769 15.5364C254.769 16.7392 254.471 17.7675 253.874 18.6122C253.278 19.4568 252.41 20.0169 251.28 20.3015H251.289ZM243.769 9.99088V7.08958H255.971V9.99088H243.769ZM246.164 5.75829V2.8019H253.395V5.75829H246.164ZM252.166 15.5364C252.166 14.9488 252.003 14.453 251.669 14.0398C251.334 13.6267 250.747 13.4247 249.915 13.4247C249.084 13.4247 248.469 13.6267 248.144 14.0398C247.818 14.453 247.646 14.9488 247.646 15.5364C247.646 16.1791 247.809 16.6933 248.144 17.088C248.478 17.4828 249.066 17.6757 249.915 17.6757C250.765 17.6757 251.334 17.4828 251.669 17.088C252.003 16.6933 252.166 16.1791 252.166 15.5364ZM259.858 29.9878H257.246V2.02148H259.858V29.9878Z" fill="#24408F"/>
<path d="M54.9924 11.9642L53.8535 10.9175C54.3868 10.4585 54.8659 9.96268 55.3088 9.40262C55.7426 8.85174 56.1132 8.21823 56.4024 7.51127C56.7007 6.80431 56.9177 6.00553 57.0532 5.12412C57.1888 4.23353 57.225 3.23277 57.1707 2.10346H58.7977C58.8158 2.75534 58.7977 3.37049 58.7525 3.94891C58.7073 4.52733 58.635 5.0874 58.5446 5.61991C58.8791 6.66658 59.3039 7.58472 59.8372 8.36513C60.3705 9.14554 61.0303 9.85251 61.8257 10.4677L60.7682 11.6888C59.5389 10.6972 58.5808 9.44853 57.8938 7.94279C57.5684 8.76911 57.1707 9.50362 56.6826 10.1647C56.1946 10.8257 55.6341 11.4225 55.0014 11.955L54.9924 11.9642ZM65.4051 7.64899H63.5431V14.7829H61.9703V1.30469H63.5431V6.09734H65.4051V7.63981V7.64899Z" fill="#24408F"/>
<path d="M66.1555 1.9925H71.8228V3.50742H67.7373V7.34522H68.8943C69.6354 7.34522 70.3495 7.29013 71.0365 7.17996C71.7234 7.06978 72.3652 6.9596 72.9617 6.84943V8.2909C72.6815 8.36435 72.3652 8.4378 72.0126 8.51125C71.6601 8.57552 71.2895 8.63979 70.9099 8.68569C70.5212 8.7316 70.1326 8.76832 69.7258 8.80505C69.3191 8.83259 68.9214 8.85096 68.5327 8.85096H66.1465V1.9925H66.1555ZM75.1039 14.525H67.5836V10.5311H69.1654V13.0009H75.1039V14.525ZM76.6224 6.36282H74.8599V11.3024H73.2961V1.32227H74.8599V4.82035H76.6224V6.36282Z" fill="#24408F"/>
<path d="M60.4966 21.6697H62.5032V18.75H64.0759V25.9114H62.5032V23.1203H60.4966V25.535H54.9648V19.1356H56.5105V21.027H58.969V19.1356H60.4875V21.6605L60.4966 21.6697ZM58.9781 22.4684H56.5195V24.1119H58.9781V22.4684ZM64.0759 32.0262H56.5918V26.5725H58.1284V27.8212H62.5122V26.499H64.0759V32.0262ZM62.5212 30.5296V29.2626H58.1374V30.5296H62.5212Z" fill="#24408F"/>
<path d="M66.002 22.7806C66.002 22.2756 66.0743 21.8074 66.2279 21.385C66.3816 20.9627 66.5895 20.5863 66.8697 20.2741C67.1408 19.9619 67.4753 19.714 67.8549 19.5304C68.2345 19.3468 68.6503 19.2642 69.1113 19.2642C69.5723 19.2642 69.9881 19.356 70.3767 19.5304C70.7654 19.714 71.0998 19.9528 71.38 20.2741C71.6602 20.5863 71.8772 20.9627 72.0308 21.385C72.1845 21.8074 72.2658 22.2756 72.2658 22.7806C72.2658 23.2856 72.1845 23.7171 72.0308 24.1394C71.8772 24.5618 71.6602 24.929 71.38 25.2412C71.0998 25.5534 70.7654 25.7921 70.3767 25.9757C69.9881 26.1593 69.5632 26.242 69.1113 26.242C68.6594 26.242 68.2345 26.1502 67.8459 25.9757C67.4572 25.7921 67.1318 25.5534 66.8606 25.2412C66.5895 24.929 66.3816 24.5618 66.2279 24.1394C66.0743 23.7171 66.002 23.2672 66.002 22.7806ZM67.6289 22.7806C67.6289 23.3682 67.7645 23.8365 68.0266 24.1853C68.2888 24.5342 68.6594 24.6995 69.1384 24.6995C69.6175 24.6995 69.9609 24.5251 70.2411 24.1853C70.5213 23.8456 70.6569 23.3774 70.6569 22.7806C70.6569 22.1471 70.5213 21.6605 70.2411 21.3024C69.9609 20.9535 69.5903 20.7699 69.1384 20.7699C68.6865 20.7699 68.3068 20.9443 68.0357 21.3024C67.7645 21.6605 67.6289 22.1471 67.6289 22.7806ZM75.6192 31.9619H67.9363V27.8028H69.5V30.4378H75.6282V31.9619H75.6192ZM75.3752 28.3261H73.8115V18.75H75.3752V28.3261Z" fill="#24408F"/>
<path d="M54.9199 47.8082V36.7539H56.9808V41.6659L61.1476 36.7539H63.9225L60.0811 41.06L64.1304 47.8082H61.464L58.662 42.6208L56.9898 44.4662V47.8082H54.929H54.9199Z" fill="#24408F"/>
<path d="M64.7266 43.6937C64.7266 42.9867 64.8893 42.3073 65.2056 41.6463C65.522 40.9852 65.983 40.4894 66.5705 40.1405C67.158 39.7916 67.8088 39.6172 68.5409 39.6172C69.6617 39.6172 70.5746 40.012 71.2887 40.8016C72.0028 41.5912 72.3643 42.5828 72.3643 43.7855C72.3643 44.9883 72.0028 45.9982 71.2797 46.797C70.5566 47.5958 69.6527 47.9906 68.55 47.9906C67.872 47.9906 67.2213 47.8253 66.6066 47.4948C65.992 47.1642 65.522 46.6776 65.2056 46.0349C64.8893 45.3922 64.7266 44.6118 64.7266 43.6937ZM66.7332 43.8039C66.7332 44.6026 66.9049 45.2086 67.2574 45.631C67.6099 46.0533 68.0347 46.2645 68.55 46.2645C69.0652 46.2645 69.49 46.0533 69.8335 45.631C70.1769 45.2086 70.3487 44.5935 70.3487 43.7947C70.3487 42.9959 70.1769 42.4083 69.8335 41.986C69.49 41.5636 69.0561 41.3525 68.55 41.3525C68.0438 41.3525 67.6099 41.5636 67.2574 41.986C66.9049 42.4083 66.7332 43.0143 66.7332 43.8131V43.8039Z" fill="#24408F"/>
<path d="M75.7629 47.8069H73.8105V39.8008H75.6273V40.9393C75.9347 40.3976 76.2149 40.0487 76.4679 39.8743C76.712 39.6998 77.0012 39.6172 77.3176 39.6172C77.7605 39.6172 78.1943 39.7457 78.6101 40.012L78.0045 41.8574C77.6791 41.6279 77.3718 41.5085 77.0826 41.5085C76.7933 41.5085 76.5764 41.5912 76.3866 41.7564C76.1968 41.9217 76.0431 42.2155 75.9347 42.6378C75.8262 43.0694 75.772 43.96 75.772 45.3188V47.7886L75.7629 47.8069Z" fill="#24408F"/>
<path d="M83.7171 45.2637L85.6695 45.6218C85.4164 46.393 85.0187 46.9898 84.4854 47.3938C83.9431 47.7978 83.2652 47.9997 82.4517 47.9997C81.1682 47.9997 80.2101 47.5407 79.5954 46.6317C79.1073 45.9064 78.8633 44.9791 78.8633 43.8681C78.8633 42.5368 79.1796 41.4994 79.8214 40.7465C80.4631 39.9936 81.2676 39.6172 82.2528 39.6172C83.3555 39.6172 84.2233 40.012 84.856 40.8016C85.4887 41.5912 85.796 42.7939 85.7689 44.419H80.8699C80.888 45.0434 81.0416 45.5391 81.3399 45.888C81.6382 46.2369 82.0178 46.4114 82.4697 46.4114C82.7771 46.4114 83.0301 46.3196 83.2471 46.1359C83.455 45.9523 83.6177 45.6677 83.7171 45.2637ZM83.8346 43.1153C83.8165 42.5001 83.6719 42.0319 83.3917 41.7197C83.1115 41.3984 82.7771 41.2423 82.3794 41.2423C81.9545 41.2423 81.602 41.4075 81.3218 41.7473C81.0416 42.087 80.906 42.546 80.9151 43.1245H83.8436L83.8346 43.1153Z" fill="#24408F"/>
<path d="M88.833 42.243L87.0614 41.8942C87.2603 41.1229 87.6037 40.5445 88.0918 40.1772C88.5799 39.8008 89.303 39.6172 90.2611 39.6172C91.1379 39.6172 91.7796 39.7274 92.2135 39.9569C92.6383 40.1772 92.9456 40.4619 93.1174 40.8108C93.2891 41.1597 93.3795 41.784 93.3795 42.7113L93.3614 45.1811C93.3614 45.888 93.3885 46.4022 93.4518 46.7419C93.5151 47.0724 93.6326 47.4305 93.8043 47.8161H91.87C91.8158 47.6784 91.7525 47.4672 91.6802 47.1918C91.6441 47.0632 91.626 46.9806 91.6079 46.9439C91.2735 47.2928 90.9119 47.559 90.5323 47.7335C90.1527 47.9079 89.7459 47.9997 89.3121 47.9997C88.5528 47.9997 87.9472 47.7794 87.5133 47.3295C87.0704 46.8796 86.8535 46.3196 86.8535 45.631C86.8535 45.1811 86.9529 44.7771 87.1518 44.419C87.3506 44.061 87.6309 43.7947 87.9924 43.6019C88.354 43.4091 88.8692 43.253 89.5471 43.1061C90.46 42.9225 91.0927 42.748 91.4452 42.5828V42.3716C91.4452 41.9676 91.3548 41.6738 91.165 41.4994C90.9752 41.3249 90.6317 41.2423 90.1165 41.2423C89.764 41.2423 89.4928 41.3157 89.303 41.4626C89.1042 41.6095 88.9505 41.8666 88.833 42.243ZM91.4452 43.96C91.1921 44.0518 90.7944 44.1619 90.2521 44.2813C89.7098 44.4098 89.3573 44.5292 89.1855 44.6486C88.9324 44.8414 88.8059 45.0893 88.8059 45.3922C88.8059 45.6952 88.9053 45.9431 89.1132 46.1635C89.3211 46.3838 89.5742 46.4848 89.8905 46.4848C90.2431 46.4848 90.5775 46.3563 90.9029 46.1084C91.1379 45.9156 91.2915 45.686 91.3729 45.4106C91.4271 45.227 91.4452 44.8873 91.4452 44.3823V43.96Z" fill="#24408F"/>
<path d="M99.2637 36.7533H101.325V42.7395C101.325 43.6944 101.352 44.3096 101.397 44.585C101.487 45.0349 101.695 45.4021 102.03 45.6776C102.364 45.953 102.816 46.0907 103.394 46.0907C103.973 46.0907 104.416 45.9622 104.714 45.7051C105.012 45.448 105.193 45.1267 105.247 44.7503C105.311 44.3738 105.338 43.7495 105.338 42.8681V36.7533H107.399V42.5559C107.399 43.8872 107.344 44.8237 107.236 45.3654C107.127 45.9163 106.92 46.3754 106.621 46.7518C106.323 47.1282 105.925 47.4312 105.419 47.6516C104.922 47.8719 104.262 47.9913 103.458 47.9913C102.481 47.9913 101.74 47.8719 101.243 47.624C100.737 47.3761 100.339 47.064 100.05 46.6783C99.7608 46.2927 99.562 45.8796 99.4716 45.448C99.336 44.8145 99.2727 43.878 99.2727 42.6386V36.7441L99.2637 36.7533Z" fill="#24408F"/>
<path d="M116.294 47.8069H114.342V43.7212C114.342 42.8582 114.297 42.2981 114.216 42.0411C114.134 41.784 113.999 41.5912 113.809 41.4535C113.619 41.3157 113.393 41.2423 113.131 41.2423C112.796 41.2423 112.489 41.3433 112.218 41.5453C111.947 41.7473 111.766 42.0135 111.667 42.344C111.567 42.6746 111.513 43.2897 111.513 44.1803V47.8069H109.561V39.8008H111.377V40.976C112.019 40.0671 112.833 39.6172 113.818 39.6172C114.252 39.6172 114.64 39.6998 115.002 39.8651C115.363 40.0303 115.626 40.2507 115.815 40.5078C115.996 40.774 116.123 41.0678 116.195 41.3984C116.267 41.7289 116.303 42.2063 116.303 42.8215V47.7978L116.294 47.8069Z" fill="#24408F"/>
<path d="M125.052 47.8082H123.235V46.633C122.937 47.0921 122.575 47.4318 122.169 47.6521C121.762 47.8725 121.346 47.9919 120.93 47.9919C120.081 47.9919 119.349 47.6246 118.743 46.8809C118.137 46.1372 117.83 45.1089 117.83 43.7776C117.83 42.4463 118.128 41.3905 118.716 40.6835C119.303 39.9766 120.054 39.6277 120.948 39.6277C121.771 39.6277 122.494 40.0041 123.091 40.7386V36.7539H125.043V47.8082H125.052ZM119.837 43.6307C119.837 44.4846 119.945 45.0997 120.162 45.4854C120.478 46.0362 120.921 46.3117 121.482 46.3117C121.934 46.3117 122.313 46.1005 122.63 45.6873C122.946 45.2742 123.1 44.6499 123.1 43.8327C123.1 42.9146 122.946 42.2535 122.639 41.8495C122.331 41.4456 121.943 41.2436 121.464 41.2436C120.985 41.2436 120.614 41.4456 120.298 41.8404C119.981 42.2443 119.828 42.8411 119.828 43.6307H119.837Z" fill="#24408F"/>
<path d="M131.27 45.2637L133.222 45.6218C132.969 46.393 132.571 46.9898 132.038 47.3938C131.496 47.7978 130.818 47.9997 130.004 47.9997C128.721 47.9997 127.763 47.5407 127.148 46.6317C126.66 45.9064 126.416 44.9791 126.416 43.8681C126.416 42.5368 126.732 41.4994 127.374 40.7465C128.016 39.9936 128.82 39.6172 129.806 39.6172C130.908 39.6172 131.776 40.012 132.409 40.8016C133.041 41.5912 133.349 42.7939 133.322 44.419H128.423C128.441 45.0434 128.594 45.5391 128.893 45.888C129.191 46.2369 129.571 46.4114 130.022 46.4114C130.33 46.4114 130.583 46.3196 130.8 46.1359C131.008 45.9523 131.17 45.6677 131.27 45.2637ZM131.378 43.1153C131.369 42.5001 131.216 42.0319 130.944 41.7197C130.664 41.3984 130.33 41.2423 129.932 41.2423C129.507 41.2423 129.155 41.4075 128.875 41.7473C128.594 42.087 128.459 42.546 128.468 43.1245H131.396L131.378 43.1153Z" fill="#24408F"/>
<path d="M136.794 47.8069H134.842V39.8008H136.659V40.9393C136.966 40.3976 137.246 40.0487 137.499 39.8743C137.743 39.6998 138.032 39.6172 138.349 39.6172C138.792 39.6172 139.226 39.7457 139.632 40.012L139.027 41.8574C138.701 41.6279 138.394 41.5085 138.105 41.5085C137.816 41.5085 137.599 41.5912 137.409 41.7564C137.219 41.9217 137.065 42.2155 136.957 42.6378C136.848 43.0694 136.794 43.96 136.794 45.3188V47.7886V47.8069Z" fill="#24408F"/>
<path d="M141.847 47.8069L139.506 39.8008H141.404L142.787 45.0525L144.061 39.8008H145.951L147.18 45.0525L148.59 39.8008H150.515L148.138 47.8069H146.258L144.983 42.6562L143.727 47.8069H141.829H141.847Z" fill="#24408F"/>
<path d="M153.017 42.243L151.245 41.8942C151.444 41.1229 151.787 40.5445 152.275 40.1772C152.764 39.8008 153.487 39.6172 154.445 39.6172C155.321 39.6172 155.972 39.7274 156.397 39.9569C156.822 40.1772 157.12 40.4619 157.301 40.8108C157.473 41.1597 157.563 41.784 157.563 42.7113L157.545 45.1811C157.545 45.888 157.572 46.4022 157.635 46.7419C157.699 47.0724 157.816 47.4305 157.988 47.8161H156.054C155.999 47.6784 155.936 47.4672 155.864 47.1918C155.828 47.0632 155.81 46.9806 155.791 46.9439C155.457 47.2928 155.105 47.559 154.716 47.7335C154.336 47.9079 153.93 47.9997 153.496 47.9997C152.736 47.9997 152.131 47.7794 151.697 47.3295C151.263 46.8796 151.037 46.3196 151.037 45.631C151.037 45.1811 151.137 44.7771 151.335 44.419C151.534 44.061 151.814 43.7947 152.176 43.6019C152.538 43.4091 153.053 43.253 153.731 43.1061C154.644 42.9225 155.276 42.748 155.629 42.5828V42.3716C155.629 41.9676 155.538 41.6738 155.349 41.4994C155.168 41.3249 154.815 41.2423 154.3 41.2423C153.948 41.2423 153.676 41.3157 153.487 41.4626C153.288 41.6095 153.134 41.8666 153.017 42.243ZM155.638 43.96C155.385 44.0518 154.987 44.1619 154.445 44.2813C153.902 44.4098 153.55 44.5292 153.378 44.6486C153.125 44.8414 152.999 45.0893 152.999 45.3922C152.999 45.6952 153.098 45.9431 153.306 46.1635C153.514 46.3838 153.767 46.4848 154.083 46.4848C154.436 46.4848 154.77 46.3563 155.096 46.1084C155.331 45.9156 155.484 45.686 155.566 45.4106C155.62 45.227 155.638 44.8873 155.638 44.3823V43.96Z" fill="#24408F"/>
<path d="M162.878 39.8019V41.4912H161.541V44.7231C161.541 45.3749 161.55 45.7606 161.577 45.8616C161.604 45.9717 161.658 46.0544 161.748 46.1278C161.839 46.2013 161.947 46.2288 162.083 46.2288C162.264 46.2288 162.526 46.1645 162.869 46.0268L163.041 47.6703C162.589 47.8814 162.074 47.9824 161.495 47.9824C161.143 47.9824 160.826 47.9182 160.546 47.7896C160.266 47.6611 160.058 47.4958 159.923 47.2938C159.787 47.0919 159.697 46.8164 159.651 46.4675C159.606 46.2196 159.588 45.7238 159.588 44.971V41.4821H158.693V39.7927H159.588V38.2043L161.55 36.9648V39.7927H162.887L162.878 39.8019Z" fill="#24408F"/>
<path d="M168.52 45.2637L170.472 45.6218C170.219 46.393 169.821 46.9898 169.288 47.3938C168.746 47.7978 168.068 47.9997 167.254 47.9997C165.971 47.9997 165.022 47.5407 164.398 46.6317C163.91 45.9064 163.666 44.9791 163.666 43.8681C163.666 42.5368 163.982 41.4994 164.624 40.7465C165.266 39.9936 166.079 39.6172 167.056 39.6172C168.158 39.6172 169.026 40.012 169.659 40.8016C170.291 41.5912 170.599 42.7939 170.572 44.419H165.673C165.691 45.0434 165.844 45.5391 166.143 45.888C166.441 46.2369 166.821 46.4114 167.272 46.4114C167.58 46.4114 167.833 46.3196 168.05 46.1359C168.258 45.9523 168.42 45.6677 168.52 45.2637ZM168.637 43.1153C168.628 42.5001 168.475 42.0319 168.203 41.7197C167.923 41.3984 167.589 41.2423 167.191 41.2423C166.766 41.2423 166.414 41.4075 166.134 41.7473C165.853 42.087 165.718 42.546 165.727 43.1245H168.655L168.637 43.1153Z" fill="#24408F"/>
<path d="M174.042 47.8069H172.09V39.8008H173.907V40.9393C174.214 40.3976 174.494 40.0487 174.747 39.8743C174.991 39.6998 175.281 39.6172 175.597 39.6172C176.04 39.6172 176.474 39.7457 176.88 40.012L176.275 41.8574C175.949 41.6279 175.642 41.5085 175.353 41.5085C175.064 41.5085 174.847 41.5912 174.657 41.7564C174.467 41.9217 174.313 42.2155 174.205 42.6378C174.096 43.0694 174.042 43.96 174.042 45.3188V47.7886V47.8069Z" fill="#24408F"/>
<path d="M190.375 47.8082H188.133L187.239 45.2925H183.153L182.312 47.8082H180.125L184.102 36.7539H186.28L190.366 47.8082H190.375ZM186.579 43.4379L185.169 39.3339L183.786 43.4379H186.57H186.579Z" fill="#24408F"/>
<path d="M190.765 45.5214L192.726 45.2C192.808 45.6132 192.979 45.9253 193.232 46.1365C193.486 46.3477 193.847 46.4579 194.308 46.4579C194.814 46.4579 195.194 46.3569 195.447 46.1549C195.619 46.0172 195.709 45.8244 195.709 45.5856C195.709 45.4296 195.664 45.2918 195.574 45.1908C195.474 45.0898 195.257 44.998 194.923 44.9154C193.341 44.539 192.347 44.1901 191.922 43.8871C191.334 43.4556 191.045 42.8588 191.045 42.0876C191.045 41.399 191.298 40.8113 191.804 40.3339C192.311 39.8657 193.097 39.627 194.154 39.627C195.212 39.627 195.917 39.8014 196.414 40.1595C196.902 40.5175 197.246 41.0409 197.426 41.7387L195.583 42.1059C195.501 41.7937 195.357 41.555 195.131 41.3898C194.914 41.2245 194.597 41.1419 194.191 41.1419C193.675 41.1419 193.305 41.2153 193.088 41.3714C192.943 41.4816 192.862 41.6285 192.862 41.8029C192.862 41.959 192.925 42.0784 193.052 42.1885C193.232 42.3263 193.838 42.5283 194.878 42.7853C195.917 43.0424 196.649 43.3546 197.056 43.731C197.463 44.1074 197.671 44.6308 197.671 45.3102C197.671 46.0447 197.39 46.6782 196.821 47.2016C196.251 47.7249 195.42 47.9911 194.308 47.9911C193.305 47.9911 192.5 47.7708 191.913 47.3301C191.325 46.8894 190.937 46.2834 190.756 45.5306L190.765 45.5214Z" fill="#24408F"/>
<path d="M198.691 45.5216L200.652 45.2003C200.733 45.6134 200.905 45.9256 201.158 46.1368C201.411 46.3479 201.773 46.4581 202.234 46.4581C202.74 46.4581 203.12 46.3571 203.373 46.1551C203.544 46.0174 203.635 45.8246 203.635 45.5859C203.635 45.4298 203.59 45.2921 203.499 45.1911C203.4 45.0901 203.183 44.9983 202.849 44.9156C201.267 44.5392 200.272 44.1903 199.848 43.8873C199.26 43.4558 198.971 42.859 198.971 42.0878C198.971 41.3992 199.224 40.8116 199.73 40.3342C200.236 39.8659 201.023 39.6272 202.08 39.6272C203.138 39.6272 203.843 39.8016 204.34 40.1597C204.828 40.5178 205.171 41.0411 205.352 41.7389L203.508 42.1062C203.427 41.794 203.282 41.5553 203.056 41.39C202.839 41.2248 202.523 41.1421 202.116 41.1421C201.601 41.1421 201.231 41.2156 201.014 41.3717C200.869 41.4818 200.788 41.6287 200.788 41.8032C200.788 41.9593 200.851 42.0786 200.977 42.1888C201.158 42.3265 201.764 42.5285 202.803 42.7856C203.843 43.0427 204.575 43.3548 204.982 43.7313C205.388 44.1077 205.596 44.631 205.596 45.3104C205.596 46.0449 205.316 46.6785 204.747 47.2018C204.177 47.7251 203.346 47.9914 202.234 47.9914C201.231 47.9914 200.426 47.771 199.839 47.3303C199.251 46.8896 198.871 46.2837 198.682 45.5308L198.691 45.5216Z" fill="#24408F"/>
<path d="M206.861 43.6937C206.861 42.9867 207.024 42.3073 207.34 41.6463C207.666 40.9852 208.118 40.4894 208.705 40.1405C209.293 39.7916 209.944 39.6172 210.676 39.6172C211.796 39.6172 212.709 40.012 213.423 40.8016C214.138 41.5912 214.499 42.5828 214.499 43.7855C214.499 44.9883 214.138 45.9982 213.414 46.797C212.691 47.5958 211.787 47.9906 210.685 47.9906C210.007 47.9906 209.356 47.8253 208.741 47.4948C208.127 47.1642 207.657 46.6776 207.34 46.0349C207.024 45.3922 206.861 44.6118 206.861 43.6937ZM208.868 43.8039C208.868 44.6026 209.04 45.2086 209.392 45.631C209.736 46.0533 210.17 46.2645 210.685 46.2645C211.2 46.2645 211.625 46.0533 211.968 45.631C212.312 45.2086 212.483 44.5935 212.483 43.7947C212.483 42.9959 212.312 42.4083 211.968 41.986C211.625 41.5636 211.191 41.3525 210.685 41.3525C210.179 41.3525 209.745 41.5636 209.392 41.986C209.049 42.4083 208.868 43.0143 208.868 43.8131V43.8039Z" fill="#24408F"/>
<path d="M222.47 42.1708L220.545 42.5472C220.482 42.1249 220.337 41.8127 220.102 41.6015C219.876 41.3904 219.578 41.2894 219.207 41.2894C218.719 41.2894 218.331 41.473 218.041 41.8402C217.752 42.2075 217.607 42.8135 217.607 43.6673C217.607 44.6222 217.752 45.2924 218.05 45.678C218.349 46.0728 218.737 46.2656 219.234 46.2656C219.605 46.2656 219.912 46.1555 220.147 45.9259C220.382 45.6964 220.554 45.3016 220.644 44.7415L222.57 45.0996C222.371 46.0545 221.991 46.7798 221.422 47.2664C220.852 47.753 220.093 48.0009 219.144 48.0009C218.059 48.0009 217.201 47.6337 216.559 46.89C215.917 46.1463 215.592 45.1272 215.592 43.8234C215.592 42.5197 215.917 41.473 216.559 40.7385C217.201 40.004 218.077 39.6367 219.18 39.6367C220.084 39.6367 220.798 39.8479 221.331 40.2702C221.865 40.6926 222.244 41.3261 222.479 42.1891L222.47 42.1708Z" fill="#24408F"/>
<path d="M223.955 38.7173V36.7617H225.907V38.7173H223.955ZM223.955 47.8069V39.8007H225.907V47.8069H223.955Z" fill="#24408F"/>
<path d="M229.386 42.243L227.614 41.8942C227.813 41.1229 228.156 40.5445 228.645 40.1772C229.133 39.8008 229.856 39.6172 230.814 39.6172C231.682 39.6172 232.332 39.7274 232.766 39.9569C233.191 40.1772 233.498 40.4619 233.67 40.8108C233.842 41.1597 233.932 41.784 233.932 42.7113L233.914 45.1811C233.914 45.888 233.95 46.4022 234.005 46.7419C234.068 47.0724 234.185 47.4305 234.357 47.8161H232.423C232.369 47.6784 232.305 47.4672 232.233 47.1918C232.197 47.0632 232.179 46.9806 232.161 46.9439C231.826 47.2928 231.465 47.559 231.085 47.7335C230.705 47.9079 230.299 47.9997 229.865 47.9997C229.106 47.9997 228.5 47.7794 228.066 47.3295C227.623 46.8796 227.406 46.3196 227.406 45.631C227.406 45.1811 227.506 44.7771 227.705 44.419C227.903 44.061 228.184 43.7947 228.545 43.6019C228.907 43.4091 229.422 43.253 230.1 43.1061C231.013 42.9225 231.645 42.748 231.998 42.5828V42.3716C231.998 41.9676 231.908 41.6738 231.718 41.4994C231.528 41.3249 231.184 41.2423 230.669 41.2423C230.317 41.2423 230.046 41.3157 229.856 41.4626C229.666 41.6095 229.503 41.8666 229.386 42.243ZM231.998 43.96C231.745 44.0518 231.347 44.1619 230.805 44.2813C230.263 44.4098 229.91 44.5292 229.738 44.6486C229.485 44.8414 229.359 45.0893 229.359 45.3922C229.359 45.6952 229.458 45.9431 229.666 46.1635C229.874 46.3838 230.127 46.4848 230.443 46.4848C230.796 46.4848 231.13 46.3563 231.456 46.1084C231.691 45.9156 231.844 45.686 231.926 45.4106C231.98 45.227 231.998 44.8873 231.998 44.3823V43.96Z" fill="#24408F"/>
<path d="M239.248 39.8019V41.4912H237.91V44.7231C237.91 45.3749 237.919 45.7606 237.946 45.8616C237.973 45.9717 238.028 46.0544 238.118 46.1278C238.208 46.2013 238.317 46.2288 238.453 46.2288C238.633 46.2288 238.895 46.1645 239.239 46.0268L239.402 47.6703C238.95 47.8814 238.434 47.9824 237.856 47.9824C237.503 47.9824 237.187 47.9182 236.898 47.7896C236.618 47.6611 236.41 47.4958 236.274 47.2938C236.139 47.0919 236.048 46.8164 236.003 46.4675C235.958 46.2196 235.94 45.7238 235.94 44.971V41.4821H235.045V39.7927H235.94V38.2043L237.901 36.9648V39.7927H239.239L239.248 39.8019Z" fill="#24408F"/>
<path d="M240.604 38.7173V36.7617H242.556V38.7173H240.604ZM240.604 47.8069V39.8007H242.556V47.8069H240.604Z" fill="#24408F"/>
<path d="M244.111 43.6937C244.111 42.9867 244.274 42.3073 244.59 41.6463C244.907 40.9852 245.368 40.4894 245.955 40.1405C246.543 39.7916 247.194 39.6172 247.926 39.6172C249.046 39.6172 249.959 40.012 250.673 40.8016C251.388 41.5912 251.749 42.5828 251.749 43.7855C251.749 44.9883 251.388 45.9982 250.664 46.797C249.941 47.5958 249.037 47.9906 247.935 47.9906C247.257 47.9906 246.615 47.8253 245.991 47.4948C245.377 47.1642 244.907 46.6776 244.59 46.0349C244.274 45.3922 244.111 44.6118 244.111 43.6937ZM246.118 43.8039C246.118 44.6026 246.29 45.2086 246.642 45.631C246.986 46.0533 247.42 46.2645 247.926 46.2645C248.432 46.2645 248.866 46.0533 249.209 45.631C249.553 45.2086 249.724 44.5935 249.724 43.7947C249.724 42.9959 249.553 42.4083 249.209 41.986C248.866 41.5636 248.432 41.3525 247.926 41.3525C247.42 41.3525 246.986 41.5636 246.642 41.986C246.29 42.4083 246.118 43.0143 246.118 43.8131V43.8039Z" fill="#24408F"/>
<path d="M260.001 47.8069H258.049V43.7212C258.049 42.8582 258.004 42.2981 257.923 42.0411C257.841 41.784 257.706 41.5912 257.516 41.4535C257.326 41.3157 257.1 41.2423 256.838 41.2423C256.503 41.2423 256.196 41.3433 255.925 41.5453C255.654 41.7473 255.473 42.0135 255.374 42.344C255.274 42.6746 255.22 43.2897 255.22 44.1803V47.8069H253.268V39.8008H255.084V40.976C255.726 40.0671 256.54 39.6172 257.525 39.6172C257.959 39.6172 258.347 39.6998 258.709 39.8651C259.07 40.0303 259.333 40.2507 259.522 40.5078C259.703 40.774 259.83 41.0678 259.902 41.3984C259.974 41.7289 260.01 42.2063 260.01 42.8215V47.7978L260.001 47.8069Z" fill="#24408F"/>
</g>
<defs>
<clipPath id="clip0_3023_45211">
<rect width="260" height="48" fill="white"/>
</clipPath>
</defs>
</svg>
