<svg width="154" height="128" viewBox="0 0 154 128" fill="none" xmlns="http://www.w3.org/2000/svg">
<g clip-path="url(#clip0_3023_45308)">
<path d="M42.099 28.1851C40.788 27.7115 39.3555 27.7386 38.2878 28.2527C37.3688 28.6857 36.7201 29.4434 36.3552 30.4988C35.4092 33.1644 37.2472 35.2075 39.3555 35.9787C40.5313 36.4117 41.7881 36.4117 42.8152 36.0329C42.5449 36.317 42.1125 36.6147 41.4097 37.0341C41.4097 37.0341 38.6257 38.6713 38.2878 38.8878C38.0581 38.6037 36.9904 37.3183 36.9904 37.3183C36.3687 36.547 35.9498 35.9652 35.9498 35.1534C35.9498 35.0722 35.9498 34.991 35.9498 34.8963L35.9768 34.6392L35.1524 34.5039L35.1119 34.7745L34.5442 38.2925L35.3822 38.4413L35.4227 38.1707C35.4768 37.846 35.5443 37.6836 35.6119 37.6971C35.7471 37.7242 35.9363 37.873 36.2336 38.2248C36.2336 38.2248 37.2877 39.4832 37.9229 40.2409C37.1391 40.1191 35.8957 39.9026 35.8957 39.9026C35.3957 39.8214 35.2605 39.7673 35.2605 39.4291C35.2605 39.3073 35.2605 39.1584 35.3011 38.9555L35.3281 38.6984L34.4902 38.5631L33.8145 42.7305L34.6524 42.8658L34.7064 42.6088C34.8551 41.8916 34.8821 41.8375 35.5578 41.9593L41.1935 42.8794C41.8827 42.9876 41.8827 43.0553 41.8016 43.7724L41.7746 44.0295L42.6125 44.1648L43.2747 39.9973L42.4368 39.862L42.3828 40.1191C42.2341 40.8768 42.2071 40.931 41.5178 40.8227C41.5178 40.8227 40.288 40.6198 39.5177 40.498C40.2745 40.0379 41.707 39.172 41.707 39.172C41.9908 39.0096 42.3963 38.7661 42.5314 38.7525C42.5314 38.8066 42.5314 39.4832 42.5314 39.4832L42.7612 39.5644L43.3423 39.6591L44.0316 35.3157C44.4776 34.8963 44.8424 34.3686 45.0722 33.7056C46.0182 31.0265 44.1802 28.9969 42.0719 28.2257L42.099 28.1851ZM44.0586 33.2861C43.9099 33.7056 43.6667 34.0033 43.2883 34.1792C42.5855 34.5174 41.5043 34.4227 40.0718 33.895C37.8553 33.0967 36.9499 32.0684 37.3688 30.8642C37.5175 30.4447 37.7607 30.147 38.1392 29.9711C38.8419 29.6329 39.9231 29.7276 41.3557 30.2553C43.5721 31.0671 44.4775 32.0819 44.0586 33.2861Z" fill="#24408F"/>
<path d="M59.6137 13.8149C59.3299 14.0449 59.2218 14.0449 58.492 13.5848L51.8292 9.36328L51.6806 9.47153L51.2346 9.80979L53.6267 17.6982C53.6267 17.6982 53.6402 17.7929 53.6537 17.847L52.8023 16.5887L52.2617 17.184L52.3293 17.3464C52.9239 18.7265 52.6401 19.3895 51.7616 20.3637C50.9372 21.2703 50.8562 21.1891 50.6399 20.9861C50.6399 20.9861 49.1533 19.6195 48.6938 19.1865C48.9236 18.9295 49.3966 18.4153 49.3966 18.4153C50.0182 17.7252 50.3561 17.6576 51.0319 18.1041L51.2211 18.2259L51.7481 17.644L49.1668 15.2626L48.6398 15.8445L48.7749 16.0204C48.9776 16.2774 49.0993 16.4669 49.0993 16.6698C49.0993 16.8999 48.9371 17.1705 48.5316 17.617C48.5316 17.617 48.0586 18.1311 47.8424 18.3882C47.518 18.0906 46.0855 16.7645 46.0855 16.7645C46.0855 16.7645 46.0044 16.6698 45.9909 16.6563C46.0044 16.6292 46.072 16.5345 46.072 16.5345L46.8558 15.6686C47.8154 14.5996 48.1127 14.6808 48.829 15.0326L49.0046 15.1273L49.5317 14.532L47.7343 12.9489L47.5586 13.1519L43.0852 18.1176L43.7069 18.6859L43.8826 18.51C44.315 18.077 44.3691 18.0229 44.8962 18.51L49.1128 22.4204C49.5047 22.7857 49.5723 22.9075 49.4236 23.151L49.3425 23.0969L49.2074 23.354C49.0857 23.6111 48.9641 23.6787 48.5316 23.7193C48.5316 23.7193 46.0314 23.9087 45.1394 23.9764C45.18 23.7599 45.234 23.5569 45.234 23.354C45.234 22.4339 44.8151 21.7168 43.9637 21.2026C42.5446 20.3366 41.2472 20.9455 39.9903 23.0428L38.1523 26.1142L38.8686 26.5607L39.0038 26.3443C39.4227 25.7218 39.4633 25.6813 40.0579 26.0466L44.9502 29.0369C45.5449 29.4022 45.5314 29.4563 45.1665 30.1193L45.0448 30.3493L45.7746 30.7958L47.937 27.1696L47.2072 26.7231L47.072 26.9396C46.6531 27.5891 46.599 27.6297 46.0179 27.2643C46.0179 27.2643 44.5853 26.3848 44.2204 26.1684C44.2475 26.1278 44.2475 26.1278 44.261 26.0872C44.5178 26.0736 48.7749 25.7624 48.7749 25.7624L49.775 24.0846L54.397 18.9565L56.0864 17.6305L55.5998 16.981L55.3566 17.1028L54.9241 17.3193L54.7889 17.2111L54.3024 15.9662C54.5457 15.7768 55.9512 14.6808 56.1945 14.5049C56.2215 14.5185 56.262 14.5455 56.262 14.5455L57.2621 15.2897C57.2621 15.2897 57.3297 15.3709 57.3297 15.425C57.3297 15.5062 57.2621 15.628 56.9918 15.8309L56.7756 15.9933L57.2892 16.6698L60.33 14.3155L59.8029 13.6254L59.5867 13.8013L59.6137 13.8149ZM41.8148 22.8398C42.1797 22.7451 42.5581 22.8263 42.9501 23.0563C43.315 23.2863 43.7204 23.6381 43.7204 24.3011C43.7204 24.6394 43.5853 25.0724 43.315 25.6001C42.896 25.343 40.7877 24.0576 40.7877 24.0576L40.6931 23.9764L40.8418 23.6381C41.085 23.2322 41.4364 22.9481 41.8283 22.8533L41.8148 22.8398ZM53.951 14.7891C53.8024 14.3561 53.4645 13.3142 53.2077 12.5295C53.8835 12.9895 54.7889 13.5984 55.1674 13.8419C54.8295 14.099 54.2889 14.5185 53.9645 14.7755L53.951 14.7891Z" fill="#24408F"/>
<path d="M66.0201 3.9915C65.7633 3.34203 65.7768 3.11201 66.4255 2.76021L66.6418 2.63843L66.3309 1.86719L66.0877 1.97543L63.3847 3.09848L63.6956 3.86972L63.9253 3.80207C64.5335 3.6397 64.7497 3.74795 65.02 4.42448L66.4391 7.92892C66.7499 8.70017 66.8175 9.3767 66.6012 9.87734C66.4526 10.2427 66.1553 10.5133 65.7228 10.7027C65.1822 10.9192 64.7497 10.9598 64.3848 10.811C63.9929 10.6486 63.6685 10.2427 63.3983 9.57966L61.763 5.52046C61.4927 4.85746 61.5603 4.8304 62.1549 4.54626L62.3846 4.43801L62.0738 3.65323L58.3438 5.19573L58.6681 5.98051L58.9114 5.89932C59.533 5.6693 59.6006 5.65577 59.8709 6.31877L61.4521 10.2427C62.3036 12.3399 63.7226 12.9353 65.8174 12.0693C66.7499 11.6769 67.3716 11.1357 67.6689 10.4321C67.9932 9.64731 67.9122 8.70017 67.4527 7.523L66.0336 4.03209L66.0201 3.9915Z" fill="#24408F"/>
<path d="M80.7107 0.230021L76.6293 0V0.270613L76.5887 0.852431L76.8455 0.879493C77.4807 0.947146 77.5483 0.960677 77.5077 1.66427L77.1834 7.44186C77.1428 8.15899 77.0617 8.15899 76.4265 8.14545H76.1698V8.32135L75.0751 2.07019C74.9534 1.33953 75.0616 1.15011 75.6832 0.960676L75.913 0.893023L75.7778 0.0676533L75.5075 0.121776L72.5884 0.635941L72.737 1.46131H72.9668C73.629 1.40719 73.7912 1.55603 73.9128 2.28668C73.9128 2.28668 74.3318 4.68161 74.5075 5.69641C73.5885 4.85751 69.5205 1.17717 69.5205 1.17717L67.0879 1.61015L67.223 2.40846H67.4258C67.8447 2.46258 68.115 2.61142 68.3988 2.99027C68.3988 3.15264 69.3313 8.49725 69.3313 8.49725C69.3584 8.65962 69.3854 8.80846 69.3854 8.93023C69.3854 9.32262 69.2097 9.47146 68.7232 9.6203L68.4934 9.68795L68.6421 10.5133L71.818 9.94503L71.6694 9.11966H71.4396C70.7774 9.17378 70.6152 9.02495 70.4801 8.29429C70.4801 8.29429 70.0071 5.60169 69.7773 4.2351C70.7233 5.08753 75.5616 9.47146 75.5616 9.47146L76.3319 9.33615L76.2779 9.02495L80.1972 9.24144C81.5757 9.32262 82.819 8.93023 83.6839 8.14545C84.5083 7.40127 84.9814 6.31882 85.0624 5.00634C85.2111 2.27315 83.5083 0.40592 80.7107 0.243552V0.230021ZM79.2376 7.63129L79.5755 1.70486L79.6836 1.326C79.7647 1.25835 79.9404 1.23129 80.2377 1.24482C81.0621 1.29894 81.7243 1.59662 82.1973 2.13784C82.7649 2.78731 83.0352 3.73446 82.9677 4.88457C82.9001 6.03467 82.5352 6.94123 81.8865 7.52304C81.3594 8.01015 80.6566 8.22664 79.8323 8.18605C79.5484 8.17252 79.3728 8.11839 79.2917 8.03721L79.2241 7.64482L79.2376 7.63129Z" fill="#24408F"/>
<path d="M97.4006 14.1254C97.1439 14.0171 97.0763 13.8818 97.0087 13.4489C97.0087 13.4489 96.6979 10.9457 96.5898 10.0391C97.7926 10.2015 98.7116 9.76852 99.2792 8.6996C99.59 8.10425 99.6711 7.52243 99.5224 6.98121C99.2927 6.19643 98.5494 5.46577 97.279 4.76218L94.1571 3.05732L94.0355 3.30087L93.7652 3.81503L93.9814 3.95034C94.6166 4.34273 94.6572 4.38332 94.3328 4.9922L91.6163 10.0797C91.3731 10.5398 91.2785 10.648 90.9811 10.5398L91.9272 8.82138L91.1568 8.59136L91.0487 8.72666C90.1027 9.87677 89.3864 9.90383 88.1295 9.5385C87.8863 9.47085 87.1565 9.25436 87.0484 9.06493L87.0754 8.79432C87.0754 8.79432 87.6295 6.8459 87.8052 6.23702C88.1295 6.33174 88.7918 6.52117 88.7918 6.52117C89.5486 6.75119 89.8189 6.98121 89.8189 7.54949C89.8189 7.64421 89.8189 7.75246 89.7919 7.87423L89.7648 8.10425L90.5217 8.33427L91.4947 4.93808L90.7379 4.72159L90.6433 4.92455C90.346 5.56049 90.2108 5.72286 89.1161 5.41165C89.1161 5.41165 88.4809 5.22222 88.1295 5.11398C88.2512 4.69453 88.7918 2.80024 88.7918 2.80024C88.7918 2.80024 88.8323 2.69199 88.8458 2.66493C88.8729 2.66493 88.9945 2.69199 88.9945 2.69199L90.1027 3.01673C91.4542 3.40911 91.5353 3.70679 91.5353 4.49157V4.73512L92.2921 4.95161L92.9002 2.62434L86.278 0.689453L86.2105 0.946536L86.0483 1.50129L86.2915 1.58248C86.8727 1.78544 86.9403 1.8125 86.7375 2.50256L85.1563 8.06366C84.9536 8.75372 84.886 8.74019 84.2914 8.59136L84.0481 8.53723L83.8184 9.3626L90.5757 11.3381L93.6435 13.0023L94.049 12.2582L93.8328 12.1229C93.184 11.7305 93.13 11.6763 93.4679 11.0675C93.4679 11.0675 94.2652 9.57909 94.4679 9.20024C94.5085 9.2273 94.5085 9.2273 94.549 9.24083C94.5761 9.49791 95.0896 13.7871 95.0896 13.7871L97.3331 15.0184L97.752 14.2336L97.4817 14.1119L97.4006 14.1254ZM96.3059 5.62814L96.3735 5.5199L96.7249 5.6552C97.1439 5.88522 97.4277 6.22349 97.5493 6.60235C97.6574 6.96768 97.6033 7.36007 97.3871 7.76599C97.0763 8.3478 96.4681 8.98374 94.9004 8.26662C95.1302 7.83364 96.3059 5.62814 96.3059 5.62814Z" fill="#24408F"/>
<path d="M109.146 14.8835L109.308 14.9511L109.821 14.3693L107.659 12.4479L107.105 13.0974L107.294 13.2733C107.564 13.5304 107.646 13.6792 107.646 13.7739C107.646 13.8416 107.605 13.8822 107.578 13.9228L106.902 14.4099C106.902 14.4099 104.753 15.7088 103.686 16.3583C104.078 15.3841 105.051 12.8809 105.051 12.8809L105.51 12.0014C105.578 11.9202 105.659 11.8255 106.118 12.2314L106.321 12.4073L106.889 11.7579L103.929 9.11939L103.375 9.75534L103.551 9.93123C103.767 10.1613 103.848 10.3101 103.848 10.486C103.848 10.5942 103.807 10.716 103.753 10.8513C103.753 10.8513 103.267 12.0826 103.172 12.3262C103.051 12.3938 101.55 13.2327 100.74 13.6928C101.159 12.705 102.172 10.3101 102.172 10.3101C102.226 10.1748 102.591 9.4306 102.591 9.4306C102.632 9.37648 102.767 9.22764 103.118 9.55238L103.321 9.72827L103.888 9.0788L101.226 6.71094L101.05 6.9139L100.685 7.31982L100.821 7.49572C100.983 7.69868 101.064 7.80692 100.618 8.86231L97.6582 15.8035L98.2799 16.3583C98.2799 16.3583 101.537 14.5181 102.51 13.9769C102.091 15.0188 100.713 18.5232 100.713 18.5232L101.334 19.078L107.848 15.127C108.524 14.7076 108.686 14.7076 109.146 14.8835Z" fill="#24408F"/>
<path d="M109.16 28.576C109.011 28.2784 108.93 28.1025 108.93 27.9536C108.93 27.7777 109.079 27.6695 109.43 27.48C109.43 27.48 113.782 25.0716 114.836 24.4898C114.971 24.7333 115.161 25.0851 115.161 25.0851C115.282 25.3016 115.35 25.491 115.35 25.6805C115.35 26.0052 115.134 26.3299 114.593 26.817L114.431 26.9659L114.836 27.7101L117.08 26.2082L113.633 19.8352L113.404 19.9299L111.174 20.9312L111.579 21.6754L111.782 21.6213C112.89 21.2965 113.215 21.486 113.525 22.0678C113.525 22.0678 113.715 22.4196 113.85 22.6631C113.417 22.9067 108.444 25.6534 108.444 25.6534C107.836 25.9917 107.795 25.9511 107.403 25.2881L107.363 25.234L107.511 25.1122L107.349 24.8957C107.119 24.6115 107.119 24.5033 107.579 23.7591L111.741 16.9938L111.295 16.3984L111.12 16.4526L103.511 18.834C103.092 18.9693 102.889 18.9016 102.565 18.631L102.403 18.4957L101.768 18.9963L103.579 21.3642L104.214 20.8636L104.092 20.62L103.876 20.187L103.984 20.0517C103.984 20.0517 105.173 19.5646 105.214 19.5511C105.403 19.7946 106.484 21.2154 106.66 21.4589C106.646 21.486 106.619 21.5266 106.619 21.5266L105.89 22.5549L105.727 22.6225L105.187 22.1354L104.971 22.2302L104.511 22.5955L106.673 25.4234L106.552 25.491L108.565 29.2255L109.309 28.8196L109.201 28.5896L109.16 28.576ZM108.579 18.4145C108.133 19.1046 107.525 20.0247 107.282 20.4035C107.025 20.0652 106.606 19.5105 106.349 19.1858C106.782 19.0369 107.809 18.6851 108.579 18.428V18.4145Z" fill="#24408F"/>
<path d="M120.592 37.8317L119.957 34.2867L119.687 34.3408L119.119 34.4491L119.146 34.7062C119.254 35.4504 119.241 35.5045 118.552 35.6398L112.929 36.6681C112.389 36.7628 112.254 36.7358 112.146 36.3704L114.065 36.1539L113.794 35.3962H113.619C112.132 35.2745 111.7 34.6926 111.254 33.4478C111.064 32.9066 110.997 32.6089 110.997 32.433C110.997 32.2301 111.091 32.203 111.24 32.1489C111.24 32.1489 113.308 31.4182 113.727 31.2694C113.835 31.5941 114.065 32.2571 114.065 32.2571C114.173 32.5548 114.227 32.7983 114.227 33.0013C114.227 33.3802 114.024 33.6102 113.551 33.8673L113.348 33.9755L113.619 34.7197L116.903 33.5425L116.646 32.7848L116.43 32.8254C115.74 32.9472 115.524 32.9337 115.146 31.8512C115.146 31.8512 114.93 31.2288 114.808 30.8635C115.213 30.7146 117.051 30.0651 117.051 30.0651C117.051 30.0651 117.16 30.0381 117.2 30.0246C117.214 30.0516 117.268 30.1599 117.268 30.1599L117.66 31.2694C117.835 31.7835 117.916 32.1218 117.916 32.3924C117.916 32.8389 117.687 33.0419 117.268 33.3396L117.105 33.4613L117.362 34.2055L119.592 33.3531L117.295 26.7637L117.038 26.8584L116.497 27.0478L116.565 27.2914C116.741 27.8867 116.768 27.9679 116.092 28.1979L110.699 30.1328C110.037 30.3764 109.997 30.2952 109.767 29.7269L109.672 29.4833L108.875 29.7675L111.213 36.4787H111.24L111.889 40.0778L112.713 39.929L112.673 39.6719C112.646 39.469 112.619 39.3066 112.619 39.1848C112.619 38.8601 112.754 38.806 113.254 38.7248C113.254 38.7248 114.903 38.4271 115.322 38.3459C115.322 38.3865 115.322 38.4 115.335 38.4406C115.146 38.6301 112.159 41.7015 112.159 41.7015L112.605 44.2317L113.47 44.0829L113.402 43.7988C113.389 43.7311 113.375 43.6635 113.375 43.6093C113.375 43.447 113.456 43.3117 113.686 43.0681C113.686 43.0681 115.484 41.2009 116.092 40.5785C116.714 41.6203 117.592 42.121 118.768 41.9045C119.43 41.7827 119.917 41.485 120.241 41.025C120.7 40.3484 120.808 39.3066 120.552 37.8588L120.592 37.8317ZM118.349 39.8072C117.7 39.929 116.835 39.8343 116.416 38.1565C116.903 38.0618 119.322 37.6288 119.322 37.6288H119.443L119.552 37.9806C119.687 38.7112 119.443 39.6178 118.335 39.8208L118.349 39.8072Z" fill="#24408F"/>
<path d="M64.3702 60.3068L61.6267 52.8379H60.8834L58.0183 60.5774C57.8696 60.9969 57.6939 61.1051 57.275 61.2134L57.0723 61.2675V62.0793H60.032V61.2134H59.7617C59.2481 61.2134 59.2481 61.0916 59.2481 60.9428L59.613 59.6573H61.9916L62.0186 59.7385L62.37 60.9428C62.37 61.0781 62.37 61.2134 61.8294 61.2134H61.5591V62.0793H65.3838V61.2134H65.1135C64.7486 61.2269 64.6675 61.1592 64.3567 60.3339L64.3702 60.3068ZM60.8158 56.2206C61.0726 57.0053 61.4375 58.0472 61.5727 58.4802H60.0455C60.1942 58.0472 60.5455 57.0053 60.8158 56.2206Z" fill="#24408F"/>
<path d="M68.8707 56.3153C68.1004 55.8552 67.4246 55.4628 67.4246 54.8675C67.4246 54.5969 67.5057 53.9474 68.3166 53.9474C69.168 53.9474 69.8843 54.6781 70.1951 55.8688L70.2492 56.0717H71.006V52.8379H70.2357L70.1951 53.0544C70.1681 53.1626 70.1141 53.2844 70.0465 53.2844L69.5329 53.1491L67.9923 52.8379C66.6543 52.8379 65.5326 53.9609 65.5326 55.2734C65.5326 56.6941 66.7354 57.4654 67.7895 58.1419C68.6545 58.6967 69.4789 59.2244 69.4789 59.9956C69.4789 60.2662 69.3978 61.1322 68.4382 61.1322C67.4787 61.1322 66.5867 60.0633 66.2894 59.0349L66.2353 58.8455H65.4785V62.1605H66.3705L66.411 61.9305C66.4381 61.7275 66.5056 61.7275 66.5327 61.7275L67.0192 61.8764C67.3706 62.0387 67.8706 62.2552 68.7491 62.2552C70.2492 62.2552 71.3709 61.1187 71.3709 59.6303C71.3709 57.7901 69.9924 56.9647 68.8707 56.3153Z" fill="#24408F"/>
<path d="M75.1012 56.3153C74.3308 55.8552 73.6551 55.4628 73.6551 54.8675C73.6551 54.5969 73.7497 53.9474 74.5606 53.9474C75.3715 53.9474 76.1283 54.6781 76.4256 55.8688L76.4797 56.0717H77.25V52.8379H76.4797L76.4391 53.0544C76.4121 53.1762 76.358 53.2979 76.2905 53.2979L75.7769 53.1626L74.2362 52.8514C72.9118 52.8514 71.7766 53.9745 71.7766 55.2869C71.7766 56.7077 72.9794 57.4789 74.0335 58.1554C74.8984 58.7102 75.7228 59.2379 75.7228 60.0091C75.7228 60.2797 75.6418 61.1457 74.6687 61.1457C73.6956 61.1457 72.8172 60.0768 72.5199 59.0485L72.4658 58.859H71.709V62.174H72.601L72.6415 61.944C72.6685 61.7411 72.7361 61.7411 72.7631 61.7411L73.2497 61.8899C73.601 62.0523 74.1011 62.2688 74.9795 62.2688C76.4797 62.2688 77.6014 61.1322 77.6014 59.6438C77.6014 57.8036 76.2094 56.9783 75.1012 56.3288V56.3153Z" fill="#24408F"/>
<path d="M92.9524 59.3869C92.6686 59.8334 91.8983 61.0241 90.5333 61.0241C88.3439 61.0241 88.0195 58.805 88.0195 57.479C88.0195 56.153 88.6412 53.9611 90.3305 53.9611C91.3982 53.9611 92.1821 54.6647 92.6551 56.0448L92.7227 56.2207H93.5335L93.3443 52.8516H92.5605L92.2767 53.3522H92.2496L91.9253 53.2439C91.4523 53.0816 90.736 52.8516 90.1549 52.8516C87.3979 52.8516 86.0599 55.2059 85.8977 57.0867C85.7356 54.9623 84.4517 52.8516 81.8568 52.8516C79.0593 52.8516 77.7754 55.2871 77.7754 57.5602C77.7754 59.8334 79.0593 62.2689 81.8568 62.2689C84.4787 62.2689 85.7491 60.1311 85.9112 57.9932C86.1004 60.6046 87.6817 62.2689 90.0873 62.2689C91.7631 62.2689 92.8848 61.5518 93.7363 59.9281L93.8444 59.7387L93.1416 59.1298L92.9794 59.3869H92.9524ZM81.8298 61.1459C80.2486 61.1459 79.9242 59.1839 79.9242 57.5467C79.9242 55.9095 80.2621 53.9475 81.8298 53.9475C83.3975 53.9475 83.7354 55.9095 83.7354 57.5467C83.7354 59.1839 83.411 61.1459 81.8298 61.1459Z" fill="#24408F"/>
<path d="M95.3449 59.8477C94.7502 59.8477 94.2637 60.3754 94.2637 61.0248C94.2637 61.6743 94.7502 62.202 95.3449 62.202C95.9395 62.202 96.426 61.6743 96.426 61.0248C96.426 60.3754 95.9395 59.8477 95.3449 59.8477Z" fill="#24408F"/>
<path d="M101.361 74.1884L101.212 73.5254H99.8066L99.8337 74.2966C100.023 74.2696 100.172 74.229 100.239 74.1478C100.239 74.1478 100.726 74.1478 101.347 74.1749L101.361 74.1884Z" fill="#24408F"/>
<path d="M116.685 55.7062C116.685 55.7062 120.226 55.2326 121.361 51.5117C121.361 51.5117 118.564 54.0825 114.685 53.6766C114.685 53.6766 112.212 53.0001 113.28 55.9768C113.28 55.9768 113.145 58.277 112.347 59.0212L110.806 58.8859C110.806 58.8859 108.806 57.8711 108.671 60.8479C108.671 60.8479 107.401 64.5688 106.671 64.9747C106.671 64.9747 104.738 66.6661 104.806 68.2221C104.806 68.2221 105.603 67.4102 107.739 67.2073C107.739 67.2073 108.671 62.9451 110.347 62.8098C110.347 62.8098 108.077 66.3954 108.55 67.6809C108.55 67.6809 102.481 69.1016 101.468 70.7253C101.468 70.7253 103.144 66.3278 99.9272 66.6661L91.7913 69.3045C91.7913 69.3045 89.183 69.8458 89.8452 71.2665L88.6424 71.6724C88.6424 71.6724 87.7774 69.1016 85.3042 70.2517C85.3042 70.2517 85.0475 70.3599 84.6961 70.5494C84.6555 70.6035 84.5609 70.9553 85.1961 73.1066C85.1961 73.1066 89.3992 72.5248 87.2639 76.3134C87.2639 76.3134 85.9935 75.0956 85.061 76.584L83.5203 74.6897C83.5203 74.6897 83.6555 73.472 84.9258 73.2014C84.9258 73.2014 84.3717 71.9159 84.3988 70.7117C83.0878 71.4559 81.0201 73.0525 83.0473 74.8386L84.1825 76.3269C84.1825 76.3269 84.9799 76.9764 83.5203 77.3417C83.5203 77.3417 78.9388 78.6677 77.8847 79.3443C76.8305 78.6677 72.249 77.3417 72.249 77.3417C70.7759 76.9764 71.5733 76.3269 71.5733 76.3269L72.7085 74.8386C74.7358 73.039 72.668 71.4559 71.3436 70.7117C71.3706 71.9159 70.8165 73.2014 70.8165 73.2014C72.0869 73.472 72.2085 74.6897 72.2085 74.6897L70.6813 76.584C69.7488 75.0956 68.4784 76.3134 68.4784 76.3134C66.3431 72.5248 70.5462 73.1066 70.5462 73.1066C71.1814 70.9688 71.0868 70.6035 71.0462 70.5494C70.6949 70.3599 70.4381 70.2517 70.4381 70.2517C67.9649 69.1016 67.0999 71.6724 67.0999 71.6724L65.8971 71.2665C66.5594 69.8458 63.9645 69.3045 63.9645 69.3045L55.8152 66.6661C52.6122 66.3278 54.2745 70.7253 54.2745 70.7253C53.2744 69.1016 47.2063 67.6809 47.2063 67.6809C47.6658 66.3954 45.4089 62.8098 45.4089 62.8098C47.0712 62.9451 48.0037 67.2073 48.0037 67.2073C50.139 67.4102 50.9364 68.2221 50.9364 68.2221C51.0039 66.6661 49.0713 64.9747 49.0713 64.9747C48.3415 64.5688 47.0712 60.8479 47.0712 60.8479C46.936 57.8711 44.9358 58.8859 44.9358 58.8859L43.3952 59.0212C42.5978 58.277 42.4626 55.9768 42.4626 55.9768C43.5303 53.0001 41.0571 53.6766 41.0571 53.6766C37.1784 54.0825 34.3809 51.5117 34.3809 51.5117C35.5161 55.2326 39.0569 55.7062 39.0569 55.7062C41.8004 57.1269 41.3274 58.9536 41.3274 58.9536C40.7328 59.6978 37.4487 58.6153 37.4487 58.6153C38.4488 60.3743 39.9895 60.1037 39.9895 60.1037C42.3951 60.4419 42.7194 62.2686 42.7194 62.2686C43.1924 63.351 43.1249 66.0572 43.1249 66.0572C43.1924 70.5899 45.99 70.9959 45.99 70.9959C47.9902 71.8077 51.7337 74.6491 51.7337 74.6491C52.1392 74.4056 53.0852 74.2838 53.9366 74.2297L54.2204 73.1066L56.4233 73.242L56.2882 74.3379C57.4505 74.3109 59.356 73.7696 59.356 73.7696C62.1671 73.702 62.2211 74.8521 62.2211 74.8521C62.6942 76.5434 61.1535 77.0847 61.1535 77.0847C59.356 78.4377 56.2206 77.6259 56.2206 77.6259C55.0854 77.22 55.9503 77.0847 55.9503 77.0847C56.153 77.1523 57.2207 77.7612 59.9507 77.1523C62.6942 76.5434 61.7887 74.825 61.7887 74.825C61.5589 74.0809 59.2209 74.3109 59.2209 74.3109C58.4911 74.6491 55.4097 74.7844 55.4097 74.7844C48.2064 74.3785 53.342 78.776 53.342 78.776L56.6396 80.6026C57.7072 81.2386 57.937 81.4145 57.937 81.4145C58.41 81.888 59.9372 83.5794 59.9372 83.5794C62.4779 85.7443 60.9372 82.6322 60.9372 82.6322C60.4777 81.888 59.1398 80.6026 59.1398 80.6026C56.8017 78.979 59.5452 79.7231 59.5452 79.7231C62.9509 81.0762 66.2891 79.4525 66.2891 79.4525C67.4243 78.6407 68.6947 79.0466 68.6947 79.0466C72.5599 80.8732 73.6411 80.8056 73.6411 80.8056L75.0196 81.0356L74.8439 81.1439C75.0466 81.1439 71.776 82.294 71.3706 83.5117C71.3706 83.5117 70.4381 84.9595 72.3707 84.08C72.3707 84.08 72.9383 83.9176 73.5735 83.4441C73.5735 83.4441 72.7085 85.8796 74.3709 83.5117C74.3709 83.5117 75.7088 81.8204 77.709 81.5498L77.8712 81.5227L78.0469 81.5498C80.047 81.8204 81.385 83.5117 81.385 83.5117C83.0608 85.8796 82.1824 83.4441 82.1824 83.4441C82.8175 83.9176 83.3852 84.08 83.3852 84.08C85.3178 84.9595 84.3853 83.5117 84.3853 83.5117C83.9798 82.294 80.7228 81.1439 80.912 81.1439L80.7363 81.0356L82.1148 80.8056C82.1148 80.8056 83.1824 80.8732 87.0612 79.0466C87.0612 79.0466 88.3315 78.6407 89.4668 79.4525C89.4668 79.4525 92.8049 81.0762 96.2106 79.7231C96.2106 79.7231 98.9406 78.979 96.616 80.6026C96.616 80.6026 95.2781 81.888 94.8186 82.6322C94.8186 82.6322 93.2779 85.7443 95.8187 83.5794C95.8187 83.5794 97.3458 81.888 97.8189 81.4145C97.8189 81.4145 98.0486 81.2521 99.1163 80.6026L102.427 78.776C102.427 78.776 107.563 74.3921 100.36 74.7844C100.36 74.7844 97.2918 74.6491 96.5485 74.3109C96.5485 74.3109 94.2104 74.0809 93.9807 74.825C93.9807 74.825 93.0752 76.5434 95.8187 77.1523C98.5487 77.7612 99.6163 77.1523 99.819 77.0847C99.819 77.0847 100.684 77.22 99.5487 77.6259C99.5487 77.6259 96.4133 78.4377 94.6024 77.0847C94.6024 77.0847 93.0617 76.5434 93.5347 74.8521C93.5347 74.8521 93.6023 73.702 96.3998 73.7696C96.3998 73.7696 98.3054 74.3109 99.4677 74.3379L99.3325 73.242L101.535 73.1066L101.819 74.2297C102.657 74.2838 103.617 74.4056 104.022 74.6491C104.022 74.6491 107.752 71.8077 109.766 70.9959C109.766 70.9959 112.563 70.5899 112.631 66.0572C112.631 66.0572 112.563 63.351 113.023 62.2686C113.023 62.2686 113.361 60.4419 115.753 60.1037C115.753 60.1037 117.294 60.3743 118.294 58.6153C118.294 58.6153 115.023 59.6978 114.415 58.9536C114.415 58.9536 113.955 57.1269 116.685 55.7062ZM60.2074 71.7942L57.4099 71.1853L55.9503 70.9282L57.018 71.1853L56.4774 72.9443L54.4096 72.5384L54.7881 70.7253L54.6664 70.6982C54.6664 70.6982 52.8825 66.0978 56.4233 67.1667L61.0724 68.6009C61.0724 68.6009 60.2074 68.2627 60.2074 71.7806V71.7942ZM61.7481 72.2677L60.8156 72.0648C60.6129 69.4263 61.4778 68.7498 61.4778 68.7498L62.3428 69.0204C61.14 69.3587 61.7481 72.2677 61.7481 72.2677ZM69.5731 78.0995C69.5731 78.0995 68.8433 77.8559 68.6677 77.4906C68.6677 77.4906 65.7214 78.4107 65.4917 74.6897L65.4106 74.1485C65.4106 74.1485 63.1401 72.5248 62.3428 72.3895C62.3428 72.3895 61.8698 68.9392 63.2077 69.2775C63.2077 69.2775 66.4783 70.0217 65.4782 71.3071L66.681 71.916C66.681 71.916 66.1404 73.4043 66.4107 74.1485H65.7214C65.8701 75.6775 66.1404 77.6394 68.4379 77.1794C68.4379 77.1794 68.7217 75.8263 70.0326 76.1646C70.0326 76.1646 71.7085 77.5447 69.5731 78.0859V78.0995ZM93.386 72.403C92.5887 72.5384 90.3182 74.162 90.3182 74.162L90.2371 74.7033C90.0209 78.4242 87.0612 77.5041 87.0612 77.5041C86.899 77.8694 86.1557 78.113 86.1557 78.113C84.0203 77.5718 85.6962 76.1916 85.6962 76.1916C86.9936 75.8534 87.2909 77.2064 87.2909 77.2064C89.5884 77.6665 89.8722 75.7045 90.0074 74.1756H89.3181C89.5884 73.4314 89.0478 71.943 89.0478 71.943L90.2506 71.3341C89.2505 70.0487 92.5211 69.3045 92.5211 69.3045C93.8591 68.9663 93.386 72.4166 93.386 72.4166V72.403ZM94.9267 72.0648L93.9942 72.2677C93.9942 72.2677 94.5888 69.3587 93.3996 69.0204L94.2645 68.7498C94.2645 68.7498 95.1294 69.4263 94.9267 72.0648ZM99.2514 72.9578L98.7243 71.1988L99.792 70.9417L98.3324 71.1988L95.5214 71.8077C95.5214 68.2897 94.6564 68.628 94.6564 68.628L99.3055 67.1937C102.846 66.1113 101.062 70.7253 101.062 70.7253L100.941 70.7523L101.333 72.5654L99.2649 72.9713L99.2514 72.9578Z" fill="#24408F"/>
<path d="M99.291 71.5378L99.5208 72.4173L100.724 72.2143L100.494 71.2266L99.291 71.5378Z" fill="#24408F"/>
<path d="M100.926 70.6582L99.791 70.9288L100.94 70.7394L100.926 70.6582Z" fill="#24408F"/>
<path d="M101.374 74.2436L99.847 74.3518V74.3112C99.7254 74.3248 99.6037 74.3383 99.4551 74.3248V74.3653L101.82 74.2842V74.2165C101.644 74.2165 101.509 74.203 101.361 74.1895V74.2436H101.374Z" fill="#24408F"/>
<path d="M84.1272 74.622L84.4245 74.2973L84.8975 74.3379L84.9651 74.189L84.3569 74.1484L83.9785 74.5679L84.1272 74.622Z" fill="#24408F"/>
<path d="M86.3314 73.7976C86.453 73.7705 86.6152 73.8246 86.7909 73.987L86.899 73.8652C86.6828 73.6758 86.48 73.5946 86.3044 73.6352C86.0476 73.7029 85.9395 73.987 85.9395 73.987L86.0881 74.0411C86.0881 74.0411 86.1692 73.8246 86.3449 73.784L86.3314 73.7976Z" fill="#24408F"/>
<path d="M86.1137 76.4766C85.7623 76.4766 85.4785 76.7607 85.4785 77.126C85.4785 77.4914 85.7623 77.762 86.1137 77.762C86.4651 77.762 86.7489 77.4778 86.7489 77.126C86.7489 76.7742 86.4651 76.4766 86.1137 76.4766ZM86.1137 77.4372C85.938 77.4372 85.8029 77.3019 85.8029 77.126C85.8029 76.9501 85.938 76.8148 86.1137 76.8148C86.2894 76.8148 86.4245 76.9501 86.4245 77.126C86.4245 77.3019 86.2894 77.4372 86.1137 77.4372Z" fill="#24408F"/>
<path d="M55.8828 74.2966L55.9233 73.5254H54.5178L54.3691 74.1884C54.9908 74.1613 55.4773 74.1613 55.4773 74.1613C55.5584 74.2425 55.7071 74.2831 55.8828 74.3102V74.2966Z" fill="#24408F"/>
<path d="M56.4501 71.5378L55.2473 71.2266L55.0176 72.2143L56.2204 72.4173L56.4501 71.5378Z" fill="#24408F"/>
<path d="M54.8027 70.7394L55.9515 70.9288L54.8163 70.6582L54.8027 70.7394Z" fill="#24408F"/>
<path d="M55.8835 74.3381L54.3563 74.2299V74.1758C54.2212 74.1758 54.086 74.1893 53.9238 74.2028V74.2705L56.2619 74.3517V74.3111C56.1132 74.3111 55.9916 74.3111 55.8699 74.2976V74.3381H55.8835Z" fill="#24408F"/>
<path d="M71.6133 74.622L71.762 74.5679L71.3836 74.1484L70.7754 74.189L70.843 74.3379L71.316 74.2973L71.6133 74.622Z" fill="#24408F"/>
<path d="M68.8574 73.8645L68.9655 73.9862C69.1412 73.8239 69.2899 73.7697 69.4115 73.7968C69.5872 73.8374 69.6683 74.0539 69.6683 74.0539L69.817 73.9998C69.817 73.9998 69.7088 73.7021 69.4521 73.648C69.2764 73.6074 69.0737 73.675 68.8574 73.878V73.8645Z" fill="#24408F"/>
<path d="M69.6274 76.4766C69.276 76.4766 68.9922 76.7607 68.9922 77.126C68.9922 77.4914 69.276 77.762 69.6274 77.762C69.9788 77.762 70.2626 77.4778 70.2626 77.126C70.2626 76.7742 69.9788 76.4766 69.6274 76.4766ZM69.6274 77.4372C69.4517 77.4372 69.3165 77.3019 69.3165 77.126C69.3165 76.9501 69.4517 76.8148 69.6274 76.8148C69.8031 76.8148 69.9382 76.9501 69.9382 77.126C69.9382 77.3019 69.8031 77.4372 69.6274 77.4372Z" fill="#24408F"/>
<path d="M97.3874 19.7422H57.8164V49.1984H97.3874L88.5488 34.4906L97.3874 19.7422Z" fill="#24408F"/>
<path d="M71.2779 21.041H59.2363V47.9129H71.2779V21.041Z" fill="white"/>
<path d="M21.5566 109.546V95.8802H26.8544V98.2346H23.5163V107.192H23.5838C24.2866 107.192 24.9894 107.124 25.6921 106.975C26.3949 106.827 27.0842 106.637 27.7599 106.394V108.68C27.1517 108.937 26.4084 109.14 25.5705 109.303C24.7191 109.465 23.8812 109.546 23.0297 109.546H21.5566ZM33.355 114.742H31.4224V103.85H30.179V114.228H28.2599V94.3648H30.179V101.495H31.4224V94.1348H33.355V114.728V114.742Z" fill="#24408F"/>
<path d="M35.0312 99.6689V97.5582H43.951V99.6689H35.0312ZM39.5587 107.53C38.9775 107.53 38.464 107.422 38.018 107.219C37.572 107.016 37.2071 106.745 36.9098 106.407C36.6125 106.069 36.3827 105.69 36.2341 105.257C36.0854 104.824 36.0043 104.364 36.0043 103.891C36.0043 103.417 36.0854 102.984 36.2341 102.551C36.3827 102.118 36.6125 101.726 36.9098 101.387C37.2071 101.049 37.572 100.778 38.018 100.575C38.464 100.373 38.9775 100.278 39.5587 100.278C40.1398 100.278 40.6534 100.373 41.0858 100.575C41.5318 100.778 41.8967 101.049 42.194 101.387C42.4914 101.726 42.7211 102.118 42.8833 102.551C43.032 102.984 43.113 103.43 43.113 103.891C43.113 104.351 43.032 104.824 42.8833 105.257C42.7346 105.69 42.5049 106.082 42.194 106.407C41.8967 106.745 41.5183 107.016 41.0858 107.219C40.6534 107.422 40.1398 107.53 39.5587 107.53ZM36.9233 96.5028V94.2973H42.1805V96.5028H36.9233ZM46.9377 114.35H37.4369V109.1H39.4235V112.009H46.9377V114.336V114.35ZM39.5587 105.501C40.1533 105.501 40.5858 105.338 40.8426 105.027C41.1129 104.702 41.2345 104.337 41.2345 103.904C41.2345 103.471 41.0993 103.079 40.8426 102.754C40.5858 102.429 40.1533 102.267 39.5452 102.267C38.937 102.267 38.4775 102.429 38.2207 102.754C37.9639 103.079 37.8423 103.471 37.8423 103.904C37.8423 104.337 37.9639 104.702 38.2207 105.027C38.4775 105.352 38.91 105.501 39.5452 105.501H39.5587ZM48.8433 103.322H46.6404V109.763H44.6807V94.1484H46.6404V100.968H48.8433V103.322Z" fill="#24408F"/>
<path d="M49.209 107.422V105.135H62.8318V107.422H57.1691V114.647H55.169V107.422H49.209ZM57.3448 94.5137C57.3719 95.0278 57.3448 95.542 57.2773 96.0291C57.2097 96.5162 57.1016 97.0033 56.9529 97.4769C57.2232 97.9911 57.5476 98.4646 57.926 98.8705C58.3179 99.29 58.7368 99.6553 59.1828 99.9801C59.6423 100.305 60.1289 100.589 60.6424 100.832C61.156 101.076 61.6831 101.279 62.2236 101.414L61.2236 103.593C60.1424 103.254 59.1558 102.754 58.2638 102.077C57.3719 101.414 56.588 100.616 55.9258 99.6824C55.3176 100.616 54.5878 101.428 53.7229 102.131C52.858 102.822 51.9254 103.376 50.9254 103.755L49.8982 101.617C50.7497 101.306 51.52 100.914 52.1957 100.44C52.8715 99.9665 53.4391 99.4253 53.8986 98.83C54.3581 98.2346 54.7095 97.5716 54.9527 96.8409C55.196 96.1103 55.3176 95.339 55.3041 94.5137H57.3583H57.3448Z" fill="#24408F"/>
<path d="M71.1559 107.111C72.4939 107.246 73.521 107.652 74.2103 108.328C74.8995 109.005 75.2509 109.884 75.2509 110.953C75.2509 112.144 74.8184 113.091 73.9535 113.822C73.0885 114.552 71.8452 114.904 70.1964 114.904C68.5476 114.904 67.2772 114.539 66.4258 113.822C65.5744 113.091 65.1419 112.144 65.1419 110.953C65.1419 109.898 65.4798 109.032 66.169 108.369C66.8583 107.692 67.8448 107.286 69.1423 107.138V105.338H63.2363V103.092H77.143V105.338H71.1424V107.111H71.1559ZM65.4933 94.73H72.2101C72.8182 94.73 73.4534 94.7165 74.1427 94.6895C74.4941 94.6895 74.6022 94.9601 74.4806 95.5148C74.3319 96.1372 74.0616 96.7326 73.6832 97.3009C73.3048 97.8692 72.8318 98.4104 72.2506 98.9381C72.8723 99.2493 73.5345 99.5199 74.2238 99.7364C74.913 99.9529 75.6158 100.142 76.3456 100.291L75.6563 102.267C74.7509 102.037 73.8724 101.739 73.0345 101.414C72.1966 101.076 71.3857 100.656 70.6018 100.156C69.8045 100.643 68.9395 101.076 67.9935 101.441C67.0475 101.807 66.0609 102.104 65.0068 102.307L64.277 100.291C65.3311 100.102 66.2636 99.8717 67.0745 99.5875C67.8989 99.3034 68.6152 99.0193 69.2233 98.6945C69.8315 98.3833 70.3315 98.0586 70.737 97.7339C71.1289 97.4091 71.4397 97.1114 71.629 96.8273V96.8002C71.0613 96.8273 70.4937 96.8544 69.9396 96.8814C69.3855 96.9085 68.8179 96.9085 68.2503 96.9085H65.4663V94.703L65.4933 94.73ZM70.2099 109.167C69.6423 109.167 69.1828 109.221 68.7909 109.316C68.3989 109.411 68.1016 109.546 67.8719 109.708C67.6421 109.884 67.4664 110.074 67.3718 110.29C67.2772 110.507 67.2232 110.723 67.2232 110.94C67.2232 111.17 67.2772 111.4 67.3718 111.616C67.4664 111.833 67.6421 112.022 67.8719 112.198C68.1016 112.36 68.4125 112.509 68.7909 112.604C69.1693 112.712 69.6423 112.753 70.2099 112.753C70.7775 112.753 71.237 112.699 71.629 112.604C72.0074 112.496 72.3182 112.36 72.548 112.198C72.7777 112.022 72.9534 111.833 73.048 111.616C73.1426 111.4 73.1967 111.17 73.1967 110.94C73.1967 110.71 73.1426 110.493 73.048 110.29C72.9534 110.074 72.7777 109.884 72.548 109.708C72.3182 109.546 72.0074 109.411 71.629 109.316C71.2505 109.221 70.7775 109.167 70.2099 109.167Z" fill="#24408F"/>
<path d="M79.5488 103.456C79.5488 102.956 79.6705 102.536 79.9002 102.198C80.1435 101.86 80.4543 101.697 80.8327 101.697C81.2111 101.697 81.522 101.86 81.7652 102.198C82.0085 102.536 82.1166 102.956 82.1166 103.456C82.1166 103.957 81.995 104.376 81.7652 104.715C81.522 105.053 81.2111 105.215 80.8327 105.215C80.4543 105.215 80.1435 105.053 79.9002 104.715C79.6569 104.376 79.5488 103.97 79.5488 103.456Z" fill="#24408F"/>
<path d="M86.2665 103.525L86.1854 98.2618H88.1045L88.172 103.525H90.0371C90.2263 103.525 90.4019 103.525 90.5912 103.498L90.6587 98.2482H92.5778L92.4967 103.295C92.8211 103.241 93.1589 103.173 93.4833 103.092C93.8212 103.025 94.159 102.93 94.5104 102.808V105.027C93.7671 105.325 92.9697 105.528 92.1183 105.622C91.2669 105.731 90.402 105.785 89.537 105.785H84.6582V103.525H86.28H86.2665ZM84.942 97.5987V95.285H93.659V97.5987H84.942ZM97.1728 114.35H87.672V107.95H89.6586V112.009H97.1728V114.336V114.35ZM94.9159 94.1484H96.889V109.438H94.9159V94.1484Z" fill="#24408F"/>
<path d="M98.793 107.422V105.135H112.416V107.422H106.753V114.647H104.753V107.422H98.793ZM106.915 94.5137C106.942 95.0278 106.915 95.542 106.848 96.0291C106.78 96.5162 106.672 97.0033 106.523 97.4769C106.794 97.9911 107.118 98.4646 107.496 98.8705C107.888 99.29 108.307 99.6553 108.753 99.9801C109.213 100.305 109.699 100.589 110.213 100.832C110.726 101.076 111.254 101.279 111.794 101.414L110.794 103.593C109.713 103.254 108.726 102.754 107.834 102.077C106.942 101.414 106.158 100.616 105.496 99.6824C104.888 100.616 104.158 101.428 103.293 102.131C102.428 102.822 101.496 103.376 100.496 103.755L99.4687 101.617C100.32 101.306 101.09 100.914 101.766 100.44C102.442 99.9665 103.01 99.4253 103.469 98.83C103.929 98.2346 104.28 97.5716 104.523 96.8409C104.766 96.1103 104.888 95.339 104.875 94.5137H106.929H106.915Z" fill="#24408F"/>
<path d="M120.294 96.2592H123.254V94.1484H125.227V106.285H123.254V103.079H120.51C120.172 103.674 119.74 104.134 119.226 104.486C118.713 104.824 118.132 105 117.483 105C116.915 105 116.388 104.865 115.929 104.608C115.469 104.337 115.064 103.972 114.726 103.512C114.388 103.038 114.131 102.497 113.942 101.874C113.753 101.252 113.658 100.576 113.658 99.8584C113.658 99.1413 113.753 98.4512 113.942 97.8288C114.131 97.2064 114.388 96.6516 114.726 96.1916C115.064 95.7315 115.469 95.3527 115.929 95.082C116.388 94.8114 116.915 94.6761 117.483 94.6761C118.05 94.6761 118.605 94.825 119.091 95.1091C119.564 95.3933 119.97 95.7992 120.307 96.2998L120.294 96.2592ZM120.429 106.11C121.253 106.11 121.983 106.218 122.591 106.448C123.213 106.678 123.727 106.989 124.146 107.381C124.565 107.774 124.862 108.234 125.078 108.775C125.281 109.303 125.389 109.885 125.389 110.507C125.389 111.129 125.281 111.711 125.078 112.239C124.875 112.767 124.565 113.24 124.146 113.633C123.727 114.025 123.213 114.336 122.591 114.566C121.97 114.796 121.253 114.904 120.429 114.904C119.605 114.904 118.888 114.796 118.267 114.566C117.659 114.336 117.145 114.025 116.74 113.633C116.334 113.24 116.023 112.78 115.821 112.239C115.618 111.711 115.51 111.129 115.51 110.507C115.51 109.885 115.618 109.303 115.821 108.775C116.023 108.247 116.334 107.774 116.74 107.381C117.145 106.989 117.659 106.678 118.267 106.448C118.875 106.218 119.605 106.11 120.429 106.11ZM115.564 99.8448C115.564 100.724 115.739 101.414 116.077 101.942C116.415 102.47 116.888 102.727 117.469 102.727C118.05 102.727 118.496 102.47 118.848 101.942C119.186 101.414 119.361 100.711 119.361 99.8448C119.361 98.9789 119.186 98.2888 118.848 97.7476C118.51 97.2064 118.05 96.9357 117.469 96.9357C116.888 96.9357 116.442 97.2064 116.091 97.7476C115.739 98.2888 115.564 98.9924 115.564 99.8448ZM120.429 108.356C119.888 108.356 119.429 108.41 119.064 108.532C118.699 108.653 118.388 108.816 118.159 109.005C117.929 109.208 117.753 109.438 117.645 109.695C117.537 109.952 117.483 110.223 117.483 110.507C117.483 110.791 117.537 111.062 117.645 111.319C117.753 111.576 117.915 111.806 118.159 112.009C118.388 112.212 118.699 112.374 119.064 112.482C119.429 112.604 119.888 112.658 120.429 112.658C120.97 112.658 121.429 112.604 121.808 112.482C122.186 112.361 122.497 112.198 122.727 112.009C122.97 111.806 123.132 111.576 123.24 111.319C123.348 111.062 123.402 110.791 123.402 110.507C123.402 110.223 123.348 109.952 123.24 109.695C123.132 109.438 122.956 109.208 122.727 109.005C122.483 108.802 122.186 108.653 121.808 108.532C121.429 108.41 120.97 108.356 120.429 108.356ZM121.213 100.954H123.267V98.3835H121.159C121.253 98.8571 121.308 99.3442 121.308 99.8448C121.308 100.034 121.308 100.224 121.28 100.413C121.267 100.603 121.24 100.778 121.226 100.954H121.213Z" fill="#24408F"/>
<path d="M127.188 98.9239V97.0161H136.107V98.9239H127.188ZM131.661 105.987C131.093 105.987 130.593 105.892 130.161 105.716C129.728 105.527 129.377 105.283 129.093 104.986C128.809 104.688 128.593 104.336 128.444 103.944C128.296 103.551 128.228 103.145 128.228 102.713C128.228 102.28 128.309 101.887 128.444 101.495C128.593 101.102 128.809 100.751 129.093 100.453C129.377 100.155 129.742 99.9117 130.161 99.7358C130.593 99.5599 131.093 99.4651 131.661 99.4651C132.228 99.4651 132.715 99.5599 133.147 99.7358C133.58 99.9117 133.931 100.155 134.229 100.453C134.526 100.751 134.742 101.102 134.891 101.495C135.04 101.887 135.107 102.293 135.107 102.713C135.107 103.132 135.04 103.551 134.891 103.944C134.742 104.336 134.526 104.688 134.229 104.986C133.931 105.283 133.58 105.54 133.147 105.716C132.715 105.906 132.228 105.987 131.661 105.987ZM129.08 96.0419V94.0664H134.337V96.0419H129.08ZM139.364 114.43H129.958V106.988H131.931V108.544H137.432V106.839H139.364V114.444V114.43ZM131.661 104.066C132.228 104.066 132.634 103.93 132.877 103.646C133.12 103.362 133.242 103.051 133.242 102.713C133.242 102.347 133.12 102.022 132.891 101.752C132.647 101.481 132.242 101.346 131.661 101.346C131.08 101.346 130.647 101.481 130.418 101.752C130.174 102.022 130.066 102.334 130.066 102.713C130.066 103.091 130.188 103.389 130.418 103.66C130.661 103.93 131.066 104.066 131.661 104.066ZM137.432 112.306V110.641H131.918V112.306H137.432ZM135.58 101.725V99.641H137.405V94.1476H139.378V105.973H137.405V105.283H135.58V103.2H137.418V101.738H135.58V101.725Z" fill="#24408F"/>
<path d="M147.501 107.611V109.235C148.19 109.195 148.866 109.127 149.555 109.059C150.231 108.992 150.879 108.897 151.488 108.775V110.967C150.933 111.089 150.339 111.184 149.704 111.265C149.082 111.346 148.447 111.414 147.798 111.468C147.149 111.522 146.514 111.562 145.865 111.589C145.23 111.617 144.622 111.63 144.041 111.63H141.514V109.37H144.744C145 109.37 145.257 109.37 145.541 109.343V107.639C144.649 107.463 143.973 107.057 143.514 106.421C143.054 105.785 142.811 105.014 142.811 104.107C142.811 103.606 142.892 103.133 143.054 102.7C143.217 102.267 143.446 101.888 143.757 101.563C144.068 101.238 144.446 100.995 144.906 100.819C145.352 100.643 145.879 100.548 146.474 100.548C147.068 100.548 147.568 100.643 148.028 100.819C148.474 100.995 148.866 101.252 149.177 101.563C149.487 101.888 149.731 102.253 149.879 102.7C150.041 103.133 150.123 103.606 150.123 104.107C150.123 105 149.906 105.744 149.46 106.367C149.014 106.989 148.366 107.408 147.528 107.611H147.501ZM141.879 100.021V97.8829H150.987V100.021H141.879ZM143.663 96.9087V94.7303H149.068V96.9087H143.663ZM148.149 104.107C148.149 103.674 148.028 103.309 147.771 103.011C147.514 102.713 147.082 102.551 146.46 102.551C145.838 102.551 145.379 102.7 145.136 103.011C144.892 103.309 144.757 103.688 144.757 104.107C144.757 104.581 144.879 104.959 145.136 105.257C145.379 105.541 145.825 105.69 146.46 105.69C147.095 105.69 147.528 105.541 147.771 105.257C148.014 104.973 148.149 104.581 148.149 104.107ZM153.893 114.742H151.934V94.1484H153.893V114.742Z" fill="#24408F"/>
<path d="M0.851426 101.481L0 100.709C0.391926 100.371 0.756823 100.006 1.08118 99.5998C1.40553 99.1939 1.67582 98.7339 1.90557 98.2062C2.12181 97.692 2.28398 97.0967 2.3921 96.4472C2.50022 95.7977 2.52725 95.0535 2.47319 94.2282H3.68951C3.68951 94.7017 3.68951 95.1618 3.66248 95.5812C3.63545 96.0007 3.5814 96.4201 3.50031 96.8125C3.74357 97.5838 4.06792 98.2603 4.47337 98.8421C4.86529 99.4239 5.36534 99.9381 5.95998 100.398L5.17613 101.291C4.25713 100.561 3.54085 99.6404 3.02729 98.5309C2.78403 99.1398 2.4867 99.681 2.12181 100.168C1.75691 100.655 1.33796 101.088 0.864941 101.481H0.851426ZM8.63589 98.3009H7.24388V103.551H6.0681V93.6328H7.24388V97.1643H8.63589V98.3009Z" fill="#24408F"/>
<path d="M9.18945 94.1336H13.4196V95.2431H10.3652V98.071H11.2302C11.7843 98.071 12.3249 98.0304 12.8384 97.9492C13.352 97.868 13.825 97.7869 14.2845 97.7057V98.7611C14.0818 98.8152 13.8385 98.8693 13.5817 98.9234C13.325 98.9776 13.0411 99.0182 12.7573 99.0452C12.4735 99.0858 12.1762 99.1129 11.8654 99.1264C11.568 99.1535 11.2707 99.1535 10.9734 99.1535H9.18945V94.1065V94.1336ZM15.8657 103.361H10.2436V100.425H11.4329V102.238H15.8657V103.361ZM17.0009 97.3539H15.69V100.994H14.5278V93.6465H15.69V96.2308H17.0009V97.3674V97.3539Z" fill="#24408F"/>
<path d="M4.95987 108.624H6.46001V106.473H7.63579V111.75H6.46001V109.693H4.95987V111.465H0.837891V106.757H2.00015V108.15H3.83815V106.757H4.97339V108.624H4.95987ZM3.82464 109.206H1.98664V110.41H3.82464V109.206ZM7.63579 116.242H2.0407V112.223H3.18945V113.143H6.47352V112.169H7.63579V116.242ZM6.47352 115.132V114.199H3.18945V115.132H6.47352Z" fill="#24408F"/>
<path d="M9.08187 109.436C9.08187 109.071 9.13593 108.719 9.25756 108.408C9.36568 108.096 9.52786 107.826 9.73058 107.582C9.9333 107.352 10.1766 107.163 10.4604 107.041C10.7442 106.906 11.055 106.838 11.3929 106.838C11.7308 106.838 12.0551 106.906 12.3389 107.041C12.6227 107.176 12.8795 107.352 13.0822 107.582C13.2849 107.812 13.4471 108.083 13.5688 108.408C13.6904 108.719 13.7444 109.071 13.7444 109.436C13.7444 109.801 13.6904 110.126 13.5688 110.437C13.4471 110.748 13.2849 111.019 13.0822 111.249C12.8795 111.479 12.6227 111.655 12.3389 111.79C12.0551 111.926 11.7308 111.993 11.3929 111.993C11.055 111.993 10.7442 111.926 10.4469 111.79C10.1631 111.655 9.91979 111.479 9.71706 111.249C9.51434 111.019 9.35217 110.748 9.24405 110.437C9.13593 110.126 9.06836 109.788 9.06836 109.436H9.08187ZM10.2847 109.436C10.2847 109.869 10.3793 110.221 10.582 110.464C10.7847 110.721 11.055 110.843 11.4064 110.843C11.7578 110.843 12.0281 110.721 12.2308 110.464C12.4335 110.207 12.5416 109.869 12.5416 109.436C12.5416 108.976 12.4335 108.61 12.2308 108.353C12.0281 108.096 11.7443 107.961 11.4064 107.961C11.0685 107.961 10.7847 108.096 10.582 108.353C10.3793 108.61 10.2847 108.976 10.2847 109.436ZM16.2582 116.201H10.5144V113.143H11.6767V115.078H16.2582V116.201ZM16.0825 113.522H14.9202V106.473H16.0825V113.522Z" fill="#24408F"/>
<path d="M0.798828 127.866V119.721H2.3395V123.333L5.44789 119.721H7.51563L4.65052 122.887L7.67781 127.853H5.69115L3.59637 124.037L2.35302 125.39V127.853H0.798828V127.866Z" fill="#24408F"/>
<path d="M8.12484 124.836C8.12484 124.322 8.24648 123.821 8.48974 123.334C8.733 122.847 9.07087 122.482 9.50334 122.225C9.93581 121.967 10.4359 121.846 10.9764 121.846C11.8144 121.846 12.4901 122.13 13.0307 122.712C13.5713 123.293 13.828 124.024 13.828 124.904C13.828 125.783 13.5578 126.541 13.0172 127.123C12.4766 127.704 11.8008 128.002 10.9764 128.002C10.4764 128.002 9.98987 127.88 9.53037 127.637C9.07087 127.393 8.71949 127.028 8.47622 126.554C8.23296 126.081 8.11133 125.513 8.11133 124.836H8.12484ZM9.62497 124.917C9.62497 125.499 9.76012 125.945 10.0169 126.257C10.2737 126.568 10.598 126.717 10.9764 126.717C11.3549 126.717 11.6792 126.554 11.936 126.257C12.1928 125.945 12.3279 125.499 12.3279 124.904C12.3279 124.308 12.1928 123.889 11.936 123.578C11.6792 123.266 11.3549 123.118 10.9764 123.118C10.598 123.118 10.2737 123.266 10.0169 123.578C9.76012 123.889 9.62497 124.335 9.62497 124.917Z" fill="#24408F"/>
<path d="M16.3678 127.867H14.9082V121.967H16.2597V122.806C16.4894 122.414 16.7057 122.143 16.8813 122.021C17.0706 121.9 17.2733 121.832 17.5165 121.832C17.8544 121.832 18.1652 121.927 18.4761 122.13L18.0301 123.496C17.7868 123.32 17.5571 123.239 17.3408 123.239C17.1246 123.239 16.9624 123.293 16.8273 123.415C16.6921 123.537 16.5705 123.753 16.4894 124.065C16.4083 124.376 16.3678 125.039 16.3678 126.04V127.867Z" fill="#24408F"/>
<path d="M22.3153 126L23.7749 126.257C23.5857 126.825 23.2884 127.258 22.8829 127.556C22.4775 127.853 21.9774 128.002 21.3693 128.002C20.4097 128.002 19.6934 127.664 19.2339 127.001C18.869 126.46 18.6934 125.783 18.6934 124.971C18.6934 123.997 18.9366 123.226 19.4096 122.671C19.8827 122.116 20.4908 121.846 21.2206 121.846C22.045 121.846 22.6937 122.13 23.1667 122.712C23.6397 123.293 23.8695 124.173 23.8425 125.377H20.18C20.18 125.837 20.3016 126.203 20.5314 126.46C20.7611 126.717 21.0314 126.852 21.3693 126.852C21.599 126.852 21.7882 126.784 21.9504 126.649C22.1126 126.514 22.2207 126.297 22.3018 126H22.3153ZM22.3964 124.417C22.3964 123.97 22.2748 123.618 22.072 123.388C21.8693 123.158 21.6125 123.036 21.3152 123.036C20.9909 123.036 20.7341 123.158 20.5178 123.415C20.3151 123.659 20.207 123.997 20.207 124.43H22.3964V124.417Z" fill="#24408F"/>
<path d="M26.1254 123.767L24.801 123.51C24.9497 122.942 25.2064 122.522 25.5713 122.238C25.9362 121.967 26.4768 121.832 27.1931 121.832C27.8418 121.832 28.3283 121.913 28.6527 122.076C28.977 122.238 29.1933 122.454 29.3284 122.698C29.4636 122.955 29.5176 123.415 29.5176 124.092V125.918C29.5041 126.432 29.5176 126.825 29.5717 127.068C29.6122 127.312 29.7068 127.583 29.8285 127.853H28.3824C28.3419 127.745 28.3013 127.596 28.2473 127.393C28.2202 127.298 28.2067 127.244 28.1932 127.217C27.9364 127.474 27.6796 127.664 27.3958 127.799C27.112 127.934 26.8012 127.988 26.4903 127.988C25.9227 127.988 25.4767 127.826 25.1389 127.488C24.8145 127.163 24.6523 126.744 24.6523 126.243C24.6523 125.905 24.7334 125.607 24.8821 125.35C25.0308 125.093 25.247 124.89 25.5038 124.755C25.7741 124.619 26.166 124.498 26.666 124.389C27.3553 124.254 27.8283 124.119 28.0851 124.01V123.848C28.0851 123.55 28.0175 123.334 27.8824 123.212C27.7472 123.09 27.4769 123.023 27.0985 123.023C26.8417 123.023 26.639 123.077 26.4903 123.185C26.3417 123.293 26.2336 123.483 26.139 123.753L26.1254 123.767ZM28.0851 125.039C27.8959 125.106 27.5985 125.188 27.1931 125.282C26.7877 125.377 26.5174 125.458 26.3957 125.553C26.2065 125.702 26.1119 125.878 26.1119 126.108C26.1119 126.338 26.193 126.514 26.3417 126.676C26.4903 126.838 26.6931 126.92 26.9228 126.92C27.1931 126.92 27.4364 126.825 27.6796 126.635C27.8553 126.5 27.977 126.324 28.031 126.121C28.0716 125.986 28.0851 125.729 28.0851 125.364V125.052V125.039Z" fill="#24408F"/>
<path d="M33.9238 119.734H35.4645V124.145C35.4645 124.849 35.478 125.295 35.5186 125.512C35.5861 125.85 35.7348 126.107 35.9916 126.31C36.2348 126.513 36.5727 126.608 37.0052 126.608C37.4376 126.608 37.7755 126.513 37.9918 126.324C38.208 126.134 38.3431 125.904 38.3972 125.62C38.4377 125.336 38.4648 124.876 38.4648 124.24V119.734H40.0054V124.01C40.0054 124.984 39.9649 125.674 39.8838 126.08C39.8027 126.486 39.6405 126.824 39.4243 127.095C39.1946 127.379 38.8972 127.595 38.5323 127.758C38.1539 127.92 37.6674 128.001 37.0592 128.001C36.3294 128.001 35.7753 127.907 35.3969 127.731C35.0185 127.555 34.7212 127.325 34.505 127.027C34.2887 126.743 34.1401 126.445 34.0725 126.121C33.9779 125.661 33.9238 124.97 33.9238 124.05V119.707V119.734Z" fill="#24408F"/>
<path d="M46.6406 127.867H45.181V124.863C45.181 124.227 45.154 123.821 45.0864 123.631C45.0188 123.442 44.9242 123.293 44.7756 123.198C44.6404 123.09 44.4647 123.036 44.262 123.036C44.0052 123.036 43.7755 123.104 43.5863 123.253C43.3835 123.401 43.2484 123.591 43.1673 123.834C43.0862 124.078 43.0592 124.524 43.0592 125.187V127.853H41.5996V121.954H42.9511V122.82C43.4376 122.157 44.0458 121.818 44.7756 121.818C45.0999 121.818 45.3972 121.872 45.654 122.008C45.9243 122.13 46.127 122.292 46.2622 122.481C46.3973 122.671 46.4919 122.887 46.546 123.131C46.6 123.374 46.6271 123.726 46.6271 124.186V127.853L46.6406 127.867Z" fill="#24408F"/>
<path d="M53.1951 127.866H51.8436V127C51.6139 127.338 51.3571 127.582 51.0463 127.758C50.7354 127.92 50.4246 128.001 50.1138 128.001C49.4786 128.001 48.938 127.731 48.4785 127.176C48.0325 126.635 47.8027 125.863 47.8027 124.889C47.8027 123.915 48.019 123.13 48.465 122.616C48.9109 122.102 49.465 121.831 50.1408 121.831C50.7625 121.831 51.2895 122.102 51.749 122.657V119.72H53.2086V127.866H53.1951ZM49.2894 124.794C49.2894 125.417 49.3704 125.877 49.5326 126.161C49.7624 126.567 50.1002 126.77 50.5192 126.77C50.8571 126.77 51.1409 126.621 51.3841 126.31C51.6139 125.999 51.7355 125.552 51.7355 124.943C51.7355 124.267 51.6274 123.78 51.3976 123.482C51.1679 123.184 50.8706 123.035 50.5192 123.035C50.1678 123.035 49.884 123.184 49.6543 123.482C49.4245 123.78 49.3029 124.213 49.3029 124.794H49.2894Z" fill="#24408F"/>
<path d="M57.8309 126L59.2905 126.257C59.1013 126.825 58.804 127.258 58.3985 127.556C57.9931 127.853 57.4931 128.002 56.8849 128.002C55.9254 128.002 55.2091 127.664 54.7496 127.001C54.3847 126.46 54.209 125.783 54.209 124.971C54.209 123.997 54.4522 123.226 54.9253 122.671C55.3983 122.116 56.0064 121.846 56.7362 121.846C57.5606 121.846 58.2093 122.13 58.6823 122.712C59.1554 123.293 59.3851 124.173 59.3581 125.377H55.6956C55.6956 125.837 55.8172 126.203 56.047 126.46C56.2767 126.717 56.547 126.852 56.8849 126.852C57.1146 126.852 57.3039 126.784 57.466 126.649C57.6282 126.514 57.7363 126.297 57.8174 126H57.8309ZM57.912 124.417C57.912 123.97 57.7904 123.618 57.5877 123.388C57.3849 123.158 57.1282 123.036 56.8308 123.036C56.5065 123.036 56.2497 123.158 56.0335 123.415C55.8307 123.659 55.7226 123.997 55.7226 124.43H57.912V124.417Z" fill="#24408F"/>
<path d="M61.9537 127.867H60.4941V121.967H61.8456V122.806C62.0754 122.414 62.2916 122.143 62.4673 122.021C62.6565 121.9 62.8592 121.832 63.1025 121.832C63.4403 121.832 63.7512 121.927 64.062 122.13L63.616 123.496C63.3728 123.32 63.143 123.239 62.9268 123.239C62.7106 123.239 62.5484 123.293 62.4132 123.415C62.2781 123.537 62.1565 123.753 62.0754 124.065C61.9943 124.376 61.9537 125.039 61.9537 126.04V127.867Z" fill="#24408F"/>
<path d="M65.7375 127.866L63.9941 121.967H65.4132L66.4538 125.837L67.3998 121.967H68.8054L69.7244 125.837L70.7785 121.967H72.2246L70.4542 127.866H69.0486L68.1026 124.078L67.1701 127.866H65.7511H65.7375Z" fill="#24408F"/>
<path d="M74.0883 123.767L72.7639 123.51C72.9126 122.942 73.1693 122.522 73.5342 122.238C73.8991 121.967 74.4397 121.832 75.156 121.832C75.8047 121.832 76.2912 121.913 76.6156 122.076C76.9399 122.238 77.1562 122.454 77.2913 122.698C77.4265 122.955 77.4805 123.415 77.4805 124.092V125.918C77.467 126.432 77.4805 126.825 77.5346 127.068C77.5751 127.312 77.6697 127.583 77.7914 127.853H76.3453C76.3048 127.745 76.2642 127.596 76.2101 127.393C76.1831 127.298 76.1696 127.244 76.1561 127.217C75.8993 127.474 75.6425 127.664 75.3587 127.799C75.0749 127.934 74.7776 127.988 74.4532 127.988C73.8856 127.988 73.4396 127.826 73.1018 127.488C72.7774 127.163 72.6152 126.744 72.6152 126.243C72.6152 125.905 72.6963 125.607 72.845 125.35C72.9936 125.093 73.2099 124.89 73.4667 124.755C73.737 124.619 74.1289 124.498 74.6289 124.389C75.3182 124.254 75.7912 124.119 76.048 124.01V123.848C76.048 123.55 75.9804 123.334 75.8452 123.212C75.7101 123.09 75.4398 123.023 75.0614 123.023C74.8046 123.023 74.6019 123.077 74.4532 123.185C74.3046 123.293 74.1965 123.483 74.1019 123.753L74.0883 123.767ZM76.0345 125.039C75.8452 125.106 75.5479 125.188 75.1425 125.282C74.737 125.377 74.4667 125.458 74.3451 125.553C74.1559 125.702 74.0613 125.878 74.0613 126.108C74.0613 126.338 74.1424 126.514 74.2911 126.676C74.4397 126.838 74.6424 126.92 74.8722 126.92C75.1425 126.92 75.3857 126.825 75.629 126.635C75.8047 126.5 75.9263 126.324 75.9804 126.121C76.0209 125.986 76.0345 125.729 76.0345 125.364V125.052V125.039Z" fill="#24408F"/>
<path d="M81.4559 121.967V123.211H80.4558V125.593C80.4558 126.08 80.4558 126.351 80.4828 126.432C80.4963 126.513 80.5504 126.581 80.618 126.635C80.6855 126.689 80.7666 126.716 80.8612 126.716C80.9964 126.716 81.1991 126.662 81.4559 126.567L81.5775 127.771C81.2396 127.934 80.8477 128.001 80.4288 128.001C80.172 128.001 79.9287 127.947 79.7125 127.866C79.4962 127.771 79.3476 127.65 79.253 127.501C79.1584 127.352 79.0908 127.149 79.0503 126.892C79.0232 126.716 79.0097 126.351 79.0097 125.796V123.225H78.334V121.98H79.0097V120.803L80.4828 119.896V121.98H81.4829L81.4559 121.967Z" fill="#24408F"/>
<path d="M85.6708 126L87.1304 126.257C86.9412 126.825 86.6438 127.258 86.2384 127.556C85.8329 127.853 85.3329 128.002 84.7247 128.002C83.7652 128.002 83.0489 127.664 82.5894 127.001C82.2245 126.46 82.0488 125.783 82.0488 124.971C82.0488 123.997 82.2921 123.226 82.7651 122.671C83.2381 122.116 83.8463 121.846 84.5761 121.846C85.4005 121.846 86.0492 122.13 86.5222 122.712C86.9952 123.293 87.225 124.173 87.1979 125.377H83.5354C83.5354 125.837 83.6571 126.203 83.8868 126.46C84.1166 126.717 84.3869 126.852 84.7247 126.852C84.9545 126.852 85.1437 126.784 85.3059 126.649C85.468 126.514 85.5762 126.297 85.6573 126H85.6708ZM85.7519 124.417C85.7519 123.97 85.6302 123.618 85.4275 123.388C85.2248 123.158 84.968 123.036 84.6707 123.036C84.3463 123.036 84.0896 123.158 83.8733 123.415C83.6706 123.659 83.5625 123.997 83.5625 124.43H85.7519V124.417Z" fill="#24408F"/>
<path d="M89.7936 127.867H88.334V121.967H89.6855V122.806C89.9152 122.414 90.1314 122.143 90.3071 122.021C90.4963 121.9 90.6991 121.832 90.9423 121.832C91.2802 121.832 91.591 121.927 91.9019 122.13L91.4559 123.496C91.2126 123.32 90.9829 123.239 90.7666 123.239C90.5504 123.239 90.3882 123.293 90.2531 123.415C90.1179 123.537 89.9963 123.753 89.9152 124.065C89.8341 124.376 89.7936 125.039 89.7936 126.04V127.867Z" fill="#24408F"/>
<path d="M101.983 127.866H100.307L99.6451 126.012H96.5908L95.9556 127.866H94.3203L97.2935 119.721H98.9288L101.983 127.866ZM99.1586 124.646L98.1044 121.629L97.0773 124.646H99.1586Z" fill="#24408F"/>
<path d="M102.279 126.189L103.752 125.945C103.82 126.243 103.942 126.473 104.131 126.635C104.32 126.798 104.59 126.865 104.928 126.865C105.307 126.865 105.59 126.798 105.78 126.649C105.901 126.541 105.969 126.405 105.969 126.229C105.969 126.108 105.928 126.013 105.861 125.932C105.793 125.864 105.631 125.783 105.374 125.729C104.198 125.445 103.442 125.201 103.131 124.971C102.698 124.646 102.482 124.213 102.482 123.645C102.482 123.131 102.671 122.712 103.05 122.36C103.428 122.008 104.009 121.832 104.807 121.832C105.604 121.832 106.131 121.967 106.496 122.224C106.861 122.482 107.118 122.874 107.253 123.388L105.874 123.659C105.82 123.429 105.699 123.253 105.536 123.131C105.374 123.009 105.131 122.942 104.834 122.942C104.455 122.942 104.171 122.996 104.009 123.117C103.901 123.199 103.847 123.307 103.847 123.429C103.847 123.537 103.901 123.632 103.996 123.713C104.131 123.821 104.577 123.97 105.361 124.146C106.144 124.335 106.685 124.565 106.996 124.836C107.307 125.12 107.455 125.499 107.455 125.999C107.455 126.541 107.239 127.001 106.82 127.393C106.401 127.786 105.766 127.975 104.942 127.975C104.185 127.975 103.59 127.813 103.158 127.488C102.725 127.163 102.428 126.717 102.293 126.162L102.279 126.189Z" fill="#24408F"/>
<path d="M108.201 126.189L109.674 125.945C109.742 126.243 109.863 126.473 110.053 126.635C110.242 126.798 110.512 126.865 110.85 126.865C111.228 126.865 111.512 126.798 111.701 126.649C111.823 126.541 111.891 126.405 111.891 126.229C111.891 126.108 111.85 126.013 111.783 125.932C111.715 125.864 111.553 125.783 111.296 125.729C110.12 125.445 109.363 125.201 109.053 124.971C108.62 124.646 108.404 124.213 108.404 123.645C108.404 123.131 108.593 122.712 108.972 122.36C109.35 122.008 109.931 121.832 110.728 121.832C111.526 121.832 112.053 121.967 112.418 122.224C112.783 122.482 113.039 122.874 113.175 123.388L111.796 123.659C111.742 123.429 111.62 123.253 111.458 123.131C111.296 123.009 111.053 122.942 110.755 122.942C110.377 122.942 110.093 122.996 109.931 123.117C109.823 123.199 109.769 123.307 109.769 123.429C109.769 123.537 109.823 123.632 109.918 123.713C110.053 123.821 110.499 123.97 111.283 124.146C112.066 124.335 112.607 124.565 112.918 124.836C113.229 125.12 113.377 125.499 113.377 125.999C113.377 126.541 113.161 127.001 112.742 127.393C112.323 127.786 111.688 127.975 110.864 127.975C110.107 127.975 109.512 127.813 109.08 127.488C108.647 127.163 108.35 126.717 108.215 126.162L108.201 126.189Z" fill="#24408F"/>
<path d="M114.308 124.836C114.308 124.322 114.43 123.821 114.673 123.334C114.917 122.847 115.254 122.482 115.687 122.225C116.119 121.967 116.619 121.846 117.16 121.846C117.998 121.846 118.674 122.13 119.214 122.712C119.755 123.293 120.012 124.024 120.012 124.904C120.012 125.783 119.741 126.541 119.201 127.123C118.66 127.704 117.984 128.002 117.16 128.002C116.66 128.002 116.173 127.88 115.714 127.637C115.254 127.393 114.903 127.028 114.66 126.554C114.417 126.081 114.295 125.513 114.295 124.836H114.308ZM115.809 124.917C115.809 125.499 115.944 125.945 116.2 126.257C116.457 126.568 116.782 126.717 117.16 126.717C117.538 126.717 117.863 126.554 118.12 126.257C118.376 125.945 118.512 125.499 118.512 124.904C118.512 124.308 118.376 123.889 118.12 123.578C117.863 123.266 117.538 123.118 117.16 123.118C116.782 123.118 116.457 123.266 116.2 123.578C115.944 123.889 115.809 124.335 115.809 124.917Z" fill="#24408F"/>
<path d="M125.972 123.711L124.525 123.995C124.471 123.684 124.363 123.454 124.201 123.305C124.025 123.143 123.809 123.075 123.539 123.075C123.174 123.075 122.89 123.211 122.674 123.481C122.458 123.752 122.35 124.198 122.35 124.834C122.35 125.538 122.458 126.025 122.674 126.323C122.89 126.607 123.187 126.756 123.566 126.756C123.85 126.756 124.066 126.674 124.242 126.499C124.417 126.336 124.539 126.039 124.62 125.633L126.053 125.89C125.904 126.593 125.62 127.121 125.188 127.486C124.769 127.852 124.201 128.028 123.485 128.028C122.674 128.028 122.039 127.757 121.552 127.216C121.066 126.674 120.836 125.917 120.836 124.956C120.836 123.995 121.079 123.224 121.566 122.683C122.052 122.142 122.701 121.871 123.525 121.871C124.201 121.871 124.728 122.02 125.134 122.331C125.526 122.642 125.809 123.116 125.985 123.738L125.972 123.711Z" fill="#24408F"/>
<path d="M127.08 121.168V119.72H128.54V121.168H127.08ZM127.08 127.866V121.967H128.54V127.866H127.08Z" fill="#24408F"/>
<path d="M131.135 123.767L129.811 123.51C129.959 122.942 130.216 122.522 130.581 122.238C130.946 121.967 131.487 121.832 132.203 121.832C132.852 121.832 133.338 121.913 133.662 122.076C133.987 122.238 134.203 122.454 134.338 122.698C134.473 122.955 134.527 123.415 134.527 124.092V125.918C134.514 126.432 134.527 126.825 134.581 127.068C134.622 127.312 134.717 127.583 134.838 127.853H133.392C133.352 127.745 133.311 127.596 133.257 127.393C133.23 127.298 133.216 127.244 133.203 127.217C132.96 127.474 132.689 127.664 132.406 127.799C132.122 127.934 131.811 127.988 131.5 127.988C130.932 127.988 130.487 127.826 130.149 127.488C129.824 127.163 129.662 126.744 129.662 126.243C129.662 125.905 129.743 125.607 129.892 125.35C130.041 125.093 130.257 124.89 130.514 124.755C130.784 124.619 131.176 124.498 131.676 124.389C132.365 124.254 132.838 124.119 133.095 124.01V123.848C133.095 123.55 133.027 123.334 132.892 123.212C132.757 123.09 132.487 123.023 132.108 123.023C131.851 123.023 131.649 123.077 131.5 123.185C131.351 123.293 131.243 123.483 131.149 123.753L131.135 123.767ZM133.095 125.039C132.906 125.106 132.608 125.188 132.203 125.282C131.797 125.377 131.527 125.458 131.406 125.553C131.216 125.702 131.122 125.878 131.122 126.108C131.122 126.338 131.203 126.514 131.351 126.676C131.5 126.838 131.703 126.92 131.933 126.92C132.203 126.92 132.446 126.825 132.689 126.635C132.865 126.5 132.987 126.324 133.041 126.121C133.081 125.986 133.095 125.729 133.095 125.364V125.052V125.039Z" fill="#24408F"/>
<path d="M138.499 121.967V123.211H137.499V125.593C137.499 126.08 137.499 126.351 137.526 126.432C137.539 126.513 137.593 126.581 137.661 126.635C137.729 126.689 137.81 126.716 137.904 126.716C138.039 126.716 138.242 126.662 138.499 126.567L138.62 127.771C138.283 127.934 137.891 128.001 137.472 128.001C137.215 128.001 136.972 127.947 136.755 127.866C136.539 127.771 136.391 127.65 136.296 127.501C136.201 127.352 136.134 127.149 136.093 126.892C136.066 126.716 136.053 126.351 136.053 125.796V123.225H135.377V121.98H136.053V120.803L137.526 119.896V121.98H138.526L138.499 121.967Z" fill="#24408F"/>
<path d="M139.514 121.168V119.72H140.973V121.168H139.514ZM139.514 127.866V121.967H140.973V127.866H139.514Z" fill="#24408F"/>
<path d="M142.137 124.836C142.137 124.322 142.258 123.821 142.501 123.334C142.745 122.847 143.083 122.482 143.515 122.225C143.948 121.967 144.448 121.846 144.988 121.846C145.826 121.846 146.502 122.13 147.042 122.712C147.583 123.293 147.84 124.024 147.84 124.904C147.84 125.783 147.569 126.541 147.029 127.123C146.488 127.704 145.813 128.002 144.988 128.002C144.488 128.002 144.002 127.88 143.542 127.637C143.083 127.393 142.731 127.028 142.488 126.554C142.245 126.081 142.123 125.513 142.123 124.836H142.137ZM143.637 124.917C143.637 125.499 143.772 125.945 144.029 126.257C144.285 126.568 144.61 126.717 144.988 126.717C145.367 126.717 145.691 126.554 145.948 126.257C146.204 125.945 146.34 125.499 146.34 124.904C146.34 124.308 146.204 123.889 145.948 123.578C145.691 123.266 145.367 123.118 144.988 123.118C144.61 123.118 144.285 123.266 144.029 123.578C143.772 123.889 143.637 124.335 143.637 124.917Z" fill="#24408F"/>
<path d="M154.002 127.867H152.542V124.863C152.542 124.227 152.515 123.821 152.448 123.631C152.38 123.442 152.286 123.293 152.137 123.198C152.002 123.09 151.826 123.036 151.623 123.036C151.367 123.036 151.137 123.104 150.948 123.253C150.745 123.401 150.61 123.591 150.529 123.834C150.448 124.078 150.421 124.524 150.421 125.187V127.853H148.961V121.954H150.312V122.82C150.799 122.157 151.407 121.818 152.137 121.818C152.461 121.818 152.759 121.872 153.015 122.008C153.286 122.13 153.488 122.292 153.624 122.481C153.759 122.671 153.853 122.887 153.907 123.131C153.961 123.374 153.988 123.726 153.988 124.186V127.853L154.002 127.867Z" fill="#24408F"/>
</g>
<defs>
<clipPath id="clip0_3023_45308">
<rect width="154" height="128" fill="white"/>
</clipPath>
</defs>
</svg>
