<svg width="21" height="34" viewBox="0 0 21 34" fill="none" xmlns="http://www.w3.org/2000/svg">
<path d="M19.3196 4.89495C18.4847 3.54587 17.348 2.40898 15.9991 1.57375C14.6502 0.73852 13.1259 0.22774 11.5461 0.0816126C3.89288 -0.929188 -2.12379 7.65059 0.71608 14.666L6.73275 31.0915C7.02442 31.8574 7.54194 32.5166 8.21673 32.9816C8.89151 33.4467 9.69169 33.6958 10.5112 33.6958C11.3307 33.6958 12.1309 33.4467 12.8057 32.9816C13.4805 32.5166 13.998 31.8574 14.2897 31.0915L20.3064 14.666C20.8965 13.0697 21.1144 11.3597 20.9434 9.66633C20.7724 7.973 20.217 6.34106 19.3196 4.89495ZM10.5353 16.5793C3.39951 16.447 3.39951 5.84558 10.5353 5.74932C17.6711 5.84558 17.6711 16.447 10.5353 16.5793Z" fill="#051726"/>
</svg>
