<svg width="1920" height="400" viewBox="0 0 1920 400" fill="none" xmlns="http://www.w3.org/2000/svg">
<mask id="mask0_3160_11961" style="mask-type:alpha" maskUnits="userSpaceOnUse" x="0" y="0" width="1920" height="400">
<path d="M0 0H1920V400H0V0Z" fill="url(#paint0_linear_3160_11961)"/>
</mask>
<g mask="url(#mask0_3160_11961)">
<g opacity="0.1">
<path d="M2119.99 293.699C2096.58 267.932 2069.67 244.507 2041.21 222.694C1993.64 186.479 1940.22 155.398 1881.83 132.921C1704.08 64.1354 1527.8 99.7634 1377.7 198.011C1373.18 200.991 1366.83 204.938 1362.54 207.995C1359.5 210.092 1346.66 219.07 1344 220.901C1341.68 222.552 1335.6 227.177 1333.18 228.944C1328.96 232.13 1322.85 236.509 1318.84 239.754C1313.91 243.714 1302.54 252.569 1297.87 256.458C1293.57 260.083 1281.92 269.899 1277.46 273.653C1265.14 284.456 1250.15 298.362 1237.66 308.939C1226.66 318.349 1214.27 327.959 1202.19 336.409C1197.98 339.479 1191.48 343.639 1187.13 346.56C1182.85 349.153 1175.9 353.61 1171.45 356.035C930.349 495.793 723.178 261.599 612.876 101.821C510.535 -48.2696 432.259 -209.537 369.4 -374.12C424.536 -230.105 492.508 -89.2122 576.395 44.6638C685.158 215.374 906.719 506.822 1170.62 355.009C1179.43 350.043 1189.27 343.645 1197.57 338.066C1199.75 336.55 1206.31 331.862 1208.61 330.256C1215.31 325.289 1223.41 319.027 1229.83 313.802C1240.46 305.147 1252.94 293.75 1263.2 284.618C1272.61 275.975 1287.06 263.843 1296.89 255.613C1297.71 254.885 1299.47 253.479 1300.35 252.795C1306.91 247.635 1318.32 238.38 1325.04 233.446C1330.25 229.55 1337.9 223.887 1343.11 220.024C1348.15 216.541 1360.35 207.983 1365.43 204.538C1518.91 101.118 1697.57 61.0782 1882.15 132.36C1937.61 153.838 1988.55 183.106 2034.24 217.109C2065.35 240.47 2094.68 265.746 2119.99 293.699Z" fill="#EDF9FF"/>
<path d="M2095.5 281.498C2071.83 256.957 2044.78 234.809 2016.29 214.266C1968.7 180.147 1915.61 151.208 1858.21 130.279C1705.53 74.5663 1550.87 89.4586 1409.35 160.237C1401.94 163.804 1392.74 168.88 1385.41 172.659C1377.58 177.007 1369.84 181.457 1362.08 185.901C1358.84 187.836 1345.92 195.82 1343.11 197.504C1336.2 201.825 1327.71 207.584 1320.88 212.009C1318.65 213.402 1305.31 222.896 1302.82 224.599C1298.71 227.385 1292.64 231.926 1288.64 234.938C1281.56 240.097 1267.7 250.784 1260.98 256.267C1258.63 258.156 1252.99 262.542 1250.79 264.438C1239.88 273.571 1218.5 291.901 1207.35 300.531C1191.24 312.901 1174.09 324.846 1156.08 335.172C984.184 434.981 826.944 355.456 706.431 238.22C698.279 230.429 690.111 222.006 682.365 213.931C543.136 64.2919 449.061 -111.384 369.745 -288.306C361.126 -308.1 352.721 -327.958 344.914 -347.991C352.782 -327.977 361.241 -308.132 369.921 -288.364C449.766 -111.72 544.123 63.7566 683.398 213.228C695.125 225.495 707.342 237.646 719.888 249.295C839.712 360.719 990.905 429.44 1155.25 334.134C1173.21 323.846 1190.32 311.947 1206.38 299.621C1217.43 291.069 1238.96 272.642 1249.81 263.568C1251.97 261.697 1257.68 257.253 1260.01 255.389C1266.73 249.907 1280.65 239.194 1287.73 234.041C1291.68 231.042 1297.81 226.495 1301.93 223.696C1304.24 222.038 1317.79 212.551 1320.03 211.093C1326.87 206.669 1335.38 200.896 1342.31 196.575C1345.59 194.601 1357.96 186.978 1361.32 184.959C1369.09 180.515 1376.85 176.058 1384.69 171.705C1391.95 167.951 1401.28 162.83 1408.68 159.263C1550.29 88.4202 1705.96 73.7149 1858.51 129.698C1915.91 150.769 1968.95 179.838 2016.49 214.086C2044.92 234.692 2071.91 256.899 2095.51 281.498H2095.5Z" fill="#EDF9FF"/>
<path d="M2071 269.994C2043.05 242.751 2010.86 218.738 1976.97 196.868C1957.61 184.529 1937.18 172.836 1916.32 162.336C1759.56 83.0372 1587.92 72.9241 1422.25 139.465C1376.9 157.686 1333.97 180.479 1293.96 206.058C1289.45 209.025 1277.04 217.255 1272.37 220.344C1267.69 223.634 1255.82 231.999 1251.31 235.179C1244.88 239.926 1233.77 248.246 1227.36 253.096C1221.28 257.933 1210.21 266.698 1204.04 271.6C1195.5 278.469 1185.87 285.925 1176.79 292.278C1168.9 297.953 1159.94 303.835 1151.59 309.015C1025.53 387.049 897.87 378.142 774.922 300.888C579.693 175.538 435.978 -75.5991 345.991 -265.516C337.12 -284.685 328.463 -303.931 320.425 -323.363C370.21 -207.314 430.965 -94.445 502.765 13.1227C538.925 66.7711 578.292 118.975 622.826 167.973C667.36 216.784 717.054 262.957 775.749 299.94C900.052 377.975 1028.25 385.437 1154.38 305.706C1171.36 295.096 1187.77 283.035 1203.05 270.723C1210.86 264.602 1221.99 255.534 1229.81 249.626C1234.69 245.988 1245.65 237.739 1250.39 234.269C1254.86 231.122 1266.87 222.673 1271.5 219.422C1318.97 187.199 1370.5 158.479 1425.87 136.847C1590.23 71.9502 1762.05 83.1339 1916.59 161.962C1937.41 172.52 1957.84 184.252 1977.18 196.642C2011.01 218.59 2043.13 242.68 2071.02 269.988L2071 269.994Z" fill="#EDF9FF"/>
<path d="M2046.51 259.164C2010.06 225.929 1967.52 197.647 1922.46 173.164C1910.16 166.604 1896.72 159.845 1883.94 154.015C1681.54 60.8104 1472.22 81.1333 1285.21 189.707C1266.34 200.452 1245.6 213.7 1227.84 225.69C1221.43 230.031 1213.59 235.713 1207.23 240.157C1191.49 251.418 1174.3 265.097 1158.36 276.133C876.208 471.171 626.034 224.2 483.008 25.221C409.096 -78.1093 346.864 -187.399 295.923 -300.127C347.193 -187.541 409.823 -78.4382 483.835 24.7953C627.037 222.949 875.848 469.546 1157.44 275.178C1173.37 264.162 1190.58 250.482 1206.31 239.241C1212.71 234.784 1220.53 229.108 1226.96 224.761C1244.75 212.765 1265.54 199.504 1284.45 188.746C1471.8 80.0304 1681.84 59.8816 1884.21 153.621C1896.97 159.465 1910.42 166.308 1922.69 172.867C1967.69 197.453 2010.16 225.838 2046.51 259.164H2046.51Z" fill="#EDF9FF"/>
<path d="M2022.01 248.937C1985.22 217.314 1942.6 190.729 1897.76 167.774C1886.86 162.273 1874.62 156.526 1863.4 151.534C1702.91 80.491 1526.98 74.654 1361.45 137.396C1357.37 138.848 1349.49 141.892 1345.55 143.549C1334.92 147.697 1320.85 153.888 1310.43 158.545C1304.17 161.518 1295.73 165.536 1289.48 168.516C1285.94 170.316 1272.72 177.094 1268.91 179.048C1262.14 182.647 1253.65 187.414 1246.9 191.096C1241.12 194.405 1229.39 201.339 1223.54 204.776C1215.17 210.084 1205.49 215.896 1197.29 221.371C1174.25 236.128 1152.36 253.175 1129.27 267.867C1117.99 275.071 1105.16 282.508 1093.08 288.725C961.25 357.279 830.281 340.29 708.091 266.074C526.862 154.05 389.791 -53.0948 298.572 -223.824C289.141 -241.825 279.956 -259.929 271.414 -278.247C288.713 -241.683 308.018 -205.817 328.233 -170.343C417.218 -16.7896 543.349 163.118 708.887 265.139C830.771 339.071 960.898 355.866 1092.3 287.655C1104.35 281.45 1117.13 274.065 1128.38 266.88C1151.47 252.207 1173.37 235.167 1196.41 220.423C1204.63 214.947 1214.33 209.123 1222.71 203.815C1228.59 200.365 1240.25 193.464 1246.11 190.123C1252.87 186.44 1261.37 181.667 1268.17 178.062C1271.82 176.185 1285.19 169.348 1288.77 167.523C1295.04 164.543 1303.51 160.519 1309.77 157.539C1320.17 152.895 1334.3 146.684 1344.97 142.53C1348.75 140.937 1356.96 137.764 1360.9 136.371C1527.8 73.0932 1706.64 79.8525 1867.5 152.895C1877.13 157.216 1888.57 162.711 1897.97 167.471C1942.76 190.535 1985.3 217.224 2022.01 248.937Z" fill="#EDF9FF"/>
<path d="M1997.52 239.312C1958.28 207.624 1913.04 181.406 1865.58 159.239C1855.95 154.776 1845 149.99 1835.1 145.972C1683.54 83.784 1518.64 75.8831 1360.74 126.262C1342.46 131.924 1323.17 138.993 1305.51 146.004C1299.91 148.326 1291.84 151.673 1286.27 153.982C1284.01 154.995 1269.96 161.296 1267.35 162.47C1263 164.392 1256.78 167.527 1252.42 169.591C1249.81 170.868 1243.76 173.725 1241.29 175.028C1234.5 178.588 1222.41 184.67 1215.83 188.411C1202.65 195.525 1189.63 203.213 1176.86 210.798C1169.29 215.59 1160.3 221.078 1152.81 225.935C1137.09 236.364 1114.63 251.701 1098.23 261.073C1079.28 271.934 1059.51 281.847 1038.76 290.071C964.121 320.165 883.588 326.021 804.317 305.459C565.387 242.749 377.69 -23.242 274.927 -204.794C265.198 -222.253 255.722 -239.816 246.919 -257.617C282.934 -186.703 325.31 -118.11 372.01 -51.8011C485.198 107.39 691.205 342.132 940.17 313.986C1008.42 306.227 1071.44 278.597 1124.96 242.885L1151.93 224.974L1153.61 223.852C1156.62 221.968 1162.58 218.228 1165.67 216.293C1181.63 206.212 1198.33 196.544 1215.06 187.411C1219.74 184.702 1231.92 178.517 1236.91 175.911C1241.04 173.705 1247.43 170.635 1251.73 168.578C1261.68 163.605 1275.36 157.536 1285.64 152.957C1355.71 122.792 1431.85 101.882 1510.26 94.9484C1630.18 83.9452 1752.54 107.241 1858.24 155.453C1908.48 178.381 1956.27 205.876 1997.5 239.312H1997.52Z" fill="#EDF9FF"/>
<path d="M1973.02 230.232C1937.65 203.234 1897.56 180.821 1855.87 161.388C1843.91 155.88 1830.69 150.166 1818.36 145.296C1652.66 79.1162 1473.62 75.24 1304.12 133.932C1296.9 136.583 1288.06 139.608 1280.94 142.336C1275.54 144.477 1263.19 149.173 1258.1 151.385C1225.39 164.949 1193.67 180.279 1163.32 197.287C1125.47 217.713 1091.65 243.08 1052.42 261.732C1013.44 280.598 970.789 294.581 926.293 300.553C718.219 328.235 543.259 183.169 427.43 54.6913C373.281 -5.74219 325.479 -70.1036 282.521 -136.574C261.135 -169.848 240.72 -203.599 222.433 -238.176C259.581 -169.267 303.281 -102.9 351.405 -39.0226C411.883 40.4955 480.262 116.582 562.801 180.834C670.73 264.802 808.971 327.564 958.894 293.375C991.387 286.099 1022.52 274.703 1051.67 260.642C1090.87 242.029 1124.7 216.681 1162.54 196.288C1192.95 179.267 1224.73 163.923 1257.49 150.346C1262.58 148.134 1275.07 143.4 1280.38 141.291C1287.5 138.563 1296.41 135.519 1303.61 132.881C1473.16 74.1951 1653.12 78.2907 1818.58 144.903C1830.82 149.805 1844.19 155.551 1856.05 161.092C1897.7 180.621 1937.72 203.137 1973.02 230.226L1973.02 230.232Z" fill="#EDF9FF"/>
<path d="M1948.53 221.674C1910.75 194.534 1868.06 172.482 1823.88 153.565C1811.84 148.509 1798.74 143.323 1786.39 138.866C1593.33 68.5197 1389.61 78.8586 1203.69 159.686C1156.89 179.486 1113.04 203.989 1070.43 229.555C1066.88 231.535 1060.25 235.302 1056.56 237.205C1029.81 251.549 1001.2 263.758 971.423 272.949C944.142 281.243 915.72 287.048 886.863 289.647C610.671 313.311 384.157 57.8262 259.924 -121.301C237.878 -153.51 216.805 -186.217 197.937 -219.839C216.913 -186.268 238.1 -153.614 260.253 -121.462C384.685 56.6781 611.253 312.131 886.71 288.402C915.453 285.796 943.744 280.005 970.902 271.73C1000.59 262.578 1029.11 250.426 1055.78 236.14C1059.58 234.18 1065.8 230.639 1069.61 228.517C1112.29 202.944 1156.18 178.435 1203.07 158.628C1389.45 77.717 1593.36 67.5716 1786.61 138.441C1798.95 142.917 1812.06 148.173 1824.08 153.236C1868.21 172.269 1910.84 194.424 1948.54 221.661L1948.53 221.674Z" fill="#EDF9FF"/>
<path d="M1924.03 213.606C1885.97 187.839 1843.29 167.136 1799.33 149.393C1787.35 144.652 1774.33 139.802 1762.08 135.629C1597.4 78.988 1420.48 76.8854 1253.7 128.573C1210.59 141.898 1168.41 158.551 1128.43 177.533C1121.8 180.609 1113.91 184.666 1107.34 187.865C1102.19 190.335 1091.65 196.024 1086.56 198.649C1073.34 205.589 1058.8 214.077 1045.71 221.184C710.142 403.129 403.516 120.285 237.389 -107.008C214.647 -138.16 192.916 -169.866 173.443 -202.56C193.031 -169.918 214.869 -138.263 237.71 -107.176C404.19 118.976 710.204 401.64 1044.92 220.133C1057.99 213.045 1072.59 204.544 1085.8 197.617C1090.91 194.953 1101.63 189.219 1106.6 186.827C1113.23 183.608 1121.09 179.571 1127.73 176.488C1167.79 157.493 1210.05 140.828 1253.24 127.503C1420 75.8277 1597.88 78.1496 1762.28 135.21C1774.52 139.402 1787.56 144.323 1799.51 149.077C1843.43 166.936 1886.04 187.743 1924.03 213.612V213.606Z" fill="#EDF9FF"/>
<path d="M1899.54 206.007C1861.19 181.556 1818.55 162.124 1774.8 145.477C1682.11 110.739 1581.07 91.5061 1479.56 90.8031C1386.12 90.0097 1292.71 105.186 1205.47 133.145C1173.21 143.478 1141.16 155.609 1110.58 169.128C1098.73 174.255 1087.03 179.751 1075.46 185.317C1069.16 188.464 1061 192.398 1054.77 195.61C1033.26 206.852 1011.85 218.597 989.167 228.233C983.732 230.516 976.644 233.483 971.094 235.579C658.398 357.929 373.135 109.946 214.9 -93.632C191.477 -123.752 169.05 -154.472 148.949 -186.269C169.157 -154.53 191.692 -123.868 215.214 -93.8061C373.557 108.669 658.773 356.549 970.467 234.418C976.024 232.315 982.99 229.407 988.486 227.104C1011.15 217.494 1032.42 205.833 1054.01 194.559C1060.25 191.347 1068.4 187.426 1074.74 184.259C1086.33 178.686 1098.05 173.191 1109.93 168.057C1140.57 154.532 1172.67 142.4 1204.99 132.062C1312.35 97.5494 1429.14 82.9989 1543.62 92.8734C1626.1 99.781 1707.05 118.711 1782.26 147.967C1823.38 164.117 1863.4 182.808 1899.54 206.007Z" fill="#EDF9FF"/>
<path d="M1875.04 198.84C1849.38 183.277 1821.68 170.236 1793.41 158.369C1662.4 103.856 1513.07 80.6628 1367.69 93.8459C1356.18 94.9101 1339.98 96.7289 1328.55 98.2059C1323.02 99.0121 1314.67 100.205 1309.1 101.012C1301.79 102.25 1293.07 103.591 1285.87 104.933C1257.94 110.015 1229.22 116.549 1202.09 124.088C1144.71 139.942 1088.98 161.174 1036.42 186.154C1018.3 194.661 999.951 204.574 981.541 212.623C969.968 217.809 957.912 222.646 945.863 227.019C934.098 231.347 921.078 235.462 908.915 238.931C698.476 298.501 502.037 204.522 354.778 81.9205C265.059 6.89139 187.786 -78.7861 124.46 -170.913C188.077 -78.9796 265.679 6.4399 355.46 81.34C502.68 203.368 698.522 297.23 908.433 237.712C917.924 234.997 928.733 231.669 937.995 228.425C952.531 223.401 966.975 217.699 980.845 211.514C994.309 205.658 1008.81 198.195 1022 191.733C1078.72 163.754 1139.19 140.277 1201.67 123.005C1231.4 114.788 1262.68 107.745 1293.34 102.508C1297.05 101.895 1305.11 100.554 1308.87 99.9409C1314.2 99.1798 1322.97 97.9157 1328.35 97.1482C1334.14 96.4387 1342.75 95.4132 1347.93 94.7811L1363.63 93.2203L1367.56 92.8333C1513.13 79.8243 1662.6 103.211 1793.54 158.162C1821.77 170.1 1849.43 183.213 1875.04 198.84Z" fill="#EDF9FF"/>
<path d="M1850.55 192.083C1781.07 153.54 1702.34 127.541 1621.95 110.301C1490.86 82.4644 1351.72 83.1351 1220.82 111.391C1185.98 118.828 1150.52 128.541 1116.99 139.441C1093.42 147.264 1068.35 156.352 1045.61 165.743C1017.47 176.92 990.431 190.406 962.928 202.628C650.04 339.568 351.742 136.364 170.03 -69.5029C145.199 -97.6106 121.378 -126.408 99.9603 -156.457C105.288 -148.931 110.868 -141.539 116.532 -134.187C260.63 48.3004 502.169 261.301 783.926 244.958C846.142 241.139 906.843 225.428 962.247 201.513C980.717 193.541 998.56 184.46 1017.11 176.488C1030.27 170.644 1045.57 164.253 1059.08 159.016C1084.38 148.999 1112.17 139.486 1138.42 131.43C1209.35 110.024 1283.77 95.9119 1358.92 90.9586C1509.3 80.8648 1662.93 106.831 1796.88 165.336C1815.28 173.489 1833.43 182.131 1850.55 192.083Z" fill="#EDF9FF"/>
<path d="M1826.05 185.72C1675.18 108.362 1482.4 77.3394 1307.57 93.4958C1231.11 100.378 1155.5 116.018 1083.63 138.972C1055.12 147.996 1026.21 158.547 998.826 169.789C974.822 179.438 950.748 191.183 926.529 200.406C894.916 212.454 861.863 222.025 827.977 228.365C554.089 279.363 308.439 110.794 147.624 -58.6328C122.073 -85.7472 97.5554 -113.603 75.4644 -142.807C97.6549 -113.668 122.272 -85.8698 147.915 -58.8327C309.013 109.762 554.318 278.131 827.647 227.133C861.427 220.787 894.365 211.235 925.901 199.245C950.097 190.041 974.186 178.309 998.183 168.68C1025.61 157.431 1054.57 146.88 1083.13 137.857C1155.12 114.922 1230.86 99.2425 1307.44 92.4445C1482.9 76.5331 1674.92 107.756 1826.06 185.72H1826.05Z" fill="#EDF9FF"/>
<path d="M1801.56 179.714C1731.37 145.176 1653.45 122.563 1574.43 107.362C1380.87 70.2307 1174.64 90.1667 993.492 157.534C982.783 161.352 969.441 166.634 958.824 170.788C945.658 176.212 930.9 182.371 917.696 187.628C909.789 190.84 897.802 194.987 889.703 197.863C885.47 199.237 872.756 203.223 868.286 204.661L853.781 208.66C845.827 210.988 832.692 213.884 824.479 215.839C819.343 216.877 807.095 219.205 802.173 220.179C794.825 221.25 786.948 222.617 779.654 223.636C774.227 224.243 762.201 225.758 756.966 226.203C751.454 226.597 743.455 227.293 737.975 227.693C727.641 228.183 713.962 228.77 703.667 228.661C696.563 228.79 687.883 228.486 680.787 228.248C498.486 221.231 335.697 131.045 208.356 26.5728C150.434 -21.4192 96.9358 -73.4745 50.9701 -129.954C108.854 -59.6593 177.638 4.27634 253.602 60.9819C374.444 150.278 524.221 223.333 688.442 227.287C695.454 227.635 704.203 227.416 711.26 227.416C716.404 227.506 728.766 226.835 734.063 226.648C736.314 226.597 739.391 226.371 741.649 226.177C746.295 225.771 754.049 225.229 758.688 224.83C762.798 224.404 775.168 222.875 779.409 222.411C784.407 221.708 789.39 220.876 794.381 220.121C802.878 218.947 815.638 216.226 824.096 214.62C832.187 212.659 845.399 209.789 853.306 207.448L867.765 203.455C871.853 202.133 885.026 198.012 889.129 196.683C897.251 193.819 909.115 189.692 917.053 186.493C930.234 181.255 945.061 175.09 958.173 169.678C968.737 165.531 982.178 160.262 992.895 156.424C1137.18 103.169 1296.99 78.8669 1454.16 90.9084C1555.33 98.5577 1655.27 120.042 1747.6 155.857C1766.01 163.1 1784.21 170.788 1801.55 179.727L1801.56 179.714Z" fill="#EDF9FF"/>
<path d="M1777.07 174.059C1706.57 141.385 1629.05 120.275 1550.61 105.995C1403.1 79.5774 1248.37 83.2473 1102.58 115.515C1052.89 126.37 1003.76 140.733 956.482 157.522C948.568 160.431 940.17 163.494 932.325 166.455C919.702 171.408 903.873 177.542 891.174 182.327C883.542 185.165 874.433 188.042 866.702 190.738C856.896 193.646 844.481 197.607 834.553 200.006C830.358 201.064 824.265 202.753 820.101 203.695C811.666 205.546 799.25 208.442 790.792 209.835C787.431 210.441 781.193 211.602 777.878 212.202L776.018 212.473L761.138 214.647C753.966 215.795 745.967 216.42 738.702 217.291C731.683 218.091 719.474 218.852 712.386 219.361C704.058 219.626 694.306 220.238 685.978 220.187L670.875 220.258L655.781 219.819L652.007 219.71L650.124 219.652C646.786 219.471 643.594 219.226 640.709 219.065C519.69 211.925 405.109 169.267 305.929 111.974C214.725 59.1513 133.816 -5.84856 63.3711 -77.6335C50.611 -90.7328 38.157 -104.051 26.4838 -117.847C74.0262 -63.1926 129.093 -13.2463 188.462 32.3981C326.16 137.799 502.307 223.625 693.495 218.878C698.975 218.665 706.859 218.342 712.302 218.136C719.382 217.594 731.561 216.872 738.542 216.059C745.813 215.169 753.744 214.556 760.908 213.408L775.75 211.235C779.915 210.616 786.283 209.332 790.478 208.597C799.663 207.094 812.393 204.03 821.517 202.05C830.297 199.683 839.781 197.497 848.43 194.853C853.169 193.376 865.133 189.989 869.664 188.345C876.087 186.107 884.262 183.52 890.584 181.153C903.237 176.368 919.151 170.253 931.727 165.307C961.443 154.045 992.045 143.739 1022.82 134.671C1191.37 84.8404 1375.98 73.5728 1550.77 105.37C1629.2 119.862 1706.67 141.178 1777.07 174.046L1777.07 174.059Z" fill="#EDF9FF"/>
<path d="M1752.57 168.722C1681.8 137.828 1604.65 118.111 1526.75 104.69C1385.18 80.787 1237.63 82.8058 1096.9 109.836C1041.17 120.407 986.203 135.055 933.104 152.804C922.38 156.461 909.221 161.008 898.673 164.955C885.967 169.554 870.214 175.552 857.339 179.628C852.21 181.247 841.287 184.872 836.281 186.162C822.181 190.251 807.775 194.005 793.347 197.159C788.073 198.223 780.433 199.874 775.19 200.938C770.299 201.783 758.097 203.892 753.206 204.73C745.023 205.788 735.547 207.323 727.341 208.149C718.814 209.084 706.092 210.355 697.588 210.806C693.386 211.109 686.864 211.574 682.662 211.651C671.846 212.18 656.07 212.373 645.269 212.27C638.411 212.025 629.684 211.961 622.841 211.567C598.339 210.374 572.765 207.768 548.646 203.937C445.554 187.755 348.854 148.986 262.434 99.6523C163.927 42.6888 75.5095 -27.0903 1.97217 -106.428C14.0358 -93.0705 26.8954 -80.2292 40.0459 -67.6201C157.995 44.3141 311.806 145.851 483.666 189.471C487.937 190.606 500.605 193.502 505.214 194.592C510.755 195.727 521.702 198.062 526.968 199.035C532.387 200.009 539.858 201.325 545.224 202.26C558.176 204.273 572.788 206.253 585.763 207.626C589.498 207.968 596.885 208.607 600.605 208.942C605.22 209.465 618.019 210.051 622.925 210.38C629.746 210.754 638.411 210.838 645.292 211.071C650.053 211.103 662.676 211.019 667.674 210.987C673.078 210.774 684.859 210.4 690.033 210.103C693.761 209.819 701.186 209.336 704.906 209.058C709.805 208.807 722.075 207.426 727.142 206.917C731.352 206.543 737.66 205.601 741.893 205.021C746.064 204.427 752.502 203.628 756.589 202.867C761.58 201.957 773.697 200.022 778.481 198.945C785.141 197.5 793.599 195.92 800.174 194.295C809.72 191.921 819.326 189.741 828.711 186.936C831.742 186.046 838.049 184.33 841.096 183.447C846.515 181.724 858.41 177.919 863.769 176.204C878.986 170.825 896.653 164.259 911.809 158.815C924.538 154.294 940.559 148.979 953.472 144.826C1135.28 86.8626 1336.18 71.2157 1526.9 104.064C1604.78 117.699 1681.88 137.615 1752.57 168.709V168.722Z" fill="#EDF9FF"/>
<path d="M1728.08 163.697C1674.93 141.594 1618.11 126.231 1560.74 114.054C1397.76 80.0641 1225.52 79.174 1061.79 110.158C1024.56 117.169 987.499 125.934 951.278 135.996C926.967 142.91 902.159 150.495 878.391 158.718C865.072 163.317 850.513 168.444 837.148 172.714C831.951 174.307 821.173 177.557 816.19 179.002C811.881 180.118 799.488 183.465 794.972 184.646L780.666 187.948C772.621 189.928 760.121 192.23 751.854 193.875C742.324 195.462 732.319 197.242 722.698 198.461C698.861 201.77 673.104 203.885 648.938 204.524C463.583 209.922 289.143 139.072 146.86 43.6105C85.2869 1.96495 27.6099 -44.1632 -22.5046 -95.6445C-10.0966 -82.6935 3.10767 -70.3037 16.5873 -58.1396C161.787 71.357 359.894 184.826 574.995 201.492C576.434 201.589 579.182 201.86 580.514 201.957C581.425 201.995 588.605 202.414 589.745 202.466C603.807 203.324 620.004 203.724 634.104 203.563C642.455 203.646 655.223 203.079 663.681 202.795C668.955 202.447 680.728 201.692 685.802 201.331C692.929 200.583 700.767 199.925 707.84 199.138C712.915 198.441 724.848 196.984 729.763 196.242C736.767 195.042 744.582 193.894 751.54 192.65C756.37 191.656 768.426 189.38 773.141 188.367C777.887 187.296 789.706 184.517 794.543 183.42C798.86 182.227 811.444 178.951 815.708 177.79C820.905 176.371 831.431 173.03 836.62 171.527C852.328 166.522 869.099 160.53 884.691 155.196C909.79 146.863 935.701 138.859 961.405 131.984C1191.46 69.1835 1447.35 70.6798 1673.85 143.606C1692.25 149.669 1710.5 156.106 1728.08 163.704V163.697Z" fill="#EDF9FF"/>
<path d="M1703.58 158.967C1632.35 131.369 1555.88 114.155 1478.93 102.281C1339.1 81.2229 1194.68 82.6096 1055.3 105.448C983.372 117.309 912.307 134.865 844.12 157.516C834.881 160.547 822.573 164.508 813.158 167.371C808.19 168.803 800.727 170.893 795.728 172.331C789.321 174.15 777.61 176.923 771.081 178.607C765.967 179.8 758.435 181.341 753.276 182.496C552.62 224.522 356.51 175.943 186.502 83.4609C100.38 36.1526 20.8418 -20.3144 -47.0006 -85.4819C-40.6472 -79.1935 -34.0338 -73.0986 -27.3361 -67.0746C46.7524 -1.22981 131.688 56.2498 224.56 102.23C319.446 148.99 424.673 182.87 534.325 193.254C592.553 198.684 652.113 197.485 709.829 188.913C714.299 188.191 721.624 187.127 726.072 186.411C729.723 185.733 741.932 183.463 745.782 182.754C753.712 181.186 762.768 179.103 770.667 177.381C775.382 176.201 787.063 173.266 791.771 172.086C798.193 170.319 806.23 167.978 812.645 166.178C829.309 161.16 847.588 154.898 864.168 149.706C893.653 140.47 924.692 131.814 954.966 124.571C1162.17 74.3798 1386.42 73.0834 1593.46 124.513C1630.97 134.001 1668.17 144.81 1703.59 158.987L1703.58 158.967Z" fill="#EDF9FF"/>
</g>
</g>
<defs>
<linearGradient id="paint0_linear_3160_11961" x1="0" y1="200" x2="1920" y2="200" gradientUnits="userSpaceOnUse">
<stop stop-color="#79C3F4"/>
<stop offset="1" stop-color="#24408F"/>
</linearGradient>
</defs>
</svg>
