<svg width="32" height="32" viewBox="0 0 32 32" fill="none" xmlns="http://www.w3.org/2000/svg">
<path d="M29.2377 21.8933C29.8488 22.5052 30.1922 23.3345 30.1922 24.1992C30.1922 25.064 29.8488 25.8933 29.2377 26.5051L26.2611 29.4818C25.7435 29.9995 25.1289 30.4102 24.4526 30.6903C23.7762 30.9706 23.0513 31.1148 22.3192 31.1148C21.5871 31.1148 20.8621 30.9706 20.1858 30.6903C19.5094 30.4102 18.8949 29.9995 18.3772 29.4818L1.63207 12.7366C0.587057 11.6913 0 10.2737 0 8.79565C0 7.31753 0.587057 5.89997 1.63207 4.85459L4.60869 1.87797C4.91157 1.57487 5.27127 1.3344 5.66709 1.17035C6.06291 1.0063 6.48709 0.921875 6.91555 0.921875C7.34401 0.921875 7.76837 1.0063 8.16419 1.17035C8.56 1.3344 8.91961 1.57487 9.22241 1.87797L12.3106 4.96608C12.6136 5.26896 12.8542 5.62857 13.0182 6.02439C13.1823 6.42021 13.2667 6.84448 13.2667 7.27294C13.2667 7.7014 13.1823 8.12567 13.0182 8.52149C12.8542 8.91731 12.6136 9.27691 12.3106 9.57971C11.6994 10.1915 11.3562 11.0209 11.3562 11.8856C11.3562 12.7504 11.6994 13.5797 12.3106 14.1916L16.9243 18.8033C17.227 19.1064 17.5863 19.3467 17.9821 19.5108C18.3777 19.6749 18.8018 19.7592 19.2301 19.7592C19.6584 19.7592 20.0825 19.6749 20.4782 19.5108C20.8738 19.3467 21.2333 19.1064 21.536 18.8033C22.1479 18.1922 22.9771 17.8489 23.8418 17.8489C24.7066 17.8489 25.536 18.1922 26.1478 18.8033L29.2377 21.8933Z" fill="#051726"/>
<path d="M25.369 14.6652C25.1468 14.6651 24.9321 14.5853 24.7638 14.4405C24.5954 14.2955 24.4844 14.0951 24.4511 13.8756C24.181 12.0593 23.3343 10.3779 22.0359 9.07945C20.7375 7.78104 19.0561 6.93437 17.2398 6.66431C17.1191 6.64621 17.0033 6.60456 16.8987 6.54177C16.7941 6.47889 16.7029 6.39603 16.6304 6.29793C16.5578 6.19991 16.5053 6.08842 16.4758 5.97007C16.4463 5.85163 16.4404 5.72864 16.4584 5.60796C16.4765 5.48729 16.5182 5.37135 16.5811 5.26682C16.6439 5.1622 16.7268 5.07105 16.8249 4.99854C16.9229 4.92594 17.0343 4.87341 17.1528 4.84398C17.2711 4.81445 17.3942 4.80857 17.5149 4.82667C19.7238 5.15658 21.7685 6.18698 23.3481 7.76606C24.9275 9.34523 25.9583 11.3898 26.2887 13.5986C26.3069 13.7195 26.3011 13.8426 26.2716 13.9613C26.2421 14.0798 26.1896 14.1914 26.1169 14.2896C26.0442 14.3878 25.9529 14.4707 25.8481 14.5336C25.7434 14.5965 25.6273 14.6379 25.5064 14.656C25.4609 14.6618 25.415 14.6649 25.369 14.6652Z" fill="#051726"/>
<path d="M30.1903 13.8385C29.9876 13.8382 29.7905 13.7716 29.6291 13.6488C29.4677 13.5261 29.3511 13.3538 29.2967 13.1584C28.5471 10.4497 27.108 7.98157 25.1199 5.99508C23.1317 4.00849 20.6623 2.5714 17.953 1.82406C17.7157 1.75728 17.5147 1.59903 17.3941 1.38403C17.2735 1.16903 17.2434 0.914948 17.3102 0.677663C17.3769 0.440377 17.5352 0.239346 17.7502 0.118781C17.9652 -0.00178389 18.2192 -0.0320279 18.4565 0.0347475C21.4746 0.869926 24.225 2.47276 26.4392 4.68713C28.6535 6.90141 30.2564 9.65163 31.0916 12.6698C31.1244 12.7874 31.1336 12.9103 31.1189 13.0315C31.1041 13.1526 31.0656 13.2697 31.0055 13.376C30.9455 13.4824 30.865 13.5758 30.7689 13.651C30.6727 13.7262 30.5626 13.7817 30.445 13.8143C30.3616 13.8336 30.276 13.8417 30.1903 13.8385Z" fill="#051726"/>
</svg>
