<svg width="26" height="34" viewBox="0 0 26 34" fill="none" xmlns="http://www.w3.org/2000/svg">
<g clip-path="url(#clip0_2484_6516)">
<path d="M6.21442 0H19.7817C23.2164 0 26 2.89276 26 6.46211V22.668C26 26.2374 23.2164 29.1301 19.7817 29.1301H6.21442C2.77973 29.1301 -0.00389671 26.2374 -0.00389671 22.668V6.46211C-0.00389671 2.89276 2.77973 0 6.21442 0ZM20.9162 24.479C21.9181 24.479 22.729 23.6363 22.729 22.5951C22.729 21.5539 21.9181 20.7112 20.9162 20.7112C19.9142 20.7112 19.1033 21.5539 19.1033 22.5951C19.1033 23.6363 19.9142 24.479 20.9162 24.479ZM14.1326 13.0539C14.1326 13.9371 14.8226 14.6542 15.6725 14.6542H21.7466C22.5965 14.6542 23.2865 13.9371 23.2865 13.0539V9.04695C23.2865 8.17588 22.6082 7.47093 21.77 7.47093H15.6491C14.8109 7.47093 14.1326 8.17588 14.1326 9.04695V13.0539ZM14.8109 3.27359C14.8109 2.23236 14 1.38966 12.9981 1.38966C11.9961 1.38966 11.1852 2.23236 11.1852 3.27359C11.1852 4.31482 11.9961 5.15753 12.9981 5.15753C14 5.15753 14.8109 4.31482 14.8109 3.27359ZM5.08382 24.479C6.08577 24.479 6.89669 23.6363 6.89669 22.5951C6.89669 21.5539 6.08577 20.7112 5.08382 20.7112C4.08187 20.7112 3.27096 21.5539 3.27096 22.5951C3.27096 23.6363 4.08187 24.479 5.08382 24.479ZM2.72515 13.0539C2.72515 13.9371 3.41521 14.6542 4.26511 14.6542H10.3392C11.1891 14.6542 11.8791 13.9371 11.8791 13.0539V9.04695C11.8791 8.17588 11.2008 7.47093 10.3626 7.47093H4.24171C3.40351 7.47093 2.72515 8.17588 2.72515 9.04695V13.0539Z" fill="#051726"/>
<path d="M7.02528 31.416H18.9707V34.0009H7.02528V31.416Z" fill="#051726"/>
</g>
<defs>
<clipPath id="clip0_2484_6516">
<rect width="26" height="34" fill="white" transform="matrix(-1 0 0 1 26 0)"/>
</clipPath>
</defs>
</svg>
