<svg width="285" height="274" viewBox="0 0 285 274" fill="none" xmlns="http://www.w3.org/2000/svg">
<g clip-path="url(#clip0_3023_45424)">
<path d="M26.8894 91.3772C22.6206 89.8418 17.9557 89.9295 14.479 91.5965C11.4864 93.0003 9.37397 95.4569 8.18573 98.8786C5.10513 107.521 11.0903 114.145 17.9557 116.645C21.7844 118.049 25.8772 118.049 29.2219 116.821C28.3417 117.742 26.9334 118.707 24.645 120.067C24.645 120.067 15.5792 125.375 14.479 126.077C13.7308 125.156 10.2541 120.988 10.2541 120.988C8.22974 118.488 6.86548 116.601 6.86548 113.969C6.86548 113.706 6.86548 113.443 6.86548 113.136L6.95349 112.302L4.26897 111.864L4.13694 112.741L2.28858 124.147L5.01711 124.629L5.14914 123.752C5.32517 122.699 5.54522 122.173 5.76526 122.216C6.20535 122.304 6.82147 122.787 7.78966 123.927C7.78966 123.927 11.2223 128.007 13.2907 130.464C10.7382 130.069 6.68944 129.367 6.68944 129.367C5.06112 129.104 4.62103 128.928 4.62103 127.832C4.62103 127.437 4.62103 126.954 4.75306 126.296L4.84108 125.463L2.11254 125.024L-0.0878906 138.535L2.64065 138.974L2.81668 138.141C3.30078 135.816 3.38879 135.64 5.58922 136.035L23.9408 139.018C26.1853 139.369 26.1853 139.588 25.9212 141.913L25.8332 142.747L28.5617 143.185L30.7182 129.674L27.9896 129.235L27.8136 130.069C27.3295 132.525 27.2415 132.701 24.997 132.35C24.997 132.35 20.9923 131.692 18.4838 131.297C20.9482 129.806 25.6132 126.998 25.6132 126.998C26.5373 126.472 27.8576 125.682 28.2977 125.638C28.2977 125.814 28.2977 128.007 28.2977 128.007L29.0458 128.27L30.9382 128.577L33.1826 114.496C34.6349 113.136 35.8232 111.425 36.5713 109.275C39.6519 100.589 33.6667 94.0093 26.8014 91.5088L26.8894 91.3772ZM33.2707 107.915C32.7866 109.275 31.9944 110.24 30.7622 110.811C28.4737 111.907 24.953 111.6 20.2881 109.89C13.0707 107.301 10.1221 103.967 11.4864 100.063C11.9705 98.7031 12.7626 97.7381 13.9949 97.1678C16.2833 96.0711 19.804 96.3781 24.4689 98.089C31.6864 100.721 34.6349 104.011 33.2707 107.915Z" fill="#24408F"/>
<path d="M83.9248 44.79C83.0006 45.5358 82.6485 45.5358 80.2721 44.0443L58.5758 30.3574L58.0917 30.7084L56.6394 31.8051L64.429 57.3802C64.429 57.3802 64.473 57.6872 64.517 57.8627L61.7444 53.783L59.9841 55.7132L60.2041 56.2396C62.1405 60.7141 61.2163 62.8637 58.3558 66.0222C55.6712 68.9613 55.4072 68.6981 54.703 68.0401C54.703 68.0401 49.8621 63.6094 48.3658 62.2056C49.114 61.3722 50.6543 59.7052 50.6543 59.7052C52.6787 57.4679 53.7789 57.2486 55.9793 58.6962L56.5954 59.091L58.3118 57.2047L49.9061 49.4839L48.1898 51.3702L48.6299 51.9405C49.29 52.774 49.6861 53.3882 49.6861 54.0462C49.6861 54.7919 49.158 55.6693 47.8377 57.1169C47.8377 57.1169 46.2974 58.7839 45.5933 59.6174C44.5371 58.6523 39.8721 54.3533 39.8721 54.3533C39.8721 54.3533 39.6081 54.0462 39.5641 54.0023C39.6081 53.9146 39.8281 53.6075 39.8281 53.6075L42.3806 50.7999C45.5052 47.3344 46.4734 47.5976 48.8059 48.7381L49.378 49.0452L51.0943 47.115L45.2412 41.9825L44.6691 42.6405L30.1022 58.7401L32.1266 60.5825L32.6987 60.0122C34.107 58.6085 34.283 58.433 35.9994 60.0122L49.7301 72.6901C51.0063 73.8745 51.2264 74.2694 50.7423 75.059L50.4782 74.8835L50.0381 75.717C49.6421 76.5505 49.246 76.7698 47.8377 76.9015C47.8377 76.9015 39.6961 77.5156 36.7915 77.7349C36.9236 77.0331 37.0996 76.375 37.0996 75.717C37.0996 72.734 35.7353 70.409 32.9628 68.742C28.3419 65.9344 24.117 67.9085 20.0242 74.708L14.0391 84.6661L16.3715 86.1137L16.8116 85.4119C18.1759 83.3939 18.3079 83.2623 20.2443 84.4468L36.1754 94.1416C38.1118 95.326 38.0678 95.5015 36.8796 97.651L36.4835 98.3968L38.8599 99.8445L45.9013 88.0878L43.5249 86.6402L43.0848 87.342C41.7205 89.4477 41.5445 89.5793 39.6521 88.3949C39.6521 88.3949 34.9872 85.5435 33.7989 84.8416C33.887 84.71 33.887 84.71 33.931 84.5784C34.7671 84.5345 48.6299 83.5255 48.6299 83.5255L51.8865 78.0859L66.9375 61.4599L72.4385 57.1608L70.8542 55.0551L70.0621 55.45L68.6538 56.1518L68.2137 55.8009L66.6294 51.765C67.4216 51.1509 71.9985 47.5976 72.7906 47.0273C72.8786 47.0712 73.0106 47.1589 73.0106 47.1589L76.2673 49.5716C76.2673 49.5716 76.4873 49.8348 76.4873 50.0103C76.4873 50.2735 76.2673 50.6683 75.3871 51.3264L74.683 51.8528L76.3553 54.0462L86.2572 46.4131L84.5409 44.1759L83.8368 44.7461L83.9248 44.79ZM25.9654 74.05C27.1536 73.7429 28.3859 74.0062 29.6621 74.7519C30.8504 75.4977 32.1706 76.6382 32.1706 78.7878C32.1706 79.8845 31.7305 81.2883 30.8504 82.9991C29.4861 82.1656 22.6207 77.9982 22.6207 77.9982L22.3127 77.7349L22.7968 76.6382C23.5889 75.3222 24.7332 74.401 26.0094 74.0939L25.9654 74.05ZM65.4852 47.9485C65.0011 46.5447 63.9009 43.1669 63.0647 40.6226C65.2651 42.1141 68.2137 44.0881 69.4459 44.8778C68.3457 45.7112 66.5854 47.0712 65.5292 47.9047L65.4852 47.9485Z" fill="#24408F"/>
<path d="M104.786 12.942C103.95 10.8363 103.994 10.0905 106.106 8.94998L106.81 8.55517L105.798 6.05469L105.006 6.40563L96.2043 10.0467L97.2165 12.5472L97.9646 12.3278C99.945 11.8014 100.649 12.1523 101.529 14.3458L106.15 25.7076C107.162 28.2081 107.382 30.4015 106.678 32.0246C106.194 33.209 105.226 34.0864 103.818 34.7005C102.057 35.4024 100.649 35.534 99.4609 35.0515C98.1847 34.5251 97.1285 33.209 96.2483 31.0595L90.9233 17.8991C90.0431 15.7495 90.2631 15.6618 92.1995 14.7406L92.9477 14.3896L91.9354 11.8453L79.7891 16.8462L80.8453 19.3906L81.6374 19.1274C83.6618 18.3816 83.8819 18.3377 84.762 20.4873L89.9111 33.209C92.6836 40.0086 97.3045 41.9388 104.126 39.1312C107.162 37.859 109.187 36.1043 110.155 33.8232C111.211 31.2788 110.947 28.2081 109.451 24.3915L104.83 13.0736L104.786 12.942Z" fill="#24408F"/>
<path d="M152.622 0.745757L139.332 0V0.877361L139.2 2.76369L140.036 2.85142C142.104 3.07077 142.324 3.11463 142.192 5.39577L141.136 24.1274C141.004 26.4524 140.74 26.4524 138.672 26.4086H137.836V26.9789L134.271 6.71182C133.875 4.34294 134.227 3.72879 136.251 3.11463L136.999 2.89529L136.559 0.21934L135.679 0.394813L126.173 2.0618L126.657 4.73775H127.405C129.562 4.56228 130.09 5.04483 130.486 7.4137C130.486 7.4137 131.85 15.1784 132.422 18.4685C129.43 15.7486 116.183 3.81652 116.183 3.81652L108.262 5.2203L108.702 7.80852H109.362C110.726 7.98399 111.606 8.46654 112.531 9.69484C112.531 10.2213 115.567 27.5492 115.567 27.5492C115.655 28.0756 115.743 28.5581 115.743 28.9529C115.743 30.2251 115.171 30.7077 113.587 31.1902L112.839 31.4095L113.323 34.0855L123.665 32.243L123.181 29.5671H122.432C120.276 29.7426 119.748 29.26 119.308 26.8911C119.308 26.8911 117.768 18.1614 117.019 13.7307C120.1 16.4944 135.855 30.7077 135.855 30.7077L138.364 30.269L138.188 29.26L150.95 29.9619C155.439 30.2251 159.488 28.9529 162.304 26.4086C164.989 23.9958 166.529 20.4864 166.793 16.2312C167.277 7.36984 161.732 1.31604 152.622 0.789625V0.745757ZM147.825 24.7416L148.926 5.52738L149.278 4.29907C149.542 4.07973 150.114 3.99199 151.082 4.03586C153.767 4.21134 155.923 5.17643 157.463 6.93116C159.312 9.03682 160.192 12.1076 159.972 15.8364C159.752 19.5652 158.564 22.5043 156.451 24.3906C154.735 25.9699 152.446 26.6718 149.762 26.5402C148.838 26.4963 148.266 26.3208 148.002 26.0576L147.781 24.7855L147.825 24.7416Z" fill="#24408F"/>
<path d="M207.018 45.7973C206.182 45.4464 205.962 45.0077 205.741 43.6039C205.741 43.6039 204.729 35.4883 204.377 32.5492C208.294 33.0756 211.287 31.6718 213.135 28.2062C214.147 26.276 214.411 24.3897 213.927 22.635C213.179 20.0906 210.758 17.7218 206.622 15.4406L196.456 9.91324L196.06 10.7029L195.179 12.3699L195.884 12.8085C197.952 14.0807 198.084 14.2123 197.028 16.1864L188.182 32.6808C187.39 34.1723 187.082 34.5232 186.114 34.1723L189.194 28.601L186.686 27.8553L186.334 28.294C183.253 32.0227 180.921 32.1105 176.828 30.926C176.036 30.7067 173.659 30.0048 173.307 29.3907L173.395 28.5133C173.395 28.5133 175.199 22.1963 175.772 20.2222C176.828 20.5293 178.984 21.1435 178.984 21.1435C181.449 21.8892 182.329 22.635 182.329 24.4774C182.329 24.7845 182.329 25.1355 182.241 25.5303L182.153 26.276L184.617 27.0218L187.786 16.0109L185.321 15.309L185.013 15.967C184.045 18.0288 183.605 18.5553 180.04 17.5463C180.04 17.5463 177.972 16.9321 176.828 16.5812C177.224 15.2213 178.984 9.07975 178.984 9.07975C178.984 9.07975 179.116 8.7288 179.16 8.64107C179.248 8.64107 179.644 8.7288 179.644 8.7288L183.253 9.78164C187.654 11.0538 187.918 12.0189 187.918 14.5633V15.3529L190.382 16.0548L192.363 8.50946L170.799 2.23633L170.579 3.06982L170.05 4.86841L170.843 5.13162C172.735 5.78964 172.955 5.87738 172.295 8.11465L167.146 26.1444C166.486 28.3817 166.266 28.3378 164.329 27.8553L163.537 27.6798L162.789 30.3558L184.793 36.7605L194.783 42.1563L196.104 39.7435L195.399 39.3049C193.287 38.0327 193.111 37.8572 194.211 35.8831C194.211 35.8831 196.808 31.0577 197.468 29.8293C197.6 29.9171 197.6 29.9171 197.732 29.9609C197.82 30.7944 199.492 44.7006 199.492 44.7006L206.798 48.6926L208.162 46.1483L207.282 45.7535L207.018 45.7973ZM203.409 18.2482L203.629 17.8972L204.773 18.3359C206.138 19.0817 207.062 20.1784 207.458 21.4067C207.81 22.5911 207.634 23.8633 206.93 25.1793C205.918 27.0657 203.937 29.1275 198.832 26.8025C199.58 25.3987 203.409 18.2482 203.409 18.2482Z" fill="#24408F"/>
<path d="M245.216 48.2541L245.744 48.4735L247.416 46.5871L240.375 40.3579L238.571 42.4635L239.187 43.0338C240.067 43.8673 240.331 44.3499 240.331 44.6569C240.331 44.8763 240.199 45.0079 240.111 45.1395L237.911 46.7187C237.911 46.7187 230.913 50.9301 227.436 53.0357C228.713 49.8772 231.881 41.7617 231.881 41.7617L233.378 38.9102C233.598 38.647 233.862 38.3399 235.358 39.656L236.018 40.2263L237.866 38.1206L228.229 29.5663L226.424 31.6281L226.996 32.1984C227.701 32.9442 227.965 33.4267 227.965 33.997C227.965 34.3479 227.833 34.7428 227.656 35.1814C227.656 35.1814 226.072 39.1734 225.764 39.9631C225.368 40.1824 220.483 42.9022 217.843 44.3937C219.207 41.1914 222.507 33.4267 222.507 33.4267C222.684 32.988 223.872 30.5753 223.872 30.5753C224.004 30.3998 224.444 29.9173 225.588 30.9701L226.248 31.5404L228.097 29.4347L219.427 21.7578L218.855 22.4158L217.667 23.7319L218.107 24.3022C218.635 24.9602 218.899 25.3111 217.446 28.7328L207.809 51.2372L209.833 53.0357C209.833 53.0357 220.439 47.0697 223.608 45.315C222.243 48.6928 217.755 60.0546 217.755 60.0546L219.779 61.8532L240.991 49.0438C243.192 47.6838 243.72 47.6838 245.216 48.2541Z" fill="#24408F"/>
<path d="M245.305 92.6492C244.821 91.6841 244.557 91.1139 244.557 90.6313C244.557 90.061 245.041 89.7101 246.185 89.0959C246.185 89.0959 260.356 81.2874 263.789 79.4011C264.229 80.1907 264.845 81.3313 264.845 81.3313C265.241 82.0332 265.461 82.6473 265.461 83.2615C265.461 84.3143 264.757 85.3671 262.997 86.9464L262.469 87.4289L263.789 89.8417L271.094 84.9723L259.872 64.3105L259.124 64.6175L251.862 67.8638L253.183 70.2765L253.843 70.101C257.452 69.0482 258.508 69.6624 259.52 71.5487C259.52 71.5487 260.136 72.6893 260.576 73.4789C259.168 74.2685 242.973 83.1737 242.973 83.1737C240.992 84.2704 240.86 84.1388 239.584 81.9893L239.452 81.8138L239.936 81.419L239.408 80.7171C238.66 79.7959 238.66 79.4449 240.156 77.0322L253.711 55.0982L252.259 53.168L251.686 53.3434L226.91 61.0642C225.545 61.5029 224.885 61.2836 223.829 60.4062L223.301 59.9675L221.232 61.5906L227.13 69.2676L229.198 67.6444L228.802 66.8548L228.098 65.451L228.45 65.0123C228.45 65.0123 232.323 63.4331 232.455 63.3892C233.071 64.1789 236.591 68.785 237.164 69.5746C237.12 69.6624 237.032 69.794 237.032 69.794L234.655 73.1279L234.127 73.3473L232.367 71.768L231.662 72.0751L230.166 73.2596L237.208 82.428L236.811 82.6473L243.369 94.7549L245.789 93.4389L245.437 92.6931L245.305 92.6492ZM243.413 59.7043C241.96 61.9416 239.98 64.9246 239.188 66.1529C238.352 65.0562 236.988 63.2576 236.151 62.2048C237.56 61.7222 240.904 60.5817 243.413 59.7482V59.7043Z" fill="#24408F"/>
<path d="M282.491 122.656L280.423 111.162L279.543 111.338L277.694 111.689L277.783 112.522C278.135 114.935 278.091 115.11 275.846 115.549L257.539 118.883C255.778 119.19 255.338 119.102 254.986 117.918L261.235 117.216L260.355 114.759H259.783C254.942 114.365 253.534 112.478 252.081 108.442C251.465 106.688 251.245 105.722 251.245 105.152C251.245 104.494 251.553 104.406 252.037 104.231C252.037 104.231 258.771 101.862 260.135 101.38C260.487 102.432 261.235 104.582 261.235 104.582C261.587 105.547 261.763 106.337 261.763 106.995C261.763 108.223 261.103 108.969 259.563 109.802L258.903 110.153L259.783 112.566L270.477 108.749L269.641 106.293L268.937 106.424C266.692 106.819 265.988 106.775 264.756 103.266C264.756 103.266 264.052 101.248 263.656 100.064C264.976 99.581 270.961 97.4753 270.961 97.4753C270.961 97.4753 271.313 97.3876 271.445 97.3437C271.489 97.4314 271.665 97.7824 271.665 97.7824L272.942 101.38C273.514 103.047 273.778 104.143 273.778 105.021C273.778 106.468 273.03 107.126 271.665 108.091L271.137 108.486L271.973 110.899L279.235 108.135L271.753 86.7715L270.917 87.0786L269.157 87.6927L269.377 88.4823C269.949 90.4125 270.037 90.6757 267.837 91.4215L250.277 97.6946C248.121 98.4843 247.989 98.221 247.241 96.3786L246.932 95.589L244.336 96.5102L251.949 118.269H252.037L254.15 129.938L256.834 129.455L256.702 128.622C256.614 127.964 256.526 127.437 256.526 127.042C256.526 125.99 256.966 125.814 258.595 125.551C258.595 125.551 263.964 124.586 265.328 124.323C265.328 124.454 265.328 124.498 265.372 124.63C264.756 125.244 255.03 135.202 255.03 135.202L256.482 143.405L259.299 142.923L259.079 142.001C259.035 141.782 258.991 141.563 258.991 141.387C258.991 140.861 259.255 140.422 260.003 139.633C260.003 139.633 265.856 133.579 267.837 131.561C269.861 134.939 272.722 136.562 276.55 135.86C278.707 135.465 280.291 134.5 281.347 133.008C282.844 130.815 283.196 127.437 282.359 122.743L282.491 122.656ZM275.23 129.06C273.118 129.455 270.301 129.148 268.937 123.708C270.521 123.401 278.399 121.998 278.399 121.998H278.795L279.147 123.138C279.587 125.507 278.795 128.446 275.186 129.104L275.23 129.06Z" fill="#24408F"/>
<path d="M99.4151 195.52L90.4813 171.305H88.0608L78.731 196.397C78.2469 197.757 77.6748 198.108 76.3105 198.459L75.6504 198.634V201.267H85.2883V198.459H84.4081C82.7358 198.459 82.7358 198.064 82.7358 197.582L83.924 193.414H91.6695L91.7576 193.677L92.9018 197.582C92.9018 198.02 92.9018 198.459 91.1414 198.459H90.2613V201.267H102.716V198.459H101.836C100.647 198.503 100.383 198.284 99.371 195.608L99.4151 195.52ZM87.8408 182.272C88.6769 184.816 89.8652 188.194 90.3053 189.598H85.3323C85.8164 188.194 86.9606 184.816 87.8408 182.272Z" fill="#24408F"/>
<path d="M114.07 182.579C111.561 181.087 109.361 179.815 109.361 177.885C109.361 177.008 109.625 174.902 112.265 174.902C115.038 174.902 117.37 177.271 118.382 181.131L118.558 181.789H121.023V171.305H118.514L118.382 172.007C118.294 172.358 118.118 172.752 117.898 172.752L116.226 172.314L111.209 171.305C106.852 171.305 103.199 174.946 103.199 179.201C103.199 183.807 107.116 186.308 110.549 188.501C113.365 190.3 116.05 192.01 116.05 194.511C116.05 195.388 115.786 198.196 112.661 198.196C109.537 198.196 106.632 194.73 105.664 191.396L105.488 190.782H103.023V201.53H105.928L106.06 200.784C106.148 200.126 106.368 200.126 106.456 200.126L108.04 200.609C109.185 201.135 110.813 201.837 113.674 201.837C118.558 201.837 122.211 198.152 122.211 193.326C122.211 187.36 117.722 184.684 114.07 182.579Z" fill="#24408F"/>
<path d="M134.402 182.579C131.893 181.087 129.693 179.815 129.693 177.885C129.693 177.008 130.001 174.902 132.641 174.902C135.282 174.902 137.746 177.271 138.714 181.131L138.891 181.789H141.399V171.305H138.891L138.758 172.007C138.67 172.401 138.494 172.796 138.274 172.796L136.602 172.358L131.585 171.349C127.272 171.349 123.576 174.99 123.576 179.245C123.576 183.851 127.492 186.351 130.925 188.545C133.742 190.343 136.426 192.054 136.426 194.555C136.426 195.432 136.162 198.24 132.993 198.24C129.825 198.24 126.964 194.774 125.996 191.44L125.82 190.826H123.355V201.574H126.26L126.392 200.828C126.48 200.17 126.7 200.17 126.788 200.17L128.372 200.652C129.517 201.179 131.145 201.881 134.006 201.881C138.891 201.881 142.543 198.196 142.543 193.37C142.543 187.404 138.01 184.728 134.402 182.623V182.579Z" fill="#24408F"/>
<path d="M192.492 192.536C191.568 193.984 189.059 197.844 184.614 197.844C177.485 197.844 176.429 190.65 176.429 186.351C176.429 182.051 178.453 174.945 183.954 174.945C187.431 174.945 189.984 177.226 191.524 181.701L191.744 182.271H194.384L193.768 171.348H191.216L190.292 172.971H190.204L189.147 172.62C187.607 172.093 185.275 171.348 183.382 171.348C174.404 171.348 170.048 178.981 169.52 185.078C168.991 178.191 164.811 171.348 156.361 171.348C147.251 171.348 143.07 179.244 143.07 186.614C143.07 193.984 147.251 201.88 156.361 201.88C164.899 201.88 169.035 194.949 169.564 188.018C170.18 196.484 175.329 201.88 183.162 201.88C188.619 201.88 192.272 199.555 195.045 194.291L195.397 193.677L193.108 191.702L192.58 192.536H192.492ZM156.273 198.239C151.124 198.239 150.068 191.878 150.068 186.57C150.068 181.262 151.168 174.901 156.273 174.901C161.378 174.901 162.478 181.262 162.478 186.57C162.478 191.878 161.422 198.239 156.273 198.239Z" fill="#24408F"/>
<path d="M200.282 194.029C198.346 194.029 196.762 195.74 196.762 197.846C196.762 199.951 198.346 201.662 200.282 201.662C202.219 201.662 203.803 199.951 203.803 197.846C203.803 195.74 202.219 194.029 200.282 194.029Z" fill="#24408F"/>
<path d="M219.913 240.528L219.428 238.379H214.852L214.94 240.879C215.556 240.792 216.04 240.66 216.26 240.397C216.26 240.397 217.844 240.397 219.869 240.485L219.913 240.528Z" fill="#24408F"/>
<path d="M269.817 180.605C269.817 180.605 281.348 179.07 285.044 167.006C285.044 167.006 275.935 175.341 263.304 174.025C263.304 174.025 255.25 171.831 258.727 181.482C258.727 181.482 258.287 188.94 255.691 191.353L250.674 190.914C250.674 190.914 244.16 187.624 243.72 197.275C243.72 197.275 239.583 209.339 237.207 210.655C237.207 210.655 230.914 216.138 231.134 221.183C231.134 221.183 233.73 218.551 240.684 217.893C240.684 217.893 243.72 204.074 249.177 203.636C249.177 203.636 241.784 215.261 243.324 219.428C243.324 219.428 223.564 224.034 220.264 229.299C220.264 229.299 225.721 215.041 215.247 216.138L188.753 224.692C188.753 224.692 180.26 226.447 182.416 231.053L178.499 232.369C178.499 232.369 175.683 224.034 167.629 227.763C167.629 227.763 166.793 228.114 165.649 228.728C165.517 228.904 165.209 230.044 167.277 237.019C167.277 237.019 180.964 235.133 174.01 247.416C174.01 247.416 169.874 243.468 166.837 248.293L161.82 242.152C161.82 242.152 162.26 238.204 166.397 237.326C166.397 237.326 164.593 233.159 164.681 229.255C160.412 231.667 153.678 236.844 160.28 242.634L163.977 247.46C163.977 247.46 166.573 249.566 161.82 250.75C161.82 250.75 146.901 255.049 143.468 257.242C140.036 255.049 125.117 250.75 125.117 250.75C120.32 249.566 122.916 247.46 122.916 247.46L126.613 242.634C133.214 236.8 126.481 231.667 122.168 229.255C122.256 233.159 120.452 237.326 120.452 237.326C124.589 238.204 124.985 242.152 124.985 242.152L120.012 248.293C116.975 243.468 112.838 247.416 112.838 247.416C105.885 235.133 119.572 237.019 119.572 237.019C121.64 230.088 121.332 228.904 121.2 228.728C120.056 228.114 119.22 227.763 119.22 227.763C111.166 224.034 108.35 232.369 108.35 232.369L104.433 231.053C106.589 226.447 98.1396 224.692 98.1396 224.692L71.6024 216.138C61.1723 215.041 66.5854 229.299 66.5854 229.299C63.3288 224.034 43.5689 219.428 43.5689 219.428C45.0652 215.261 37.7157 203.636 37.7157 203.636C43.1288 204.074 46.1654 217.893 46.1654 217.893C53.1188 218.551 55.7153 221.183 55.7153 221.183C55.9353 216.138 49.6421 210.655 49.6421 210.655C47.2656 209.339 43.1288 197.275 43.1288 197.275C42.6887 187.624 36.1754 190.914 36.1754 190.914L31.1585 191.353C28.5619 188.94 28.1219 181.482 28.1219 181.482C31.5985 171.831 23.545 174.025 23.545 174.025C10.9145 175.341 1.80469 167.006 1.80469 167.006C5.50141 179.07 17.0317 180.605 17.0317 180.605C25.9654 185.211 24.4251 191.133 24.4251 191.133C22.4888 193.546 11.7946 190.037 11.7946 190.037C15.0513 195.739 20.0683 194.862 20.0683 194.862C27.9018 195.959 28.958 201.881 28.958 201.881C30.4983 205.39 30.2783 214.164 30.2783 214.164C30.4983 228.86 39.6081 230.176 39.6081 230.176C46.1214 232.808 58.3118 242.02 58.3118 242.02C59.632 241.231 62.7126 240.836 65.4852 240.66L66.4094 237.019L73.5828 237.458L73.1427 241.011C76.9274 240.924 83.1327 239.169 83.1327 239.169C92.2865 238.95 92.4625 242.678 92.4625 242.678C94.0028 248.162 88.9858 249.917 88.9858 249.917C83.1327 254.303 72.9227 251.671 72.9227 251.671C69.2259 250.355 72.0425 249.917 72.0425 249.917C72.7026 250.136 76.1793 252.11 85.069 250.136C94.0028 248.162 91.0542 242.591 91.0542 242.591C90.3061 240.178 82.6926 240.924 82.6926 240.924C80.3161 242.02 70.2821 242.459 70.2821 242.459C46.8255 241.143 63.5488 255.4 63.5488 255.4L74.2869 261.322C77.7636 263.384 78.5117 263.954 78.5117 263.954C80.0521 265.49 85.025 270.973 85.025 270.973C93.2987 277.992 88.2817 267.902 88.2817 267.902C86.7854 265.49 82.4285 261.322 82.4285 261.322C74.815 256.058 83.7488 258.471 83.7488 258.471C94.839 262.858 105.709 257.593 105.709 257.593C109.406 254.961 113.543 256.277 113.543 256.277C126.129 262.2 129.65 261.98 129.65 261.98L134.139 262.726L133.567 263.077C134.227 263.077 123.577 266.806 122.256 270.754C122.256 270.754 119.22 275.448 125.513 272.596C125.513 272.596 127.361 272.07 129.43 270.535C129.43 270.535 126.613 278.431 132.026 270.754C132.026 270.754 136.383 265.27 142.896 264.393L143.424 264.305L143.997 264.393C150.51 265.27 154.867 270.754 154.867 270.754C160.324 278.431 157.463 270.535 157.463 270.535C159.532 272.07 161.38 272.596 161.38 272.596C167.673 275.448 164.637 270.754 164.637 270.754C163.316 266.806 152.71 263.077 153.326 263.077L152.754 262.726L157.243 261.98C157.243 261.98 160.72 262.2 173.35 256.277C173.35 256.277 177.487 254.961 181.184 257.593C181.184 257.593 192.054 262.858 203.144 258.471C203.144 258.471 212.034 256.058 204.464 261.322C204.464 261.322 200.108 265.49 198.611 267.902C198.611 267.902 193.594 277.992 201.868 270.973C201.868 270.973 206.841 265.49 208.381 263.954C208.381 263.954 209.129 263.428 212.606 261.322L223.388 255.4C223.388 255.4 240.111 241.187 216.655 242.459C216.655 242.459 206.665 242.02 204.244 240.924C204.244 240.924 196.631 240.178 195.883 242.591C195.883 242.591 192.934 248.162 201.868 250.136C210.758 252.11 214.234 250.136 214.895 249.917C214.895 249.917 217.711 250.355 214.014 251.671C214.014 251.671 203.804 254.303 197.907 249.917C197.907 249.917 192.89 248.162 194.431 242.678C194.431 242.678 194.651 238.95 203.76 239.169C203.76 239.169 209.966 240.924 213.75 241.011L213.31 237.458L220.484 237.019L221.408 240.66C224.136 240.836 227.261 241.231 228.581 242.02C228.581 242.02 240.728 232.808 247.285 230.176C247.285 230.176 256.395 228.86 256.615 214.164C256.615 214.164 256.395 205.39 257.891 201.881C257.891 201.881 258.991 195.959 266.781 194.862C266.781 194.862 271.798 195.739 275.054 190.037C275.054 190.037 264.404 193.546 262.424 191.133C262.424 191.133 260.928 185.211 269.817 180.605ZM85.9052 232.764L76.7954 230.79L72.0425 229.957L75.5192 230.79L73.7588 236.493L67.0255 235.177L68.2577 229.299L67.8617 229.211C67.8617 229.211 62.0525 214.296 73.5828 217.761L88.7218 222.411C88.7218 222.411 85.9052 221.315 85.9052 232.72V232.764ZM90.8782 234.299L87.8416 233.641C87.1814 225.087 89.998 222.894 89.998 222.894L92.8146 223.771C88.8978 224.868 90.8782 234.299 90.8782 234.299ZM116.359 253.207C116.359 253.207 113.983 252.417 113.411 251.233C113.411 251.233 103.817 254.216 103.069 242.152L102.805 240.397C102.805 240.397 95.4111 235.133 92.8146 234.694C92.8146 234.694 91.2743 223.508 95.6311 224.605C95.6311 224.605 106.281 227.017 103.025 231.185L106.941 233.159C106.941 233.159 105.181 237.984 106.061 240.397H103.817C104.301 245.354 105.181 251.715 112.662 250.224C112.662 250.224 113.587 245.837 117.855 246.933C117.855 246.933 123.313 251.408 116.359 253.163V253.207ZM193.902 234.738C191.306 235.177 183.912 240.441 183.912 240.441L183.648 242.196C182.944 254.259 173.306 251.276 173.306 251.276C172.778 252.461 170.358 253.25 170.358 253.25C163.404 251.496 168.861 247.021 168.861 247.021C173.086 245.925 174.055 250.311 174.055 250.311C181.536 251.803 182.46 245.442 182.9 240.485H180.656C181.536 238.072 179.776 233.247 179.776 233.247L183.692 231.273C180.436 227.105 191.086 224.692 191.086 224.692C195.443 223.596 193.902 234.782 193.902 234.782V234.738ZM198.919 233.641L195.883 234.299C195.883 234.299 197.819 224.868 193.946 223.771L196.763 222.894C196.763 222.894 199.58 225.087 198.919 233.641ZM213.046 236.537L211.33 230.834L214.807 230L210.054 230.834L200.9 232.808C200.9 221.402 198.083 222.499 198.083 222.499L213.222 217.849C224.752 214.34 218.943 229.299 218.943 229.299L218.547 229.386L219.824 235.265L213.09 236.581L213.046 236.537Z" fill="#24408F"/>
<path d="M213.133 231.931L213.881 234.782L217.798 234.124L217.05 230.922L213.133 231.931Z" fill="#24408F"/>
<path d="M218.458 229.08L214.762 229.957L218.502 229.343L218.458 229.08Z" fill="#24408F"/>
<path d="M219.956 240.705L214.983 241.056V240.924C214.587 240.968 214.191 241.012 213.707 240.968V241.1L221.409 240.836V240.617C220.836 240.617 220.396 240.573 219.912 240.529V240.705H219.956Z" fill="#24408F"/>
<path d="M163.758 241.932L164.726 240.879L166.31 241.011L166.53 240.528L164.506 240.396L163.273 241.756L163.758 241.932Z" fill="#24408F"/>
<path d="M170.929 239.257C171.325 239.169 171.853 239.345 172.425 239.871L172.777 239.476C172.073 238.862 171.413 238.599 170.841 238.73C170.004 238.95 169.652 239.871 169.652 239.871L170.136 240.046C170.136 240.046 170.4 239.345 170.973 239.213L170.929 239.257Z" fill="#24408F"/>
<path d="M170.225 247.943C169.08 247.943 168.156 248.865 168.156 250.049C168.156 251.233 169.08 252.111 170.225 252.111C171.369 252.111 172.293 251.19 172.293 250.049C172.293 248.908 171.369 247.943 170.225 247.943ZM170.225 251.058C169.653 251.058 169.212 250.619 169.212 250.049C169.212 249.479 169.653 249.04 170.225 249.04C170.797 249.04 171.237 249.479 171.237 250.049C171.237 250.619 170.797 251.058 170.225 251.058Z" fill="#24408F"/>
<path d="M71.7786 240.879L71.9106 238.379H67.3337L66.8496 240.528C68.874 240.441 70.4583 240.441 70.4583 240.441C70.7224 240.704 71.2065 240.836 71.7786 240.923V240.879Z" fill="#24408F"/>
<path d="M73.6259 231.931L69.7091 230.922L68.9609 234.124L72.8777 234.782L73.6259 231.931Z" fill="#24408F"/>
<path d="M68.2578 229.343L71.9985 229.957L68.3018 229.08L68.2578 229.343Z" fill="#24408F"/>
<path d="M71.7797 241.011L66.8067 240.66V240.484C66.3666 240.484 65.9265 240.528 65.3984 240.572V240.791L73.0119 241.055V240.923C72.5278 240.923 72.1318 240.923 71.7357 240.879V241.011H71.7797Z" fill="#24408F"/>
<path d="M123.006 241.932L123.49 241.756L122.258 240.396L120.277 240.528L120.497 241.011L122.038 240.879L123.006 241.932Z" fill="#24408F"/>
<path d="M114.027 239.477L114.379 239.871C114.952 239.345 115.436 239.17 115.832 239.257C116.404 239.389 116.668 240.091 116.668 240.091L117.152 239.915C117.152 239.915 116.8 238.95 115.964 238.775C115.392 238.643 114.731 238.862 114.027 239.52V239.477Z" fill="#24408F"/>
<path d="M116.535 247.943C115.391 247.943 114.467 248.865 114.467 250.049C114.467 251.233 115.391 252.111 116.535 252.111C117.679 252.111 118.604 251.19 118.604 250.049C118.604 248.908 117.679 247.943 116.535 247.943ZM116.535 251.058C115.963 251.058 115.523 250.619 115.523 250.049C115.523 249.479 115.963 249.04 116.535 249.04C117.107 249.04 117.547 249.479 117.547 250.049C117.547 250.619 117.107 251.058 116.535 251.058Z" fill="#24408F"/>
<path d="M206.928 64.0039L178.146 111.82L206.928 159.505H78.0703V64.0039H206.928ZM82.7344 155.337H121.946V68.2148H82.7344V155.337Z" fill="#24408F"/>
</g>
<defs>
<clipPath id="clip0_3023_45424">
<rect width="285" height="274" fill="white"/>
</clipPath>
</defs>
</svg>
