<svg width="284" height="274" viewBox="0 0 284 274" fill="none" xmlns="http://www.w3.org/2000/svg">
<g clip-path="url(#clip0_3023_45388)">
<path d="M26.7948 91.3772C22.5409 89.8418 17.8923 89.9295 14.4279 91.5965C11.4458 93.0003 9.34077 95.4569 8.1567 98.8786C5.08691 107.521 11.0511 114.145 17.8923 116.645C21.7077 118.049 25.7861 118.049 29.119 116.821C28.2419 117.742 26.8386 118.707 24.5582 120.067C24.5582 120.067 15.5242 125.375 14.4279 126.077C13.6823 125.156 10.2179 120.988 10.2179 120.988C8.20056 118.488 6.84108 116.601 6.84108 113.969C6.84108 113.706 6.84108 113.443 6.84108 113.136L6.92879 112.302L4.25368 111.864L4.12212 112.741L2.28024 124.147L4.9992 124.629L5.13076 123.752C5.30618 122.699 5.52545 122.173 5.74472 122.216C6.18326 122.304 6.79722 122.787 7.76202 123.927C7.76202 123.927 11.1826 128.007 13.2438 130.464C10.7003 130.069 6.66566 129.367 6.66566 129.367C5.04305 129.104 4.60451 128.928 4.60451 127.832C4.60451 127.437 4.60451 126.954 4.73607 126.296L4.82378 125.463L2.10482 125.024L-0.0878906 138.535L2.63107 138.974L2.80649 138.141C3.28889 135.816 3.37659 135.64 5.5693 136.035L23.8565 139.018C26.0931 139.369 26.0931 139.588 25.83 141.913L25.7423 142.747L28.4612 143.185L30.6101 129.674L27.8911 129.235L27.7157 130.069C27.2333 132.525 27.1456 132.701 24.909 132.35C24.909 132.35 20.9183 131.692 18.4186 131.297C20.8744 129.806 25.523 126.998 25.523 126.998C26.4439 126.472 27.7595 125.682 28.1981 125.638C28.1981 125.814 28.1981 128.007 28.1981 128.007L28.9436 128.27L30.8293 128.577L33.0659 114.496C34.5131 113.136 35.6972 111.425 36.4427 109.275C39.5125 100.589 33.5483 94.0093 26.707 91.5088L26.7948 91.3772ZM33.1536 107.915C32.6712 109.275 31.8818 110.24 30.6539 110.811C28.3735 111.907 24.8652 111.6 20.2166 109.89C13.0245 107.301 10.0863 103.967 11.4458 100.063C11.9282 98.7031 12.7175 97.7381 13.9455 97.1678C16.2259 96.0711 19.7342 96.3781 24.3828 98.089C31.5749 100.721 34.5131 104.011 33.1536 107.915Z" fill="#9C9D9F"/>
<path d="M83.6288 44.79C82.7079 45.5358 82.357 45.5358 79.9889 44.0443L58.3688 30.3574L57.8864 30.7084L56.4392 31.8051L64.2014 57.3802C64.2014 57.3802 64.2452 57.6872 64.2891 57.8627L61.5263 53.783L59.7721 55.7132L59.9914 56.2396C61.921 60.7141 61 62.8637 58.1495 66.0222C55.4744 68.9613 55.2113 68.6981 54.5096 68.0401C54.5096 68.0401 49.6856 63.6094 48.1946 62.2056C48.9401 61.3722 50.475 59.7052 50.475 59.7052C52.4923 57.4679 53.5887 57.2486 55.7814 58.6962L56.3953 59.091L58.1056 57.2047L49.7295 49.4839L48.0192 51.3702L48.4577 51.9405C49.1155 52.774 49.5102 53.3882 49.5102 54.0462C49.5102 54.7919 48.984 55.6693 47.6683 57.1169C47.6683 57.1169 46.1334 58.7839 45.4318 59.6174C44.3793 58.6523 39.7307 54.3533 39.7307 54.3533C39.7307 54.3533 39.4676 54.0462 39.4237 54.0023C39.4676 53.9146 39.6869 53.6075 39.6869 53.6075L42.2304 50.7999C45.3441 47.3344 46.3088 47.5976 48.6331 48.7381L49.2032 49.0452L50.9135 47.115L45.0809 41.9825L44.5108 42.6405L29.9951 58.7401L32.0124 60.5825L32.5825 60.0122C33.9858 58.6085 34.1612 58.433 35.8715 60.0122L49.5541 72.6901C50.8258 73.8745 51.0451 74.2694 50.5627 75.059L50.2996 74.8835L49.861 75.717C49.4664 76.5505 49.0717 76.7698 47.6683 76.9015C47.6683 76.9015 39.5553 77.5156 36.6609 77.7349C36.7925 77.0331 36.9679 76.375 36.9679 75.717C36.9679 72.734 35.6084 70.409 32.8456 68.742C28.2409 65.9344 24.0309 67.9085 19.9525 74.708L13.9883 84.6661L16.3126 86.1137L16.7511 85.4119C18.1106 83.3939 18.2421 83.2623 20.1717 84.4468L36.047 94.1416C37.9765 95.326 37.9327 95.5015 36.7486 97.651L36.3539 98.3968L38.7221 99.8445L45.7387 88.0878L43.3706 86.6402L42.9321 87.342C41.5726 89.4477 41.3972 89.5793 39.5114 88.3949C39.5114 88.3949 34.8629 85.5435 33.6788 84.8416C33.7665 84.71 33.7665 84.71 33.8104 84.5784C34.6436 84.5345 48.4577 83.5255 48.4577 83.5255L51.7029 78.0859L66.7011 61.4599L72.1828 57.1608L70.6041 55.0551L69.8147 55.45L68.4114 56.1518L67.9728 55.8009L66.3941 51.765C67.1835 51.1509 71.7443 47.5976 72.5337 47.0273C72.6214 47.0712 72.7529 47.1589 72.7529 47.1589L75.9982 49.5716C75.9982 49.5716 76.2174 49.8348 76.2174 50.0103C76.2174 50.2735 75.9982 50.6683 75.1211 51.3264L74.4194 51.8528L76.0859 54.0462L85.9531 46.4131L84.2428 44.1759L83.5411 44.7461L83.6288 44.79ZM25.8728 74.05C27.0568 73.7429 28.2848 74.0062 29.5565 74.7519C30.7406 75.4977 32.0562 76.6382 32.0562 78.7878C32.0562 79.8845 31.6177 81.2883 30.7406 82.9991C29.3811 82.1656 22.5399 77.9982 22.5399 77.9982L22.2329 77.7349L22.7153 76.6382C23.5046 75.3222 24.6449 74.401 25.9166 74.0939L25.8728 74.05ZM65.2539 47.9485C64.7715 46.5447 63.6751 43.1669 62.8419 40.6226C65.0346 42.1141 67.9728 44.0881 69.2008 44.8778C68.1044 45.7112 66.3502 47.0712 65.2977 47.9047L65.2539 47.9485Z" fill="#9C9D9F"/>
<path d="M104.417 12.942C103.584 10.8363 103.628 10.0905 105.733 8.94998L106.434 8.55517L105.426 6.05469L104.636 6.40563L95.8654 10.0467L96.8741 12.5472L97.6196 12.3278C99.5931 11.8014 100.295 12.1523 101.172 14.3458L105.777 25.7076C106.785 28.2081 107.004 30.4015 106.303 32.0246C105.82 33.209 104.856 34.0864 103.452 34.7005C101.698 35.4024 100.295 35.534 99.1107 35.0515C97.8389 34.5251 96.7864 33.209 95.9093 31.0595L90.6029 17.8991C89.7259 15.7495 89.9451 15.6618 91.8747 14.7406L92.6202 14.3896L91.6116 11.8453L79.5078 16.8462L80.5603 19.3906L81.3497 19.1274C83.367 18.3816 83.5863 18.3377 84.4633 20.4873L89.5943 33.209C92.3571 40.0086 96.9618 41.9388 103.759 39.1312C106.785 37.859 108.802 36.1043 109.767 33.8232C110.82 31.2788 110.557 28.2081 109.066 24.3915L104.461 13.0736L104.417 12.942Z" fill="#9C9D9F"/>
<path d="M152.086 0.745757L138.842 0V0.877361L138.71 2.76369L139.544 2.85142C141.605 3.07077 141.824 3.11463 141.692 5.39577L140.64 24.1274C140.508 26.4524 140.245 26.4524 138.184 26.4086H137.351V26.9789L133.799 6.71182C133.404 4.34294 133.755 3.72879 135.772 3.11463L136.518 2.89529L136.079 0.21934L135.202 0.394813L125.73 2.0618L126.212 4.73775H126.957C129.106 4.56228 129.633 5.04483 130.027 7.4137C130.027 7.4137 131.387 15.1784 131.957 18.4685C128.975 15.7486 115.775 3.81652 115.775 3.81652L107.881 5.2203L108.319 7.80852H108.977C110.337 7.98399 111.214 8.46654 112.135 9.69484C112.135 10.2213 115.161 27.5492 115.161 27.5492C115.248 28.0756 115.336 28.5581 115.336 28.9529C115.336 30.2251 114.766 30.7077 113.187 31.1902L112.442 31.4095L112.924 34.0855L123.23 32.243L122.747 29.5671H122.002C119.853 29.7426 119.327 29.26 118.888 26.8911C118.888 26.8911 117.353 18.1614 116.608 13.7307C119.678 16.4944 135.377 30.7077 135.377 30.7077L137.877 30.269L137.702 29.26L150.419 29.9619C154.893 30.2251 158.927 28.9529 161.734 26.4086C164.409 23.9958 165.944 20.4864 166.207 16.2312C166.689 7.36984 161.164 1.31604 152.086 0.789625V0.745757ZM147.306 24.7416L148.402 5.52738L148.753 4.29907C149.016 4.07973 149.586 3.99199 150.551 4.03586C153.226 4.21134 155.375 5.17643 156.91 6.93116C158.752 9.03682 159.629 12.1076 159.41 15.8364C159.19 19.5652 158.006 22.5043 155.901 24.3906C154.191 25.9699 151.91 26.6718 149.235 26.5402C148.314 26.4963 147.744 26.3208 147.481 26.0576L147.262 24.7855L147.306 24.7416Z" fill="#9C9D9F"/>
<path d="M206.29 45.7973C205.457 45.4464 205.238 45.0077 205.019 43.6039C205.019 43.6039 204.01 35.4883 203.659 32.5492C207.562 33.0756 210.544 31.6718 212.386 28.2062C213.395 26.276 213.658 24.3897 213.175 22.635C212.43 20.0906 210.018 17.7218 205.896 15.4406L195.765 9.91324L195.371 10.7029L194.493 12.3699L195.195 12.8085C197.256 14.0807 197.388 14.2123 196.335 16.1864L187.521 32.6808C186.731 34.1723 186.424 34.5232 185.46 34.1723L188.529 28.601L186.03 27.8553L185.679 28.294C182.609 32.0227 180.285 32.1105 176.206 30.926C175.417 30.7067 173.049 30.0048 172.698 29.3907L172.786 28.5133C172.786 28.5133 174.584 22.1963 175.154 20.2222C176.206 20.5293 178.355 21.1435 178.355 21.1435C180.811 21.8892 181.688 22.635 181.688 24.4774C181.688 24.7845 181.688 25.1355 181.6 25.5303L181.513 26.276L183.968 27.0218L187.126 16.0109L184.67 15.309L184.363 15.967C183.398 18.0288 182.96 18.5553 179.408 17.5463C179.408 17.5463 177.346 16.9321 176.206 16.5812C176.601 15.2213 178.355 9.07975 178.355 9.07975C178.355 9.07975 178.487 8.7288 178.531 8.64107C178.618 8.64107 179.013 8.7288 179.013 8.7288L182.609 9.78164C186.994 11.0538 187.258 12.0189 187.258 14.5633V15.3529L189.713 16.0548L191.687 8.50946L170.198 2.23633L169.979 3.06982L169.453 4.86841L170.242 5.13162C172.128 5.78964 172.347 5.87738 171.689 8.11465L166.558 26.1444C165.901 28.3817 165.681 28.3378 163.752 27.8553L162.962 27.6798L162.217 30.3558L184.144 36.7605L194.099 42.1563L195.414 39.7435L194.713 39.3049C192.608 38.0327 192.432 37.8572 193.529 35.8831C193.529 35.8831 196.116 31.0577 196.774 29.8293C196.905 29.9171 196.905 29.9171 197.037 29.9609C197.125 30.7944 198.791 44.7006 198.791 44.7006L206.071 48.6926L207.43 46.1483L206.553 45.7535L206.29 45.7973ZM202.694 18.2482L202.914 17.8972L204.054 18.3359C205.413 19.0817 206.334 20.1784 206.729 21.4067C207.08 22.5911 206.904 23.8633 206.203 25.1793C205.194 27.0657 203.22 29.1275 198.133 26.8025C198.879 25.3987 202.694 18.2482 202.694 18.2482Z" fill="#9C9D9F"/>
<path d="M244.354 48.2541L244.88 48.4735L246.547 46.5871L239.53 40.3579L237.732 42.4635L238.346 43.0338C239.223 43.8673 239.486 44.3499 239.486 44.6569C239.486 44.8763 239.355 45.0079 239.267 45.1395L237.074 46.7187C237.074 46.7187 230.102 50.9301 226.637 53.0357C227.909 49.8772 231.066 41.7617 231.066 41.7617L232.557 38.9102C232.777 38.647 233.04 38.3399 234.531 39.656L235.189 40.2263L237.031 38.1206L227.426 29.5663L225.628 31.6281L226.199 32.1984C226.9 32.9442 227.163 33.4267 227.163 33.997C227.163 34.3479 227.032 34.7428 226.856 35.1814C226.856 35.1814 225.278 39.1734 224.971 39.9631C224.576 40.1824 219.708 42.9022 217.077 44.3937C218.436 41.1914 221.725 33.4267 221.725 33.4267C221.901 32.988 223.085 30.5753 223.085 30.5753C223.216 30.3998 223.655 29.9173 224.795 30.9701L225.453 31.5404L227.295 29.4347L218.656 21.7578L218.086 22.4158L216.901 23.7319L217.34 24.3022C217.866 24.9602 218.129 25.3111 216.682 28.7328L207.078 51.2372L209.095 53.0357C209.095 53.0357 219.664 47.0697 222.822 45.315C221.462 48.6928 216.989 60.0546 216.989 60.0546L219.006 61.8532L240.144 49.0438C242.337 47.6838 242.863 47.6838 244.354 48.2541Z" fill="#9C9D9F"/>
<path d="M244.443 92.6495C243.961 91.6844 243.698 91.1141 243.698 90.6316C243.698 90.0613 244.18 89.7103 245.32 89.0962C245.32 89.0962 259.441 81.2877 262.862 79.4013C263.301 80.191 263.915 81.3315 263.915 81.3315C264.309 82.0334 264.529 82.6476 264.529 83.2617C264.529 84.3145 263.827 85.3674 262.073 86.9466L261.546 87.4292L262.862 89.8419L270.142 84.9726L258.959 64.3107L258.214 64.6178L250.978 67.864L252.293 70.2768L252.951 70.1013C256.547 69.0485 257.6 69.6626 258.608 71.5489C258.608 71.5489 259.222 72.6895 259.661 73.4791C258.257 74.2688 242.119 83.174 242.119 83.174C240.146 84.2707 240.014 84.1391 238.742 81.9895L238.611 81.8141L239.093 81.4193L238.567 80.7174C237.821 79.7961 237.821 79.4452 239.312 77.0324L252.82 55.0984L251.372 53.1682L250.802 53.3437L226.112 61.0645C224.753 61.5031 224.095 61.2838 223.042 60.4064L222.516 59.9678L220.455 61.5909L226.332 69.2678L228.393 67.6447L227.998 66.8551L227.296 65.4513L227.647 65.0126C227.647 65.0126 231.506 63.4333 231.638 63.3895C232.252 64.1791 235.76 68.7852 236.33 69.5749C236.286 69.6626 236.199 69.7942 236.199 69.7942L233.831 73.1282L233.304 73.3475L231.55 71.7683L230.849 72.0754L229.357 73.2598L236.374 82.4282L235.979 82.6476L242.514 94.7552L244.926 93.4391L244.575 92.6933L244.443 92.6495ZM242.558 59.7046C241.11 61.9418 239.137 64.9249 238.348 66.1532C237.514 65.0565 236.155 63.2579 235.322 62.205C236.725 61.7225 240.058 60.5819 242.558 59.7484V59.7046Z" fill="#9C9D9F"/>
<path d="M281.5 122.656L279.439 111.162L278.562 111.338L276.72 111.689L276.808 112.522C277.159 114.935 277.115 115.11 274.878 115.549L256.635 118.883C254.881 119.19 254.442 119.102 254.091 117.918L260.319 117.216L259.441 114.759H258.871C254.047 114.365 252.644 112.478 251.197 108.442C250.583 106.688 250.364 105.722 250.364 105.152C250.364 104.494 250.671 104.406 251.153 104.231C251.153 104.231 257.863 101.862 259.222 101.38C259.573 102.432 260.319 104.582 260.319 104.582C260.669 105.547 260.845 106.337 260.845 106.995C260.845 108.223 260.187 108.969 258.652 109.802L257.994 110.153L258.871 112.566L269.528 108.749L268.695 106.293L267.993 106.424C265.756 106.819 265.055 106.775 263.827 103.266C263.827 103.266 263.125 101.248 262.731 100.064C264.046 99.581 270.01 97.4753 270.01 97.4753C270.01 97.4753 270.361 97.3876 270.493 97.3437C270.537 97.4314 270.712 97.7824 270.712 97.7824L271.984 101.38C272.554 103.047 272.817 104.143 272.817 105.021C272.817 106.468 272.071 107.126 270.712 108.091L270.186 108.486L271.019 110.899L278.255 108.135L270.8 86.7715L269.966 87.0786L268.212 87.6927L268.432 88.4823C269.002 90.4125 269.089 90.6757 266.897 91.4215L249.399 97.6946C247.25 98.4843 247.118 98.221 246.373 96.3786L246.066 95.589L243.479 96.5102L251.065 118.269H251.153L253.258 129.938L255.933 129.455L255.802 128.622C255.714 127.964 255.626 127.437 255.626 127.042C255.626 125.99 256.065 125.814 257.687 125.551C257.687 125.551 263.038 124.586 264.397 124.323C264.397 124.454 264.397 124.498 264.441 124.63C263.827 125.244 254.135 135.202 254.135 135.202L255.582 143.405L258.389 142.923L258.17 142.001C258.126 141.782 258.082 141.563 258.082 141.387C258.082 140.861 258.345 140.422 259.091 139.633C259.091 139.633 264.923 133.579 266.897 131.561C268.914 134.939 271.764 136.562 275.58 135.86C277.729 135.465 279.307 134.5 280.36 133.008C281.851 130.815 282.202 127.437 281.369 122.743L281.5 122.656ZM274.264 129.06C272.159 129.455 269.353 129.148 267.993 123.708C269.572 123.401 277.422 121.998 277.422 121.998H277.816L278.167 123.138C278.606 125.507 277.816 128.446 274.22 129.104L274.264 129.06Z" fill="#9C9D9F"/>
<path d="M99.068 195.52L90.1656 171.305H87.7536L78.4565 196.397C77.9741 197.757 77.404 198.108 76.0445 198.459L75.3867 198.634V201.267H84.9908V198.459H84.1137C82.4472 198.459 82.4472 198.064 82.4472 197.582L83.6313 193.414H91.3497L91.4374 193.677L92.5776 197.582C92.5776 198.02 92.5776 198.459 90.8234 198.459H89.9463V201.267H102.357V198.459H101.48C100.296 198.503 100.033 198.284 99.0241 195.608L99.068 195.52ZM87.5343 182.272C88.3676 184.816 89.5516 188.194 89.9902 189.598H85.0346C85.517 188.194 86.6572 184.816 87.5343 182.272Z" fill="#9C9D9F"/>
<path d="M113.671 182.579C111.172 181.087 108.979 179.815 108.979 177.885C108.979 177.008 109.242 174.902 111.873 174.902C114.636 174.902 116.961 177.271 117.969 181.131L118.145 181.789H120.6V171.305H118.101L117.969 172.007C117.881 172.358 117.706 172.752 117.487 172.752L115.82 172.314L110.821 171.305C106.479 171.305 102.839 174.946 102.839 179.201C102.839 183.807 106.743 186.308 110.163 188.501C112.97 190.3 115.645 192.01 115.645 194.511C115.645 195.388 115.382 198.196 112.268 198.196C109.154 198.196 106.26 194.73 105.295 191.396L105.12 190.782H102.664V201.53H105.558L105.69 200.784C105.778 200.126 105.997 200.126 106.085 200.126L107.663 200.609C108.804 201.135 110.426 201.837 113.277 201.837C118.145 201.837 121.785 198.152 121.785 193.326C121.785 187.36 117.311 184.684 113.671 182.579Z" fill="#9C9D9F"/>
<path d="M133.931 182.579C131.432 181.087 129.239 179.815 129.239 177.885C129.239 177.008 129.546 174.902 132.177 174.902C134.808 174.902 137.264 177.271 138.229 181.131L138.404 181.789H140.904V171.305H138.404L138.273 172.007C138.185 172.401 138.01 172.796 137.79 172.796L136.124 172.358L131.125 171.349C126.827 171.349 123.143 174.99 123.143 179.245C123.143 183.851 127.046 186.351 130.467 188.545C133.273 190.343 135.949 192.054 135.949 194.555C135.949 195.432 135.685 198.24 132.528 198.24C129.37 198.24 126.52 194.774 125.555 191.44L125.38 190.826H122.924V201.574H125.818L125.95 200.828C126.037 200.17 126.257 200.17 126.344 200.17L127.923 200.652C129.063 201.179 130.686 201.881 133.537 201.881C138.404 201.881 142.044 198.196 142.044 193.37C142.044 187.404 137.527 184.728 133.931 182.623V182.579Z" fill="#9C9D9F"/>
<path d="M191.819 192.536C190.898 193.984 188.398 197.844 183.969 197.844C176.864 197.844 175.812 190.65 175.812 186.351C175.812 182.051 177.829 174.945 183.311 174.945C186.775 174.945 189.319 177.226 190.854 181.701L191.073 182.271H193.704L193.09 171.348H190.547L189.626 172.971H189.538L188.486 172.62C186.951 172.093 184.627 171.348 182.741 171.348C173.795 171.348 169.453 178.981 168.927 185.078C168.4 178.191 164.234 171.348 155.814 171.348C146.736 171.348 142.57 179.244 142.57 186.614C142.57 193.984 146.736 201.88 155.814 201.88C164.322 201.88 168.444 194.949 168.971 188.018C169.585 196.484 174.715 201.88 182.522 201.88C187.959 201.88 191.599 199.555 194.362 194.291L194.713 193.677L192.433 191.702L191.906 192.536H191.819ZM155.727 198.239C150.596 198.239 149.543 191.878 149.543 186.57C149.543 181.262 150.639 174.901 155.727 174.901C160.814 174.901 161.91 181.262 161.91 186.57C161.91 191.878 160.858 198.239 155.727 198.239Z" fill="#9C9D9F"/>
<path d="M199.583 194.029C197.653 194.029 196.074 195.74 196.074 197.846C196.074 199.951 197.653 201.662 199.583 201.662C201.512 201.662 203.091 199.951 203.091 197.846C203.091 195.74 201.512 194.029 199.583 194.029Z" fill="#9C9D9F"/>
<path d="M219.141 240.528L218.659 238.379H214.098L214.185 240.879C214.799 240.792 215.282 240.66 215.501 240.397C215.501 240.397 217.08 240.397 219.097 240.485L219.141 240.528Z" fill="#9C9D9F"/>
<path d="M268.871 180.605C268.871 180.605 280.361 179.07 284.045 167.006C284.045 167.006 274.967 175.341 262.381 174.025C262.381 174.025 254.355 171.831 257.82 181.482C257.82 181.482 257.381 188.94 254.794 191.353L249.794 190.914C249.794 190.914 243.304 187.624 242.866 197.275C242.866 197.275 238.743 209.339 236.375 210.655C236.375 210.655 230.104 216.138 230.323 221.183C230.323 221.183 232.911 218.551 239.84 217.893C239.84 217.893 242.866 204.074 248.303 203.636C248.303 203.636 240.936 215.261 242.471 219.428C242.471 219.428 222.78 224.034 219.491 229.299C219.491 229.299 224.929 215.041 214.492 216.138L188.092 224.692C188.092 224.692 179.628 226.447 181.777 231.053L177.874 232.369C177.874 232.369 175.067 224.034 167.042 227.763C167.042 227.763 166.208 228.114 165.068 228.728C164.937 228.904 164.63 230.044 166.691 237.019C166.691 237.019 180.329 235.133 173.4 247.416C173.4 247.416 169.278 243.468 166.252 248.293L161.253 242.152C161.253 242.152 161.691 238.204 165.814 237.326C165.814 237.326 164.016 233.159 164.103 229.255C159.849 231.667 153.14 236.844 159.718 242.634L163.402 247.46C163.402 247.46 165.989 249.566 161.253 250.75C161.253 250.75 146.386 255.049 142.966 257.242C139.545 255.049 124.678 250.75 124.678 250.75C119.898 249.566 122.486 247.46 122.486 247.46L126.169 242.634C132.748 236.8 126.038 231.667 121.74 229.255C121.828 233.159 120.03 237.326 120.03 237.326C124.152 238.204 124.547 242.152 124.547 242.152L119.591 248.293C116.565 243.468 112.443 247.416 112.443 247.416C105.514 235.133 119.153 237.019 119.153 237.019C121.214 230.088 120.907 228.904 120.775 228.728C119.635 228.114 118.802 227.763 118.802 227.763C110.777 224.034 107.97 232.369 107.97 232.369L104.067 231.053C106.216 226.447 97.7957 224.692 97.7957 224.692L71.3516 216.138C60.9582 215.041 66.3522 229.299 66.3522 229.299C63.107 224.034 43.4165 219.428 43.4165 219.428C44.9075 215.261 37.5839 203.636 37.5839 203.636C42.9779 204.074 46.0039 217.893 46.0039 217.893C52.9329 218.551 55.5203 221.183 55.5203 221.183C55.7395 216.138 49.4684 210.655 49.4684 210.655C47.1002 209.339 42.9779 197.275 42.9779 197.275C42.5394 187.624 36.049 190.914 36.049 190.914L31.0496 191.353C28.4622 188.94 28.0237 181.482 28.0237 181.482C31.4881 171.831 23.4628 174.025 23.4628 174.025C10.8767 175.341 1.79883 167.006 1.79883 167.006C5.48258 179.07 16.9724 180.605 16.9724 180.605C25.8748 185.211 24.3399 191.133 24.3399 191.133C22.4103 193.546 11.7537 190.037 11.7537 190.037C14.999 195.739 19.9983 194.862 19.9983 194.862C27.8044 195.959 28.8569 201.881 28.8569 201.881C30.3918 205.39 30.1725 214.164 30.1725 214.164C30.3918 228.86 39.4696 230.176 39.4696 230.176C45.96 232.808 58.1077 242.02 58.1077 242.02C59.4233 241.231 62.4931 240.836 65.2559 240.66L66.1768 237.019L73.3251 237.458L72.8865 241.011C76.658 240.924 82.8414 239.169 82.8414 239.169C91.9631 238.95 92.1385 242.678 92.1385 242.678C93.6734 248.162 88.674 249.917 88.674 249.917C82.8414 254.303 72.6673 251.671 72.6673 251.671C68.9835 250.355 71.7902 249.917 71.7902 249.917C72.448 250.136 75.9125 252.11 84.771 250.136C93.6734 248.162 90.7352 242.591 90.7352 242.591C89.9897 240.178 82.4029 240.924 82.4029 240.924C80.0348 242.02 70.036 242.459 70.036 242.459C46.6617 241.143 63.3263 255.4 63.3263 255.4L74.0267 261.322C77.4912 263.384 78.2367 263.954 78.2367 263.954C79.7716 265.49 84.7272 270.973 84.7272 270.973C92.9718 277.992 87.9724 267.902 87.9724 267.902C86.4813 265.49 82.1398 261.322 82.1398 261.322C74.553 256.058 83.4554 258.471 83.4554 258.471C94.5067 262.858 105.339 257.593 105.339 257.593C109.022 254.961 113.145 256.277 113.145 256.277C125.687 262.2 129.195 261.98 129.195 261.98L133.668 262.726L133.098 263.077C133.756 263.077 123.143 266.806 121.828 270.754C121.828 270.754 118.802 275.448 125.073 272.596C125.073 272.596 126.915 272.07 128.976 270.535C128.976 270.535 126.169 278.431 131.563 270.754C131.563 270.754 135.905 265.27 142.395 264.393L142.922 264.305L143.492 264.393C149.982 265.27 154.324 270.754 154.324 270.754C159.762 278.431 156.911 270.535 156.911 270.535C158.972 272.07 160.814 272.596 160.814 272.596C167.085 275.448 164.059 270.754 164.059 270.754C162.744 266.806 152.175 263.077 152.789 263.077L152.219 262.726L156.692 261.98C156.692 261.98 160.156 262.2 172.743 256.277C172.743 256.277 176.865 254.961 180.549 257.593C180.549 257.593 191.381 262.858 202.432 258.471C202.432 258.471 211.29 256.058 203.748 261.322C203.748 261.322 199.406 265.49 197.915 267.902C197.915 267.902 192.916 277.992 201.16 270.973C201.16 270.973 206.116 265.49 207.651 263.954C207.651 263.954 208.396 263.428 211.861 261.322L222.605 255.4C222.605 255.4 239.269 241.187 215.895 242.459C215.895 242.459 205.94 242.02 203.528 240.924C203.528 240.924 195.941 240.178 195.196 242.591C195.196 242.591 192.258 248.162 201.16 250.136C210.019 252.11 213.483 250.136 214.141 249.917C214.141 249.917 216.948 250.355 213.264 251.671C213.264 251.671 203.09 254.303 197.213 249.917C197.213 249.917 192.214 248.162 193.749 242.678C193.749 242.678 193.968 238.95 203.046 239.169C203.046 239.169 209.229 240.924 213.001 241.011L212.562 237.458L219.71 237.019L220.631 240.66C223.35 240.836 226.464 241.231 227.78 242.02C227.78 242.02 239.883 232.808 246.418 230.176C246.418 230.176 255.496 228.86 255.715 214.164C255.715 214.164 255.496 205.39 256.987 201.881C256.987 201.881 258.083 195.959 265.845 194.862C265.845 194.862 270.845 195.739 274.09 190.037C274.09 190.037 263.477 193.546 261.504 191.133C261.504 191.133 260.013 185.211 268.871 180.605ZM85.6043 232.764L76.5264 230.79L71.7902 229.957L75.2547 230.79L73.5005 236.493L66.7908 235.177L68.0187 229.299L67.624 229.211C67.624 229.211 61.8353 214.296 73.3251 217.761L88.4109 222.411C88.4109 222.411 85.6043 221.315 85.6043 232.72V232.764ZM90.5598 234.299L87.5338 233.641C86.876 225.087 89.6827 222.894 89.6827 222.894L92.4894 223.771C88.5863 224.868 90.5598 234.299 90.5598 234.299ZM115.951 253.207C115.951 253.207 113.583 252.417 113.013 251.233C113.013 251.233 103.453 254.216 102.707 242.152L102.444 240.397C102.444 240.397 95.0768 235.133 92.4894 234.694C92.4894 234.694 90.9545 223.508 95.296 224.605C95.296 224.605 105.909 227.017 102.664 231.185L106.567 233.159C106.567 233.159 104.812 237.984 105.689 240.397H103.453C103.935 245.354 104.812 251.715 112.268 250.224C112.268 250.224 113.189 245.837 117.442 246.933C117.442 246.933 122.88 251.408 115.951 253.163V253.207ZM193.223 234.738C190.635 235.177 183.268 240.441 183.268 240.441L183.004 242.196C182.303 254.259 172.699 251.276 172.699 251.276C172.173 252.461 169.761 253.25 169.761 253.25C162.832 251.496 168.269 247.021 168.269 247.021C172.479 245.925 173.444 250.311 173.444 250.311C180.899 251.803 181.82 245.442 182.259 240.485H180.022C180.899 238.072 179.145 233.247 179.145 233.247L183.048 231.273C179.803 227.105 190.416 224.692 190.416 224.692C194.757 223.596 193.223 234.782 193.223 234.782V234.738ZM198.222 233.641L195.196 234.299C195.196 234.299 197.126 224.868 193.266 223.771L196.073 222.894C196.073 222.894 198.88 225.087 198.222 233.641ZM212.299 236.537L210.589 230.834L214.053 230L209.317 230.834L200.195 232.808C200.195 221.402 197.389 222.499 197.389 222.499L212.475 217.849C223.964 214.34 218.176 229.299 218.176 229.299L217.781 229.386L219.053 235.265L212.343 236.581L212.299 236.537Z" fill="#9C9D9F"/>
<path d="M212.387 231.931L213.132 234.782L217.035 234.124L216.29 230.922L212.387 231.931Z" fill="#9C9D9F"/>
<path d="M217.694 229.08L214.01 229.957L217.737 229.343L217.694 229.08Z" fill="#9C9D9F"/>
<path d="M219.184 240.705L214.229 241.056V240.924C213.834 240.968 213.439 241.012 212.957 240.968V241.1L220.632 240.836V240.617C220.061 240.617 219.623 240.573 219.14 240.529V240.705H219.184Z" fill="#9C9D9F"/>
<path d="M163.182 241.932L164.146 240.879L165.725 241.011L165.944 240.528L163.927 240.396L162.699 241.756L163.182 241.932Z" fill="#9C9D9F"/>
<path d="M170.33 239.257C170.725 239.169 171.251 239.345 171.821 239.871L172.172 239.476C171.471 238.862 170.813 238.599 170.243 238.73C169.409 238.95 169.059 239.871 169.059 239.871L169.541 240.046C169.541 240.046 169.804 239.345 170.374 239.213L170.33 239.257Z" fill="#9C9D9F"/>
<path d="M169.628 247.943C168.487 247.943 167.566 248.865 167.566 250.049C167.566 251.233 168.487 252.111 169.628 252.111C170.768 252.111 171.689 251.19 171.689 250.049C171.689 248.908 170.768 247.943 169.628 247.943ZM169.628 251.058C169.057 251.058 168.619 250.619 168.619 250.049C168.619 249.479 169.057 249.04 169.628 249.04C170.198 249.04 170.636 249.479 170.636 250.049C170.636 250.619 170.198 251.058 169.628 251.058Z" fill="#9C9D9F"/>
<path d="M71.5269 240.879L71.6585 238.379H67.0976L66.6152 240.528C68.6325 240.441 70.2113 240.441 70.2113 240.441C70.4744 240.704 70.9568 240.836 71.5269 240.923V240.879Z" fill="#9C9D9F"/>
<path d="M73.3692 231.931L69.4662 230.922L68.7207 234.124L72.6237 234.782L73.3692 231.931Z" fill="#9C9D9F"/>
<path d="M68.0195 229.343L71.7471 229.957L68.0634 229.08L68.0195 229.343Z" fill="#9C9D9F"/>
<path d="M71.5268 241.011L66.5713 240.66V240.484C66.1328 240.484 65.6942 240.528 65.168 240.572V240.791L72.7548 241.055V240.923C72.2724 240.923 71.8777 240.923 71.483 240.879V241.011H71.5268Z" fill="#9C9D9F"/>
<path d="M122.574 241.932L123.057 241.756L121.829 240.396L119.855 240.528L120.075 241.011L121.61 240.879L122.574 241.932Z" fill="#9C9D9F"/>
<path d="M113.627 239.477L113.978 239.871C114.548 239.345 115.03 239.17 115.425 239.257C115.995 239.389 116.258 240.091 116.258 240.091L116.741 239.915C116.741 239.915 116.39 238.95 115.557 238.775C114.986 238.643 114.329 238.862 113.627 239.52V239.477Z" fill="#9C9D9F"/>
<path d="M116.128 247.943C114.987 247.943 114.066 248.865 114.066 250.049C114.066 251.233 114.987 252.111 116.128 252.111C117.268 252.111 118.189 251.19 118.189 250.049C118.189 248.908 117.268 247.943 116.128 247.943ZM116.128 251.058C115.557 251.058 115.119 250.619 115.119 250.049C115.119 249.479 115.557 249.04 116.128 249.04C116.698 249.04 117.136 249.479 117.136 250.049C117.136 250.619 116.698 251.058 116.128 251.058Z" fill="#9C9D9F"/>
<path d="M206.202 64.0039L177.521 111.82L206.202 159.505H77.7969V64.0039H206.202ZM82.4453 155.337H121.52V68.2148H82.4453V155.337Z" fill="#9C9D9F"/>
</g>
<defs>
<clipPath id="clip0_3023_45388">
<rect width="284" height="274" fill="white"/>
</clipPath>
</defs>
</svg>
