<svg width="41" height="50" viewBox="0 0 41 50" fill="none" xmlns="http://www.w3.org/2000/svg">
<path d="M39.4372 11.5507L28.6874 0.800977C28.171 0.284473 27.4843 0 26.7538 0H2.67647C1.20068 0 0 1.20059 0 2.67637V47.3236C0 48.7994 1.20059 50 2.67637 50H37.5616C39.0374 50 40.238 48.7994 40.238 47.3236V13.4842C40.2381 12.7539 39.9536 12.0672 39.4372 11.5507ZM36.5705 11.7224H28.8997C28.688 11.7224 28.5157 11.5501 28.5157 11.3384V3.66768L36.5705 11.7224ZM37.5616 47.8516H2.67647C2.38535 47.8516 2.14854 47.6147 2.14854 47.3236V2.67637C2.14854 2.38525 2.38535 2.14844 2.67647 2.14844H26.3673V11.3384C26.3673 12.7348 27.5033 13.8708 28.8997 13.8708H38.0896V47.3236C38.0896 47.6147 37.8527 47.8516 37.5616 47.8516Z" fill="#24408F"/>
<path d="M8.94932 40.834H6.9082C6.31494 40.834 5.83398 41.3149 5.83398 41.9082C5.83398 42.5015 6.31494 42.9824 6.9082 42.9824H8.94932C9.54258 42.9824 10.0235 42.5015 10.0235 41.9082C10.0235 41.3149 9.54258 40.834 8.94932 40.834Z" fill="#24408F"/>
<path d="M8.94932 34.166H6.9082C6.31494 34.166 5.83398 34.647 5.83398 35.2402C5.83398 35.8335 6.31494 36.3145 6.9082 36.3145H8.94932C9.54258 36.3145 10.0235 35.8335 10.0235 35.2402C10.0235 34.647 9.54258 34.166 8.94932 34.166Z" fill="#24408F"/>
<path d="M33.1413 34.166H13.5742C12.981 34.166 12.5 34.647 12.5 35.2402C12.5 35.8335 12.981 36.3145 13.5742 36.3145H33.1413C33.7346 36.3145 34.2155 35.8335 34.2155 35.2402C34.2155 34.647 33.7346 34.166 33.1413 34.166Z" fill="#24408F"/>
<path d="M33.1413 40.834H13.5742C12.981 40.834 12.5 41.3149 12.5 41.9082C12.5 42.5015 12.981 42.9824 13.5742 42.9824H33.1413C33.7346 42.9824 34.2155 42.5015 34.2155 41.9082C34.2155 41.3149 33.7346 40.834 33.1413 40.834Z" fill="#24408F"/>
<path d="M15.245 24.6809H24.7089C25.3579 24.6848 25.8414 24.1113 25.7831 23.4751C25.7831 21.4136 24.7021 19.6008 23.0782 18.5703C23.9341 17.752 24.4687 16.6005 24.4687 15.3257C24.4687 12.849 22.4538 10.834 19.9769 10.834C17.5001 10.834 15.4852 12.849 15.4852 15.3257C15.4852 16.6004 16.0198 17.752 16.8757 18.5703C15.2518 19.6008 14.1708 21.4136 14.1708 23.4751C14.1124 24.1113 14.596 24.6848 15.245 24.6809ZM17.6336 15.3257C17.6336 14.0336 18.6848 12.9824 19.9769 12.9824C21.2691 12.9824 22.3203 14.0336 22.3203 15.3257C22.3203 16.6178 21.269 17.6689 19.9769 17.6689C18.6849 17.6689 17.6336 16.6178 17.6336 15.3257ZM19.9769 19.8174C21.668 19.8174 23.0947 20.9709 23.5115 22.5324H16.4423C16.8592 20.971 18.2859 19.8174 19.9769 19.8174Z" fill="#24408F"/>
</svg>
