<svg width="50" height="56" viewBox="0 0 50 56" fill="none" xmlns="http://www.w3.org/2000/svg">
<path d="M42.4077 22.3935C42.4077 21.7372 41.8756 21.2051 41.2193 21.2051H15.9384C15.2821 21.2051 14.75 21.7372 14.75 22.3935C14.75 23.0498 15.2821 23.5819 15.9384 23.5819H41.2193C41.8756 23.5819 42.4077 23.0498 42.4077 22.3935Z" fill="#24408F"/>
<path d="M20.5497 26.7363C19.8934 26.7363 19.3613 27.2684 19.3613 27.9247C19.3613 28.5811 19.8934 29.1132 20.5497 29.1132H38.0372C38.6935 29.1132 39.2256 28.5811 39.2256 27.9247C39.2256 27.2684 38.6935 26.7363 38.0372 26.7363H20.5497Z" fill="#24408F"/>
<path d="M48.8111 0H9.48529C8.82896 0 8.29688 0.532087 8.29688 1.18842V28.1979H10.6737V2.37684H47.6227V48.185H13.4951V50.5618H48.8111C49.4675 50.5618 49.9996 50.0297 49.9996 49.3734V1.18842C49.9996 0.532087 49.4675 0 48.8111 0Z" fill="#24408F"/>
<path d="M11.0722 35.0332H7.64154C6.98521 35.0332 6.45312 35.5653 6.45312 36.2216C6.45312 36.878 6.98521 37.41 7.64154 37.41H11.0722C11.7285 37.41 12.2606 36.878 12.2606 36.2216C12.2606 35.5653 11.7285 35.0332 11.0722 35.0332Z" fill="#24408F"/>
<path d="M42.4582 8.29688H15.0165C14.3602 8.29688 13.8281 8.82896 13.8281 9.48529V16.3997C13.8281 17.0561 14.3602 17.5881 15.0165 17.5881H42.4582C43.1145 17.5881 43.6466 17.0561 43.6466 16.3997V9.48529C43.6466 8.82896 43.1145 8.29688 42.4582 8.29688ZM41.2698 15.2113H16.205V10.6737H41.2698V15.2113Z" fill="#00AEEF"/>
<path d="M37.8319 32.2676C34.7637 32.2676 32.2676 34.7637 32.2676 37.8319C32.2676 40.9 34.7637 43.3961 37.8319 43.3961C40.9 43.3961 43.3961 40.9 43.3961 37.8319C43.3961 34.7637 40.9 32.2676 37.8319 32.2676ZM37.8319 41.0194C36.0743 41.0194 34.6444 39.5895 34.6444 37.832C34.6444 36.0744 36.0743 34.6445 37.8319 34.6445C39.5894 34.6445 41.0193 36.0744 41.0193 37.832C41.0193 39.5895 39.5894 41.0194 37.8319 41.0194Z" fill="#00AEEF"/>
<path d="M9.52009 27.6582C4.27074 27.6582 0 31.9288 0 37.1783C0 40.4268 1.6358 43.2998 4.12662 45.0186V54.6677C4.12662 55.0772 4.33729 55.4577 4.68431 55.6749C5.03133 55.8921 5.46564 55.9157 5.83405 55.7369L9.36852 54.0212L12.903 55.7369C13.0673 55.8166 13.2449 55.8561 13.4219 55.8561C13.6415 55.8561 13.8605 55.7953 14.0526 55.6749C14.3996 55.4577 14.6103 55.0771 14.6103 54.6677V45.2198C17.2709 43.5297 19.0402 40.5569 19.0402 37.1783C19.0402 31.9288 14.7694 27.6582 9.52009 27.6582ZM12.2335 52.7698L9.88742 51.631C9.55974 51.4718 9.17718 51.4718 8.8495 51.631L6.50346 52.7698V46.2081C7.45181 46.5257 8.46618 46.6983 9.52009 46.6983C10.4625 46.6983 11.3732 46.56 12.2335 46.3037V52.7698ZM9.52009 44.3214C5.58124 44.3214 2.37684 41.117 2.37684 37.1782C2.37684 33.2393 5.58135 30.035 9.52009 30.035C13.4588 30.035 16.6634 33.2394 16.6634 37.1783C16.6634 41.1172 13.4589 44.3214 9.52009 44.3214Z" fill="#00AEEF"/>
</svg>
