<svg width="50" height="50" viewBox="0 0 50 50" fill="none" xmlns="http://www.w3.org/2000/svg">
<g clip-path="url(#clip0_3023_35246)">
<path d="M11.2298 47.8318C10.9185 47.867 10.6082 47.8844 10.2995 47.8844C8.14583 47.8843 6.08655 47.0381 4.54075 45.4924C2.77337 43.725 1.92063 41.2869 2.2012 38.8032L3.07424 31.0752L0.939381 30.834L0.0663343 38.562C-0.28806 41.6993 0.789088 44.779 3.02151 47.0115C4.97424 48.9643 7.57522 50.033 10.2959 50.033C10.6857 50.033 11.0779 50.011 11.471 49.9667L19.1991 49.0937L18.9579 46.9588L11.2298 47.8318Z" fill="#00AEEF"/>
<path d="M3.02161 3.02158C0.789088 5.254 -0.28806 8.33379 0.0663341 11.471L0.939381 19.1991L3.07424 18.9579L2.2012 11.2298C1.92053 8.74609 2.77327 6.3081 4.54075 4.54072C6.30813 2.77324 8.74612 1.92031 11.2298 2.20117L18.9579 3.07422L19.1991 0.939353L11.471 0.0663061C8.33391 -0.287991 5.25403 0.78906 3.02161 3.02158Z" fill="#00AEEF"/>
<path d="M38.8032 2.2011C41.2868 1.92034 43.725 2.77317 45.4923 4.54065C47.2597 6.30803 48.1124 8.74602 47.8318 11.2297L46.9588 18.9578L49.0936 19.1991L49.9667 11.4709C50.3211 8.33372 49.244 5.25393 47.0115 3.02151C44.7791 0.789088 41.6995 -0.28806 38.5621 0.0663343L30.834 0.939381L31.0752 3.07424L38.8032 2.2011Z" fill="#00AEEF"/>
<path d="M49.0938 30.834L46.9589 31.0752L47.8319 38.8032C48.1126 41.2869 47.2599 43.725 45.4924 45.4924C43.725 47.2598 41.2866 48.1124 38.8033 47.8318L31.0752 46.9588L30.834 49.0937L38.5621 49.9667C38.9554 50.0111 39.3473 50.033 39.7372 50.033C42.4577 50.033 45.059 48.9641 47.0116 47.0115C49.244 44.779 50.3212 41.6993 49.9668 38.562L49.0938 30.834Z" fill="#00AEEF"/>
<path d="M48.7834 18.6432C48.4793 18.3885 48.1379 18.1931 47.7754 18.0594C45.476 10.512 39.4886 4.52471 31.9408 2.22539C31.8071 1.8627 31.6117 1.5209 31.3568 1.2166C30.7092 0.443457 29.7592 0 28.7506 0H21.2494C20.2408 0 19.2908 0.443457 18.6432 1.2166C18.3885 1.5207 18.1932 1.86211 18.0595 2.22451C10.512 4.52393 4.52471 10.5114 2.22539 18.0592C1.8627 18.1929 1.5209 18.3883 1.2166 18.6432C0.443457 19.2908 0 20.2408 0 21.2494V28.7506C0 29.7592 0.443457 30.7092 1.2166 31.3568C1.521 31.6118 1.86279 31.808 2.22568 31.9417C4.5252 39.489 10.5123 45.4761 18.0595 47.7754C18.1932 48.1378 18.3885 48.4793 18.6432 48.7833C19.2908 49.5564 20.2408 49.9999 21.2494 49.9999H28.7506C29.7592 49.9999 30.7092 49.5564 31.3568 48.7833C31.6115 48.4792 31.8068 48.1378 31.9405 47.7754C39.4877 45.4762 45.4748 39.489 47.7743 31.9417C48.1372 31.808 48.479 31.6118 48.7834 31.3568C49.5565 30.7092 50 29.7592 50 28.7506V21.2494C50 20.2408 49.5565 19.2908 48.7834 18.6432ZM47.8516 28.7506C47.8516 29.1219 47.6884 29.4715 47.4038 29.7099C47.1192 29.9482 46.7465 30.0477 46.3809 29.9826L37.4614 28.3946C36.8634 28.2882 36.4294 27.77 36.4294 27.1626V22.8374C36.4294 22.23 36.8635 21.7118 37.4614 21.6054L46.3809 20.0174C46.4543 20.0043 46.528 19.9979 46.6013 19.9979C46.8926 19.9979 47.1764 20.0996 47.4038 20.2901C47.6884 20.5285 47.8516 20.8781 47.8516 21.2494V28.7506ZM29.3922 35.1136C28.7915 34.5919 28.0092 34.281 27.1626 34.281H22.8374C21.9908 34.281 21.2085 34.5919 20.6078 35.1136C18.0373 33.9993 16.0008 31.9628 14.8865 29.3923C15.4082 28.7916 15.7191 28.0093 15.7191 27.1627V22.8375C15.7191 21.9909 15.4082 21.2086 14.8865 20.6079C16.0008 18.0374 18.0373 16.0009 20.6078 14.8866C21.2085 15.4083 21.9908 15.7192 22.8374 15.7192H27.1626C28.0092 15.7192 28.7915 15.4083 29.3922 14.8866C31.9627 16.0009 33.9992 18.0374 35.1135 20.6079C34.5918 21.2086 34.2809 21.9909 34.2809 22.8375V27.1627C34.2809 28.0093 34.5918 28.7916 35.1135 29.3923C33.9992 31.9628 31.9628 33.9992 29.3922 35.1136ZM3.61924 29.9826C3.25391 30.0476 2.88086 29.9482 2.59629 29.7099C2.31172 29.4715 2.14844 29.1219 2.14844 28.7506V21.2494C2.14844 20.8781 2.31162 20.5285 2.59619 20.2901C2.82363 20.0996 3.10732 19.9979 3.39873 19.9979C3.47197 19.9979 3.5457 20.0043 3.61914 20.0174L12.5386 21.6054C13.1366 21.7118 13.5706 22.23 13.5706 22.8374V27.1626C13.5706 27.77 13.1365 28.2882 12.5386 28.3946L3.61924 29.9826ZM32.0071 4.50537C38.3169 6.66504 43.3355 11.6833 45.4953 17.9928L37.0848 19.4901C37.0489 19.4965 37.0135 19.5041 36.978 19.5116C35.662 16.6329 33.367 14.3379 30.4883 13.0219C30.4958 12.9864 30.5033 12.9511 30.5098 12.9151L32.0071 4.50537ZM20.2901 2.59619C20.5285 2.31162 20.8781 2.14844 21.2494 2.14844H28.7506C29.1219 2.14844 29.4715 2.31162 29.7099 2.59619C29.9482 2.88076 30.0477 3.25361 29.9826 3.61914L28.3946 12.5386C28.2882 13.1366 27.77 13.5706 27.1626 13.5706H22.8374C22.23 13.5706 21.7118 13.1365 21.6054 12.5386L20.0174 3.61914C19.9522 3.25371 20.0517 2.88086 20.2901 2.59619ZM17.9928 4.50469L19.4901 12.9152C19.4965 12.9511 19.5041 12.9865 19.5116 13.022C16.6329 14.338 14.3379 16.633 13.0219 19.5117C12.9864 19.5042 12.9511 19.4967 12.9151 19.4902L4.50527 17.993C6.66504 11.6831 11.6833 6.66445 17.9928 4.50469ZM17.9928 45.4953C11.6833 43.3354 6.66504 38.3169 4.50537 32.007L12.9152 30.5098C12.9511 30.5034 12.9865 30.4958 13.022 30.4883C14.338 33.367 16.633 35.662 19.5117 36.978C19.5042 37.0135 19.4967 37.0488 19.4902 37.0848L17.9928 45.4953ZM29.7099 47.4038C29.4715 47.6884 29.1219 47.8516 28.7506 47.8516H21.2494C20.8781 47.8516 20.5285 47.6884 20.2901 47.4038C20.0518 47.1192 19.9523 46.7464 20.0174 46.3809L21.6054 37.4614C21.7118 36.8634 22.23 36.4294 22.8374 36.4294H27.1626C27.77 36.4294 28.2882 36.8635 28.3946 37.4614L29.9826 46.3809C30.0478 46.7463 29.9483 47.1191 29.7099 47.4038ZM32.0072 45.4953L30.5099 37.0848C30.5035 37.0489 30.4959 37.0135 30.4884 36.978C33.3671 35.662 35.6621 33.367 36.9781 30.4883C37.0136 30.4958 37.0489 30.5033 37.0849 30.5098L45.4947 32.007C43.335 38.3169 38.3167 43.3355 32.0072 45.4953Z" fill="#24408F"/>
</g>
<defs>
<clipPath id="clip0_3023_35246">
<rect width="50" height="50" fill="white"/>
</clipPath>
</defs>
</svg>
