<svg width="50" height="50" viewBox="0 0 50 50" fill="none" xmlns="http://www.w3.org/2000/svg">
<g clip-path="url(#clip0_3023_35264)">
<path d="M18.1009 31.8991V27.5335H36.9556V13.0444H9.06617C12.7094 8.20771 18.4987 5.067 25.0105 5.067C36.0029 5.067 44.9435 14.0075 44.9435 25C44.9435 25.8585 44.8911 26.7065 44.776 27.5335H49.8744C49.9581 26.7065 50 25.8585 50 25C50 11.2123 38.7877 0 25 0C13.6097 0 3.96776 7.66332 0.963149 18.1009H31.8886V22.4665H13.0339V36.9661H40.9338C37.2906 41.8028 31.5013 44.9435 25 44.9435C14.0075 44.9435 5.067 36.0029 5.067 25.0105C5.067 24.152 5.11935 23.304 5.22404 22.477H0.125628C0.0418761 23.3145 0 24.152 0 25.0105C0 38.7982 11.2123 50.0105 25 50.0105C36.3903 50.0105 46.0323 42.3472 49.0369 31.9096H18.1009V31.8991Z" fill="#00AEEF"/>
</g>
<defs>
<clipPath id="clip0_3023_35264">
<rect width="50" height="50" fill="white"/>
</clipPath>
</defs>
</svg>
