<svg width="50" height="50" viewBox="0 0 50 50" fill="none" xmlns="http://www.w3.org/2000/svg">
<g clip-path="url(#clip0_3023_35269)">
<path d="M28.1303 13.334H17.7402C17.147 13.334 16.666 13.8149 16.666 14.4082C16.666 15.0015 17.147 15.4824 17.7402 15.4824H28.1304C28.7236 15.4824 29.2046 15.0015 29.2046 14.4082C29.2046 13.8149 28.7236 13.334 28.1303 13.334Z" fill="#24408F"/>
<path d="M28.1303 21.666H17.7402C17.147 21.666 16.666 22.147 16.666 22.7402C16.666 23.3335 17.147 23.8145 17.7402 23.8145H28.1304C28.7236 23.8145 29.2046 23.3335 29.2046 22.7402C29.2046 22.147 28.7236 21.666 28.1303 21.666Z" fill="#24408F"/>
<path d="M28.1303 30.834H17.7402C17.147 30.834 16.666 31.3149 16.666 31.9082C16.666 32.5015 17.147 32.9824 17.7402 32.9824H28.1304C28.7236 32.9824 29.2046 32.5015 29.2046 31.9082C29.2046 31.3149 28.7236 30.834 28.1303 30.834Z" fill="#24408F"/>
<path d="M28.1303 39.166H17.7402C17.147 39.166 16.666 39.647 16.666 40.2402C16.666 40.8335 17.147 41.3145 17.7402 41.3145H28.1304C28.7236 41.3145 29.2046 40.8335 29.2046 40.2402C29.2046 39.647 28.7236 39.166 28.1303 39.166Z" fill="#24408F"/>
<path d="M39.8118 19.2521V11.6929H39.8112C39.8111 11.4134 39.7025 11.1387 39.4972 10.9333L35.5149 6.95107V1.07422C35.5149 0.480957 35.034 0 34.4407 0H1.07422C0.480957 0 0 0.480957 0 1.07422V44.6289C0 45.2222 0.480957 45.7031 1.07422 45.7031H4.29688V48.9258C4.29688 49.519 4.77783 50 5.37109 50H38.7376C39.3309 50 39.8118 49.519 39.8118 48.9258V35.0448H37.6634V47.8516H6.44531V6.44531H31.3416V11.6928C31.3416 12.286 31.8226 12.767 32.4158 12.767H37.6633V19.252H39.8118V19.2521ZM32.4158 4.29736V4.29688H5.37109C4.77783 4.29688 4.29688 4.77783 4.29688 5.37109V43.5547H2.14844V2.14844H33.3665V4.80254L33.1755 4.61152C32.97 4.40605 32.6953 4.29746 32.4158 4.29736ZM33.49 10.6186V7.96445L36.1441 10.6186H33.49Z" fill="#24408F"/>
<path d="M40.8947 17.5C35.807 17.5 31.668 21.6392 31.668 26.7269C31.668 31.8145 35.8071 35.9537 40.8947 35.9537C45.9824 35.9537 50.1216 31.8145 50.1216 26.7269C50.1216 21.6392 45.9824 17.5 40.8947 17.5ZM40.8947 33.8053C36.9917 33.8053 33.8164 30.6299 33.8164 26.7269C33.8164 22.8238 36.9918 19.6484 40.8947 19.6484C44.7978 19.6484 47.9731 22.8238 47.9731 26.7269C47.9731 30.6299 44.7978 33.8053 40.8947 33.8053Z" fill="#00AEEF"/>
<path d="M42.6166 24.4826L39.581 27.5183L37.6679 25.6052C37.2482 25.1856 36.5683 25.1856 36.1486 25.6052C35.7291 26.0247 35.7291 26.7049 36.1486 27.1244L38.8213 29.7971C39.0311 30.0068 39.306 30.1117 39.5809 30.1117C39.8558 30.1117 40.1307 30.0068 40.3404 29.7971L44.1356 26.0019C44.5552 25.5823 44.5552 24.9021 44.1356 24.4826C43.7162 24.0631 43.0362 24.0631 42.6166 24.4826Z" fill="#00AEEF"/>
<path d="M13.7051 10.834H9.4082C8.81494 10.834 8.33398 11.3149 8.33398 11.9082V16.2051C8.33398 16.7983 8.81494 17.2793 9.4082 17.2793H13.7051C14.2983 17.2793 14.7793 16.7983 14.7793 16.2051V11.9082C14.7793 11.3149 14.2983 10.834 13.7051 10.834ZM12.6309 15.1309H10.4824V12.9824H12.6309V15.1309Z" fill="#00AEEF"/>
<path d="M13.7051 19.168H9.4082C8.81494 19.168 8.33398 19.6489 8.33398 20.2422V24.5391C8.33398 25.1323 8.81494 25.6133 9.4082 25.6133H13.7051C14.2983 25.6133 14.7793 25.1323 14.7793 24.5391V20.2422C14.7793 19.6489 14.2983 19.168 13.7051 19.168ZM12.6309 23.4648H10.4824V21.3164H12.6309V23.4648Z" fill="#00AEEF"/>
<path d="M13.7051 28.334H9.4082C8.81494 28.334 8.33398 28.8149 8.33398 29.4082V33.7051C8.33398 34.2983 8.81494 34.7793 9.4082 34.7793H13.7051C14.2983 34.7793 14.7793 34.2983 14.7793 33.7051V29.4082C14.7793 28.8149 14.2983 28.334 13.7051 28.334ZM12.6309 32.6309H10.4824V30.4824H12.6309V32.6309Z" fill="#00AEEF"/>
<path d="M13.7051 36.668H9.4082C8.81494 36.668 8.33398 37.1489 8.33398 37.7422V42.0391C8.33398 42.6323 8.81494 43.1133 9.4082 43.1133H13.7051C14.2983 43.1133 14.7793 42.6323 14.7793 42.0391V37.7422C14.7793 37.1489 14.2983 36.668 13.7051 36.668ZM12.6309 40.9648H10.4824V38.8164H12.6309V40.9648Z" fill="#00AEEF"/>
</g>
<defs>
<clipPath id="clip0_3023_35269">
<rect width="50" height="50" fill="white"/>
</clipPath>
</defs>
</svg>
