<svg width="50" height="55" viewBox="0 0 50 55" fill="none" xmlns="http://www.w3.org/2000/svg">
<path d="M24.4599 54.1904C23.4071 52.5769 20.7291 51.0026 15.6778 49.0281C14.1787 48.4424 12.3147 47.6448 11.5375 47.2577C7.74379 45.3696 4.07345 42.2053 2.27766 39.279C-0.956867 34.0017 -0.738957 26.6114 2.88413 18.9125C3.57724 17.4402 3.70589 16.9799 3.51161 16.6713C3.12042 16.0463 3.98681 14.3622 5.06848 13.6509C5.87186 13.1226 6.00576 12.8951 6.42058 11.3601C7.11369 8.79724 7.32897 6.88821 7.3316 3.27674C7.3316 1.47231 7.38936 0 7.45762 0C7.84881 0 8.92786 0.755768 9.56059 1.47492C10.2931 2.30392 11.4745 4.59214 11.6084 5.43682C11.6714 5.82909 11.8972 5.89447 13.5722 5.99646C15.4835 6.11152 16.749 6.54824 18.0171 7.5263L18.5632 7.94733L17.5708 8.21146C16.2265 8.56711 13.3464 10.0316 11.9392 11.0724C10.658 12.0217 8.4474 14.2628 8.03259 15.0343C7.68866 15.6724 7.89869 16.0646 9.22978 17.2859C11.8631 19.7049 15.137 20.1651 18.6314 18.6091L19.5687 18.1907L19.1513 17.4716C18.046 15.573 17.7152 12.4401 18.382 10.2016C19.0436 7.98133 20.7291 5.88401 22.4173 5.18054C23.3887 4.7752 23.4858 4.7935 23.9217 5.45774C24.2892 6.01476 24.284 6.05399 23.7536 6.62147C22.9896 7.44 22.3937 8.41805 22.5564 8.58019C22.6326 8.65603 23.008 8.74232 23.3913 8.77109C24.0503 8.82339 25.1215 9.53993 24.5413 9.53993C24.3969 9.53993 24.3339 9.68638 24.4021 9.86421C24.5413 10.2277 23.5987 10.5624 23.0395 10.348C22.3989 10.1022 22.6615 9.54255 23.4281 9.51901C24.0976 9.49809 24.1107 9.48502 23.5961 9.34119C23.2889 9.25489 22.8137 9.22612 22.5381 9.27842C22.097 9.35949 22.0366 9.50594 22.0366 10.4971C22.0366 12.7147 23.3808 14.425 25.1267 14.425C26.9672 14.425 28.2142 12.4793 28.0777 9.81975C28.0541 9.38041 27.9412 9.32288 27.1063 9.34903C26.1979 9.3778 26.1874 9.38303 26.891 9.5164C27.2953 9.59224 27.6209 9.72822 27.6156 9.81975C27.6104 9.91128 27.6078 10.0865 27.6078 10.2068C27.6078 10.3271 27.2061 10.4291 26.7177 10.4291C26.1664 10.4291 25.8172 10.5337 25.8041 10.7063C25.791 10.858 25.7069 10.735 25.6151 10.4291C25.3368 9.49809 25.9144 8.88093 27.1614 8.77371C27.3452 8.75801 27.5237 8.67433 27.5552 8.58542C27.655 8.32129 26.9987 7.20464 26.4106 6.64239C25.8802 6.13244 25.8724 6.0906 26.2242 5.49697C26.6915 4.70982 27.0669 4.72289 28.3534 5.57019C30.6795 7.10526 31.8531 9.27058 32.008 12.3146C32.1077 14.2576 31.8242 15.6018 30.8502 17.8089C30.711 18.1254 30.9 18.2979 31.8714 18.7425C35.064 20.1939 38.5111 19.65 41.0841 17.2885C42.6882 15.8162 42.7118 15.6933 41.6617 14.3361C39.669 11.7628 36.6287 9.63408 33.2078 8.41544C31.5695 7.83227 31.5984 7.76689 33.9587 6.63454C35.0561 6.10891 35.5864 5.99384 36.9175 5.99384C38.0149 5.99384 38.5715 5.90493 38.6372 5.71664C39.3434 3.69254 39.795 2.71972 40.3936 1.94041C41.0683 1.05912 42.3758 0.00261511 42.7932 0.00261511C42.8982 0.00261511 42.9822 1.44354 42.9822 3.20351C42.9822 4.96349 43.0873 7.18633 43.2159 8.14085C43.531 10.4788 44.3055 13.3162 44.6284 13.3162C44.7728 13.3162 45.2585 13.6744 45.7127 14.1112C46.5449 14.9166 46.9335 16.0019 46.7025 16.8806C46.6342 17.1447 46.9125 18.0469 47.372 19.0406C48.262 20.968 49.0312 23.1124 49.6088 25.2751C49.9107 26.4022 50 27.6156 50 30.5131C50 34.0749 49.9632 34.3914 49.3647 36.1723C49.0155 37.2105 48.5875 38.2173 48.4169 38.4082C48.2462 38.5991 48.1071 38.8371 48.1071 38.9338C48.1071 39.347 46.033 41.9569 44.8043 43.0892C42.5438 45.1761 38.162 47.7729 35.5208 48.5967C31.5459 49.8362 26.9645 52.3886 25.6912 54.0701L24.9902 54.9958L24.4625 54.1878L24.4599 54.1904ZM24.5754 45.8063C24.6489 45.6128 24.7172 44.9381 24.725 44.3079C24.7329 43.6776 24.8169 42.9663 24.9114 42.7283C25.0558 42.3622 25.1031 42.4093 25.2291 43.0343C25.3105 43.4397 25.3761 44.2634 25.3761 44.8623C25.3761 45.6547 25.4733 45.9868 25.7332 46.0861C26.2845 46.298 26.4762 45.7305 26.1585 44.8309C25.8697 44.0176 25.7253 42.3152 25.8146 40.8324C25.8566 40.1446 25.9065 40.2231 26.2557 41.5228C26.6862 43.1311 26.8569 43.4946 27.1719 43.4946C27.5027 43.4946 27.4135 41.6744 27.0459 40.9736C26.5287 39.9851 26.6363 39.9982 27.7154 41.0547C28.7813 42.0981 28.9205 42.0353 28.3849 40.7565C27.8047 39.3705 28.0094 39.4542 29.5926 41.2403C31.139 42.9898 32.1734 43.6698 32.877 43.4004C33.1737 43.288 33.066 43.1624 32.3808 42.8251C31.9003 42.5871 31.1206 42.0772 30.648 41.6901C29.7396 40.9422 28.0515 38.9312 28.0515 38.5938C28.0515 38.484 28.8365 38.973 29.7947 39.6791C31.8321 41.1828 32.8612 41.6771 33.2183 41.3188C33.3916 41.1462 32.9374 40.8298 31.5905 40.1943C28.868 38.9077 27.592 37.7361 30.0835 38.8083C31.8951 39.5876 32.1839 39.5301 30.5377 38.7168C29.6398 38.2722 28.952 37.8616 29.0097 37.8041C29.0675 37.7465 29.737 37.859 30.4983 38.0577C31.2597 38.2539 32.0473 38.3768 32.2495 38.3297C32.4517 38.2826 32.1655 38.1231 31.6142 37.9741C31.0628 37.825 30.2096 37.5661 29.7212 37.3987L28.8312 37.0954L30.6139 37.0666L32.3965 37.0379L30.9473 36.2925C30.1518 35.882 29.2198 35.2543 28.8785 34.8961C27.9674 33.9389 27.403 32.2836 27.5027 30.8557C27.6681 28.489 29.5086 26.6271 34.0978 24.1846C36.6313 22.8352 39.0835 20.9627 41.0237 18.8942C41.7273 18.1437 42.4283 17.5291 42.5832 17.5291C43.0978 17.5239 43.4391 17.1682 43.2947 16.7943C43.0715 16.2163 42.7958 16.3366 41.428 17.5971C40.7086 18.2613 39.3933 19.1426 38.4009 19.6238C36.6944 20.4528 36.5972 20.4737 34.741 20.3665C33.2708 20.2828 32.5698 20.1233 31.6745 19.6735C31.0366 19.3518 30.4038 19.0877 30.2699 19.0877C29.8315 19.0877 28.104 23.1359 27.6183 25.3012C27.277 26.8206 27.0984 28.6198 26.9855 31.7344C26.8464 35.4688 26.7755 36.0676 26.4631 36.1278C25.9327 36.2298 25.7962 35.6806 25.6623 32.8458C25.4838 29.0984 25.9642 22.558 26.6206 19.8644C27.2481 17.2807 27.2953 16.2686 26.8149 15.5861C26.5182 15.165 26.2662 15.0944 25.0873 15.0997C23.8613 15.1049 23.6591 15.1703 23.2837 15.6828C22.8662 16.2529 22.8689 16.2974 23.3677 18.7268C24.1868 22.7096 24.2315 23.1594 24.3785 28.7375C24.5334 34.6215 24.3995 36.0598 23.6985 36.0598C23.2811 36.0598 23.2522 35.8454 23.1262 31.7318C23.0526 29.352 22.8689 26.7552 22.7166 25.9628C22.3123 23.8368 21.186 20.764 20.3064 19.378L20.0019 18.8968L18.5448 19.5767C16.8881 20.3482 14.688 20.6149 13.2257 20.2227C12.0705 19.9115 9.86776 18.5699 8.53142 17.3644C7.34998 16.2974 7.21346 16.2555 6.8984 16.8387C6.70675 17.1944 6.76976 17.2754 7.30797 17.3827C7.71491 17.4637 8.73095 18.2901 10.1434 19.684C12.3094 21.8257 13.6064 22.7672 16.9092 24.6056C20.863 26.8075 22.3228 28.3138 22.6247 30.5105C22.9529 32.9034 21.7111 34.9798 19.167 36.2795L17.6889 37.0352L19.3587 37.0535C20.9996 37.0718 21.0179 37.0797 20.3038 37.3883C19.9048 37.5609 19.2011 37.7701 18.7443 37.8512C18.2875 37.9322 17.7624 38.0891 17.5786 38.199C17.1612 38.4474 19.1696 38.2225 20.2119 37.9035C21.5089 37.506 21.2122 37.8616 19.6055 38.6305C18.7496 39.0384 18.0748 39.3993 18.109 39.4307C18.193 39.5144 19.3429 39.1535 20.3091 38.7377C20.7685 38.5415 21.144 38.4552 21.144 38.5494C21.144 38.8318 18.4975 40.3878 17.7729 40.5316C17.1323 40.6598 16.707 41.1384 16.9853 41.4156C17.2006 41.63 19.1381 40.5866 20.6241 39.4516C21.4013 38.858 22.0392 38.4369 22.0392 38.5154C22.0392 38.5938 21.6795 39.1456 21.2385 39.7445C20.3301 40.9762 19.0016 42.1138 17.6942 42.778C17.0352 43.1128 16.8934 43.2671 17.1533 43.369C17.9357 43.6776 19.1434 42.812 21.1125 40.5343C22.1416 39.3444 22.2414 39.4228 21.5982 40.9187C21.3566 41.4783 21.207 41.936 21.2621 41.936C21.3172 41.936 21.7662 41.5751 22.2571 41.1331C22.7481 40.6912 23.1472 40.3669 23.1472 40.4114C23.1472 40.4558 23.0159 40.9422 22.8584 41.4914C22.5617 42.527 22.5932 43.4893 22.9266 43.4893C23.1813 43.4893 24.0346 41.1933 24.0634 40.4297C24.0844 39.8857 24.1054 39.9014 24.2813 40.6049C24.5098 41.5071 24.3286 43.458 23.9059 44.6583C23.7431 45.1186 23.6696 45.6416 23.7379 45.822C23.9059 46.2561 24.4021 46.2431 24.5728 45.8011L24.5754 45.8063ZM19.4243 25.432C18.7128 24.7834 18.6052 24.5559 18.6367 23.7792C18.6787 22.7044 19.1959 21.6296 19.8339 21.2896C20.3721 21.002 20.6478 21.1641 20.3117 21.5721C20.1831 21.7264 19.9546 22.2729 19.8024 22.7855C19.4453 23.9832 19.784 24.8828 20.8394 25.5314C21.2542 25.7876 21.5929 26.0361 21.5929 26.0884C21.5929 26.1407 21.291 26.1825 20.9208 26.1825C20.4666 26.1825 19.9809 25.9367 19.4243 25.4294V25.432ZM28.6107 25.9628C28.6868 25.8399 28.8732 25.7406 29.0281 25.7406C29.183 25.7406 29.5768 25.4607 29.905 25.1182C30.6034 24.3938 30.6953 23.3007 30.1702 22.0454C29.8761 21.3463 29.9855 21.1467 30.4983 21.4465C32.0526 22.3618 31.9292 25.0057 30.2883 25.8504C29.5532 26.2296 28.398 26.308 28.6107 25.9655V25.9628ZM18.6603 34.9693C19.8076 34.3783 20.5007 33.5833 20.8368 32.4719C21.123 31.5252 21.1177 31.282 20.7922 30.249C20.59 29.6109 20.2382 28.9205 20.0072 28.7113C19.7761 28.5047 19.5897 28.2171 19.5897 28.0706C19.5897 27.783 18.4975 26.9827 14.9112 24.6448C12.0679 22.7907 9.3138 20.479 8.38439 19.1662C7.81468 18.3607 7.57314 18.1933 6.97717 18.1933C6.33131 18.1933 6.22104 18.2927 5.87449 19.1975C5.55419 20.037 5.51218 20.6489 5.6277 22.9136C5.97951 29.8515 9.025 34.1978 14.2443 35.2047C15.9797 35.5394 17.7309 35.4453 18.6629 34.9667L18.6603 34.9693ZM35.7019 35.2596C38.9102 34.7836 41.6065 32.7229 43.082 29.6188C44.4892 26.6585 45.1692 21.4178 44.4131 19.3283C44.0377 18.2927 43.9431 18.196 43.3025 18.196C42.7171 18.196 42.4125 18.4209 41.4359 19.582C40.2439 20.9967 37.9572 22.9581 35.9592 24.2761C35.3475 24.6814 33.9665 25.5732 32.8927 26.261C31.2991 27.2809 30.774 27.7647 30.031 28.8996C29.1673 30.2229 29.1279 30.3562 29.225 31.6481C29.3563 33.3401 29.947 34.2005 31.4908 34.9458C32.7667 35.5603 33.3627 35.6048 35.6967 35.2596H35.7019ZM4.8847 16.4334C4.8847 16.1719 4.45151 15.892 4.29136 16.0516C4.13121 16.2111 4.41213 16.6426 4.67467 16.6426C4.79019 16.6426 4.8847 16.5484 4.8847 16.4334ZM46.0461 16.2399C46.1012 16.0777 45.9989 16.028 45.7809 16.1117C45.5867 16.1849 45.4291 16.3445 45.4291 16.4621C45.4291 16.755 45.9358 16.572 46.0461 16.2399ZM45.4449 15.7482C45.8308 15.5416 46.0645 14.8695 45.7494 14.8695C45.3924 14.8695 44.7623 15.369 44.7623 15.6541C44.7623 16.0411 44.8726 16.0542 45.4449 15.7482ZM5.55156 15.5416C5.55156 15.3429 4.8532 14.8669 4.5644 14.8669C4.31499 14.8669 4.44363 15.4972 4.71668 15.607C5.184 15.7953 5.55156 15.7665 5.55156 15.539V15.5416ZM45.206 14.4014C45.206 14.2916 45.0563 14.2027 44.8725 14.2027C44.6888 14.2027 44.5391 14.3491 44.5391 14.5296C44.5391 14.7283 44.6704 14.8068 44.8725 14.7283C45.0563 14.6577 45.206 14.5113 45.206 14.4014ZM5.77472 14.425C5.77472 14.3021 5.6172 14.2027 5.42817 14.2027C5.23914 14.2027 5.14199 14.3021 5.21813 14.425C5.29427 14.5479 5.44917 14.6473 5.56469 14.6473C5.68021 14.6473 5.77472 14.5479 5.77472 14.425ZM41.6643 9.83806C40.8241 8.22715 40.4408 8.02055 40.9869 9.47194C41.2705 10.2277 42.339 11.8072 42.4729 11.6739C42.5254 11.6216 42.1605 10.7952 41.6617 9.83806H41.6643ZM8.61018 10.8109C9.17727 9.98189 9.63935 8.77371 9.52383 8.42851C9.4792 8.29776 9.07751 8.9463 8.62856 9.86682C7.7753 11.6189 7.76479 12.0452 8.61018 10.8135V10.8109ZM12.2359 9.86421C13.0314 9.4641 14.2758 8.87831 15.0005 8.56188C16.6309 7.84534 16.4891 7.58383 14.7563 8.11208C13.0498 8.63249 11.9523 9.18166 10.406 10.2905C8.95936 11.3287 8.70207 11.7654 9.9544 11.0593C10.4138 10.8004 11.4404 10.2617 12.2385 9.86421H12.2359ZM40.2623 10.5912C39.8081 10.1963 38.8052 9.55824 38.0333 9.1712C36.5526 8.42851 34.2816 7.6832 34.3026 7.94471C34.3157 8.10424 40.4645 11.2319 40.8609 11.2816C40.9843 11.2973 40.7139 10.9861 40.2597 10.5912H40.2623ZM7.88031 9.41964C8.37652 8.23499 8.75196 5.11778 8.5708 3.67162C8.48416 2.97338 8.37389 2.43729 8.32926 2.48436C8.28463 2.52881 8.18749 3.21136 8.11135 4.00112C7.74904 7.83226 7.51275 9.87467 7.41561 10.0342C7.35523 10.1309 7.3631 10.2094 7.42874 10.2094C7.49438 10.2094 7.69916 9.85636 7.88031 9.42225V9.41964ZM42.6068 7.59952C42.4572 6.16644 42.3259 4.39339 42.3154 3.66116C42.2996 2.58112 42.2524 2.40852 42.0528 2.7511C41.68 3.38919 41.7667 6.7993 42.1946 8.43113C42.5438 9.75437 42.7039 10.2094 42.83 10.2094C42.8562 10.2094 42.7538 9.03522 42.6042 7.60214L42.6068 7.59952ZM25.1556 13.426C25.1556 13.2429 25.006 13.0939 24.8222 13.0939C24.6384 13.0939 24.4888 12.9945 24.4888 12.8716C24.4888 12.7487 24.8406 12.6493 25.2685 12.6493C25.6964 12.6493 26.0483 12.7487 26.0483 12.8716C26.0483 12.9945 25.9485 13.0939 25.8251 13.0939C25.7017 13.0939 25.6019 13.2429 25.6019 13.426C25.6019 13.6091 25.5022 13.7581 25.3788 13.7581C25.2554 13.7581 25.1556 13.6091 25.1556 13.426ZM24.9351 11.9825C24.9351 11.8595 25.0768 11.7602 25.2501 11.7602C25.4234 11.7602 25.6151 11.6346 25.6781 11.483C25.7411 11.3313 25.7988 11.4307 25.8067 11.7052C25.8198 12.0635 25.6964 12.2047 25.3788 12.2047C25.1346 12.2047 24.9324 12.1054 24.9324 11.9825H24.9351Z" fill="#00AEEF"/>
</svg>
