<svg width="53" height="50" viewBox="0 0 53 50" fill="none" xmlns="http://www.w3.org/2000/svg">
<path d="M45.0457 7.72866C40.0618 2.74468 33.4354 0 26.3872 0C19.3389 0 12.7125 2.74468 7.72866 7.72866C2.74468 12.7125 0 19.3389 0 26.3872C0 27.8752 0.126679 29.3742 0.376533 30.8425C0.440336 31.2173 0.687613 31.5351 1.03518 31.6889C1.38265 31.8428 1.78433 31.8124 2.10469 31.6077C9.35096 26.9786 17.7478 24.5318 26.3872 24.5318C35.0266 24.5318 43.4234 26.9786 50.6698 31.6077C50.8549 31.7259 51.067 31.786 51.2802 31.786C51.436 31.786 51.5925 31.7539 51.7393 31.6889C52.0869 31.5351 52.3341 31.2172 52.3979 30.8424C52.6477 29.374 52.7744 27.8751 52.7744 26.3872C52.7744 19.3389 50.0297 12.7125 45.0457 7.72866ZM50.1231 22.0736C45.4198 19.7293 40.3784 18.0975 35.1937 17.228C36.3594 13.5284 38.4565 10.1494 41.3204 7.44387C42.058 8.02768 42.7669 8.65675 43.4422 9.33199C46.9639 12.8538 49.2612 17.273 50.1231 22.0736ZM39.4447 6.09997C36.3719 9.10646 34.1406 12.8334 32.9247 16.8968C30.7605 16.6288 28.5768 16.4919 26.3872 16.4919C24.1976 16.4919 22.0138 16.6288 19.8497 16.8968C18.6339 12.8333 16.4025 9.10646 13.3297 6.09997C17.1876 3.60597 21.6843 2.26765 26.3872 2.26765C31.0901 2.26765 35.5867 3.60597 39.4447 6.09997ZM9.3321 9.3321C10.0073 8.65685 10.7164 8.02779 11.4539 7.44397C14.3177 10.1494 16.4149 13.5284 17.5806 17.2282C12.3959 18.0976 7.3545 19.7295 2.65119 22.0737C3.51321 17.273 5.81044 12.8538 9.3321 9.3321ZM2.26765 26.3872C2.26765 25.8543 2.28651 25.3243 2.32053 24.7973C7.25967 22.1468 12.6238 20.336 18.1552 19.4309C18.3928 20.5689 18.5442 21.7291 18.6057 22.9023C12.8926 23.847 7.40027 25.8294 2.38577 28.776C2.30723 27.9814 2.26765 27.1825 2.26765 26.3872ZM20.8599 22.5843C20.7891 21.4128 20.6367 20.2535 20.406 19.114C22.3869 18.8797 24.3844 18.7595 26.3872 18.7595C28.3899 18.7595 30.3874 18.8797 32.3684 19.114C32.1376 20.2534 31.9853 21.4128 31.9145 22.5843C30.0881 22.3717 28.2429 22.2641 26.3872 22.2641C24.5314 22.2641 22.6863 22.3717 20.8599 22.5843ZM50.3886 28.7761C45.3741 25.8295 39.8817 23.8471 34.1686 22.9024C34.2302 21.7292 34.3816 20.569 34.6192 19.431C40.1506 20.336 45.5147 22.1468 50.4538 24.7974C50.488 25.3244 50.5067 25.8543 50.5067 26.3873C50.5067 27.1825 50.4671 27.9814 50.3886 28.7761Z" fill="#24408F"/>
<path d="M51.6405 39.6979H49.1866C48.522 35.1758 43.9362 31.6641 38.3954 31.6641C35.2192 31.6641 32.3567 32.8183 30.3667 34.6551C29.3306 33.6028 27.9017 32.9865 26.3872 32.9865C24.8727 32.9865 23.4437 33.6028 22.4077 34.6551C20.4177 32.8183 17.5553 31.6641 14.379 31.6641C8.83816 31.6641 4.25225 35.1759 3.58773 39.6979H1.13382C0.507644 39.6979 0 40.2056 0 40.8318C0 41.4579 0.507644 41.9656 1.13382 41.9656H3.58773C4.25236 46.4877 8.83816 49.9994 14.379 49.9994C20.3751 49.9994 25.2534 45.8869 25.2534 40.8318C25.2534 39.2217 24.7579 37.7076 23.8897 36.3912C24.5126 35.6779 25.4203 35.2542 26.3872 35.2542C27.354 35.2542 28.2619 35.6779 28.8848 36.3912C28.0165 37.7076 27.521 39.2217 27.521 40.8318C27.521 45.8869 32.3992 49.9994 38.3954 49.9994C43.9362 49.9994 48.5221 46.4876 49.1866 41.9656H51.6405C52.2667 41.9656 52.7744 41.4579 52.7744 40.8318C52.7744 40.2056 52.2667 39.6979 51.6405 39.6979ZM14.379 47.7318C9.63318 47.7318 5.7722 44.6365 5.7722 40.8318C5.7722 37.0271 9.63318 33.9317 14.379 33.9317C19.1247 33.9317 22.9857 37.0271 22.9857 40.8318C22.9857 44.6365 19.1247 47.7318 14.379 47.7318ZM38.3954 47.7318C33.6496 47.7318 29.7887 44.6365 29.7887 40.8318C29.7887 37.0271 33.6496 33.9317 38.3954 33.9317C43.1412 33.9317 47.0022 37.0271 47.0022 40.8318C47.0022 44.6365 43.1412 47.7318 38.3954 47.7318Z" fill="#00AEEF"/>
</svg>
