<svg width="50" height="50" viewBox="0 0 50 50" fill="none" xmlns="http://www.w3.org/2000/svg">
<g clip-path="url(#clip0_3023_35206)">
<path d="M27.774 35.4859C26.7062 35.486 25.6385 35.1324 24.7473 34.4252L24.7282 34.41C23.7303 33.6182 22.3379 33.6195 21.3416 34.4129L20.6685 33.5759L20 32.7352L20.004 32.7321C21.786 31.3127 24.278 31.3105 26.0633 32.7271L26.0824 32.7422C27.0784 33.5326 28.4694 33.5327 29.4652 32.7423L29.4847 32.7269C31.2693 31.3105 33.7613 31.3125 35.5441 32.7324C35.545 32.733 35.5458 32.7337 35.5467 32.7343C36.5446 33.5274 37.9373 33.5268 38.9346 32.7326C40.7173 31.3126 43.2092 31.3104 44.9944 32.727L45.0095 32.7389C46.0071 33.5306 47.3996 33.5292 48.3958 32.7359C48.8598 32.3663 49.5356 32.4428 49.9051 32.9069C50.2747 33.3709 50.1982 34.0467 49.7342 34.4162C47.9514 35.8361 45.4595 35.8384 43.6743 34.4217L43.6592 34.4098C42.6616 33.6181 41.2691 33.6194 40.2729 34.4128C38.4871 35.8353 35.9923 35.8354 34.2063 34.413C34.2056 34.4124 34.2049 34.412 34.2042 34.4114C33.2081 33.6193 31.8165 33.6186 30.8196 34.4098L30.8001 34.4252C29.9095 35.1323 28.8417 35.4858 27.774 35.4859Z" fill="#00AEEF"/>
<path d="M27.7738 49.6539C26.706 49.654 25.6383 49.3004 24.7472 48.5933L24.7281 48.578C23.7302 47.7862 22.3377 47.7875 21.3416 48.581L20.6685 47.7439L20 46.9032L20.004 46.9C21.786 45.4806 24.278 45.4784 26.0633 46.895L26.0824 46.9102C27.0784 47.7005 28.4694 47.7005 29.4652 46.9103L29.4847 46.8948C31.2694 45.4784 33.7613 45.4805 35.5441 46.9003C35.545 46.901 35.5459 46.9018 35.5469 46.9024C36.5447 47.6953 37.9374 47.6947 38.9346 46.9005C40.7173 45.4805 43.2092 45.4783 44.9945 46.895L45.0088 46.9063C46.0072 47.6986 47.3997 47.6974 48.3959 46.9039C48.8599 46.5343 49.5357 46.6109 49.9052 47.0749C50.2748 47.5389 50.1983 48.2147 49.7343 48.5843C47.9515 50.0041 45.4596 50.0065 43.6744 48.5898L43.6601 48.5785C42.6616 47.7861 41.2692 47.7874 40.2729 48.5809C38.4871 50.0034 35.9923 50.0035 34.2063 48.5811C34.2057 48.5806 34.2051 48.5801 34.2045 48.5797C33.2085 47.7875 31.8167 47.7865 30.8197 48.5779L30.8002 48.5934C29.9093 49.3003 28.8415 49.6538 27.7738 49.6539Z" fill="#00AEEF"/>
<path d="M27.774 42.9858C26.7062 42.9859 25.6385 42.6323 24.7473 41.9252L24.7282 41.91C23.7303 41.1182 22.3379 41.1194 21.3416 41.9129L20.6685 41.0759L20 40.2352L20.004 40.232C21.786 38.8127 24.278 38.8104 26.0633 40.2271L26.0824 40.2422C27.0784 41.0325 28.4694 41.0326 29.4652 40.2423L29.4847 40.2269C31.2693 38.8105 33.7613 38.8125 35.5441 40.2323C35.545 40.233 35.5458 40.2337 35.5467 40.2344C36.5446 41.0275 37.9373 41.0269 38.9346 40.2326C40.7173 38.8127 43.2092 38.8104 44.9944 40.2271L45.0095 40.239C46.0071 41.0307 47.3996 41.0294 48.3958 40.2359C48.8598 39.8664 49.5356 39.9429 49.9051 40.4069C50.2747 40.8709 50.1982 41.5467 49.7342 41.9163C47.9514 43.3363 45.4595 43.3385 43.6743 41.9219L43.6592 41.91C42.6616 41.1183 41.2691 41.1195 40.2729 41.913C38.4871 43.3355 35.9923 43.3356 34.2063 41.9132C34.2056 41.9126 34.2049 41.9121 34.2042 41.9115C33.2081 41.1194 31.8165 41.1188 30.8196 41.91L30.8001 41.9254C29.9095 42.6323 28.8417 42.9857 27.774 42.9858Z" fill="#00AEEF"/>
<path d="M27.774 27.9857C26.7062 27.9858 25.6385 27.6323 24.7473 26.9251L24.7282 26.91C23.7303 26.1182 22.3379 26.1194 21.3416 26.9129L20.6685 26.0759L20 25.2352L20.004 25.232C21.786 23.8127 24.278 23.8104 26.0633 25.2271L26.0824 25.2422C27.0784 26.0325 28.4694 26.0325 29.4652 25.2423L29.4847 25.2269C31.2693 23.8105 33.7613 23.8125 35.5441 25.2323C35.545 25.233 35.5458 25.2337 35.5467 25.2344C36.5446 26.0275 37.9373 26.0269 38.9346 25.2326C40.7173 23.8127 43.2092 23.8104 44.9944 25.2271L45.0095 25.239C46.0071 26.0307 47.3996 26.0294 48.3958 25.2359C48.8597 24.8664 49.5355 24.9429 49.9051 25.4069C50.2747 25.8709 50.198 26.5467 49.7341 26.9163C47.9514 28.3363 45.4595 28.3384 43.6743 26.9218L43.6592 26.9099C42.6616 26.1182 41.2691 26.1194 40.2729 26.9129C38.4871 28.3354 35.9923 28.3355 34.2063 26.9131C34.2056 26.9125 34.2049 26.912 34.2042 26.9114C33.2081 26.1193 31.8165 26.1187 30.8196 26.9099L30.8001 26.9253C29.9095 27.6322 28.8417 27.9856 27.774 27.9857Z" fill="#00AEEF"/>
<path d="M20.5237 4.16943C19.9306 4.16943 19.4497 4.65034 19.4497 5.24353V47.8293H17.708V5.24011C17.708 4.64692 17.2271 4.16602 16.6339 4.16602C16.0407 4.16602 15.5598 4.64692 15.5598 5.24011V10.097H6.03809V5.24011C6.03809 4.64692 5.55718 4.16602 4.96399 4.16602C4.37079 4.16602 3.88989 4.64692 3.88989 5.24011V47.8293H2.14819V5.24011C2.14819 4.64692 1.66729 4.16602 1.0741 4.16602C0.480903 4.16602 0 4.64692 0 5.24011V48.9034C0 49.4966 0.480903 49.9775 1.0741 49.9775H4.96399C5.55718 49.9775 6.03809 49.4966 6.03809 48.9034V43.2619H15.5597V48.9034C15.5597 49.4966 16.0406 49.9775 16.6338 49.9775H20.5236C21.1168 49.9775 21.5977 49.4966 21.5977 48.9034V5.24353C21.5978 4.65034 21.1169 4.16943 20.5237 4.16943ZM15.5597 28.6659H6.03809V24.5902H15.5597V28.6659ZM15.5597 22.442H6.03809V18.3663H15.5597V22.442ZM6.03809 30.8141H15.5597V34.8898H6.03809V30.8141ZM15.5597 12.2452V16.2181H6.03809V12.2452H15.5597ZM6.03809 41.1137V37.038H15.5597V41.1137H6.03809Z" fill="#24408F"/>
<path d="M36.7805 6.03809H1.0741C0.480903 6.03809 0 5.55718 0 4.96399V1.0741C0 0.480903 0.480903 0 1.0741 0H36.7805C37.3737 0 37.8546 0.480903 37.8546 1.0741V4.96399C37.8546 5.55728 37.3737 6.03809 36.7805 6.03809ZM2.14819 3.88989H35.7064V2.14819H2.14819V3.88989Z" fill="#00AEEF"/>
</g>
<defs>
<clipPath id="clip0_3023_35206">
<rect width="50" height="50" fill="white"/>
</clipPath>
</defs>
</svg>
