<svg width="55" height="82" viewBox="0 0 55 82" fill="none" xmlns="http://www.w3.org/2000/svg">
<g clip-path="url(#clip0_3305_56572)">
<path d="M36.5257 32.8222C36.3802 32.8222 36.0893 32.8222 35.9438 32.6775C34.6201 32.2434 33.1509 31.8092 31.8417 31.65C31.6963 31.65 31.5508 31.65 31.4054 31.5053C30.3726 31.3605 29.7907 30.4777 29.9362 29.4647C30.0816 28.4371 30.969 27.8583 31.9872 28.003C32.1327 28.003 32.4236 28.003 32.5691 28.1477C33.2964 28.2924 34.1837 28.4371 34.911 28.5819V18.5092C34.911 17.4816 35.7984 16.6133 36.8166 16.6133C37.8349 16.6133 38.7222 17.4816 38.7222 18.5092V30.9119C38.7222 31.4908 38.4313 32.0842 37.9949 32.3736C37.413 32.6631 36.9621 32.8078 36.5257 32.8078V32.8222Z" fill="#9ADCF5"/>
<path d="M18.3304 32.8234C17.894 32.8234 17.6031 32.6787 17.2976 32.534C16.8612 32.2445 16.5703 31.6656 16.5703 31.0723V18.5248C16.5703 17.4972 17.4431 16.6289 18.4759 16.6289C19.5087 16.6289 20.3815 17.4972 20.3815 18.5248V28.5975C21.1088 28.4528 21.8507 28.308 22.7234 28.1633C22.8689 28.1633 23.1598 28.1633 23.3053 28.0186C24.3381 27.8739 25.2109 28.5975 25.3563 29.4803C25.5018 30.5078 24.7745 31.3762 23.8872 31.5209C23.7417 31.5209 23.5962 31.5209 23.4508 31.6656C21.9816 31.9551 20.6724 32.2445 19.3487 32.6931C18.6214 32.8379 18.4759 32.8379 18.3159 32.8379L18.3304 32.8234Z" fill="#9ADCF5"/>
<path d="M36.6715 28.886C30.9548 26.8454 24.4962 26.7006 18.343 28.886C7.62232 32.6777 0 42.7504 0 54.719C0 69.7412 12.1754 81.9993 27.42 81.9993C42.6646 81.9993 54.9855 69.7412 54.9855 54.5743C54.9855 42.7504 47.2177 32.5475 36.657 28.886H36.6715Z" fill="#9ADCF5"/>
<path d="M39.3048 10.9414C41.2104 10.9414 42.8251 12.5478 42.8251 14.4437V16.4843C42.8251 18.3802 41.2104 19.9866 39.3048 19.9866H15.696C13.7904 19.9866 12.1758 18.3802 12.1758 16.4843V14.4437C12.1758 12.5478 13.7904 10.9414 15.696 10.9414H39.3048Z" fill="#9ADCF5"/>
<path d="M41.0634 0H48.3948L37.9796 10.9411L35.3467 13.7197L27.2734 4.67455L32.2629 0H41.0634Z" fill="#9ADCF5"/>
<path d="M13.4994 0H22.2999L27.2748 4.67455L35.3481 13.7197L35.2026 13.8645H19.3616L19.2161 13.7197L16.5687 10.9411L6.16797 0H13.4994Z" fill="#00AEEF"/>
<path d="M27.5 32.8008C39.6467 32.8008 49.5 42.5944 49.5 54.6674C49.5 66.7405 39.6467 76.5341 27.5 76.5341C15.3533 76.5341 5.5 66.7405 5.5 54.6674C5.5 42.5944 15.3533 32.8008 27.5 32.8008Z" fill="#F7F7F7"/>
<path d="M33.2986 58.2223V61.8693H22.1561V58.2223H25.8218V51.6519C25.2399 52.3755 23.0434 53.5478 21.5742 53.5478V49.756C22.7525 49.756 25.3854 48.0049 25.8218 47.2812H30.0693V58.2223H33.2986Z" fill="#00AEEF"/>
<path d="M27.4212 69.3083C26.3884 69.3083 25.5156 68.44 25.5156 67.4125C25.5156 66.3849 26.3884 65.5166 27.4212 65.5166C33.4289 65.5166 38.4183 60.6973 38.4183 54.5756C38.4183 53.548 39.2911 52.6797 40.3239 52.6797C41.3567 52.6797 42.2295 53.5625 42.2295 54.5756C42.084 62.7524 35.4799 69.3083 27.4212 69.3083Z" fill="white"/>
<path d="M14.6634 56.4703C13.6306 56.4703 12.7578 55.5875 12.7578 54.5744C12.7578 53.4021 12.9033 52.2444 13.1942 51.2168C14.8089 44.6464 20.6711 39.9863 27.4206 39.9863C28.4388 39.9863 29.3262 40.8547 29.3262 41.8822C29.3262 42.9097 28.4388 43.7781 27.4206 43.7781C21.4129 43.7781 16.4235 48.5973 16.4235 54.7191C16.4235 55.5875 15.5362 56.4703 14.6634 56.4703Z" fill="white"/>
</g>
<defs>
<clipPath id="clip0_3305_56572">
<rect width="55" height="82" fill="white"/>
</clipPath>
</defs>
</svg>
