<svg width="86" height="83" viewBox="0 0 86 83" fill="none" xmlns="http://www.w3.org/2000/svg">
<g clip-path="url(#clip0_3305_56583)">
<path d="M84.5605 0H1.43359V8.44376H84.5605V0Z" fill="#00AEEF"/>
<path d="M81.7017 8.44336H4.29688V67.5181H81.7017V8.44336Z" fill="#F7F7F7"/>
<path d="M51.6044 61.8951C50.8157 61.8951 50.1719 61.2711 50.1719 60.4891V56.2712C50.1719 55.4971 50.8157 54.8652 51.6044 54.8652C52.3931 54.8652 53.0369 55.4971 53.0369 56.2712V60.4891C53.0369 61.2711 52.3931 61.8951 51.6044 61.8951Z" fill="#9ADCF5"/>
<path d="M57.3349 61.894C56.5462 61.894 55.9023 61.27 55.9023 60.488V50.6462C55.9023 49.8721 56.5462 49.2402 57.3349 49.2402C58.1236 49.2402 58.7674 49.8721 58.7674 50.6462V60.488C58.7674 61.27 58.1236 61.894 57.3349 61.894Z" fill="#00AEEF"/>
<path d="M63.0653 61.8946C62.2766 61.8946 61.6328 61.2706 61.6328 60.4886V53.4508C61.6328 52.6767 62.2766 52.0527 63.0653 52.0527C63.854 52.0527 64.4979 52.6767 64.4979 53.4508V60.4886C64.4979 61.2706 63.854 61.8946 63.0653 61.8946Z" fill="#9ADCF5"/>
<path d="M68.7917 61.8947C68.003 61.8947 67.3672 61.2707 67.3672 60.4887V43.6091C67.3672 42.835 68.003 42.2031 68.7917 42.2031C69.5804 42.2031 70.2242 42.835 70.2242 43.6091V60.4887C70.2242 61.2707 69.5884 61.8947 68.7917 61.8947Z" fill="#00AEEF"/>
<path d="M74.5302 61.8937C73.7334 61.8937 73.0977 61.2697 73.0977 60.4878V49.24C73.0977 48.4659 73.7334 47.834 74.5302 47.834C75.3269 47.834 75.9547 48.4659 75.9547 49.24V60.4878C75.9547 61.2697 75.3189 61.8937 74.5302 61.8937Z" fill="#9ADCF5"/>
<path d="M28.6682 54.8646H14.3349C13.5462 54.8646 12.9023 54.2406 12.9023 53.4586C12.9023 52.6766 13.5462 52.0605 14.3349 52.0605H28.6682C29.4569 52.0605 30.1007 52.6845 30.1007 53.4586C30.1007 54.2327 29.4569 54.8646 28.6682 54.8646Z" fill="#D1D9E1"/>
<path d="M35.8311 60.4877H14.3271C13.5384 60.4877 12.8945 59.8637 12.8945 59.0897C12.8945 58.3156 13.5384 57.6758 14.3271 57.6758H35.8311C36.6198 57.6758 37.2636 58.2998 37.2636 59.0897C37.2636 59.8795 36.6198 60.4877 35.8311 60.4877Z" fill="#D1D9E1"/>
<path d="M43.0018 30.2453C43.0018 38.4047 36.2657 45.0238 27.9522 45.0238C19.6387 45.0238 12.8945 38.4047 12.8945 30.2453C12.8945 22.0859 19.6306 15.4746 27.9522 15.4746C36.2737 15.4746 43.0018 22.0859 43.0018 30.2453Z" fill="#9ADCF5"/>
<path d="M27.2505 15.4903L27.2344 15.5061V30.8929C27.2344 30.8929 27.2505 30.9482 27.2907 30.9482H42.968L42.9922 30.9245C43.3946 22.2201 36.1193 15.0875 27.2585 15.4824L27.2505 15.4903Z" fill="#EDF9FF"/>
<path d="M67.3696 25.3158H55.9013C55.1126 25.3158 54.4688 24.6918 54.4688 23.9177C54.4688 23.1436 55.1126 22.5117 55.9013 22.5117H67.3696C68.1582 22.5117 68.794 23.1357 68.794 23.9177C68.794 24.6997 68.1582 25.3158 67.3696 25.3158Z" fill="#D1D9E1"/>
<path d="M74.5302 25.3156C74.1519 25.3156 73.7817 25.1656 73.5081 24.9128C73.2506 24.6443 73.0977 24.2809 73.0977 23.9176C73.0977 23.5542 73.2506 23.183 73.5081 22.9144C74.0393 22.3931 75.0131 22.3931 75.5442 22.9144C75.8018 23.183 75.9547 23.5463 75.9547 23.9176C75.9547 24.2888 75.8018 24.6443 75.5442 24.9128C75.2706 25.1656 74.9004 25.3156 74.5302 25.3156Z" fill="#D1D9E1"/>
<path d="M74.5311 18.2865H70.2255C69.4368 18.2865 68.793 17.6625 68.793 16.8884C68.793 16.1143 69.4368 15.4824 70.2255 15.4824H74.5311C75.3198 15.4824 75.9556 16.1064 75.9556 16.8884C75.9556 17.6704 75.3198 18.2865 74.5311 18.2865Z" fill="#D1D9E1"/>
<path d="M58.7666 18.2865H55.8935C55.1048 18.2865 54.4609 17.6625 54.4609 16.8884C54.4609 16.1143 55.1048 15.4824 55.8935 15.4824H58.7666C59.5553 15.4824 60.1991 16.1064 60.1991 16.8884C60.1991 17.6704 59.5553 18.2865 58.7666 18.2865Z" fill="#D1D9E1"/>
<path d="M64.495 18.2863C64.1248 18.2863 63.7466 18.1363 63.481 17.8835C63.2235 17.615 63.0625 17.2516 63.0625 16.8883C63.0625 16.5249 63.2235 16.1537 63.481 15.8851C64.0041 15.3638 64.986 15.3638 65.5091 15.8851C65.7666 16.1537 65.9276 16.5091 65.9276 16.8883C65.9276 17.2516 65.7666 17.615 65.5091 17.8835C65.2354 18.1363 64.8652 18.2863 64.495 18.2863Z" fill="#D1D9E1"/>
<path d="M84.5675 68.933H1.43253C0.643833 68.933 0 68.309 0 67.527C0 66.745 0.643833 66.1289 1.43253 66.1289H84.5594C85.3481 66.1289 85.992 66.7529 85.992 67.527C85.992 68.3011 85.3481 68.933 84.5594 68.933H84.5675Z" fill="#00AEEF"/>
<path d="M42.9989 73.1589C42.2102 73.1589 41.5664 72.527 41.5664 71.745V67.5192C41.5664 66.7451 42.2102 66.1211 42.9989 66.1211C43.7876 66.1211 44.4315 66.7451 44.4315 67.5192V71.745C44.4315 72.5191 43.7876 73.1589 42.9989 73.1589Z" fill="#00AEEF"/>
<path d="M42.9996 82.9998C39.8368 82.9998 37.2695 80.4801 37.2695 77.3759C37.2695 74.2717 39.8368 71.752 42.9996 71.752C46.1625 71.752 48.7298 74.2717 48.7298 77.3759C48.7298 80.4801 46.1625 82.9998 42.9996 82.9998ZM42.9996 74.556C41.4223 74.556 40.1346 75.8198 40.1346 77.368C40.1346 78.9161 41.4223 80.1878 42.9996 80.1878C44.577 80.1878 45.8727 78.924 45.8727 77.368C45.8727 75.8119 44.5851 74.556 42.9996 74.556Z" fill="#00AEEF"/>
</g>
<defs>
<clipPath id="clip0_3305_56583">
<rect width="86" height="83" fill="white"/>
</clipPath>
</defs>
</svg>
