<svg width="67" height="67" viewBox="0 0 67 67" fill="none" xmlns="http://www.w3.org/2000/svg">
<g clip-path="url(#clip0_3305_56603)">
<circle cx="33.5" cy="33.5" r="33.5" fill="#00AEEF"/>
<path d="M0.890625 25.702C4.45633 22.2106 10.3992 19.4249 17.7534 17.7534C19.3877 10.362 22.2106 4.45633 25.702 0.890625C13.482 3.8249 3.8249 13.482 0.890625 25.702Z" fill="#9ADCF5"/>
<path d="M17.1971 46.095C15.86 38.2207 15.86 28.7122 17.1971 20.8379C7.05712 23.3636 0 28.1179 0 33.4664C0 38.815 7.01998 43.5693 17.1971 46.095Z" fill="#9ADCF5"/>
<path d="M49.177 17.7534C56.5684 19.3877 62.4741 22.2106 66.077 25.702C63.1427 13.482 53.4856 3.8249 41.2656 0.890625C44.7199 4.45633 47.5427 10.3992 49.177 17.7534Z" fill="#9ADCF5"/>
<path d="M33.4645 0C28.1531 0 23.3616 7.01998 20.8359 17.1971C28.7102 15.86 38.2559 15.86 46.093 17.1971C43.5673 7.01998 38.813 0 33.4645 0Z" fill="#9ADCF5"/>
<path d="M33.4637 18.9434C28.7837 18.9434 24.2894 19.3891 20.1666 20.1691C18.5695 28.489 18.5695 38.4062 20.1666 46.7261C28.4866 48.3233 38.4037 48.3233 46.7608 46.7261C48.3579 38.369 48.3579 28.489 46.7608 20.1691C42.6751 19.3891 38.1437 18.9434 33.4637 18.9434Z" fill="#9ADCF5"/>
<path d="M66.0399 41.2285C62.4742 44.7199 56.5314 47.5056 49.14 49.1771C47.5057 56.5685 44.6828 62.4742 41.1914 66.077C53.4485 63.1056 63.1056 53.4485 66.0399 41.2285Z" fill="#9ADCF5"/>
<path d="M33.4645 66.9315C38.7759 66.9315 43.5673 59.9115 46.093 49.7344C42.1559 50.4029 37.9216 50.7744 33.4645 50.7744C28.9702 50.7744 24.7359 50.4029 20.8359 49.7344C23.3616 59.9486 28.1159 66.9315 33.4645 66.9315Z" fill="#9ADCF5"/>
<path d="M17.7534 49.1771C10.362 47.5428 4.45633 44.7199 0.890625 41.2285C3.8249 53.4485 13.482 63.1056 25.702 66.0399C22.2106 62.4742 19.4249 56.5313 17.7534 49.1771Z" fill="#9ADCF5"/>
<path d="M49.7695 20.8379C51.1067 28.7122 51.1067 38.2207 49.7695 46.095C59.9095 43.5693 66.9666 38.815 66.9666 33.4664C66.9295 28.1179 59.9466 23.3636 49.7695 20.8379Z" fill="#9ADCF5"/>
</g>
<defs>
<clipPath id="clip0_3305_56603">
<rect width="66.9684" height="66.9312" fill="white"/>
</clipPath>
</defs>
</svg>
