<svg width="68" height="68" viewBox="0 0 68 68" fill="none" xmlns="http://www.w3.org/2000/svg">
<g clip-path="url(#clip0_3305_56622)">
<path fill-rule="evenodd" clip-rule="evenodd" d="M32.0948 67.9995C49.7726 67.9995 64.1896 53.5798 64.1896 35.8988C64.1896 18.2178 49.7601 3.81055 32.0948 3.81055C14.4295 3.81055 0 18.2302 0 35.9112C0 53.5922 14.4171 68.0119 32.0948 68.0119V67.9995Z" fill="#9ADCF5"/>
<path fill-rule="evenodd" clip-rule="evenodd" d="M32.0962 59.7661C45.239 59.7661 55.9456 49.045 55.9456 35.9123C55.9456 22.7797 45.2265 12.0586 32.0962 12.0586C18.966 12.0586 8.23438 22.7672 8.23438 35.9123C8.23438 49.0575 18.9535 59.7661 32.0837 59.7661H32.0962Z" fill="white"/>
<path fill-rule="evenodd" clip-rule="evenodd" d="M32.0956 52.3301C41.1406 52.3301 48.5116 44.9578 48.5116 35.9112C48.5116 26.8645 41.1406 19.4922 32.0956 19.4922C23.0506 19.4922 15.6797 26.8645 15.6797 35.9112C15.6797 44.9578 23.0506 52.3301 32.0956 52.3301Z" fill="#9ADCF5"/>
<path fill-rule="evenodd" clip-rule="evenodd" d="M32.0954 44.3208C36.7303 44.3208 40.5032 40.5472 40.5032 35.9114C40.5032 31.2756 36.7303 27.502 32.0954 27.502C27.4604 27.502 23.6875 31.2756 23.6875 35.9114C23.6875 40.5472 27.4604 44.3208 32.0954 44.3208Z" fill="white"/>
<path fill-rule="evenodd" clip-rule="evenodd" d="M35.1928 31.3252L57.6804 8.83348V6.07199C59.7043 4.04774 61.7282 2.02348 63.7521 0.0117188V4.26016H67.9997C65.9758 6.28441 63.952 8.30867 61.9281 10.3204H59.1671L36.667 32.8122L39.6154 34.7864L32.082 35.911L33.2064 28.3763L35.1803 31.3252H35.1928Z" fill="#00AEEF"/>
</g>
<defs>
<clipPath id="clip0_3305_56622">
<rect width="68" height="68" fill="white"/>
</clipPath>
</defs>
</svg>
