<svg width="66" height="66" viewBox="0 0 66 66" fill="none" xmlns="http://www.w3.org/2000/svg">
<g clip-path="url(#clip0_3305_56615)">
<path d="M53 52.5227C53 41.7404 44.0455 33 33 33C21.9545 33 13 41.7404 13 52.5227C13 53.8908 14.1 55 15.4568 55H50.5409C51.8977 55 52.9977 53.8908 52.9977 52.5227H53Z" fill="#9ADCF5"/>
<path d="M33 31C38.5228 31 43 26.5228 43 21C43 15.4772 38.5228 11 33 11C27.4772 11 23 15.4772 23 21C23 26.5228 27.4772 31 33 31Z" fill="#9ADCF5"/>
<path d="M1.1 11C0.49225 11 0 10.5078 0 9.9V1.1C0 0.49225 0.49225 0 1.1 0H9.9C10.5078 0 11 0.49225 11 1.1C11 1.70775 10.5078 2.2 9.9 2.2H2.2V9.9C2.2 10.5078 1.70775 11 1.1 11Z" fill="#00AEEF"/>
<path d="M9.9 66H1.1C0.49225 66 0 65.5078 0 64.9V56.1C0 55.4923 0.49225 55 1.1 55C1.70775 55 2.2 55.4923 2.2 56.1V63.8H9.9C10.5078 63.8 11 64.2923 11 64.9C11 65.5078 10.5078 66 9.9 66Z" fill="#00AEEF"/>
<path d="M64.9 66H56.1C55.4923 66 55 65.5078 55 64.9C55 64.2923 55.4923 63.8 56.1 63.8H63.8V56.1C63.8 55.4923 64.2923 55 64.9 55C65.5078 55 66 55.4923 66 56.1V64.9C66 65.5078 65.5078 66 64.9 66Z" fill="#00AEEF"/>
<path d="M64.9 11C64.2923 11 63.8 10.5078 63.8 9.9V2.2H56.1C55.4923 2.2 55 1.70775 55 1.1C55 0.49225 55.4923 0 56.1 0H64.9C65.5078 0 66 0.49225 66 1.1V9.9C66 10.5078 65.5078 11 64.9 11Z" fill="#00AEEF"/>
</g>
<defs>
<clipPath id="clip0_3305_56615">
<rect width="66" height="66" fill="white"/>
</clipPath>
</defs>
</svg>
