<svg width="86" height="44" viewBox="0 0 86 44" fill="none" xmlns="http://www.w3.org/2000/svg">
<g clip-path="url(#clip0_3305_56639)">
<path d="M65.1918 41.25C65.1918 29.9991 55.2567 22 42.9982 22C30.7398 22 20.8047 29.9991 20.8047 41.25C20.8047 42.7694 22.0461 44 23.5789 44H62.4176C63.9503 44 65.1918 42.7694 65.1918 41.25Z" fill="#00AEEF"/>
<path d="M42.9987 19.25C48.3612 19.25 52.7084 14.9407 52.7084 9.625C52.7084 4.30926 48.3612 0 42.9987 0C37.6362 0 33.2891 4.30926 33.2891 9.625C33.2891 14.9407 37.6362 19.25 42.9987 19.25Z" fill="#00AEEF"/>
<path d="M86.0009 41.25C86.0009 42.7625 84.7525 44 83.2267 44H67.2196C67.6912 43.1887 67.9686 42.2537 67.9686 41.25C67.9686 34.8287 65.1528 29.2187 60.4922 25.2725C62.3509 24.915 64.3899 24.75 66.5815 24.75C78.8435 24.75 86.0009 30.0025 86.0009 41.25Z" fill="#9ADCF5"/>
<path d="M66.5804 22C71.1768 22 74.903 18.3063 74.903 13.75C74.903 9.19365 71.1768 5.5 66.5804 5.5C61.984 5.5 58.2578 9.19365 58.2578 13.75C58.2578 18.3063 61.984 22 66.5804 22Z" fill="#9ADCF5"/>
<path d="M18.0323 41.25C18.0323 42.2537 18.3097 43.1887 18.7813 44H2.77419C2.01129 44 1.31774 43.6975 0.818387 43.1887C0.305161 42.6938 0 42.0063 0 41.25C0 30.0025 7.15742 24.75 19.4194 24.75C21.611 24.75 23.65 24.915 25.5087 25.2725C20.8481 29.2187 18.0323 34.8287 18.0323 41.25Z" fill="#9ADCF5"/>
<path d="M19.4202 22C24.0167 22 27.7428 18.3063 27.7428 13.75C27.7428 9.19365 24.0167 5.5 19.4202 5.5C14.8238 5.5 11.0977 9.19365 11.0977 13.75C11.0977 18.3063 14.8238 22 19.4202 22Z" fill="#9ADCF5"/>
</g>
<defs>
<clipPath id="clip0_3305_56639">
<rect width="86" height="44" fill="white"/>
</clipPath>
</defs>
</svg>
