<svg width="86" height="83" viewBox="0 0 86 83" fill="none" xmlns="http://www.w3.org/2000/svg">
<g clip-path="url(#clip0_3305_56628)">
<path d="M84.5605 0H1.43359V8.44376H84.5605V0Z" fill="#00AEEF"/>
<path d="M81.7017 8.44336H4.29688V67.5181H81.7017V8.44336Z" fill="#F7F7F7"/>
<path d="M84.5675 68.933H1.43253C0.643833 68.933 0 68.309 0 67.527C0 66.745 0.643833 66.1289 1.43253 66.1289H84.5594C85.3481 66.1289 85.992 66.7529 85.992 67.527C85.992 68.3011 85.3481 68.933 84.5594 68.933H84.5675Z" fill="#00AEEF"/>
<path d="M42.9989 73.1589C42.2102 73.1589 41.5664 72.527 41.5664 71.745V67.5192C41.5664 66.7451 42.2102 66.1211 42.9989 66.1211C43.7876 66.1211 44.4315 66.7451 44.4315 67.5192V71.745C44.4315 72.5191 43.7876 73.1589 42.9989 73.1589Z" fill="#00AEEF"/>
<path d="M42.9996 82.9998C39.8368 82.9998 37.2695 80.4801 37.2695 77.3759C37.2695 74.2717 39.8368 71.752 42.9996 71.752C46.1625 71.752 48.7298 74.2717 48.7298 77.3759C48.7298 80.4801 46.1625 82.9998 42.9996 82.9998ZM42.9996 74.556C41.4223 74.556 40.1346 75.8198 40.1346 77.368C40.1346 78.9161 41.4223 80.1878 42.9996 80.1878C44.577 80.1878 45.8727 78.924 45.8727 77.368C45.8727 75.8119 44.5851 74.556 42.9996 74.556Z" fill="#00AEEF"/>
</g>
<path d="M70.3009 25.2109H57.7656V46.0712H70.3009V25.2109Z" fill="#9ADCF5"/>
<path d="M49.4102 25.2109H36.875V46.0712H49.4102V25.2109Z" fill="#9ADCF5"/>
<path d="M28.5352 25.2109H16V46.0712H28.5352V25.2109Z" fill="#9ADCF5"/>
<defs>
<clipPath id="clip0_3305_56628">
<rect width="86" height="83" fill="white"/>
</clipPath>
</defs>
</svg>
