<svg width="110" height="110" viewBox="0 0 110 110" fill="none" xmlns="http://www.w3.org/2000/svg">
<rect width="110" height="110" fill="white"/>
<g clip-path="url(#clip0_125_27)">
<path d="M43.5632 73.3868L23.5078 79.9023L26.1057 87.9445L46.1611 81.429L43.5632 73.3868Z" fill="#B4B4B5"/>
<path d="M89.0991 116.341C89.0991 122.622 84.8399 128.035 78.1258 128.05L31.6149 128.117C24.9081 128.124 19.1035 122.726 19.0961 116.445L19 47.4068C18.9926 41.1259 24.775 36.8398 31.4892 36.8324L78.0075 36.7656C84.7142 36.7582 89.003 41.0221 89.0104 47.303L89.1139 116.341H89.0991Z" fill="#9ADCF5"/>
<path d="M80.5364 122.333L29.5371 122.326L29.4336 48.7124L80.4255 48.6309L80.5364 122.333Z" fill="#24408F"/>
<path d="M82.9996 44.9275L25.7891 45.0176L25.9054 119.313L83.116 119.223L82.9996 44.9275Z" fill="white"/>
<path d="M42.099 58.782C42.099 61.8001 39.6662 64.2472 36.6641 64.2546C33.6546 64.2546 31.2144 61.8149 31.207 58.7968C31.207 55.7787 33.6398 53.3316 36.6419 53.3242C39.6515 53.3242 42.0916 55.7639 42.099 58.7746" fill="#EFF0F2"/>
<path d="M42.1224 73.2351C42.1224 76.2532 39.6897 78.7003 36.6802 78.7077C33.6706 78.7077 31.2305 76.268 31.2305 73.2499C31.2305 70.2319 33.6632 67.7848 36.6728 67.7773C39.6823 67.7773 42.1224 70.217 42.1298 73.2351" fill="#EFF0F2"/>
<path d="M42.1459 88.0437C42.1459 91.0618 39.7131 93.5089 36.7036 93.5163C33.7015 93.5163 31.2539 91.0766 31.2539 88.0585C31.2539 85.0405 33.6867 82.5934 36.6888 82.5859C39.6983 82.5859 42.1385 85.0256 42.1459 88.0437Z" fill="#EFF0F2"/>
<path d="M63.455 32.0129C61.4511 29.9736 58.0201 26.9926 54.1306 27C50.2411 27 46.8175 29.9959 44.821 32.0425H37.8555L37.8777 47.7262H71.1821L71.1599 31.998H63.4476L63.455 32.0129Z" fill="#3D414A"/>
<path d="M56.8006 32.9246C56.8006 34.1926 55.7802 35.216 54.5232 35.216C53.2587 35.216 52.2383 34.1926 52.2383 32.932C52.2383 31.6714 53.2587 30.6406 54.5158 30.6406C55.7802 30.6406 56.8006 31.664 56.8006 32.9246Z" fill="white"/>
<path d="M75.7137 55.2676H46.4688V61.2296H75.7137V55.2676Z" fill="#EFF0F2"/>
<path d="M75.7137 70.2617H46.4688V76.2237H75.7137V70.2617Z" fill="#EFF0F2"/>
<path d="M75.7137 85.0859H46.4688V91.048H75.7137V85.0859Z" fill="#EFF0F2"/>
<path d="M75.7134 98.4629H33.1289V112.485H75.7134V98.4629Z" fill="#EFF0F2"/>
<path d="M75.1689 42.2168H33.8711V49.788H75.1689V42.2168Z" fill="#A6ABB7"/>
</g>
<defs>
<clipPath id="clip0_125_27">
<rect width="71" height="83" fill="white" transform="translate(19 27)"/>
</clipPath>
</defs>
</svg>
