<svg width="24" height="24" viewBox="0 0 24 24" fill="none" xmlns="http://www.w3.org/2000/svg">
<g clip-path="url(#clip0_3340_62063)">
<path d="M18.8783 10.75H17.9383V7.94C17.9383 4.66 15.2783 2 11.9983 2C8.71828 2 6.05828 4.66 6.05828 7.94V10.75H5.11828C4.07828 10.75 3.23828 11.59 3.23828 12.63V20.13C3.23828 21.17 4.07828 22.01 5.11828 22.01H18.8683C19.9083 22.01 20.7483 21.17 20.7483 20.13V12.63C20.7483 11.59 19.9083 10.75 18.8683 10.75H18.8783ZM14.8183 10.75H9.19828V7.94C9.19828 6.39 10.4583 5.13 12.0083 5.13C13.5583 5.13 14.8183 6.39 14.8183 7.94V10.75Z" fill="#A6ABB7"/>
</g>
<defs>
<clipPath id="clip0_3340_62063">
<rect width="24" height="24" fill="white"/>
</clipPath>
</defs>
</svg>
