<svg width="24" height="19" viewBox="0 0 24 19" fill="none" xmlns="http://www.w3.org/2000/svg">
<g clip-path="url(#clip0_3053_28867)">
<path d="M0.22801 16.8486L10.8514 0.623053C11.1067 0.232933 11.5362 0 12 0C12.4639 0 12.8933 0.232933 13.1487 0.623053L23.772 16.8486C24.0514 17.2752 24.0757 17.82 23.8353 18.2702C23.5949 18.7204 23.1305 19 22.6234 19H1.3764C0.869299 19 0.40486 18.7204 0.164448 18.2702C-0.0759659 17.82 -0.0516701 17.2752 0.227728 16.8486H0.22801ZM22.59 17.5947L12 1.42009L1.41002 17.5947H22.59Z" fill="#3D414A"/>
<path d="M11.8157 15.7186C11.3352 15.518 11.1071 14.9628 11.3061 14.4786C11.5051 13.9943 12.0559 13.7643 12.5363 13.9649C13.0168 14.1655 13.2449 14.7207 13.0459 15.205C12.8469 15.6893 12.2961 15.9192 11.8157 15.7186Z" fill="#3D414A"/>
<path d="M13.288 6.8443L12.8848 12.4709C12.7975 13.3508 11.5551 13.3545 11.4661 12.4709L11.0629 6.8443C11.0596 6.79304 11.0593 6.73495 11.0629 6.68227C11.2285 5.1981 13.3366 5.35358 13.2882 6.8443H13.288Z" fill="#3D414A"/>
</g>
<defs>
<clipPath id="clip0_3053_28867">
<rect width="24" height="19" fill="white" transform="matrix(-1 0 0 1 24 0)"/>
</clipPath>
</defs>
</svg>
