<svg width="13" height="16" viewBox="0 0 13 16" fill="none" xmlns="http://www.w3.org/2000/svg">
<g clip-path="url(#clip0_3627_44114)">
<path d="M6.31426 3.37148C5.77737 3.37148 5.25663 3.43849 4.75931 3.56524V2.36795C4.75931 2.3405 4.75608 2.31386 4.75043 2.28641C4.65112 0.972046 3.62822 0 2.38006 0C1.1319 0 0.107377 0.972046 0.00888081 2.28641C0.00322939 2.31305 0 6.7801 0 6.7801V9.68574C0 9.70592 0 9.72611 0 9.74629C0.0331012 13.2058 2.8467 16 6.31345 16C9.7802 16 12.6277 13.1727 12.6277 9.68574C12.6277 6.19881 9.80119 3.37148 6.31426 3.37148ZM6.31426 15.0304C3.3626 15.0304 0.969624 12.6374 0.969624 9.68574V2.41477C0.969624 1.62923 1.60097 0.992229 2.37925 0.992229C3.15753 0.992229 3.78888 1.62842 3.78888 2.41477L3.78646 9.62277C3.78646 11.0203 4.91674 12.2176 6.31426 12.2176C7.71178 12.2176 8.84448 11.0841 8.84448 9.68655C8.84448 8.28903 7.71178 7.15551 6.31426 7.15551C5.72732 7.15551 5.18801 7.35574 4.75931 7.68998V6.60652C5.22676 6.36997 5.75477 6.23595 6.31426 6.23595C8.2196 6.23595 9.76405 7.7804 9.76405 9.68574C9.76405 11.5911 8.2196 13.1355 6.31426 13.1355C4.40892 13.1355 2.86447 11.5911 2.86447 9.68574V2.36795C2.86447 2.13059 2.64729 1.90534 2.37925 1.90534C2.11121 1.90534 1.89404 2.13059 1.89404 2.36795V9.68574C1.89404 9.79715 1.89969 9.90615 1.90776 10.0151C2.0765 12.3015 3.98426 14.1052 6.31426 14.1052C8.64426 14.1052 10.7337 12.1263 10.7337 9.68574C10.7337 7.24513 8.75487 5.26632 6.31426 5.26632C5.76688 5.26632 5.24291 5.36643 4.75931 5.54809V4.5712C5.25179 4.42184 5.77334 4.3411 6.31426 4.3411C9.26592 4.3411 11.6581 6.73408 11.6581 9.68574C11.6581 12.6374 9.26511 15.0304 6.31426 15.0304ZM4.75931 9.68574C4.75931 8.82672 5.45524 8.13079 6.31426 8.13079C7.17328 8.13079 7.86921 8.82672 7.86921 9.68574C7.86921 10.5448 7.17328 11.2407 6.31426 11.2407C5.45524 11.2407 4.75931 10.5448 4.75931 9.68574Z" fill="white"/>
</g>
<defs>
<clipPath id="clip0_3627_44114">
<rect width="12.6285" height="16" fill="white"/>
</clipPath>
</defs>
</svg>
