<svg width="16" height="16" viewBox="0 0 16 16" fill="none" xmlns="http://www.w3.org/2000/svg">
<g clip-path="url(#clip0_3627_44109)">
<path d="M11.4458 16H4.5542C2.04346 16 0 13.9576 0 11.4458V4.5542C0 2.04245 2.04245 0 4.5542 0H11.4468C13.9576 0 16.001 2.04245 16.001 4.5542V11.4468C16.001 13.9576 13.9586 16.001 11.4468 16.001L11.4458 16ZM4.5542 1.37143C2.79962 1.37143 1.37143 2.79861 1.37143 4.5542V11.4468C1.37143 13.2014 2.79861 14.6296 4.5542 14.6296H11.4468C13.2014 14.6296 14.6296 13.2024 14.6296 11.4468V4.5542C14.6296 2.79962 13.2024 1.37143 11.4468 1.37143H4.5542Z" fill="white"/>
<path d="M8.00037 12.0965C5.74101 12.0965 3.90332 10.2588 3.90332 7.9994C3.90332 5.74004 5.74101 3.90234 8.00037 3.90234C10.2597 3.90234 12.0974 5.74004 12.0974 7.9994C12.0974 10.2588 10.2597 12.0965 8.00037 12.0965ZM8.00037 5.27479C6.49717 5.27479 5.27475 6.49721 5.27475 8.00041C5.27475 9.50361 6.49717 10.726 8.00037 10.726C9.50357 10.726 10.726 9.50361 10.726 8.00041C10.726 6.49721 9.50357 5.27479 8.00037 5.27479Z" fill="white"/>
<path d="M13.2585 3.66782C13.2585 4.21213 12.8176 4.65204 12.2743 4.65204C11.731 4.65204 11.29 4.21112 11.29 3.66782C11.29 3.12452 11.731 2.68359 12.2743 2.68359C12.8176 2.68359 13.2585 3.12452 13.2585 3.66782Z" fill="white"/>
</g>
<defs>
<clipPath id="clip0_3627_44109">
<rect width="16" height="16" fill="white"/>
</clipPath>
</defs>
</svg>
