<svg width="19" height="16" viewBox="0 0 19 16" fill="none" xmlns="http://www.w3.org/2000/svg">
<path d="M18.3751 3.27662C18.3751 3.27662 18.1939 1.78801 17.6356 1.13438C16.9287 0.274106 16.1385 0.269889 15.776 0.219284C13.1805 -1.2065e-07 9.28363 0 9.28363 0H9.27637C9.27637 0 5.3795 -1.2065e-07 2.784 0.219284C2.4215 0.269889 1.63125 0.274106 0.924375 1.13438C0.366125 1.78801 0.1885 3.27662 0.1885 3.27662C0.1885 3.27662 0 5.02668 0 6.77252V8.40872C0 10.1546 0.184875 11.9046 0.184875 11.9046C0.184875 11.9046 0.366125 13.3932 0.92075 14.0469C1.62762 14.9071 2.55563 14.8776 2.96888 14.9704C4.45512 15.1348 9.28 15.1855 9.28 15.1855C9.28 15.1855 13.1805 15.177 15.776 14.962C16.1385 14.9113 16.9287 14.9071 17.6356 14.0469C18.1939 13.3932 18.3751 11.9046 18.3751 11.9046C18.3751 11.9046 18.56 10.1588 18.56 8.40872V6.77252C18.56 5.02668 18.3751 3.27662 18.3751 3.27662ZM7.36238 10.3949V4.32665L12.3757 7.37133L7.36238 10.3949Z" fill="white"/>
</svg>
